<?xml version="1.0" standalone="no"?>
<!DOCTYPE svg PUBLIC "-//W3C//DTD SVG 1.1//EN" "http://www.w3.org/Graphics/SVG/1.1/DTD/svg11.dtd" >
<svg xmlns="http://www.w3.org/2000/svg" xmlns:xlink="http://www.w3.org/1999/xlink" version="1.1">
<metadata>
Created by FontForge 20201107 at Fri Oct 21 15:18:05 2022
 By 
Animal Chariot Demo Version (c) Timur Type Studio. 2022. All Rights Reserved
</metadata>
<defs>
<font id="AnimalChariot" horiz-adv-x="500" >
  <font-face 
    font-family="Animal Chariot"
    font-weight="400"
    font-stretch="normal"
    units-per-em="2048"
    panose-1="2 0 5 0 0 0 0 0 0 0"
    ascent="1638"
    descent="-410"
    x-height="778"
    cap-height="1476"
    bbox="-650 -347 1696 1656"
    underline-thickness="150"
    underline-position="-292"
    unicode-range="U+001D-2212"
  />
<missing-glyph 
 />
    <glyph glyph-name=".notdef" 
 />
    <glyph glyph-name=".null" 
 />
    <glyph glyph-name=".null" 
 />
    <glyph glyph-name="nonmarkingreturn" 
 />
    <glyph glyph-name="space" unicode=" " horiz-adv-x="449" 
 />
    <glyph glyph-name="space" unicode="&#xa0;" horiz-adv-x="449" 
 />
    <glyph glyph-name="exclam" unicode="!" horiz-adv-x="537" 
d="M166 274q-10 4 -18.5 10.5t-11.5 12.5q-1 3 -1 7q0 5 1 9q4 11 17.5 46.5t28.5 72.5q7 17 20 47.5t26 60.5t21 47q5 11 14.5 33t19.5 45q13 31 21 49l16 36q4 9 10 21q4 9 9 20q5 12 8 19q11 24 25 55q3 6 6 11q4 9 9 21q4 8 7 15l23.5 47t27.5 54q26 49 39.5 74.5
t25.5 47.5l7 14t8 15q2 4 4 7q4 8 8.5 16.5t8.5 14.5q8 16 22 41.5t26 45.5q2 5 4 8q2 5 6 11.5t8 13.5q2 4 5 8q5 10 15 28q7 12 13 24l22 40q17 31 32 58q10 17 20.5 37.5t14.5 31.5q4 9 7 14t7 7q4 3 11 3q9 0 21 -6q18 -10 33.5 -26t20.5 -33q2 -4 2 -9q0 -6 -3 -13
q-13 -32 -64 -123q-5 -9 -11.5 -20.5t-10.5 -19.5q-7 -13 -13 -23q-1 -3 -2 -5q-70 -124 -112 -202l-13 -24q-5 -9 -8 -16q-4 -7 -8.5 -15.5t-7.5 -14.5q-4 -7 -8.5 -15.5t-7.5 -14.5q-4 -7 -10.5 -19.5t-13.5 -25.5q-17 -34 -29 -55.5t-24 -43.5q-7 -12 -16 -28t-16 -29
q-8 -14 -15 -27q-4 -7 -6 -11q-16 -28 -44 -79.5t-47 -85.5q-18 -34 -47 -91.5t-56 -111.5t-39 -79q-7 -16 -11 -23t-7 -9t-8 -2q-7 0 -12 1zM43 -140q-6 2 -14.5 7t-15.5 13q-11 10 -12 16t-1 9q0 8 3 20q2 6 5.5 17.5t7 22t5.5 13.5q4 9 11 18t13 12q1 1 2.5 1.5t3.5 1
t7 0.5q7 0 11 -1.5t13 -5.5q13 -6 25.5 -16.5t19.5 -20.5t7 -18q0 -5 -2 -9q-3 -7 -11 -16.5t-19 -18.5q-17 -15 -35 -33q-4 -4 -7 -6.5t-4 -3.5q-2 -1 -6 -1.5t-7 -0.5z" />
    <glyph glyph-name="quotedbl" unicode="&#x22;" horiz-adv-x="402" 
d="M167 1216q-8 -3 -19 -3h-5q-21 1 -25 18q-6 21 -15 102q-3 23 -3 32v14v10q1 35 24 39q8 2 17 2q6 0 12 -1q15 -2 24 -8q15 -7 15 -41q0 -17 -4 -41q-2 -20 -4 -45.5t-3 -43.5q-1 -19 -3.5 -25.5t-10.5 -8.5zM277 1216q-8 -3 -19 -3h-5q-22 1 -25 18q-6 21 -15 102
q-3 23 -3.5 32t-0.5 14v10q2 35 25 39q8 2 16 2q6 0 12 -1q16 -2 25 -8q15 -7 15 -41q0 -17 -4 -41q-2 -20 -4.5 -45.5t-2.5 -43.5q-1 -19 -4 -25.5t-10 -8.5z" />
    <glyph glyph-name="numbersign" unicode="#" horiz-adv-x="1184" 
d="M436 -34q-9 3 -17.5 10.5t-11.5 14.5q-1 5 -1 8q2 7 16.5 40.5t34.5 75.5q13 27 38.5 78.5t45.5 89.5q12 22 20 38t13.5 26.5t8.5 16.5t4.5 9.5t2 5t0.5 2.5v3t-0.5 2t-1.5 1q0 1 -1.5 1.5t-4 0.5h-8.5t-15.5 -1t-24 -2t-35.5 -3t-50 -4l-27 -3q-14 -1 -21 -1
q-69 -7 -75 -8q-3 0 -4.5 -1.5t-4.5 -3.5q-1 -2 -2.5 -3.5t-3.5 -5.5t-6.5 -12t-11.5 -21.5t-18 -33.5q-2 -4 -5 -9q-30 -57 -34 -62q-4 -7 -10 -8q-2 -1 -5 -1q-5 0 -11 3q-10 4 -17 11q-8 7 -8 13v3q0 2 3 9t7 16q20 44 28.5 63.5t9.5 21.5q1 3 1 4q0 2 -1 3q-1 2 -4 4
q-1 0 -2 0.5t-3 0.5t-5.5 -0.5t-9.5 -0.5q-42 -4 -62 -4q-10 0 -15 1q-16 2 -25 21q-7 13 -7 28q0 4 0.5 6t1.5 4q2 4 5 6.5t12 4.5t26 6q36 7 109 15q10 1 16 2t8.5 2.5t4.5 4.5q1 1 7.5 14t14.5 30t15 31t9 19q1 1 3 5.5t5 10.5q2 5 5 10q8 17 13.5 27.5t8 16t3 8t0.5 4.5
t-0.5 3.5t-1.5 1.5q-1 1 -2.5 1.5t-4 0.5h-8.5q-5 0 -17 -1t-25 -1q-85 -7 -128 -7q-28 0 -39 3q-8 2 -13 4t-9 6q-12 13 -15.5 28.5t-3.5 22.5q0 10 3 17q4 8 14 10q43 8 222 18q12 0 26 1h8q5 1 12 1q10 0 16 1q10 0 15 1t8 3q2 1 4 3.5t5 8.5t9 16q9 18 16.5 31.5
t19.5 33.5t35 58q11 18 20 33q4 7 6 10q16 28 29 33q4 2 10 2q15 0 40 -16q7 -5 14.5 -12.5t10.5 -12.5q5 -9 5 -20q0 -13 -9 -29q-4 -7 -18.5 -31.5t-29.5 -49t-20 -33.5q-8 -11 -8 -17t7 -6h8q12 0 43 1q28 1 54 2h20q40 1 61.5 2t30.5 1.5t10 1.5q3 0 6 2.5t7 8t10 16.5
q11 18 27.5 43t46.5 70q4 6 8 11q16 24 25.5 38t18 25.5t20.5 28.5q26 36 39.5 52t20.5 19q2 1 4.5 1.5t6.5 0.5t6 -0.5t6 -2.5q10 -5 22 -19q10 -12 12 -21q1 -4 1 -10q0 -26 -29 -79q-12 -22 -28.5 -48t-50.5 -78l-10 -14q-7 -10 -11.5 -17t-5.5 -9q-3 -6 -3 -9q0 -2 1 -4
q2 -1 4 -1.5t6 -1t12 -0.5t21 1h23.5h12.5t6 -0.5t3 -0.5q7 -3 10.5 -12t3.5 -18v-5q-2 -19 -14 -22q-5 -2 -85 -8q-18 -1 -31.5 -2t-16.5 -2q-5 0 -9 -2.5t-8 -8.5q-5 -6 -22.5 -32.5t-39 -59t-37.5 -56.5q-9 -14 -15.5 -23.5t-9.5 -15t-4.5 -8.5t-1.5 -5q0 -1 1 -2
q1 -2 2.5 -3t4.5 -1.5t9.5 -0.5h17.5q47 0 89.5 -1.5t52.5 -2.5q9 -2 13 -12q3 -10 3 -20v-5q-2 -15 -14 -17q-2 -1 -13 -1.5t-25 -0.5q-37 -1 -92 -3.5t-83 -5.5q-9 0 -14 -2t-8 -7q-3 -4 -14.5 -22t-25.5 -40.5t-24 -39.5q-94 -157 -160 -284q-3 -5 -5 -10
q-6 -10 -9.5 -17t-4.5 -8q-2 -3 -5.5 -4.5t-6.5 -1.5q-1 0 -3.5 0.5t-4.5 1.5zM414 457q89 7 191 9q2 1 4 1q20 1 24 2q3 1 7 6t11 18q23 40 46.5 82t38.5 68q6 9 8.5 13.5t3 7t0.5 4.5q0 4 -3 5t-8 1t-13 -1q-28 -2 -89 -8t-118 -13h-2q-11 -1 -16.5 -2.5t-9.5 -6
t-11 -14.5q0 -1 -1 -2q-19 -28 -40 -61t-37.5 -59.5t-21.5 -35.5q-2 -5 -2 -8q0 -4 4 -6h34z" />
    <glyph glyph-name="dollar" unicode="$" horiz-adv-x="968" 
d="M257 -41q-17 4 -31 18q-6 6 -7 10.5t-1 5.5q0 6 2 15q7 32 24 79q2 4 3 8q5 14 8 22t4.5 13t2 7.5t0.5 3.5t-1 2v1q-1 2 -4.5 3.5t-12.5 3.5q-47 9 -76 22q-26 12 -43 32q-15 21 -20 39t-5 27q0 8 3 13q3 3 6 3q4 0 9 -5q9 -7 16 -26l2.5 -5t2.5 -4q9 -11 43.5 -16.5
t68.5 -5.5h19q32 1 60 6t61 15q61 17 118 45q18 9 31 16.5t30 18.5q21 14 34 25t24 24q11 12 16.5 21t8.5 19q2 7 2 12q0 7 -3 12q-11 19 -52 52q-19 13 -47 29t-57 30q-11 5 -20 8.5t-26 9.5q-21 8 -32 12t-20 6q-6 2 -11.5 3.5t-7.5 2.5q-5 2 -17 5.5t-25 7.5t-19 5
q-13 4 -39 11.5t-43 13.5q-16 6 -32 13.5t-27 14.5q-44 30 -66 85q-8 20 -8 36q0 5 1 10q2 16 4.5 25t8.5 20q3 7 9.5 16.5t11.5 15.5q3 4 9.5 11t12.5 14t8 9q105 95 281 174q7 3 13 6l8 4q3 2 4.5 6.5t4.5 14.5q8 29 18.5 59.5t18.5 49.5q32 80 59 95q5 2 10 2q9 0 21 -5
q20 -8 34 -25q7 -9 7 -19v-3q-1 -11 -12 -35q-7 -16 -14 -30.5t-17 -32.5q-6 -11 -8.5 -16.5t-3.5 -8t-1 -4.5v-2.5t0.5 -1l1.5 -1.5t2 -1t3 0.5t5.5 1t9.5 2.5h4q40 10 92 15q9 1 18 1q14 0 28 -2q23 -2 40 -8q15 -5 25 -13.5t20 -22.5q7 -10 11 -16.5t8 -15.5
q5 -14 7 -25.5t2 -18.5v-4q-4 -21 -36 -40q-7 -4 -13 -4q-3 0 -5 1q-3 1 -6.5 5t-6.5 8q-4 10 -4 19q0 5 1 10v9q0 2 -0.5 3t-2.5 2q-1 2 -4.5 2.5t-10.5 0.5h-20q-74 0 -177 -34q-168 -57 -301 -153q-19 -14 -30.5 -23.5t-30.5 -27.5q-14 -14 -26.5 -29t-15.5 -23
q-1 -2 -1 -4q0 -4 2 -6q3 -4 13 -8q26 -13 59 -23q8 -3 16.5 -5.5t13.5 -4.5q5 -1 10.5 -3t10.5 -3q1 -1 2 -1q29 -8 67 -21t63 -23q69 -28 122 -60q10 -6 26.5 -17.5t24.5 -18.5q47 -38 73 -77q37 -60 37 -107v-7q-1 -9 -2.5 -18t-4.5 -16q-3 -10 -10 -22t-14 -21
q-10 -13 -27 -27.5t-34 -26.5q-108 -68 -240 -85q-1 0 -3 -1q-3 0 -5 -1t-5 -3.5t-4 -5.5q-8 -20 -31 -59q-24 -41 -44 -79q-5 -11 -9.5 -19.5t-5.5 -10.5q-5 -9 -15 -9q-3 0 -7 1z" />
    <glyph glyph-name="percent" unicode="%" horiz-adv-x="935" 
d="M151 119q-14 5 -28.5 18.5t-20.5 27.5q-1 2 -1.5 4t-0.5 5v9q0 11 1.5 18.5t5.5 19.5q31 81 180 260l6 6q3 3 5 6t5 6q4 5 8 9q3 5 14 17t22 24.5t15 17.5q2 2 7 8t11 12q6 7 13 14q4 5 6 8l7 7t6 7q9 10 24.5 26.5t27.5 30.5l10.5 10.5t11.5 13.5l14 14q7 8 12 13
q6 7 15 17t16 18q5 5 9 10q6 6 11 11.5t8 8.5q10 11 18 20q23 25 40 43q7 8 15 17q7 9 12 14q4 4 9 9.5t8 9.5l8 10l5 5q10 12 24.5 30t25.5 33t22 32.5t16 27.5q9 20 9 31q0 4 -1 6q-4 8 -28 17q-32 12 -82 14q-11 1 -22 1t-22 -1q-22 -1 -51 -5q-36 -4 -75 -12.5
t-71 -19.5q-12 -5 -18.5 -7.5t-9.5 -5.5t-5 -8q-1 -3 -3 -6.5t-4 -5.5q-3 -4 -3 -6.5v-3.5q0 -4 2 -12q3 -16 4.5 -25t1.5 -24q0 -12 -0.5 -18t-1.5 -15q-5 -34 -18 -68q-8 -20 -15.5 -36t-18.5 -35q-23 -40 -52 -74t-54 -52q-7 -5 -16 -9.5t-16 -6.5q-5 -1 -11 -1
q-23 0 -51 24q-8 7 -13.5 13.5t-11.5 14.5q-7 11 -10.5 20.5t-5.5 22.5q-1 9 -1 20q0 43 23 110q21 60 64 123q80 116 140 122h5q4 0 8 -1q5 -1 15 -6q7 -3 10 -4t5 -1h4q4 1 12 4q44 17 117 32q81 15 144 15q28 0 53 -3q30 -4 50 -11t36 -20q19 -14 34 -45q6 -10 8.5 -19
t4.5 -19q2 -11 2 -22q0 -16 -4 -32q-16 -64 -86 -155q-25 -33 -41 -52q-23 -28 -42.5 -50.5t-27.5 -30.5q-2 -2 -5 -5.5t-7 -7.5l-5 -5l-18 -20q-53 -59 -65 -71q-4 -5 -10 -11l-10 -10q-4 -6 -11 -13.5t-14 -14.5l-16 -18l-8 -8q-4 -5 -9.5 -11t-9.5 -11q-47 -51 -72 -79
t-59 -67q-54 -64 -95 -116q-6 -8 -13 -17.5t-12 -17t-7 -9.5q-1 -3 -1 -6v-3q2 -3 8 -9q18 -15 18 -27q0 -4 -2 -8q-6 -6 -18.5 -14.5t-22.5 -10.5q-5 -2 -10 -2t-9 2zM644 107q-22 6 -44.5 22t-35.5 34q-3 5 -8 14t-9 17q-14 32 -15 80v9q0 32 6 63q8 36 27 84q4 10 12 26
t15 27q6 11 14.5 24t16.5 22q29 37 58 37h6q11 -1 19.5 -4t19.5 -10l7.5 -4.5t5 -2t7.5 -0.5h6t4 -1t5 -2q9 -5 19.5 -16.5t17.5 -22.5q15 -31 17 -88v-12q0 -50 -15 -106q-11 -47 -31 -88q-46 -91 -94 -103h-16q-9 0 -15 1zM638 180q11 5 24.5 16.5t24.5 25.5q66 86 74 222
q0 15 -0.5 25.5t-1.5 14.5q-2 4 -7 4l-4 -1q-5 0 -9 -2.5t-11 -10.5q-11 -10 -20 -22t-20 -30q-35 -58 -54 -134q-12 -45 -12 -76q0 -7 1 -13q1 -21 9 -21q3 0 6 2zM193 747q13 7 31 21.5t32 29.5q70 75 92 159q3 13 4.5 22t1.5 21q0 13 -1 18.5t-4 6.5q0 1 -1 1t-2 -0.5
t-2 -1.5q-4 -2 -14.5 -13t-22.5 -24q-41 -49 -73.5 -104.5t-47.5 -102.5q-2 -7 -4 -13.5t-2 -9.5q-1 -4 -1 -6q0 -7 5 -7q4 0 9 3z" />
    <glyph glyph-name="ampersand" unicode="&#x26;" horiz-adv-x="1413" 
d="M341 -158q-13 5 -21.5 13.5t-8.5 16.5q0 5 19 55q0 2 1 3q8 21 13.5 35.5t9 23.5t5 14.5t2 7.5t0.5 3l-1 1q0 1 -1 2l-2 3l-26 -1q-37 0 -62.5 3.5t-50.5 11.5q-43 15 -73 46q-8 8 -15.5 18.5l-12.5 17.5q-17 30 -17 64q0 9 1 17q1 10 5 24.5t8 25.5q30 74 114 168
q15 17 41 44t45 44q45 42 81 72q17 13 27 21l20 16q5 4 12 10q98 76 196 139q11 6 19 11.5t10 6.5q5 4 5 6q0 1 -1 2t-5 1h-5q-7 0 -19 -2q-27 -4 -49 -5t-46 -1q-21 0 -32 1.5t-20 4.5q-35 11 -58 37q-23 27 -32 49q-3 8 -5 15t-2 15v11t1 9q15 64 134 177q155 145 338 244
q17 8 35 17t29 14q1 0 1 1q11 4 16 7t7.5 7.5t6.5 15.5q1 3 4 9q4 14 11 29q1 5 3 10q4 9 6 15.5t3 8.5q4 12 13.5 35.5t16.5 37.5t13.5 24.5t10.5 13.5q6 6 15 6q5 0 11 -2q15 -5 29 -16.5t19 -24.5q1 -4 1 -11q0 -8 -2 -15q-7 -28 -31 -68q-5 -9 -8 -14.5t-4.5 -8.5
t-2 -4.5t-0.5 -2.5q0 -6 10 -6q4 0 9 1q11 2 29 2t28 -1q25 -3 44 -12q6 -3 16 -9t17 -12q17 -14 35 -37.5t28 -45.5q4 -10 7 -23t4 -23v-6q0 -30 -17 -69q-12 -28 -33 -59.5t-59 -78.5q-14 -17 -21 -26q-2 -3 -2 -4q-6 -8 -13 -8q-4 0 -9 3q-6 4 -12.5 10t-9.5 11
q-2 5 -2 9t3 10.5t9 17.5q36 61 54 107q5 12 9.5 24.5t6.5 20.5q7 27 9 47t2 28q0 11 -2 16t-7.5 7t-19.5 3q-5 1 -12 1q-13 0 -30 -3q-25 -3 -51 -10q-65 -17 -144 -57q-168 -86 -323 -224q-44 -40 -79 -79t-48 -62q-2 -4 -2 -6q0 -5 8 -6h7q14 0 42 2q39 4 79 10
q7 1 15.5 2.5t16.5 2.5q3 1 5 1q55 8 71 10q4 0 7 1q8 1 12 2q5 0 9 1h4q2 0 9 1q4 1 9 2h2q11 1 25 2t24 2l10 1l10 -1q11 -1 17 -3q19 -7 36 -27q26 -31 28 -52v-4q0 -8 -3 -14q-4 -9 -16 -18q-11 -8 -29 -19t-60 -36q-195 -111 -326 -206q-149 -108 -242 -207
q-66 -70 -95 -128q-19 -38 -19 -68v-5q0 -12 3.5 -18t12.5 -11q19 -10 57 -16q5 -1 10 -1t13 -0.5t22 -0.5t26 0.5t16 0.5q4 1 9 1q5 1 9 1q19 2 46 6.5t51 9.5t42.5 9.5t53.5 13.5l6 2q11 3 30.5 8.5t39.5 11.5q24 7 56.5 18.5t52.5 18.5q5 2 14 5.5t18 6.5q86 32 170 73
q10 4 17.5 7.5t8.5 4.5q3 1 5 1q11 0 24 -13q11 -10 11 -18q0 -6 -5 -10q-2 -2 -19.5 -11.5t-40 -21t-41.5 -19.5q-139 -65 -275 -109q-4 -1 -10 -3q-16 -5 -28 -9q-11 -4 -21 -7l-6 -2q-5 -1 -11 -3q-6 -1 -11 -3q-5 -1 -14 -4q-7 -1 -12 -3q-11 -3 -16.5 -5t-7.5 -5
t-4 -10q-3 -12 -12.5 -30.5t-32.5 -57.5q-8 -14 -16.5 -28.5t-15.5 -24.5q-3 -5 -5 -9q-9 -16 -14.5 -23.5t-9 -10t-8.5 -2.5q-3 0 -6 0.5t-7 1.5z" />
    <glyph glyph-name="quotesingle" unicode="'" horiz-adv-x="292" 
d="M167 1216q-7 -3 -18 -3h-6q-21 1 -25 18q-6 21 -15 102q-3 23 -3 32v14v10q2 35 25 39q7 2 16 2q6 0 12 -1q15 -2 25 -8q14 -7 14 -42q0 -17 -3 -40q-3 -20 -5 -45.5t-3 -43.5q-1 -19 -3.5 -25.5t-10.5 -8.5z" />
    <glyph glyph-name="parenleft" unicode="(" horiz-adv-x="1049" 
d="M276 -132q-27 6 -55 24q-12 8 -21 16t-20 21q-8 10 -15 21t-16 27q-35 69 -45 151q-2 16 -3 27.5t-1 31.5v22q0 22 1 43q1 31 7 72q2 22 7.5 50.5t10.5 48.5q9 37 16.5 62.5t15.5 50.5q42 131 105 258q6 11 11 21l7 14q3 5 7 12.5t8 14.5q39 74 96 160q59 87 125 167
q93 112 183 191q78 67 133 85q18 6 31 6q8 0 15 -2q6 -1 13.5 -5t13.5 -8q13 -10 25 -26t17 -28q1 -5 1 -10q0 -6 -1 -10q-1 -2 -3.5 -6.5t-5 -8.5t-3.5 -5q-4 -4 -9 -4q-6 0 -15 6q-1 1 -2 1q-5 4 -7.5 5t-5.5 1q-8 0 -28 -10.5t-43 -27.5q-92 -68 -205 -197
q-58 -68 -102 -130q-73 -101 -132 -210q-21 -38 -43.5 -86.5t-37.5 -84.5q-2 -6 -5 -13q-4 -10 -7 -18q-19 -48 -37 -105t-29 -105q-13 -58 -20 -94t-11 -70q-3 -26 -4 -42t-1 -47v-27t0.5 -15t1.5 -13q4 -35 13 -68t20 -55q11 -20 18.5 -29t15.5 -11q1 -1 4.5 -1.5
t7.5 -0.5q9 -1 15 -2.5t13 -4.5q14 -8 16.5 -13t2.5 -7q0 -6 -7 -10q-3 -1 -10 -1h-14.5t-12.5 1z" />
    <glyph glyph-name="parenright" unicode=")" horiz-adv-x="975" 
d="M133 -172q-15 6 -26 21q-7 10 -7 16q0 4 2 6q2 3 4.5 4.5t8.5 3.5q59 18 136 75q42 31 88 73q15 13 38.5 36t35.5 37q50 58 97 122q5 7 10 15q7 10 11 16q47 66 91 143q14 26 31.5 60.5t28.5 59.5t16.5 38t9 22t7.5 21q9 26 13.5 40t8 25.5t9.5 31.5q0 1 1 2q4 14 6 23
t5 22q1 4 2 9q9 40 12 55q10 64 12 85v9l1 11q5 50 5 95q0 62 -9 115q0 6 -1 12t-2 9q-1 7 -4 22.5t-7 31t-6 21.5q-1 4 -2.5 8t-2.5 8q-4 12 -17 42q-2 3 -5.5 10t-7 14.5t-6.5 11.5q-6 10 -14 19.5t-15 15.5q-22 19 -54 29q-10 4 -15 4t-11 -4q-6 -3 -8 -3h-4q-3 0 -7 1
q-16 7 -32 25.5t-21 36.5q-1 3 -1 7q0 15 16 22q5 2 9.5 2.5t8.5 0.5t8 -1q13 -2 24.5 -5.5t29.5 -11.5q46 -20 86 -60q40 -39 68 -85q18 -27 23 -41q1 -2 3 -7t5 -10q2 -5 5.5 -13.5t6.5 -17.5l3 -8q4 -11 5 -14q1 -2 2.5 -6.5t2.5 -10.5q2 -6 4 -12.5t3 -11.5
q2 -8 4.5 -20t4.5 -20q0 -2 1 -6t2 -9v-4q1 -5 2.5 -12t1.5 -12q1 -5 1.5 -11t1.5 -10q1 -8 2 -21v-8q1 -7 1.5 -13.5t0.5 -11.5q0 -1 1 -2v-98q-1 -18 -2.5 -35t-2.5 -26q-1 -3 -1.5 -9t-1.5 -13q0 -3 -1 -7q-1 -7 -1.5 -14.5t-1.5 -13.5v-3q-2 -12 -6 -32l-8 -40t-6 -29
q-3 -10 -5 -21q-3 -8 -5 -19q-2 -5 -4 -12.5t-4 -14.5q0 -2 -1 -4q-2 -7 -4.5 -15t-4.5 -13q-9 -30 -21 -61q-3 -7 -6 -14.5l-5 -12.5q-10 -25 -19 -47q-2 -4 -5 -9q-4 -9 -7 -17q-24 -51 -57.5 -109.5t-65.5 -104.5q-20 -28 -37.5 -49.5t-41.5 -48.5q-12 -14 -36 -37.5
t-37 -36.5q-122 -107 -235 -166q-50 -24 -92 -31q-4 -1 -7 -1h-3q-3 0 -7 1z" />
    <glyph glyph-name="asterisk" unicode="*" horiz-adv-x="622" 
d="M210 1074q-9 4 -16.5 12.5t-9.5 16.5v2q0 3 2 8q2 6 9 21q5 11 7.5 17t3 7.5t0.5 2.5l-1 2q-1 1 -2 1.5t-4 0.5t-6 -0.5t-8.5 -3t-16.5 -6.5q-14 -5 -22.5 -8t-13.5 -4.5t-7.5 -2t-4.5 -0.5q-3 0 -5 0.5t-4 2.5q-7 6 -9 13.5t-2 11.5q0 5 1 8q2 1 4 3t7.5 4.5l16.5 7.5
q18 7 42 18t43.5 20t22.5 11q5 3 5 11q0 2 -2 8.5t-8 20.5q-8 21 -12.5 33t-7.5 20.5t-6 18.5q-6 18 -8 26.5t-2 16.5v6.5v4t1 2.5q2 5 6 7.5t12 2.5q6 0 14 -2t15 -6q24 -11 43 -61q7 -18 12 -18t18 21q39 58 56 76q7 7 15 7q10 0 22 -12q14 -14 14.5 -22t0.5 -10
q0 -13 -10 -33q-2 -5 -5 -11t-6 -10q-5 -9 -6 -12t-1 -4q0 -2 1 -3t2 -1h3q2 0 6.5 1.5t9.5 3.5q5 3 12.5 6t13.5 5q22 10 31.5 12.5t14.5 2.5t8 -2q9 -4 17 -19q6 -12 6 -25q0 -12 -6.5 -18t-27.5 -14q-8 -3 -27.5 -10t-60.5 -21q-19 -6 -30.5 -10t-18.5 -6.5t-10 -4
t-4.5 -3t-1.5 -2.5h-1q-1 -2 -1 -7t3.5 -16t9.5 -32q4 -9 8.5 -21.5t7.5 -22.5l7.5 -18t2.5 -9t-2 -5q-4 -4 -12 -4t-21 6q-9 3 -16 12.5t-17 29.5l-11 22q-4 7 -9 7q-4 0 -8 -5q-2 -2 -9 -12.5t-17 -24.5q-9 -14 -16 -24.5t-8 -11.5q-5 -4 -10 -4q-3 0 -6 1z" />
    <glyph glyph-name="plus" unicode="+" horiz-adv-x="636" 
d="M196 325q-6 2 -14 7.5t-13 12.5t-5 13v2q0 5 8.5 24.5t20 45.5t22.5 48q6 12 7.5 16.5t1.5 6.5l-1 3q0 2 -1 3t-5 1.5t-11 0.5h-20q-52 0 -62 3t-16 17q-7 14 -8 27v5q0 11 7 15q8 6 33 7q4 1 10 1q8 1 14 2q11 1 34.5 2.5t45.5 2.5q13 1 18.5 2t8.5 5q2 1 5 6.5t7 12.5
q35 68 67.5 117t46.5 57q4 2 9 2q11 0 24 -7q24 -12 33 -28q1 -4 1.5 -6.5t0.5 -7.5t-0.5 -8t-1.5 -6q-11 -30 -61 -103q-5 -8 -8 -13t-4 -7.5t-1 -3.5q0 -2 2 -4.5t5 -2.5h60q62 0 62 -1q8 -2 13 -12t5 -23t-9 -17q-2 -1 -6.5 -1.5t-14.5 -1.5l-30 -3l-56 -7q-13 -1 -30 -3
q-6 0 -11 -1q-21 -2 -31.5 -4t-14.5 -3.5t-7 -5.5q-2 -2 -8.5 -11.5t-14.5 -22t-16 -23.5q-32 -52 -63 -107q-7 -12 -10.5 -17t-5.5 -6q-4 -1 -8 -1h-4z" />
    <glyph glyph-name="comma" unicode="," horiz-adv-x="473" 
d="M133 116q-12 2 -22 13q-11 11 -11 19q0 4 2.5 6.5t10.5 3.5q18 4 42 20q6 4 16 13.5t17 18.5q12 15 22.5 33.5t14.5 31.5q9 32 11 49v7q0 8 -1 18q-3 15 -7 28l-6.5 19.5t-2.5 11.5q0 3 1 6q4 10 12 10t21 -9q14 -10 29 -27.5t23 -33.5q18 -40 18 -83v-5q-1 -32 -11 -50
q-11 -20 -34.5 -40.5t-51.5 -34.5q-9 -4 -18 -7.5t-23 -8.5q-30 -10 -44 -10q-5 0 -8 1z" />
    <glyph glyph-name="hyphen" unicode="-" horiz-adv-x="653" 
d="M158 512q-18 2 -30 11q-8 6 -15 18t-11 24q-2 6 -2 12q0 14 15 18q3 1 15 2t25 2q3 0 6 1h8q1 0 2 1q23 2 41.5 3.5t56 1.5h115.5q147 0 149 -1q6 -1 11.5 -9t7.5 -18q1 -5 1 -9q0 -12 -14 -14q-1 -1 -11 -2t-25 -3q-6 0 -13 -1q-59 -6 -92 -10.5t-59 -8.5
q-73 -13 -110 -17q-16 -2 -30.5 -2h-20.5q-13 0 -20 1z" />
    <glyph glyph-name="hyphen" unicode="&#xad;" horiz-adv-x="653" 
d="M158 512q-18 2 -30 11q-8 6 -15 18t-11 24q-2 6 -2 12q0 14 15 18q3 1 15 2t25 2q3 0 6 1h8q1 0 2 1q23 2 41.5 3.5t56 1.5h115.5q147 0 149 -1q6 -1 11.5 -9t7.5 -18q1 -5 1 -9q0 -12 -14 -14q-1 -1 -11 -2t-25 -3q-6 0 -13 -1q-59 -6 -92 -10.5t-59 -8.5
q-73 -13 -110 -17q-16 -2 -30.5 -2h-20.5q-13 0 -20 1z" />
    <glyph glyph-name="period" unicode="." horiz-adv-x="384" 
d="M143 275q-6 2 -14.5 7t-15.5 12q-11 10 -12 15.5t-1 7.5q0 9 3 23q2 5 5.5 16.5t7.5 22t5 13.5q4 9 11 18t13 13l3 1.5t3.5 0.5h6.5q7 0 11.5 -1.5t12.5 -4.5q13 -7 26 -17t20 -20q6 -9 6 -18q0 -5 -2 -10q-3 -7 -11 -16t-18 -18q-17 -15 -36 -34l-6 -6t-5 -4t-5 -1h-5
h-3z" />
    <glyph glyph-name="slash" unicode="/" horiz-adv-x="1623" 
d="M123 -4q-8 4 -14 10.5t-9 12.5v5q0 3 2 6q3 6 66 80q53 63 151.5 175t188.5 212q9 11 16.5 19.5t9.5 10.5t6.5 7t9.5 10q4 5 9 10t7 8q2 2 7 7.5t11 12.5h1q5 6 12 13q8 9 14 16q4 5 13 15q9 9 18 19l22 24q5 5 8 9q5 5 12 13t14 15t14.5 15.5t12.5 13.5q6 7 18.5 20
t25.5 27q13 15 24 26.5t15 15.5t14.5 15t22.5 24l21 21q14 15 20 22q41 43 65 67.5t47 47.5q4 4 7 8q19 19 41 42t38 39l18 18q25 26 39 40q99 103 193 190q7 6 15 13t21 19.5t36 33.5q2 2 4 3q11 11 18.5 17t15.5 11q14 10 24.5 10.5t20.5 -7.5q23 -17 32 -45
q1 -4 1.5 -6.5t0.5 -6.5q0 -7 -2.5 -13t-8.5 -15q-6 -8 -16 -18.5t-29 -28.5q-57 -52 -73 -67l-6 -6q-5 -5 -9 -8q-3 -3 -13 -12.5t-22 -20.5q-66 -63 -83 -78l-5.5 -5.5t-8.5 -7.5q0 -1 -1 -2q-2 -1 -5 -4q-5 -5 -12.5 -11.5t-14.5 -13.5l-18 -16l-11 -11q-3 -3 -7 -6.5
t-6 -5.5q-7 -6 -33.5 -31t-58.5 -55.5t-56 -54.5q-39 -38 -110.5 -108.5t-134.5 -132.5q-346 -348 -582 -610q-22 -25 -34.5 -38.5t-18 -18.5t-6.5 -6q-3 -1 -6 -1q-4 0 -9 2z" />
    <glyph glyph-name="zero" unicode="0" horiz-adv-x="696" 
d="M240 209q-35 4 -74 23q-55 26 -90 79q-7 10 -14 24t-11 24q-8 22 -12 36t-8 33q-7 29 -7 39q0 1 -0.5 5t-0.5 8q-3 24 -3 47q0 22 4 56q4 46 16 91q1 5 3 11q1 8 2 12q4 16 13.5 45.5t16.5 48.5q1 2 2 6q3 6 4 11q2 5 6.5 15t14.5 34q48 108 119 204q41 54 82 95
q46 47 80 62q15 8 29 8h5q16 -1 35 -14q7 -5 13 -9.5t12 -10.5q7 -7 11.5 -12.5t7.5 -11.5q4 -8 7 -11.5t11 -7.5q44 -25 77 -66q14 -17 28.5 -41t23.5 -47q29 -72 33 -160v-16q0 -17 -1 -38q-2 -32 -6 -58q-17 -110 -64 -209q-100 -204 -244 -282q-6 -3 -13 -6t-11 -5
q-11 -4 -26.5 -7.5t-27.5 -5.5q-9 -1 -21 -1t-22 2zM238 256h3q7 1 12.5 2t12.5 3q49 15 100 54q22 16 48.5 42.5t48.5 54.5q81 102 123 224q22 66 32 133q2 17 3 28t1.5 23t0.5 32q0 30 -1 46t-5 39q-16 88 -57 141q-17 21 -50 38q-9 5 -15.5 7.5t-13.5 2.5q-4 1 -8 1.5
t-8 1.5q-5 3 -10 3q-2 0 -4 -1q-5 -1 -16 -8q-61 -43 -135 -145q-68 -95 -112 -195q-8 -17 -16 -38t-13 -36l-2 -6q-2 -8 -4 -15.5t-5.5 -19.5t-9.5 -34q-3 -13 -7 -41t-8 -55q0 -7 -0.5 -27.5t-0.5 -35.5v-22v-11q4 -72 25 -114q8 -18 16 -30t20 -24q9 -10 16 -13.5
t18 -4.5q4 -1 6.5 -1h5.5t9 1z" />
    <glyph glyph-name="one" unicode="1" horiz-adv-x="590" 
d="M-71 104q-4 2 -8 6t-8 9q-6 10 -9.5 23.5t-3.5 21.5q0 4 1 8q1 8 6 12.5t19 8.5q60 16 169 25q23 2 27 3q6 3 6 14q0 3 1 12.5t2.5 19.5t2.5 17q12 74 34 134q16 40 46 105t59 124q4 7 10.5 20t12.5 26q7 12 12.5 23t8.5 15q3 7 8 16q2 3 3 6q5 10 15 29.5t17 31.5l3 6
q1 1 3 4.5t4 7.5l1 1q7 15 44 81q7 14 17 31q32 59 51.5 99t19.5 47v1q0 4 -4 4h-2q-6 -1 -27.5 -11.5t-45.5 -23.5q-35 -19 -53.5 -28.5t-26.5 -14.5q-42 -23 -65 -29q-8 -2 -15 -2q-5 0 -10 1q-12 3 -24.5 12t-16.5 17q-1 4 -1 7q0 5 2 8q3 3 6.5 3.5t10.5 -0.5h10
q2 0 4 1q15 4 92 47l6 4q11 6 23.5 12.5t21.5 11.5q14 8 23 13q5 2 7 3q6 4 20 11t28 13.5t21 9.5q13 5 21.5 7t17.5 3q8 0 14.5 -1.5t13.5 -5.5q9 -5 19.5 -13.5t17.5 -17.5q5 -6 9.5 -15t6.5 -16q3 -11 3 -23q0 -21 -9 -43q-6 -16 -12 -28.5t-17 -36.5
q-15 -28 -32.5 -61.5t-48.5 -89.5q-2 -5 -6 -11l-6 -12q-4 -7 -10 -18q-3 -6 -6 -11q-4 -7 -9 -17q-8 -14 -14 -27l-10 -18q-7 -15 -12 -22q-7 -13 -24.5 -48l-35.5 -71t-25 -51q-40 -84 -64 -145q-5 -15 -10.5 -27.5t-14.5 -32.5q-11 -27 -19.5 -49.5t-8.5 -27.5v-2
q0 -4 3 -6q4 -2 15 -2q14 0 49.5 -1.5t62.5 -3.5q33 -3 59.5 -7.5t33.5 -8.5q11 -5 12 -26v-3q0 -18 -10 -24h-1q-1 -1 -3 -1h-5.5t-9.5 0.5t-16 1.5h-36.5h-53.5t-39 -1q-11 -1 -25 -2t-25 -2.5t-14 -1.5q-1 -1 -5 -1h-9q0 -1 -1 -1q-27 -2 -82.5 -9.5t-113.5 -18.5
q-27 -5 -41.5 -7t-21.5 -2q-6 0 -10 1z" />
    <glyph glyph-name="two" unicode="2" horiz-adv-x="784" 
d="M32 106q-5 1 -10 4.5t-11 10.5q-14 14 -22.5 30.5t-8.5 28.5q0 6 2 11.5t12 16t31 31.5q12 13 21 22l10 10q3 2 29.5 28.5l60 60t58.5 59.5q47 48 73.5 75.5t45.5 48.5q17 19 51 54t68 69q40 40 73.5 75t48.5 51q6 6 12 13q5 5 8 9q20 21 28 30t11 13q2 2 5 5.5t5 6.5
l2 2q2 2 5 5.5t6 6.5l4 6l12 14q15 19 33 44t25 37q4 8 9 16q1 2 3 4q3 7 5.5 10.5t4 8t4.5 12.5v1q9 24 9 33v2q0 3 -0.5 4.5t-2.5 3.5q-10 8 -32 12.5t-42 4.5q-8 0 -17 -1q-13 -1 -32 -3.5t-35 -6.5q-98 -23 -190 -80q-86 -54 -123 -114q-13 -21 -17 -36.5t-4 -23.5
q0 -6 2 -10q1 -2 4 -4t6 -5q14 -10 19 -21q3 -6 3 -9q0 -4 -2 -6q-1 -2 -2 -2.5t-2.5 -0.5h-3.5q-3 0 -5.5 1l-7.5 3q-8 4 -14 9t-14 13q-14 14 -22 31q-5 9 -7 17t-2 18q0 14 2.5 26.5t8.5 27.5q15 34 48 69q75 78 193 132q75 33 147 44q16 3 25.5 4t24.5 1h11
q69 0 104 -36q34 -37 46 -96q2 -9 1.5 -22.5t-1.5 -23.5q-7 -32 -19 -53l-3 -6t-3 -8q-3 -7 -8.5 -16.5t-10.5 -17.5q-3 -3 -5.5 -7.5t-4.5 -7.5q-11 -18 -37.5 -51.5t-49.5 -60.5q-3 -3 -6 -6.5t-5 -5.5l-13 -15q-2 -2 -5 -6l-13 -13q-12 -14 -32.5 -35.5t-43.5 -46.5
q-11 -10 -20 -20l-19 -19q-65 -68 -168 -166q-41 -40 -81 -79t-66.5 -66t-28.5 -30q-1 -1 -1 -3q0 -3 7 -3t19 3q51 12 140 23q29 3 58.5 5t74.5 2h35q99 0 156 -10q10 -1 15.5 -2.5t9.5 -3.5q6 -5 10.5 -14.5t4.5 -16.5v-2q-1 -3 -3 -5.5t-5 -3.5h-6.5t-11.5 1
q-19 2 -35 2.5t-42 0.5q-95 0 -191 -15l-15 -2.5t-17 -2.5q-56 -10 -113 -25q-5 -2 -11 -4q-6 -1 -9 -2q-54 -15 -145 -51q-15 -7 -28 -12t-17 -6q-11 -4 -19 -4q-5 0 -9 2z" />
    <glyph glyph-name="three" unicode="3" horiz-adv-x="731" 
d="M152 118q-2 0 -7.5 0.5t-12.5 1.5q-12 1 -20 2q-1 0 -2 1l-12 3t-15.5 4.5t-10.5 4.5q-3 1 -10.5 5t-15 8.5t-10.5 7.5q-15 11 -30.5 30t-24.5 37q-5 10 -9.5 21.5t-6.5 19.5q-4 17 -4.5 27t-0.5 18v15q1 13 3 22.5t6 20.5q4 13 11 27.5t11 18.5q3 3 8 3q3 0 8 -2
q4 -3 10 -8.5t9 -10.5q5 -9 5 -15q0 -7 -4 -18q-17 -38 -17 -76q0 -18 5 -37t12 -28q10 -12 48 -19q7 -1 11.5 -1.5t10 -0.5h15.5h20.5t15.5 1q20 4 32 6t22 5q108 30 209 111q13 10 21.5 18t21.5 21q57 56 83 120q7 16 10 28.5t6 28.5q1 11 1 24v12q-1 19 -5 33
q-6 25 -17 41q-7 9 -17.5 18.5t-21.5 16.5q-11 6 -17.5 9t-16.5 7q-43 17 -94 17q-23 0 -47.5 -4t-69.5 -15q-7 -1 -12 -1h-6q-7 0 -15 4q-5 4 -13.5 12t-13.5 16q-5 7 -9.5 16t-6.5 16q-1 4 -1.5 7t-0.5 9v7.5t0.5 4t2.5 3.5q1 3 3 5.5t4 4.5q16 15 87 67.5t155 110.5
q21 14 35 23.5t22 15.5l12 9l6 4.5t4 3.5q4 4 4 5q0 2 -2 2q-1 1 -3 1t-5 -1q-6 -1 -20 -3q-50 -11 -81 -16.5t-72 -8.5q-33 -3 -61 -3t-51 3q-69 10 -98 51q-13 19 -13 29q0 7 5 11q3 2 6 2q9 0 20 -11q7 -7 13 -9.5t19 -4.5q30 -5 67 -5q50 0 114 9q43 6 86 14.5t104 23.5
q44 10 71 16.5t41.5 10t19 4.5t6.5 1q3 0 4 -1q18 -1 36 -27q15 -23 15 -43q0 -24 -24 -46q-15 -17 -154 -112q-70 -48 -119.5 -83t-56.5 -41q-2 -2 -3 -3.5t-1 -2.5q0 -2 1 -3t3 -2t7 -2t13 -3q34 -9 60 -21q14 -6 21.5 -10.5t20.5 -13.5q16 -11 27 -20.5t23 -22.5
q44 -52 66 -110q7 -18 11.5 -39.5t5.5 -39.5q1 -13 0.5 -28t-1.5 -25q-5 -31 -12.5 -53t-20.5 -46q-23 -42 -64 -83q-52 -53 -122 -93q-5 -3 -15 -8l-20 -10t-15 -7l-10 -4q-3 -2 -5 -2q-19 -9 -49 -17t-51 -11q-3 0 -8 -1t-9 -1q-4 -1 -10 -2t-11 -1q-6 0 -17.5 -0.5
t-19.5 -0.5h-11h-4z" />
    <glyph glyph-name="four" unicode="4" horiz-adv-x="778" 
d="M343 95q-2 0 -5 1.5t-7 2.5q-21 11 -21 36v6q6 66 49 229q29 106 75 228q3 9 5.5 16t2.5 8v2q0 6 -4 6q-2 0 -4 -1q-8 -2 -114 -46q-60 -25 -95 -39t-55 -20.5t-36 -9.5q-19 -4 -31 -4h-5q-13 1 -29 10q-16 7 -32 24q-26 25 -32 55v27q1 17 4 34q3 10 7.5 25.5t8.5 25.5
q47 107 173 265q52 64 95.5 110.5t62.5 56.5q5 2 11 2q19 0 44 -23q28 -28 28 -51q0 -6 -2.5 -9.5t-8.5 -6.5q-7 -4 -15.5 -11.5t-22.5 -21.5q-52 -53 -109.5 -125t-102.5 -140q-19 -29 -33.5 -55t-30.5 -57q-25 -50 -25 -57v-2q0 -6 8 -6h4q17 3 48 11q23 7 61 20.5
t112 40.5q20 7 41 15q8 3 14 5q11 4 21 7.5t15 5.5t15 5q8 3 17 6q12 4 17.5 6t8 3.5t4.5 3.5q1 1 2 3l3 6t5 12q13 30 25.5 58.5t19.5 44.5q15 31 40.5 82t49.5 95q13 24 30.5 55.5t32 57t19.5 31.5q19 26 37 26q13 0 30.5 -11t27.5 -26q5 -8 5.5 -14.5t0.5 -8.5
q0 -8 -2 -15q-1 -5 -3 -10t-7.5 -15t-16.5 -28q-72 -128 -136 -258q-8 -15 -10.5 -21.5t-2.5 -9.5v-1q1 -2 6 -2q1 0 3 0.5t7 2t14.5 4t25.5 7.5q40 13 71.5 22t36.5 9q9 0 19 -10t10 -18q0 -3 -2 -6q-1 -1 -3.5 -3t-8.5 -4t-16 -5q-74 -24 -166 -57q-15 -5 -22.5 -8
t-10.5 -4.5t-4 -3.5q-6 -8 -30.5 -59t-51.5 -112q-75 -171 -116 -314q-19 -67 -19 -91q0 -6 -0.5 -9t-1.5 -4.5t-4 -2.5h-8q-5 0 -11 1z" />
    <glyph glyph-name="five" unicode="5" horiz-adv-x="772" 
d="M207 107q-41 5 -76 27q-43 29 -66 66q-26 46 -26 93q0 17 3 35q2 8 4 11.5t5 5.5q3 1 4.5 1h4.5q8 -2 17 -8t13 -13q4 -4 4.5 -7.5t0.5 -6.5t-1 -7q-1 -11 -1 -21q0 -11 1 -20q3 -23 12.5 -46t21.5 -35q8 -9 31 -9h9q39 0 92 27q100 51 203 170q25 29 50 67q42 63 55 114
q3 11 4 19t1 18q0 11 -1 18t-3 14q-11 35 -55 49q-39 14 -90 14q-70 0 -149 -28q-43 -14 -147 -69q-34 -18 -55 -18q-7 0 -12.5 1.5t-12.5 4.5q-13 7 -24 16t-16 17q-7 14 -8 28v3q0 33 21 92q21 63 56 126q45 79 105 164q5 7 8.5 12t3.5 6q2 3 2 5q0 3 -2 4q-1 0 -2.5 0.5
t-5 0.5t-9.5 -1h-24h-6t-3.5 0.5l-4.5 1.5q-2 1 -4 2.5t-3 3.5q-12 14 -15 31t-3 26q0 12 3 22q4 12 15 16q13 3 44.5 7t70.5 6q88 4 222 4q133 0 231 -4q27 -1 51.5 -4t30.5 -5t9 -8q0 -2 0.5 -3.5t0.5 -4v-7.5v-11.5t-2 -6.5q-3 -11 -11 -13q-4 -1 -32 -1h-19
q-57 0 -136 -5q-91 -5 -180 -16q-15 -1 -23 -2.5t-11 -2t-5 -2.5q-4 -3 -13.5 -11.5t-17.5 -17.5q-68 -76 -143 -197l-21 -36t-24 -42q-3 -5 -6 -11t-6 -10q-21 -37 -37 -70q-6 -11 -9 -18t-4.5 -11t-1.5 -6t1 -3t3 -1t7.5 2t15.5 6.5t27 11.5q77 36 139 50q57 15 121 15
q17 0 28 -0.5t27 -3.5q33 -5 65 -19q36 -16 68 -48q28 -29 41 -67q8 -23 8 -52v-11q0 -12 -1.5 -21.5t-4.5 -21.5q-25 -97 -122 -208q-17 -19 -40 -40.5t-41 -36.5q-66 -52 -130 -73q-11 -4 -26.5 -7.5t-24.5 -4.5t-18.5 -1h-15.5h-10z" />
    <glyph glyph-name="six" unicode="6" horiz-adv-x="753" 
d="M277 78q-13 2 -28 5.5t-27 7.5q-9 3 -21.5 9t-24.5 11q-52 28 -87 73q-11 13 -18 23.5t-15 26.5q-14 27 -24 64q-1 6 -3.5 16t-4 19.5t-2.5 14.5q-1 12 -1.5 32.5t-0.5 40.5t1 30q1 4 1.5 11t0.5 12q3 23 8.5 53.5t12.5 57.5q38 150 123 292q69 114 154.5 201.5
t153.5 112.5q5 2 8 3t6.5 1.5t9.5 0.5h6q18 0 36 -9q16 -8 32.5 -24.5t23.5 -31.5q4 -8 4 -14q0 -12 -15 -19v-1q-3 -1 -5 -2t-4 -1h-5h-5t-4.5 1t-6.5 3q-7 4 -12 4t-14 -5q-36 -16 -81 -56q-13 -10 -34 -31.5t-35 -35.5q-84 -95 -146 -206l-32 -64q-6 -14 -7 -18t-1 -6
q0 -3 1 -4h2q1 0 4 1l12 8q11 9 29.5 21t30.5 19q78 46 148 67q41 10 78 10q36 0 69 -9q73 -23 122 -85q23 -31 34 -68q2 -9 4.5 -24.5t3.5 -28.5q1 -7 0.5 -13.5t-0.5 -16.5v-4q-1 -15 -2.5 -25.5t-4.5 -24.5q-39 -177 -186 -316q-81 -74 -165 -99q-37 -11 -75 -11
q-11 0 -22 1zM279 131q71 7 144 52q57 36 105 88q76 83 114 177q31 79 31 151q0 24 -2 40.5t-9 35.5q-12 34 -32 50q-14 9 -35.5 15.5t-45.5 8.5q-7 1 -16 1q-8 0 -18 -1q-19 -1 -34 -4q-86 -14 -185 -72q-15 -8 -36 -22.5t-34 -23.5q-25 -20 -48 -41.5t-29 -30.5
q-2 -6 -7.5 -27.5t-9.5 -44.5q-1 -8 -3.5 -24t-4.5 -35q-1 -11 -1.5 -28t-0.5 -27v-16q0 -7 0.5 -15t1.5 -13q1 -4 1 -10q1 -7 2 -13q1 -9 3.5 -22.5t5.5 -24.5t9 -26.5t11 -25.5q15 -29 34 -47q13 -13 28 -18.5t39 -7.5h11.5t11.5 1h-1z" />
    <glyph glyph-name="seven" unicode="7" horiz-adv-x="777" 
d="M153 80q-12 4 -22.5 13t-15.5 19q-3 6 -3 16q0 5 1 12q4 12 15.5 44.5t23.5 62.5q4 10 13 31t17 38q28 60 64 119q3 6 8.5 14.5t9.5 15.5q22 38 35 57q34 53 37 59q1 3 1 4q0 5 -7 5h-2q-3 0 -14 -2.5t-26 -5.5q-63 -12 -84 -14q-5 -1 -10 -1q-11 0 -17 4q-13 7 -23 28
q-9 20 -9 33v4q1 9 8.5 14t24.5 10q48 13 207 26h3q9 1 14 2t9 6t12 17q1 1 2 3q3 5 9 13q9 13 17 25q7 10 16 23t15 22q8 13 20 30q6 8 10 15q11 15 26 38q6 8 11 16q10 14 19 28q7 11 11 17q6 8 14.5 21t21.5 35q5 6 12 18.5t14.5 24.5t10.5 18l4 8q3 5 4 8q4 7 9 17.5
t8 19.5q2 5 2.5 9t-1.5 6l-1 1q-2 1 -3 1q-4 0 -12.5 -0.5t-15.5 -1.5q-18 -3 -44 -9t-42 -10q-2 -1 -7 -2t-11 -3q-3 -1 -7 -2q-5 -1 -11 -3q-11 -3 -16 -4q-11 -4 -35.5 -11t-48 -13.5t-30.5 -8.5l-9 -2q-10 -2 -17 -5q-13 -3 -33 -7.5t-36 -8.5q-57 -12 -102 -12
q-10 0 -19 1q-28 1 -42 5q-9 2 -20.5 6.5t-17.5 6.5q-24 13 -40 32q-18 20 -18 34q0 4 0.5 5.5t1.5 2.5q1 2 2 2.5t2.5 0.5h4.5t5 -0.5t5 -1.5q5 -3 9 -6t10 -7q5 -6 10.5 -8.5t16.5 -3.5q15 -3 23.5 -3.5t25.5 -0.5q18 0 31.5 0.5t29.5 3.5q37 4 69.5 11t86.5 22
q6 1 18.5 5t27.5 8q82 24 118 33.5t60 14.5q8 1 15 2q5 1 7 2q18 3 31.5 3h18.5q14 0 23 -2q25 -7 47 -33q11 -12 17 -22.5t11 -25.5t5 -25v-5q-1 -9 -4 -21.5t-6 -20.5q-2 -6 -8.5 -19.5t-13 -26.5l-8.5 -17q-2 -3 -5 -9l-4 -6q-4 -7 -11 -19t-21 -35q-11 -17 -33 -50.5
t-45 -67.5q-31 -44 -42 -61q-7 -10 -9 -13q-7 -9 -7 -14q0 -3 3 -4h2q2 -1 6.5 -1h13.5t21 0.5t21 0.5h18.5t9.5 -1.5t6 -4.5q5 -5 8.5 -13.5t4.5 -17.5v-3q0 -14 -10 -17q-2 -1 -8 -2t-13 -1q-37 -4 -71.5 -8t-55.5 -7q-12 -2 -18 -9q-4 -5 -24.5 -36t-45.5 -71
q-5 -7 -10 -15q-8 -12 -13 -20q-4 -5 -9 -13t-9 -16q-1 -2 -2 -3q-13 -21 -22 -36q-9 -14 -12 -19q-2 -4 -10 -17.5t-16.5 -28.5t-13.5 -24q-3 -4 -7 -11l-12 -20q-5 -8 -11 -17.5t-11 -17.5q-2 -4 -4 -6q-31 -49 -54.5 -91t-30.5 -59q-4 -13 -9 -14h-6q-3 0 -8 1z" />
    <glyph glyph-name="eight" unicode="8" horiz-adv-x="688" 
d="M185 79q-35 2 -65 11q-50 14 -81 41q-36 31 -53 78q-4 11 -5 20t-1 26v13t0.5 8t1.5 8q15 72 88 153q60 69 224 193q7 5 11 8.5t5.5 5.5t1.5 4t-2 4.5t-8 8t-19 14.5q-10 8 -22.5 19.5t-23.5 23.5q-17 18 -31 38q-43 67 -43 121v5q1 23 5 39t15 37q35 71 140 147
q80 56 158 80q18 6 32 8.5t29 2.5q13 0 20 -1.5t16 -5.5q23 -8 37 -24q13 -14 23.5 -33t15.5 -37q1 -4 3 -9.5t5 -10.5q19 -43 21 -87v-5q0 -35 -14 -68q-12 -29 -27 -52.5t-39 -50.5q-12 -15 -33 -36t-33 -31q-4 -3 -8.5 -7t-7.5 -7q-13 -11 -33.5 -28t-41.5 -34
q-5 -4 -9.5 -7.5t-5.5 -5.5t-1 -5v-2t1 -2.5t3.5 -4.5t7 -7.5t12.5 -11.5q37 -36 60 -67t44 -70q25 -48 35 -91q3 -14 4 -25t1 -28q0 -10 -0.5 -15.5t-0.5 -9.5t-2 -10q-3 -19 -12 -41.5t-21 -39.5q-27 -39 -72 -71q-69 -46 -166 -65q-28 -6 -52 -8.5t-52 -3.5h-20.5
t-14.5 1zM381 697q3 2 19.5 14.5t38 30t40.5 34.5q42 35 75 69q78 78 94 145q2 8 2 19q0 10 -1 17q-4 14 -10 14h-2q-1 0 -4.5 -3t-7.5 -7q-5 -4 -8.5 -6.5t-5 -2.5h-2.5h-3q-7 2 -13 12q-4 7 -6 11.5t-2 10.5q0 4 0.5 6.5t3.5 7.5q1 3 2 5.5t2 3.5q0 3 -1 6t-3 4
q-4 2 -12 2t-20 -2q-24 -4 -52 -15q-103 -40 -190 -119q-41 -38 -63 -78q-12 -20 -15 -34t-3 -21q0 -9 3 -15q2 -4 9.5 -12t15.5 -15q3 -3 7 -6.5t8 -6.5q3 -3 17 -13.5t30.5 -23t29.5 -22.5t15 -11t6 -1q3 0 6 2zM206 140q14 2 24 3.5t23 4.5q115 24 198 101q8 7 12.5 11.5
t8 9t9.5 11.5l2 2q14 18 25.5 38t15.5 35q7 25 7 46q0 12 -2 23q-6 30 -21 53q-17 26 -40 49q-15 15 -35.5 33t-38 31.5t-22.5 14.5q-2 1 -4 1t-5 -2t-9.5 -6.5t-17.5 -12.5t-28 -21q-62 -49 -101 -82q-87 -76 -132 -144q-9 -14 -15 -24.5t-12 -22.5q-10 -21 -15 -37t-6 -33
q-1 -7 -1 -12q0 -23 13 -33q31 -29 102 -36q15 -2 32 -2q18 0 33 1z" />
    <glyph glyph-name="nine" unicode="9" horiz-adv-x="737" 
d="M148 94q-10 0 -17 1.5t-17 4.5q-9 2 -17 5.5t-17 7.5q-46 24 -65 63q-10 21 -10 43v8q1 9 3 19t3 13q3 6 11 6q4 0 10 -2q9 -3 16.5 -8t10.5 -10q0 -1 0.5 -2.5t0.5 -4v-7v-12.5q0 -9 0.5 -14.5t0.5 -8.5t1 -5q4 -15 11 -26.5t14 -15.5q6 -3 16 -3h5q14 1 30 6
q34 11 69 37q48 36 94 100q16 23 37 56t33 57q44 79 88 181l8 18q6 12 9 19q2 6 6 15t7 17q5 10 8 19l5 10q7 17 24 57q4 10 7 19l5 10q1 3 3.5 9t4.5 12q2 3 3 7l2 4q3 7 6 14.5l5 12.5q8 19 12.5 30t7 17t4.5 12q3 5 5 11t4 10q2 5 4 9.5t5 13t9 23.5q4 10 5.5 15t1.5 7
t-0.5 2.5l-1.5 1.5q-1 0 -2 -0.5t-3.5 -2t-6.5 -6t-11 -12t-18 -19t-27 -28.5q-9 -9 -26.5 -28t-36.5 -39t-37 -39t-26 -28l-4 -4q-20 -21 -31 -33t-20 -21t-20 -21q-116 -119 -171 -135q-13 -4 -21.5 -5.5t-16.5 -1.5q-25 1 -49 14q-40 19 -54 50q-4 7 -6 13.5t-4 17.5
q-1 5 -1.5 8.5t-0.5 8v13.5q0 17 1.5 32.5t6.5 36.5q21 93 82 193q15 23 32 47t30 39q10 12 29.5 31t32.5 31q66 57 124 79q11 4 19 6t21 4q10 2 19 2q40 0 83 -30q9 -6 21.5 -16.5t19.5 -18.5q6 -7 14.5 -19t12.5 -21q4 -7 7 -16t4 -16q3 -9 8 -9q2 0 4 1l8 8t18 17
q7 8 16 16q16 16 28.5 27.5t14.5 13.5q7 5 14 5q12 0 25 -12q22 -19 31 -37q3 -7 4.5 -13t1.5 -14q-1 -6 -1.5 -10t-2.5 -11q-1 -4 -2 -9q-2 -9 -5 -17q-6 -25 -17 -55l-2 -8q-4 -9 -6 -15q-1 -4 -2.5 -9t-3.5 -8q-1 -3 -4 -10.5t-6 -15.5q-2 -6 -4 -11l-6 -15l-2 -4
q-2 -5 -3 -9q-1 -1 -1 -2q-2 -6 -6 -14q-1 -4 -4 -10q-6 -16 -15 -37q-9 -23 -15 -37q-1 -4 -2 -5q0 -2 -2 -5q-4 -10 -9 -24q-5 -12 -11 -26q-3 -7 -5 -12q-3 -8 -7.5 -18.5t-7.5 -19.5q-4 -9 -8.5 -20t-8.5 -19q-3 -8 -7.5 -19t-8.5 -19q-2 -7 -5.5 -15t-6.5 -15
q-2 -4 -3 -7q-4 -8 -6.5 -14t-3.5 -8q0 -1 -2 -5q-2 -6 -6 -13q-3 -6 -6 -13t-5 -12q-10 -22 -24 -50.5t-25 -49.5q-26 -47 -48 -80q-78 -114 -173 -155q-52 -23 -95 -23q-7 0 -15 1zM126 608q60 22 163 119l47.5 47.5l80.5 80.5t77 77.5t36 37.5t3 6t-1 3.5t-3 3.5t-7 6
q-8 7 -12.5 14t-8.5 22q-2 5 -4 12t-4 13q-1 6 -3 12.5t-3 11.5q-2 9 -3.5 12.5t-5.5 4.5q-2 1 -4 1t-5 -0.5l-9 -1.5q-17 -5 -32 -11.5t-34 -17.5q-42 -25 -87 -67q-14 -14 -39 -40.5t-40 -43.5q-97 -116 -123 -229q-5 -19 -5 -30.5v-14.5q0 -13 3 -22q3 -8 12 -8q4 0 11 2
z" />
    <glyph glyph-name="colon" unicode=":" horiz-adv-x="416" 
d="M144 275q-7 2 -15 7t-16 12q-10 10 -11.5 16t-1.5 9q0 9 4 21q2 5 5.5 16.5t7 22t5.5 13.5q4 9 11 18t13 13l3 1.5t3 0.5h6q7 0 11.5 -1.5l13.5 -4.5q13 -7 25.5 -17t19.5 -20t7 -19q0 -4 -2 -9q-3 -7 -11 -16t-19 -18q-17 -15 -35 -34l-2 -2q-3 -2 -5.5 -4.5l-3.5 -3.5
q-3 -1 -5.5 -1h-4.5h-3zM226 718q-7 2 -15.5 7t-15.5 13q-11 9 -12 15t-1 8q0 8 3 22q2 5 5.5 16.5t7.5 22t5 14.5q4 8 11 17t13 13l3 1.5t3.5 0.5h6.5q7 0 11.5 -1t12.5 -5q13 -6 26 -16.5t19 -20.5q7 -10 7 -19q0 -4 -2 -9q-3 -7 -11 -16t-18 -18q-17 -15 -36 -34
q-3 -3 -6 -5.5t-5 -3.5t-6 -1.5t-6 -0.5z" />
    <glyph glyph-name="semicolon" unicode=";" horiz-adv-x="481" 
d="M132 116q-11 2 -22 13q-10 11 -10 19q0 4 2.5 6.5t9.5 3.5q19 4 42 20q7 4 17 13.5t17 18.5q12 15 22 33.5t14 31.5q10 32 12 49q0 10 -2 25t-6 28q-5 12 -7 19.5t-2 10.5v4v3q4 10 13 10q8 0 21 -9q14 -10 29 -27.5t22 -33.5q18 -38 18 -80v-8q0 -32 -10 -50
q-11 -20 -35 -40.5t-51 -34.5q-9 -4 -18.5 -7.5t-22.5 -8.5q-30 -10 -45 -10q-5 0 -8 1zM290 718q-6 2 -14.5 7t-15.5 13q-11 9 -12.5 15.5t-1.5 9.5q0 8 4 20q2 5 5.5 16.5t7 22t5.5 14.5q4 8 11 17t13 13q1 1 2.5 1.5t3.5 0.5h7q7 0 11 -1t13 -5q13 -6 25.5 -16.5
t19.5 -20.5t7 -19q0 -4 -2 -9q-3 -7 -11 -16t-19 -18q-17 -15 -35 -34q-4 -3 -7 -5.5t-4 -3.5q-2 -1 -6 -1.5t-7 -0.5z" />
    <glyph glyph-name="semicolon" unicode="&#x37e;" horiz-adv-x="481" 
d="M132 116q-11 2 -22 13q-10 11 -10 19q0 4 2.5 6.5t9.5 3.5q19 4 42 20q7 4 17 13.5t17 18.5q12 15 22 33.5t14 31.5q10 32 12 49q0 10 -2 25t-6 28q-5 12 -7 19.5t-2 10.5v4v3q4 10 13 10q8 0 21 -9q14 -10 29 -27.5t22 -33.5q18 -38 18 -80v-8q0 -32 -10 -50
q-11 -20 -35 -40.5t-51 -34.5q-9 -4 -18.5 -7.5t-22.5 -8.5q-30 -10 -45 -10q-5 0 -8 1zM290 718q-6 2 -14.5 7t-15.5 13q-11 9 -12.5 15.5t-1.5 9.5q0 8 4 20q2 5 5.5 16.5t7 22t5.5 14.5q4 8 11 17t13 13q1 1 2.5 1.5t3.5 0.5h7q7 0 11 -1t13 -5q13 -6 25.5 -16.5
t19.5 -20.5t7 -19q0 -4 -2 -9q-3 -7 -11 -16t-19 -18q-17 -15 -35 -34q-4 -3 -7 -5.5t-4 -3.5q-2 -1 -6 -1.5t-7 -0.5z" />
    <glyph glyph-name="less" unicode="&#x3c;" horiz-adv-x="608" 
d="M295 258q-3 1 -5 3t-6 7t-12 14q-5 7 -11.5 15.5t-12.5 14.5l-10 12t-13 16.5t-22 27.5q-26 33 -48 65.5t-33 55.5q-16 30 -20 55q-2 8 -2 18t1 17q6 44 78 109q13 12 22.5 20t20.5 16q54 39 112.5 75t93.5 53q8 3 13 5t8.5 2.5t8.5 0.5h6t3.5 -0.5t4.5 -2.5
q6 -3 12 -9.5t10 -13.5q8 -15 11 -29t3 -21t-2 -13q-3 -8 -11 -14q-2 -1 -6.5 -3.5t-9.5 -4.5q-30 -14 -77 -42t-90 -57q-14 -10 -25.5 -18.5t-16.5 -11.5q-3 -2 -8 -5.5t-11 -7.5l-4 -4q-29 -19 -45 -31.5t-27 -23.5q-9 -9 -14 -15.5t-7 -11.5q-1 -4 -1 -8v-4
q1 -7 7.5 -18.5t20.5 -33.5q34 -56 81 -120q18 -24 27 -36.5t12.5 -19t3.5 -10.5v-4q0 -5 -2 -8q-2 -2 -4 -2t-4 1z" />
    <glyph glyph-name="equal" unicode="=" horiz-adv-x="654" 
d="M158 603q-18 2 -30 11q-8 6 -15 17.5t-11 24.5q-2 6 -2 12q0 14 15 18q3 1 14.5 2t25.5 2q2 0 6 0.5t7 0.5h1q24 3 42.5 4.5t55 1.5h117.5q147 0 149 -1q6 -2 11.5 -9.5t8.5 -17.5q1 -4 1 -8q0 -13 -14 -16q-3 0 -17 -1.5t-32 -3.5q-60 -6 -93 -10.5t-59 -8.5
q-73 -13 -110 -17q-16 -2 -30.5 -2h-20.5q-13 0 -20 1zM158 421q-18 2 -30 11q-8 6 -15 18t-11 24q-2 6 -2 12q0 15 15 19q3 0 14.5 1t25.5 2l6 1h8q24 4 42.5 5t55 1.5t117.5 0.5q27 0 49 -1q98 0 100 -1q6 -1 11.5 -9t8.5 -17q1 -5 1 -8q0 -14 -14 -16q-3 0 -17 -2t-32 -4
q-60 -6 -93 -10t-59 -9q-73 -12 -110 -17q-16 -2 -38 -2t-33 1z" />
    <glyph glyph-name="greater" unicode="&#x3e;" horiz-adv-x="558" 
d="M263 859q2 -1 4.5 -3t7 -7t11.5 -14q5 -6 11 -14q7 -9 13 -16l10 -12t13 -16.5t22 -27.5q26 -33 48 -65.5t33 -55.5q16 -30 20 -55q2 -8 2 -18t-1 -17q-6 -44 -78 -109q-13 -12 -22.5 -20t-20.5 -16q-54 -39 -112.5 -75t-93.5 -52q-8 -4 -13 -6t-8.5 -2.5t-8.5 -0.5
q-4 0 -6 0.5l-4 1t-4 1.5q-6 3 -12 9.5t-10 13.5q-8 15 -11 29.5t-3 21.5t2 12q3 8 11 14q2 1 6.5 3.5t9.5 4.5q30 14 77 42t90 57q10 7 18 13q18 12 24 17q3 3 9.5 7.5t14.5 8.5q28 20 44 32.5t27 23.5q9 9 14 15.5t7 11.5q1 4 1 8v4q-1 7 -7.5 18.5t-20.5 33.5
q-34 56 -81 119l-27 37.5t-12.5 19t-3.5 10.5q-1 3 -1 5q0 4 3 7q2 2 4 2t4 -1z" />
    <glyph glyph-name="question" unicode="?" horiz-adv-x="1030" 
d="M431 251q-12 4 -24.5 15.5t-18.5 24.5q-3 6 -3 15t3 20q6 22 27 63q45 91 119 193q24 33 53.5 71.5t52.5 66.5q32 39 39 47q4 4 8 9l6 6q10 13 30 36t39 44.5t27 30.5l7 7q5 6 9 11q3 3 6 7q4 5 7 8t6.5 7t6.5 8l1 1q3 4 10 12t15 16q7 9 15 18t12 14q5 6 9 11
q15 17 21.5 24.5t10.5 12.5q1 1 2 1q3 4 5.5 7t4.5 5q1 2 4 5q3 5 7 9q11 13 35 43q7 9 22 28t26 34q21 27 43.5 60.5t33.5 54.5q34 61 44 97q9 34 9 54q0 10 -2 17q-2 4 -7 9.5t-10 8.5q-5 2 -14.5 6.5t-16.5 6.5q-8 3 -21.5 6t-24.5 4q-15 2 -33 2q-33 0 -78 -7
q-14 -2 -39.5 -8.5t-41.5 -12.5q-60 -19 -109.5 -42.5t-106.5 -57.5q-100 -60 -196 -146q-25 -23 -56 -54.5t-55 -59.5q-74 -88 -96 -147q-3 -10 -4 -16.5t-1 -14.5v-5q0 -13 -8 -13h-2q-8 0 -18 7q-12 8 -18 19q-3 6 -3 15q0 15 8 39q19 55 63 122q50 74 119 145
q94 97 209 175q156 103 307 144q33 9 57 12.5t52 4.5h12q18 0 30 -2q17 -2 36 -8q10 -3 17.5 -6.5t19.5 -11.5q12 -7 19 -12.5t15 -13.5q31 -32 52 -86q8 -20 11.5 -36.5t3.5 -40.5v-14.5t-0.5 -9.5t-0.5 -10q-2 -12 -5.5 -26.5t-7.5 -23.5q-1 -5 -3 -10.5t-4 -9.5
q-6 -18 -19 -44t-25 -46q-3 -3 -5.5 -7.5t-3.5 -7.5q-4 -7 -14 -22t-21.5 -31.5t-18.5 -26.5q-4 -6 -12 -16q-6 -7 -11 -14q-9 -12 -25.5 -33t-32.5 -40.5t-23 -27.5q-3 -3 -5.5 -6t-3.5 -5q-7 -7 -20 -23t-24 -29q-7 -8 -14.5 -16.5t-12.5 -14.5q-4 -6 -9 -12t-8 -9
q-3 -2 -6 -6q-5 -6 -10 -11q-3 -5 -8 -10t-8 -9q-4 -4 -7.5 -8t-5.5 -7t-5.5 -7t-10 -11.5t-18.5 -21.5q-9 -11 -22 -27l-25 -28q-11 -13 -13 -16q-1 0 -2 -2q-2 -3 -6.5 -8t-8.5 -10q-5 -5 -9 -10q-8 -9 -12 -14q-2 -2 -5 -6t-7 -8q-1 -2 -3 -4q-4 -4 -12 -14t-17 -20
q-101 -117 -164 -201q-21 -28 -39.5 -56.5t-26.5 -44.5q-3 -7 -3.5 -9.5t-0.5 -4.5q0 -4 3 -9q1 -4 1.5 -6.5t0.5 -4.5q-1 -6 -6 -8q-3 -2 -7.5 -2h-7.5zM320 -173q-7 1 -15.5 6.5t-15.5 12.5q-10 10 -11.5 16t-1.5 9q0 9 4 21q1 5 5 16.5t7.5 22l4.5 13.5q4 9 11.5 18
t12.5 12q2 2 3.5 2.5t3.5 0.5h6q7 0 11.5 -1.5t12.5 -5.5q13 -6 26 -16t20 -20q6 -11 6 -20q0 -4 -1 -8q-4 -7 -12 -16.5t-18 -17.5q-17 -15 -36 -34q-3 -4 -6 -6.5t-5 -3.5t-5 -1h-5h-2z" />
    <glyph glyph-name="at" unicode="@" horiz-adv-x="1137" 
d="M233 -6q-51 4 -106 33q-44 22 -79 56q-8 9 -18.5 21.5t-16.5 22.5q-21 33 -36 70q-5 12 -8 22.5t-7 29.5q-5 18 -6.5 28t-3.5 27q-1 11 -1.5 19.5t-0.5 24.5q0 24 1.5 46t6.5 51q14 87 47 174q55 137 152 251t213 179q12 8 31.5 17.5t32.5 15.5q68 28 141 38q28 4 55 4
q28 0 56 -4q42 -5 80 -20q22 -8 34.5 -14t30.5 -16q79 -47 128 -120q27 -40 39 -92q6 -20 7.5 -37t1.5 -44q0 -75 -23 -145q-29 -88 -82 -159q-43 -58 -82 -76q-19 -9 -39 -9q-23 0 -49 13q-6 3 -15 9t-17 13q-32 25 -49 61q-6 12 -9 22t-7 28q-2 12 -3.5 23t-2.5 30
q0 6 -0.5 11t-0.5 6q-2 4 -6 4q-2 0 -5 -1q-7 -4 -34 -30.5t-63 -63.5q-12 -13 -28 -29.5t-28 -29.5q-57 -60 -90 -89t-58 -42q-16 -9 -32 -9q-6 0 -11 1q-21 5 -40.5 20.5t-26.5 34.5q-1 2 -1.5 6.5t-1.5 8.5q-1 9 -1 18q0 23 7 50q4 17 12.5 40.5t15.5 40.5
q10 20 15.5 31.5t11.5 22.5q16 30 34 58q16 26 31.5 46t38.5 44q64 68 117 79q6 1 22 1h14t9 -1q42 -11 85 -48q11 -10 18 -19t13 -21q6 -11 8.5 -17.5t4.5 -14.5t3.5 -12.5t4 -7l7.5 -7.5q8 -8 12 -14t8 -14q6 -10 8.5 -28t4.5 -56q1 -20 3 -38t4 -26q9 -32 17 -39
q4 -3 10 -3q7 0 18 5q20 8 42 26q8 6 19.5 17.5t19.5 20.5q34 42 61 95q27 54 39 108q12 53 12 98q0 19 -2 37q-3 20 -6.5 33t-8.5 27q-5 10 -7.5 16t-7.5 14q-18 29 -42 49q-36 29 -82 45q-8 3 -21.5 6.5t-25.5 5.5q-30 6 -63 6q-54 0 -113 -16q-53 -15 -108 -45
q-77 -42 -147 -108q-101 -97 -168 -223q-59 -114 -83 -227q-8 -39 -11 -64.5t-3 -54.5q0 -71 16 -123q10 -30 18.5 -48.5t21.5 -39.5q28 -40 58 -54q15 -5 33.5 -6.5t30.5 -1.5t23 1q49 6 103.5 27t97.5 51q4 3 10.5 7.5t13.5 10.5q9 6 14 9.5t8 5t7 1.5q11 0 22.5 -6.5
t14.5 -13.5q1 -2 1 -4q0 -3 -3 -7q-4 -6 -19 -19q-35 -31 -73 -54q-10 -6 -27 -14.5t-29 -13.5q-43 -19 -74 -27t-64 -8h-24zM287 374q5 2 14.5 8t20.5 14q29 22 70.5 62.5t115.5 118.5q11 12 25 27t25 26q9 9 14.5 15t9 9.5t5 5.5t1.5 3v2q1 3 0.5 4.5t-2 4t-3.5 7.5
q-8 11 -20 40q-4 11 -9 12h-2q-13 0 -41 -20q-31 -22 -61 -56q-11 -12 -28.5 -33t-30.5 -37q-42 -54 -73 -109q-18 -33 -30 -61t-12 -37v-2q1 -5 5 -5q3 0 6 1z" />
    <glyph glyph-name="A" unicode="A" horiz-adv-x="1515" 
d="M1066 -167q-36 10 -50 38q-14 31 -14 119v23q0 34 3 61t11 79q4 24 10 53t12 49q2 8 4 15.5t3 12.5q3 10 10 34.5t15 51.5t13 44l5 15t5 17q4 13 11 34.5t13 40.5q5 14 7 20q1 4 5 16q5 12 10 27q5 14 9 28q5 13 7 19q4 12 10 28t10 30q4 10 4 15t-5 6q-1 1 -15 1
q-20 0 -64 -2q-230 -12 -410 -39q-49 -8 -100.5 -17t-71.5 -13q-7 -2 -11.5 -5t-8.5 -8q-3 -5 -15 -24.5t-24 -41.5q-7 -11 -14.5 -24.5t-13.5 -22.5q-108 -183 -142 -261q-3 -8 -5 -12t-3.5 -6t-3.5 -4q-3 -3 -7.5 -4t-11.5 -1q-17 0 -38 10.5t-32 25.5q-8 10 -8 20
q0 5 2 11q7 21 35.5 75t62.5 113q16 29 27.5 48.5t28.5 46.5l6.5 13t1.5 5q0 1 -1 2q-1 3 -3 3.5t-4 0.5l-5 -1q-9 -2 -47 -11t-83.5 -21t-79.5 -21q-56 -16 -80.5 -21.5t-36.5 -5.5h-4q-12 0 -20 8q-13 11 -19 29t-6 31v7q1 9 6.5 14.5t20.5 10.5q35 15 88 31
q63 18 135 33.5t187 34.5h2q11 2 18 3.5t11 2t6 1.5t4 1l6 6t7 9q2 2 9 13q6 7 12 16q18 25 48 65t55 73q249 318 475 514q166 142 275 174q27 8 50 8q19 0 35 -5q14 -5 30.5 -16.5t28.5 -26.5q23 -26 32 -67q4 -12 5 -24t2 -30v-10q0 -79 -29 -195q-7 -29 -11 -46t-9 -33
q-2 -8 -5 -17q-1 -5 -2 -9q-2 -5 -4.5 -13.5t-4.5 -16.5l-16 -48q-7 -22 -11 -36l-6 -17l-4 -13q-1 -3 -2 -5l-4 -12t-4 -11q-1 -4 -3 -9q-4 -11 -6 -18q-1 -4 -3.5 -11t-5.5 -13q-2 -6 -5.5 -15.5t-6.5 -17.5t-7 -20t-8 -21q-5 -15 -8 -23.5t-4 -12.5t-1 -5v-2q0 -2 1 -4
t3.5 -3t7.5 -1.5t14 -1.5q63 -4 117 -12q16 -2 24 -4t11.5 -4.5t5.5 -6.5q3 -7 3 -17v-5q0 -12 -6 -19q-2 -3 -4.5 -4t-8.5 -1q-5 0 -14 2q-66 8 -153 9h-21l-4 -2q-3 -1 -5 -4t-4.5 -9.5l-7.5 -19.5q-4 -12 -10 -29q-3 -10 -6 -18q-12 -35 -19 -55q-5 -16 -10 -27
q-2 -8 -5 -17.5t-6 -16.5q-2 -7 -7 -22l-10 -30q-11 -35 -17.5 -54.5t-10 -32.5t-7.5 -27q-17 -58 -26.5 -92.5t-19.5 -76.5q-3 -11 -7 -28t-8 -32q-7 -30 -14.5 -65t-11.5 -56q-7 -44 -8.5 -68t-1.5 -33q0 -21 4 -29q0 -2 2 -5t4 -5q4 -5 5 -7t1 -4l-1 -4q-1 -7 -7 -10
q-5 -2 -11 -2q-7 0 -13 2zM632 751q213 25 483 28q27 1 46 1q20 0 25 -1h5q11 0 16 4q2 2 4.5 7.5t6.5 16.5l5 12.5t5 13.5q2 4 3 8q3 8 4 10l2 7q3 6 6 15q4 11 8 23q6 16 15 39q0 2 1 5q4 11 10 27q4 9 8 21q5 13 9 23q3 9 6.5 19t6.5 16q1 5 4 12q6 14 12.5 31t10.5 30
q2 6 5 12q2 5 3 8t3.5 10t5.5 14q4 11 7 19q1 4 2 5l9 27t15 44t11 35q25 79 33 129q4 22 5 36t1 32t-0.5 27.5t-3.5 17.5q-3 9 -7 13t-11 6q-9 3 -22 3t-29 -3q-67 -15 -164 -83q-129 -93 -280 -261q-166 -186 -326 -429q-8 -11 -11.5 -17.5t-4 -8.5t-0.5 -4v-2
q1 -1 2 -1.5t3.5 -0.5h4.5h5q6 0 16 1t26 3z" />
    <glyph glyph-name="B" unicode="B" horiz-adv-x="1120" 
d="M215 -65q-1 0 -6.5 0.5t-11.5 0.5q-15 1 -32 3.5t-28 4.5q-64 15 -111 51q-8 6 -17.5 15.5t-15.5 16.5q-10 12 -19.5 27.5t-15.5 30.5q-8 21 -8 42q0 20 7 40q2 7 8 19t10 18q6 9 13 9t16 -12q9 -13 9 -25q0 -3 -1 -6q0 -2 -2 -7t-5 -11q-14 -29 -14 -50v-5
q0 -11 3 -17.5t11 -14.5t21.5 -16.5t26.5 -14.5q53 -23 123 -23q67 0 149 21q229 62 418 204q23 18 46.5 39.5t36.5 36.5q46 53 64 99q6 13 9 29t3 27q0 22 -8 41q-16 30 -59 60q-5 3 -14.5 8t-19.5 10t-16 7q-60 23 -136 29q-25 2 -50 2q-56 0 -117 -9q-8 -1 -12.5 -3.5
t-7.5 -7.5q-5 -7 -19 -35.5t-31 -63.5t-29 -63q-48 -109 -49 -136v-5t1 -3.5t2 -4.5q4 -6 4 -10q0 -9 -6.5 -9.5t-8.5 -0.5q-12 0 -27 7q-28 13 -32 40q-1 4 -1 10q0 12 3 29q3 27 12 60q12 50 41 124l7.5 19.5t2.5 9.5t-1 5q-1 0 -2 0.5t-3 1t-7 0.5h-1q-5 0 -7.5 0.5t-4 1
t-3.5 1.5q-10 5 -19.5 19t-14.5 28q-2 5 -3 13q0 8 3 13.5t12 11.5q10 6 65 36q7 3 12 6q16 9 26 14t15 8.5t8 5t4 3.5q3 3 6 8t9 16q51 96 104 182t86 128q19 24 33 34q9 6 19 6q13 0 28 -8q31 -15 35 -36v-2q0 -6 -4 -16q-6 -13 -21 -38t-44 -69q-26 -41 -36 -57.5
t-11 -20.5v-1q0 -4 4 -4q3 0 9 3q4 2 19 11.5t33 20.5t30 20q78 50 129 85.5t101 73.5q88 69 141 122q19 20 31.5 34.5t24.5 31.5q30 45 30 68q0 5 -4 12.5t-11 13.5q-74 61 -221 74q-14 1 -26.5 1h-38.5q-32 0 -47 -0.5t-42 -2.5q-110 -11 -234 -48q-184 -56 -334 -156
q-63 -42 -108 -86q-71 -70 -86 -133q-2 -11 -2 -21q0 -11 2 -18q5 -16 44 -28q12 -4 18 -6.5t9 -5.5q11 -8 17.5 -19t6.5 -17v-2q0 -2 -1 -3.5t-3 -2.5v-1q-1 -1 -2 -1.5t-2 -0.5h-4q-9 0 -28.5 7.5t-34.5 15.5q-24 14 -40 36q-31 35 -33 72q-1 5 -1 11q0 59 60 130
q129 145 390 254q177 70 353 88q51 5 99 5q57 0 110 -7q22 -3 46.5 -9t44.5 -12q18 -6 36.5 -14t30.5 -16q9 -5 21.5 -15.5t19.5 -17.5q28 -30 43 -83q6 -20 6 -42q0 -21 -6 -43q-3 -12 -7 -21.5t-11 -23.5q-39 -80 -180 -192q-73 -59 -180 -129q-33 -22 -58 -37.5
t-65 -39.5q-27 -17 -59 -35.5t-79 -45.5q-7 -4 -12.5 -7.5t-7.5 -4.5q-2 -2 -2.5 -3.5t-0.5 -2.5q0 -2 6.5 -3.5t23.5 -2.5q67 -4 125 -19q75 -19 131 -56q20 -13 39 -33q50 -50 69 -120q3 -10 4.5 -19t1.5 -21v-12q0 -84 -62 -163q-10 -13 -25.5 -30t-27.5 -28
q-135 -123 -345 -203q-101 -37 -188 -49q-28 -3 -46 -4t-28 -1h-16z" />
    <glyph glyph-name="C" unicode="C" horiz-adv-x="996" 
d="M260 -46q-75 9 -143 50q-29 17 -63 51q-38 40 -63 93q-5 10 -10 24t-7 22l-2 4q-2 6 -3 12q-3 11 -6 24t-5 24v3q-1 4 -1.5 7.5t-0.5 5.5q-1 6 -2.5 16t-2.5 20q-1 19 -1 37.5v28.5v17q1 25 1.5 35.5t1.5 14.5q0 3 1 9q1 5 1 11q1 5 1.5 12t1.5 11t2 10t2 10q5 35 17 83
t25 89q10 30 22.5 63.5t22.5 54.5q1 3 3 8q4 7 6 12q1 2 2 5q2 4 4.5 9.5t4.5 10.5q3 6 6.5 13.5t6.5 13.5q5 11 15 30.5t21 38.5q92 169 211 303q140 157 276 216q8 3 21 7.5t25.5 8.5t18.5 5q13 3 23 4t24 1q24 0 43 -3q7 -2 17 -5.5t16 -5.5q7 -4 17.5 -10.5t17.5 -11.5
q7 -6 16.5 -14t17.5 -17q21 -21 34 -47q18 -35 18 -81q0 -38 -12 -84q-18 -79 -51 -151q-30 -65 -61 -114t-49 -58q-4 -2 -8 -2q-6 0 -13 4q-22 11 -22 22q0 2 1 3.5t3 4t5 6.5q11 13 29 42q58 99 87 196q19 68 24 116q1 13 1 30q0 16 -1 27q-1 9 -4 21.5t-6 18.5
q-3 8 -9 12t-19 7q-6 1 -11 2t-14 1q-6 1 -11 1q-6 0 -11 -1q-11 -1 -29 -5q-19 -4 -36.5 -10.5t-45.5 -20.5q-17 -8 -29 -15t-29 -18q-69 -45 -140 -117q-136 -139 -242 -333q-8 -13 -18.5 -33.5t-19.5 -39.5t-13 -26q-2 -6 -6 -15q-1 -3 -2 -5q-3 -6 -7.5 -17t-9.5 -23
q-50 -126 -70 -245q-12 -71 -12 -133q0 -24 2 -46q2 -26 4.5 -42.5t5.5 -30.5q7 -29 13.5 -47t14.5 -37q12 -25 23 -42.5t28 -35.5q11 -13 27 -24t29 -17q8 -2 18.5 -4t21.5 -3h12q18 0 38 2q28 4 52 12q33 11 51 19q122 57 273 204q59 58 132 142q44 51 95 115
q25 31 43.5 55t39.5 53q10 14 18 23.5t9 11.5q5 4 11 4q7 0 15 -4q6 -3 10.5 -7.5t5.5 -8.5q1 -3 0.5 -5.5t-4 -8.5t-11.5 -17q-99 -142 -221 -289q-20 -24 -35.5 -41.5t-38.5 -43.5l-95 -95q-59 -53 -101 -83t-87 -52q-35 -17 -54 -22q-4 -1 -8.5 -2.5l-7.5 -2.5
q-20 -7 -53 -11q-15 -2 -35 -2q-19 0 -34 2z" />
    <glyph glyph-name="D" unicode="D" horiz-adv-x="1568" 
d="M315 -77q-13 1 -20.5 1.5t-12 1t-8.5 1.5q-20 3 -46 12q-49 16 -81 50q-14 13 -23.5 25.5t-18.5 27.5q-8 14 -13 26t-10 28q-10 31 -10 67q0 35 10 75q4 15 7.5 25.5t10.5 28.5q18 46 53 99q9 14 16 24t21 27q15 20 29.5 37t37.5 42q13 15 38.5 40.5t41.5 39.5
q69 65 133 110q9 6 14 10t7 8q1 2 7 13t13 26t15 30.5t12 24.5q5 9 12 22q6 11 11 21q4 9 8.5 17.5t7.5 12.5v1q23 41 50 86.5t48 78.5q5 7 13 19.5t15 24.5q21 32 33 51.5t19 29.5t11 14t7 6q3 1 5 2t6 1h2q13 0 31 -12q40 -28 40 -53q0 -4 -1 -8t-4.5 -10t-10.5 -17
q-107 -164 -184 -301q-4 -7 -9 -16t-9 -16q-3 -7 -8 -15.5t-8 -14.5l-10 -16q-2 -4 -4 -7q-15 -26 -46.5 -87t-53.5 -109q-34 -71 -57 -133t-24 -83q0 -5 2 -8t9 -8q4 -3 6 -5t3 -5q1 -2 1.5 -3.5t0.5 -2.5t-1 -3q-2 -8 -15 -14q-2 -2 -4 -2.5t-4 -0.5h-7q-8 0 -14 1.5
t-15 6.5q-26 12 -32 35q-2 9 -2 28q0 18 3 37q10 65 48 165q6 14 9 22.5t4.5 13t2 6.5t0.5 4t-0.5 2.5l-1 1t-1.5 0.5t-2.5 -0.5t-2.5 -1.5q-9 -6 -43 -40q-59 -60 -106 -121q-18 -22 -28.5 -36.5t-28.5 -43.5q-14 -22 -30 -54t-26 -57q-15 -42 -20 -84q-2 -13 -2 -29
q0 -15 2 -26q2 -18 8 -29q13 -22 56 -40q19 -7 62 -12h32q21 0 36 1q23 2 40 5t40 9q80 19 177 63q16 7 46 22t48 25q235 128 446 321q42 39 84 83t71 80l4 4q4 5 8.5 10.5t7.5 8.5l15 20q2 3 4 5q4 6 8 11t6 7q1 1 3.5 4.5t5.5 7.5l2 4q4 4 7.5 9.5t5.5 8.5q9 13 24.5 37
t27.5 44q2 4 7 13t10 19l8 16q2 4 6.5 13.5t9.5 20t8.5 18.5t3.5 9q1 1 3 6t5 12q2 7 5 14.5t4 11.5t2.5 9.5t3.5 9.5q3 11 7.5 30t6.5 33q3 18 4.5 29t2.5 25v15q0 48 -11 83q-21 56 -78 108q-22 20 -41.5 33t-49.5 28q-75 38 -167 55q-5 1 -10.5 2t-9.5 2q-4 0 -12 1.5
t-17 2.5q-28 3 -44.5 4.5t-34.5 2t-51 0.5q-30 0 -44.5 -0.5t-27.5 -1t-35 -2.5l-4 -1q-20 -2 -34 -3.5t-33 -4.5q-18 -2 -31 -4.5t-29.5 -6t-45.5 -9.5t-74.5 -18.5t-77.5 -23.5q-45 -15 -84 -30.5t-87 -36.5q-8 -4 -25.5 -12.5t-35.5 -17.5t-27 -14q-91 -50 -158 -104
q-93 -75 -115 -136q-4 -14 -4 -24q0 -12 6 -18q1 0 4.5 -2t7.5 -4q5 -2 9 -4.5t6 -4.5q9 -7 15 -16.5t7 -16.5q0 -11 -11 -11q-5 0 -12 2q-41 16 -69 57q-20 32 -20 63v3q1 24 15 53q21 43 66 88q86 85 232 164q215 113 455 160q11 2 20 4q10 2 14 2q15 3 46 7t54 6
q35 4 65 5t48 1t33 -1q55 -2 88 -7q7 0 15 -2q9 -1 15 -2q20 -2 46.5 -8t51.5 -12q16 -5 35.5 -11.5t31.5 -11.5q28 -12 44 -20t34 -19q28 -16 45.5 -29.5t35.5 -31.5q14 -13 22.5 -23t17.5 -22q8 -11 18 -27t17 -28q31 -61 45 -130q2 -13 3.5 -21.5t3.5 -24.5q1 -11 1 -20
v-26q0 -20 -1 -31.5t-3 -28.5q-2 -14 -6 -34.5t-8 -34.5l-4 -12t-3 -10q0 -3 -2 -8t-3 -9q-2 -5 -4.5 -12t-4.5 -13t-4.5 -12t-3.5 -8q-1 -3 -3 -7t-3 -7q-3 -8 -6 -15t-7.5 -16.5t-12.5 -25.5q-14 -27 -33.5 -60t-35.5 -57q-3 -3 -5 -7q-6 -8 -9 -13l-2 -2q-2 -4 -5 -8.5
t-6 -7.5q-19 -25 -34 -44.5t-22 -28.5q-11 -13 -17 -20q-7 -8 -11.5 -13.5t-10.5 -11.5q-25 -29 -63.5 -68.5t-65.5 -64.5q-27 -24 -41 -36.5t-29 -24.5q-5 -5 -10.5 -9t-8.5 -7q-2 -2 -3 -2q-13 -12 -43.5 -36t-55.5 -42q-164 -118 -334 -192q-84 -36 -160 -55
q-80 -20 -143 -20q-14 0 -26 1z" />
    <glyph glyph-name="E" unicode="E" horiz-adv-x="1055" 
d="M205 -33q-54 2 -114 32q-16 8 -27.5 15.5t-26.5 20.5q-17 15 -29 33q-5 8 -9 15.5t-10 22.5q-16 35 -22 86q-1 7 -1 16.5v30.5q0 43 3 74.5t12 76.5q22 108 66 227q3 9 6 17l5 14q3 8 2.5 12t-4.5 5q0 1 -2 1q-1 0 -4 -1q-5 0 -17 -2q-19 -2 -30.5 -2h-16.5h-9
q-17 4 -24 34q-3 14 -3 25q0 18 8 29q2 2 5.5 4t10.5 4q29 9 102 14q10 1 17.5 2t9.5 1q1 0 3 1t3 3q4 4 14 23.5t23 48.5q5 13 20 43t32.5 63t30.5 57q93 168 186 298q8 11 13 18t7.5 11t3.5 6t0.5 3t-1.5 2t-2.5 1.5t-4.5 0.5q-5 0 -130 -21q-39 -6 -78.5 -12t-56.5 -7
q-11 -1 -22 -1q-12 0 -19 1q-17 2 -26 15q-13 15 -18 35q-1 4 -1.5 8t-0.5 12v9t0.5 4.5t1.5 3.5q4 10 21 15.5t59 11.5q53 8 85 11q7 0 15 1t13 2q8 1 32 3t48 4.5t31 2.5q3 0 11.5 0.5t17.5 1.5q116 9 249 13q42 1 102 1.5t94 0.5q33 0 60 -1q281 -5 405 -24
q11 -2 16.5 -3.5t8 -3t3.5 -4.5q3 -5 3 -12q0 -3 -1 -7q-2 -12 -8 -18q-2 -3 -4.5 -4t-7.5 -1t-14 1q-100 12 -278 12h-28q-65 -1 -110 -2t-93 -5q-15 -1 -26 -1.5t-30 -2.5q-5 0 -12 -1q-35 -3 -74 -7q-16 -1 -25 -2.5t-13.5 -2.5t-6.5 -2.5t-3 -3.5q-3 -6 -5.5 -8.5
t-7.5 -5.5q-10 -6 -22 -17.5t-30 -34.5q-51 -64 -111.5 -156.5t-111.5 -184.5q-30 -54 -40 -75l-4 -8q-5 -11 -10 -21q-3 -6 -7 -13.5t-7 -12.5l-5 -10t-5 -11q-2 -4 -4.5 -9.5t-4.5 -9.5q-4 -7 -4 -9v-2q0 -2 2 -3q0 -1 1 -1.5t3.5 -1t7 -0.5h12.5t20 0.5t29.5 1t41.5 1.5
t43 1q58 2 91.5 3t78.5 1q15 1 26 1h17.5h10.5h6.5h3.5l1 -1q11 -6 11 -26v-4q-1 -16 -8 -22v-1l-2 -2t-4 -1.5t-9.5 -1t-17.5 -1.5t-28 -2.5t-42 -3.5q-15 -1 -34 -3q-165 -13 -262 -26q-15 -2 -23.5 -3.5t-13.5 -2.5t-7 -2.5t-3 -3.5q-2 -2 -7.5 -15.5t-12.5 -31.5
t-13 -35q-3 -6 -5.5 -13.5t-4.5 -12.5q-7 -18 -17.5 -49.5t-16.5 -53.5q-36 -121 -43 -218q-1 -15 -1 -34v-19q1 -30 4 -51q3 -18 8.5 -37.5t10.5 -28.5q6 -11 13.5 -22t14.5 -18q8 -9 19.5 -12.5t34.5 -4.5h8q16 0 37 3q26 4 49 11q4 1 9 2.5t8 2.5q15 4 48 17t60 25
q23 10 39 17.5t35 16.5q11 5 25 12l24 12q17 7 27.5 12.5t23.5 10.5q10 5 19 9t12 6t13 6q11 5 25 12q18 8 31 14q28 13 42 20q6 2 13.5 5.5t13.5 6.5q9 4 21 9q6 2 10 4l12 6q29 12 58 25q7 3 14.5 6.5t14.5 5.5l3 2q14 6 22.5 9.5t12.5 5t6.5 1.5h5.5h5t4 -0.5t5 -2.5
q5 -3 10 -6.5t6 -6.5t1 -5q0 -3 -2 -6q-3 -4 -38 -20q-4 -2 -12.5 -6t-19.5 -9l-10 -4l-16 -8q-21 -10 -32 -15q-6 -3 -18 -8.5t-23 -11.5q-11 -5 -18 -8l-7 -4q-1 0 -13 -6t-28 -14.5t-31 -16.5t-22 -11q-10 -5 -27 -14t-33.5 -18t-24.5 -13q-138 -76 -198 -100
q-5 -2 -10.5 -4.5t-9.5 -3.5q-14 -6 -38 -13.5t-40 -10.5q-6 -2 -17.5 -3.5t-22.5 -2.5q-10 -1 -22 -1h-13z" />
    <glyph glyph-name="F" unicode="F" horiz-adv-x="801" 
d="M64 -16q-14 3 -25.5 10t-17.5 15q-4 5 -8 12.5t-6 14.5q-8 26 -8 51.5v30.5q0 39 6 80q13 73 42.5 169t67.5 187q4 9 6 14l3 7.5t1 3.5t-1 1q-1 2 -2 3q-1 2 -2.5 2h-4.5h-15q-38 -6 -61 -9t-32.5 -3h-13.5h-8q-7 0 -11 3q-21 10 -24 50v17q0 8 1 12q5 15 22 19
q16 3 51.5 8t61.5 7q15 1 22 1q8 0 14 -2q5 -2 8.5 -2.5t7.5 -0.5q8 0 18 1t13 2t5.5 3.5t6 9t9.5 17.5q12 25 35.5 72l36.5 73q110 210 244 419q7 10 12 19q9 14 13 19q7 11 8 14.5t1 5.5t-2 3q-1 1 -2.5 1.5t-6.5 0.5q-9 0 -43.5 -4.5t-77 -10.5t-78.5 -12q-47 -8 -62 -8
q-5 0 -7.5 0.5t-3.5 0.5t-3 2q-11 6 -18 29q-5 15 -5 31v5q0 25 16 29q35 11 136 21q132 12 287 20q70 3 133.5 4t99.5 1q37 0 68 -1q104 -3 199.5 -8.5t153.5 -11.5q30 -4 53 -7.5t31 -6.5q13 -4 13 -23t-9 -27q-2 -2 -3.5 -2.5t-4.5 -0.5h-5q-6 0 -17 2q-44 6 -126.5 9
t-146.5 3q-32 0 -64 -1q-133 -3 -312 -15q-14 -1 -20.5 -1.5t-10 -2t-6.5 -3.5q-7 -6 -37 -50.5t-70 -107t-77 -123.5q-94 -157 -172 -310q-11 -21 -18 -37q-7 -12 -8 -16q-4 -8 -4 -12t3 -6q1 -1 2 -1t3.5 -0.5t8 -0.5h14h21h30h40.5h89.5t48 -1t35.5 -2q15 -2 28.5 -3.5
t18.5 -2.5q3 -1 5 -2l4 -2q10 -7 10 -27v-4q0 -6 -0.5 -8.5t-2.5 -6.5l-3 -4.5t-3 -2.5t-3.5 -1.5t-5.5 -0.5q-3 0 -10 0.5t-17 1.5h-21q-63 0 -198 -9q-28 -2 -58 -4.5t-51.5 -5t-25.5 -2.5q-6 -2 -10 -7q-4 -4 -20.5 -41t-40.5 -95q-3 -6 -5 -13q-6 -14 -10 -23
q-80 -191 -105 -310q-4 -20 -5.5 -33.5t-1.5 -32.5v-12v-6.5t0.5 -3.5l1.5 -3q1 -3 3.5 -5t8.5 -5q16 -9 16 -18q0 -3 -1 -5q-5 -7 -13 -8.5t-13 -1.5q-6 0 -13 2z" />
    <glyph glyph-name="G" unicode="G" horiz-adv-x="1198" 
d="M638 -139q-25 5 -40 17q-12 10 -18 25t-8 43q-1 9 -1 24v15q1 24 3 42q1 15 5 36.5t8 39.5q13 47 45 131t69 163l4 10q4 9 7 15q15 32 33 68q15 32 18.5 41t3.5 12q0 2 -1 2q-4 0 -13 -9l-103 -103q-42 -41 -75.5 -74.5t-44.5 -43.5l-18 -18q-13 -12 -23 -20
q-8 -8 -17 -16.5t-15 -13.5q-5 -4 -10 -9q-6 -5 -8 -7q-98 -86 -166 -120q-16 -8 -36.5 -15.5t-35.5 -10.5q-16 -3 -34 -3q-19 0 -34 3q-20 3 -40.5 10t-34.5 16q-7 4 -17.5 11.5t-17.5 13.5q-5 5 -13.5 15.5t-14.5 20.5q-24 39 -37 99q-8 46 -8 100t8 115q20 145 80 298
q59 151 151 297q112 176 242 301q59 57 117 98q28 20 59 37.5t57 28.5q12 5 31 11.5t30 9.5q34 8 65 8q18 0 36 -3q4 0 13.5 -3l19 -6t14.5 -5q7 -3 18.5 -9.5t20.5 -12.5q15 -10 32.5 -26.5t29.5 -29.5q26 -33 37 -69q10 -34 10 -74v-7q0 -20 -3 -39t-9 -45
q-16 -65 -55 -145q-8 -17 -20 -39.5t-22.5 -40.5t-13.5 -22q-1 -1 -2.5 -2t-2.5 -2h-4q-5 0 -11 2q-9 4 -16 11t-8 14v5q0 3 2.5 8t6.5 14q52 110 71 200q11 53 12 96q0 13 -0.5 21t-1.5 18q-4 42 -18 69q-6 13 -12 19t-17 9q-6 2 -18 3.5t-23 2.5h-6q-17 0 -42 -5
q-30 -6 -53 -15q-31 -13 -54 -24q-153 -83 -305 -268q-150 -186 -244 -409l-6 -16q-3 -7 -5 -12q-1 -1 -1 -3l-3.5 -7t-1.5 -5q-1 -3 -3 -7q-2 -5 -3 -9q-2 -5 -4.5 -11t-3.5 -10q-2 -5 -4.5 -12t-4.5 -14q-40 -114 -56 -222q-3 -21 -4 -36.5t-2 -35.5q-1 -18 -1 -28v-24
q3 -73 21 -117q14 -35 31 -52q8 -8 13 -10.5t15 -2.5q27 0 65 16q44 17 94 52q24 17 56.5 42t52.5 43q3 2 6 5q7 6 15 13q85 74 222 209q38 37 78.5 77.5l69.5 69.5l31 31q1 3 1 5t-2 3q-1 1 -3 1h-7t-14 -0.5t-23 -1.5q-4 0 -8 -1q-72 -5 -123.5 -10t-106.5 -13
q-20 -3 -32 -5t-18 -2.5t-10 -1t-10 -0.5h-9.5t-5 0.5t-3.5 1.5q-12 5 -18 27q-5 15 -5 28v4q0 15 6 21q2 2 5.5 3t11 2t22.5 2q9 1 20 2t31 3q9 1 20 2q6 0 13 1h6q5 1 18 2q20 1 43.5 3t38.5 3q77 5 169 5q71 0 152 -3q139 -4 196 -16q15 -2 19.5 -8.5t4.5 -18.5v-5
q0 -6 -0.5 -8.5t-1.5 -6.5q-2 -2 -3.5 -4t-3.5 -3t-3.5 -1h-2.5h-4q-4 0 -13 1q-36 5 -128 6q-50 0 -51 -1q-4 -1 -6 -4t-4 -9q-5 -16 -21 -46q-5 -9 -9 -18q-12 -22 -19 -35q-23 -43 -53 -101t-51 -104q-10 -20 -15 -31t-9 -20q-3 -6 -6 -14q-55 -124 -90 -231
q-4 -12 -9 -26.5t-9 -25.5q-21 -60 -26 -92q-4 -17 -4 -22.5v-7.5q0 -5 2 -7l2 -2t4 -2.5t8 -4.5q16 -8 16 -17t-14 -19q-11 -8 -23 -8q-6 0 -13 2z" />
    <glyph glyph-name="H" unicode="H" horiz-adv-x="1447" 
d="M1062 -7q-6 1 -13 3.5t-15 6.5q-40 17 -49 77q-3 18 -4 29t-1 35q0 30 1.5 48.5t6.5 45.5q19 108 64 230q23 62 56 139q10 23 16 36t13 28q2 5 5 12q6 12 10 21t4 10v2q0 4 -4 6l-2 1h-6.5t-13 -0.5t-22 -1.5t-34.5 -3q-145 -10 -270 -24.5t-286 -40.5q-3 -1 -6 -1
q-15 -2 -23 -3.5t-11.5 -2.5t-5 -2t-3.5 -3q-4 -7 -23.5 -48t-40.5 -89q-27 -63 -47 -117t-20 -64q0 -1 0.5 -3.5t0.5 -3.5q1 -4 1 -8q0 -6 -4 -10q-5 -5 -14 -5q-5 0 -9.5 1.5t-12.5 4.5q-28 13 -29 33l-1 4q0 23 19 91q20 77 54 168q4 10 5.5 15t1.5 7q0 3 -2 4q-1 2 -6 2
q-4 0 -13 -2q-38 -6 -65 -11t-58 -9q-41 -7 -79 -14t-62 -11q-27 -5 -40.5 -7t-21.5 -2h-6q-5 0 -7 1q-4 1 -9 5q-9 8 -17 21.5t-11 29.5q-2 8 -2.5 14t-0.5 8q0 5 2 8q2 8 10.5 13t29 10t59.5 12l8 2q35 6 55 9.5t46 7.5q85 15 215 30h2q7 1 12.5 2t6.5 1q7 3 12 15
q8 18 23 52t29 62q4 8 11.5 24t14.5 30t9 17l4.5 9t8.5 16q20 36 35 64q3 6 7.5 13.5t7.5 13.5q10 17 15.5 27t12.5 22q4 6 9 15q29 49 53 88t61 96q40 62 52 74q15 15 32 15q10 0 20 -5q13 -6 25 -18.5t16 -22.5q2 -5 2 -11t-1 -12q-2 -7 -6.5 -15.5t-15.5 -23.5
q-35 -52 -76.5 -118.5t-75.5 -125.5q-5 -9 -11 -19l-4 -6q-2 -5 -5.5 -10.5t-5.5 -9.5q-3 -4 -5.5 -9.5t-4.5 -9.5q-10 -17 -29.5 -52.5t-35.5 -66.5q-6 -11 -11 -21l-7 -14q-5 -9 -11.5 -21.5t-12 -22.5t-6.5 -13q-2 -3 -2 -6q0 -5 8 -5h11q8 0 18 1q65 6 145 11t203 11
q20 1 37 2q10 0 16 1q38 1 87 3t92 4q16 0 28 1t14 1q1 0 3 1t3 2t2.5 3t3.5 6t6 11.5t10 20.5q31 58 74 133.5t76 127.5q3 5 9 14.5t13 19.5q16 26 38.5 60.5t33.5 51.5q2 3 9 13q4 7 9 14q37 54 80 113q15 21 24 32t14.5 16t11.5 7q4 2 5.5 3t3.5 1h6q5 0 7.5 -0.5
t6.5 -2.5q15 -6 27.5 -18t19.5 -25q1 -3 1.5 -5l1 -4t-0.5 -6v-7t-2 -7q-1 -5 -4 -10t-9.5 -15t-20.5 -28q-47 -64 -98.5 -141t-93.5 -145q-4 -7 -9 -14q-4 -8 -7 -12q-13 -20 -34 -56.5t-34 -59.5t-21.5 -38.5t-13.5 -25t-7.5 -14.5t-3 -6.5t-0.5 -2.5l1 -1q1 -3 4 -4.5
t10 -1.5q40 -1 66.5 -2.5t31.5 -2.5q8 -3 12 -13q1 -5 0.5 -14t-2.5 -14q-1 -5 -4 -8.5t-6 -3.5q-2 -1 -16.5 -1h-35.5h-73q-12 -1 -18 -2t-9.5 -6.5t-9.5 -18.5q-1 -3 -3 -5q-72 -148 -122 -283q-35 -92 -54 -152t-29 -108q-5 -27 -7.5 -49t-2.5 -36l1 -12q1 -11 2 -16
t4.5 -8t9.5 -6q20 -9 20 -19q0 -9 -10 -13.5t-22 -4.5h-5z" />
    <glyph glyph-name="I" unicode="I" horiz-adv-x="767" 
d="M-18 -41q-2 0 -5 1q-1 1 -2 1q-12 7 -18.5 25.5t-6.5 33.5v8q2 17 14 20q4 1 16 3t26.5 4.5t25.5 3.5q16 2 38.5 4t39.5 3l1 1q6 0 11 0.5t6 0.5q9 1 42 2.5t71 2.5q10 1 15.5 1t8 1t4.5 2q1 1 1.5 3t1 6.5t1.5 12.5q5 87 45 221q5 16 13.5 42t13.5 40q42 118 81 207
q26 59 68 141t81 151q128 228 293 467q10 14 10 19v2q-2 3 -11 3q-5 0 -11 -1q-62 -3 -139 -10q-46 -4 -69 -5.5t-37 -1.5q-22 0 -31 2t-14 8q-9 11 -13.5 29t-4.5 31v8q2 18 11.5 21t18.5 3q13 0 35 -4l18 -2l58 1q23 0 49 0.5t40 0.5q38 1 89 1q52 0 89 -1q39 -1 89 -3
t86 -4q64 -4 109 -9t55 -10q12 -5 12 -27q0 -7 -1 -11.5t-4 -7.5q-2 -2 -4.5 -3t-7.5 -1q-6 0 -17 1q-67 5 -159 5h-55q-15 -1 -26 -1.5t-12 -0.5q-4 -1 -5.5 -3.5t-1.5 -9.5q0 -6 -1.5 -10t-5 -10t-10.5 -16q-95 -132 -207 -310q-10 -17 -26.5 -44.5l-31.5 -52.5t-22 -36
l-5 -10q-5 -8 -9 -15q-12 -21 -30.5 -55t-33.5 -61q-2 -5 -5 -10q-7 -12 -11 -21q-7 -13 -20.5 -39t-26.5 -53.5t-21 -41.5q-5 -11 -11.5 -25t-12.5 -26q-19 -40 -28 -58.5t-14 -28.5q-1 -3 -3 -7q-109 -235 -136 -359q-1 -7 -1 -12v-4q0 -5 5 -6q2 0 16.5 -0.5t36.5 -1.5
q207 -2 285 -13q18 -3 26.5 -6t11.5 -7q4 -7 4 -20t-5 -22q-1 -2 -2.5 -3.5l-2.5 -2.5l-3 -1.5t-3 -0.5h-6h-2q-4 0 -9 1t-10 1q-10 1 -43 1.5t-68.5 0.5t-61.5 -1q-89 -2 -202 -11q-53 -4 -98.5 -8.5t-100.5 -11.5q-19 -3 -33 -4q-21 -3 -32.5 -4.5t-18.5 -1.5
q-13 -1 -22.5 -1h-14.5h-7z" />
    <glyph glyph-name="J" unicode="J" horiz-adv-x="1021" 
d="M185 -6q-42 3 -80 19l-19 9.5t-20 11.5q-60 37 -88 98q-16 32 -22 69q-6 29 -6 62q0 26 4 55q15 107 63 224q36 90 85 152q14 18 20 19q2 1 5 1q4 0 9 -2q7 -2 14 -8q5 -6 5 -12v-3q0 -1 -4 -6t-8 -12q-33 -42 -56 -90q-62 -129 -80 -263q-4 -32 -4 -61q0 -56 15 -102
q10 -31 24 -52q29 -47 72 -55q3 -1 8 -2q6 -1 9 -1h23q14 0 23 1q42 7 85 29q137 74 287 292q17 24 44 66t51 80q63 104 139 244q5 10 12 22.5t12 22.5q7 12 14 25q4 7 6 12l4 8q7 14 13 25q11 20 44 81l2 4q3 8 6 12.5t3 5.5t4 7q3 7 8 16q12 23 27 51.5t23 43.5q1 1 2 3
q3 6 8 15t9 18q5 8 10 18t9 17l2 4q15 29 23.5 45.5t19.5 38.5q21 42 37 77t19 43q0 1 -0.5 2.5t-0.5 2.5q-1 2 -3 3t-8 1q-5 0 -17 -1q-22 0 -43.5 -1t-37.5 -2q-7 0 -15 -1h-16q-123 -7 -250 -21q-98 -10 -184 -21.5t-194 -29.5q-54 -9 -80.5 -12t-40.5 -3q-9 1 -13.5 2
t-8.5 4q-16 14 -24 49q-2 9 -2 16.5v10.5q0 6 1 10q3 9 10 13q8 3 57.5 9t109.5 11q56 4 99.5 7t91.5 6q15 1 28 2h9q142 9 335 11q69 1 186 0.5t178 -1.5q157 -3 220 -10q12 -1 18.5 -2t9 -2.5t4.5 -4.5q2 -5 2 -14t-4 -16q-2 -6 -6 -8.5t-12 -2.5h-10q-7 1 -34 2.5
t-56 1.5q-26 1 -66 1h-73t-41 -1h-1q-3 0 -5 -0.5t-3 -1t-1 -1.5q-2 -1 -2 -5q0 -3 1 -8t1 -11q0 -7 -1 -10q-1 -2 -3.5 -8t-5.5 -13q-4 -8 -8 -17q-2 -4 -3 -7q-5 -10 -16 -34t-20 -43q-10 -20 -24 -48.5t-28 -55.5q-16 -32 -24.5 -47t-11.5 -22l-5 -10l-12 -21
q-4 -9 -9 -17q-27 -52 -40 -77q-4 -8 -9 -16l-7 -14l-10.5 -21t-12 -23.5t-6.5 -12.5t-6 -11t-11 -22q-7 -12 -13 -24l-9 -18q-4 -7 -11 -20l-12 -22q-5 -11 -11 -22t-9 -17q0 -1 -1 -2q-3 -5 -6.5 -11.5t-6.5 -11.5q-2 -5 -7 -14t-10 -19q-1 -1 -2 -3l-11 -20q-4 -7 -5 -9
q-19 -35 -49 -85.5t-52 -85.5q-45 -73 -107 -148q-83 -104 -164 -171q-68 -57 -139 -87q-35 -14 -74 -20q-10 -2 -22 -2h-19h-11z" />
    <glyph glyph-name="K" unicode="K" horiz-adv-x="1106" 
d="M-2 -16q-4 1 -10.5 3.5t-12.5 5.5q-5 2 -7.5 4t-5.5 5q-7 7 -9.5 14.5t-2.5 20.5q5 81 116 327q1 2 2 5q5 11 8 18.5t3 8.5v2q0 3 -1 4q-2 2 -9 3q-16 3 -30 24q-10 16 -10 27v3q1 4 4 8t12 10t26 16.5t46 28.5q11 7 20 12.5t10 6.5q2 1 5.5 8t12 23.5t23.5 45.5
q59 119 97 191.5t82 147.5q9 16 18 31q6 12 10 19q5 8 9.5 16t7.5 13q3 6 9 15.5t12 19.5q47 81 107 182q6 10 13 22q14 24 25 41l14 24t10 18q4 5 10.5 17t13.5 24t13 21.5t7 11.5q8 11 19 16v1q2 1 3.5 1.5t3.5 0.5h5q26 -3 51 -28q5 -4 7.5 -7t4.5 -7q5 -10 5 -20t-4 -19
q-2 -5 -11.5 -22.5t-22.5 -39.5q-4 -6 -12 -20q-5 -9 -11 -18q-7 -12 -19.5 -33.5t-24.5 -41.5q-84 -141 -128 -216t-81 -141q-10 -18 -18 -32q-2 -3 -3 -5q-3 -6 -8 -14l-10 -18q-8 -14 -20.5 -36t-23.5 -40.5t-13 -23.5q-5 -9 -5 -13q0 -1 1 -2q0 -1 1 -1t3.5 0.5t7 3
t11.5 6.5t18.5 11t27.5 17q168 100 299 185q35 22 97.5 63.5t103.5 69.5q9 6 17 12t12 8q5 4 12 8l8 6q5 4 18 13q10 6 20 13q63 43 104 72q6 4 11 8t8 6t14 10.5t23 17.5t19 15q16 12 38.5 30t37.5 32q9 7 14 10t10 3q10 0 21.5 -14.5t16.5 -33.5q2 -6 2 -12t-2 -13
q-4 -13 -16 -30q-11 -18 -27 -34q-42 -45 -168 -132q-70 -50 -145.5 -97t-195.5 -117q-63 -37 -138.5 -80t-190.5 -106q-10 -5 -20 -11q-61 -34 -103.5 -57.5t-46.5 -26.5q-5 -5 -5 -7q0 -4 9 -4q2 0 9.5 0.5t16.5 1.5h4q9 1 18 1.5t16 1.5h13l17 1q43 2 96 2q39 0 83 -1
q27 -1 49.5 -2t69.5 -5q4 0 11 -1q9 0 18.5 -1t16.5 -1.5t8 -0.5q2 -1 7 -1.5t11 -0.5q27 -3 65.5 -8t64.5 -9q33 -5 58.5 -11.5t34.5 -10.5q8 -4 13.5 -14t5.5 -20q0 -3 -0.5 -4.5t-1.5 -2.5q-2 -3 -7 -3q-4 0 -15 3q-78 18 -246 29q-106 6 -192 6q-32 0 -61 -1
q-17 -1 -35 -1.5t-31.5 -1.5t-14.5 -1t-5.5 -0.5t-10.5 -0.5q-25 -2 -65 -6.5t-60 -7.5q-8 -1 -12 -3t-7 -6q-4 -7 -19.5 -37.5t-34.5 -69t-33 -68.5q-24 -51 -45.5 -101.5t-34.5 -82.5q-4 -12 -5.5 -17.5t-1.5 -8.5v-2q1 -4 5 -7q7 -8 7 -13q0 -6 -6.5 -13.5t-13.5 -11.5
q-3 -2 -5 -2h-6h-8z" />
    <glyph glyph-name="L" unicode="L" horiz-adv-x="1055" 
d="M-12 -6q-8 2 -14 9q-4 4 -7.5 8.5t-7.5 13.5q-9 21 -9 36q0 5 1 9q1 3 2 5t4 4q27 24 178 67q9 3 15.5 5t8.5 2l3.5 3.5t2 4.5t0.5 5q0 3 -1 7q0 70 32 175q31 101 88 227q4 8 8 17t6 14q14 32 33.5 71.5t33.5 66.5q65 122 149 258q85 140 219 331q5 7 13.5 19t16.5 24
l10 14q11 17 17 25q10 15 16.5 20t13.5 5l3 1l3 -1q3 0 7 -1q23 -7 40 -23.5t21 -34.5l1 -5l-1 -5q0 -4 -5 -12.5t-16 -24.5t-31 -44q0 -1 -1 -2q-43 -61 -69.5 -100t-54.5 -79q-111 -168 -188 -304q-4 -8 -7.5 -14t-4.5 -7q-6 -10 -34 -62t-62 -116q-60 -116 -107.5 -223.5
t-67.5 -175.5q-3 -13 -3.5 -17.5t-0.5 -6.5q0 -3 1 -4q1 -2 2 -2h4q2 0 12.5 2t24.5 6q147 34 290 53q198 27 352 27q93 0 169 -10q39 -5 72 -13t53 -15q8 -4 13.5 -7t9.5 -8q6 -6 8 -13t2 -20q-1 -23 -11 -23q-2 0 -3.5 1t-5.5 5q-3 3 -5.5 5t-6.5 3q-15 6 -44.5 11.5
t-65.5 8.5q-37 3 -82 3q-92 0 -215 -14q-182 -20 -378 -64q-180 -39 -353 -98q-24 -7 -37 -11.5t-21 -6.5t-14 -3q-7 -2 -12.5 -2h-8.5h-4z" />
    <glyph glyph-name="M" unicode="M" horiz-adv-x="1563" 
d="M1014 -52q-8 3 -15.5 10t-10.5 13q-2 4 -2 8v2q0 5 3 12q2 5 15 32q8 16 18 37q35 72 55.5 114t50.5 107q23 46 43 87.5t49 99.5q18 36 31.5 63.5t16.5 33.5q5 9 16.5 31t23 44.5t17.5 34.5q3 7 9.5 19.5t12.5 24.5q24 45 36 68.5t23 46.5q8 16 16 31t12 24
q20 39 47.5 96t38.5 84q2 4 4.5 9.5t4.5 11.5q27 59 50 123q9 26 18.5 59t15.5 60q0 1 1 8l2 8q1 9 1.5 16t0.5 19l1 12q0 12 -2 19q-2 10 -8 13q-6 5 -17 6t-20 1h-10q-117 -18 -315 -187q-109 -93 -227 -222q-125 -136 -242 -302q-39 -56 -73.5 -110.5t-76.5 -127.5
q-14 -24 -21.5 -37.5t-11.5 -20t-6.5 -8.5t-5.5 -3q-4 -2 -10 -2q-7 0 -18 4q-18 7 -33 22q-8 7 -10.5 12.5t-2.5 14.5q0 7 1.5 14t5.5 20q5 18 16 48.5t21 54.5q2 5 6 16t8 21q3 7 6 16q6 16 10 25q1 3 2 7q3 6 5.5 12.5t4.5 11.5q8 22 31 79l1 4q16 41 25 63q11 27 17 42
q3 10 7 20.5t7 17.5q9 23 19.5 53t16.5 49q6 18 11 36t6 23q1 3 1 6q0 5 -4 5q-1 0 -4 -1q-7 -3 -23 -16.5t-35 -31.5q-14 -13 -38.5 -37.5t-37.5 -39.5q-5 -5 -10 -11l-7 -7q-26 -30 -66 -79t-76 -96q-33 -46 -68.5 -97t-62.5 -91q-3 -6 -8 -14t-9 -15q-88 -136 -181 -306
q-8 -15 -21.5 -41t-23.5 -47q-5 -11 -8.5 -17.5t-7.5 -9t-9 -4.5q-4 -1 -8 -1q-11 0 -25 5q-21 6 -38 19q-10 7 -14 15q-2 5 -2 10q0 7 3 16q10 28 48 99t81 143q33 53 69 109.5t63 95.5q12 17 21 29q18 26 28.5 40.5t23.5 32.5q13 19 32.5 45t29.5 38q3 4 8 10q6 9 12 15
q4 6 11 15l10 12q3 4 7 9q8 9 13 16q34 43 80 93q137 150 214 190q21 10 39 10q10 0 18 -3q22 -9 42.5 -26t29.5 -34q9 -15 10 -27q2 -7 2 -16q0 -50 -44 -172q-3 -10 -6 -18.5t-4 -11.5q-2 -4 -5 -11q-1 -4 -2 -7q-5 -12 -10 -27q-9 -23 -17 -44q-13 -32 -13 -38q0 -2 2 -2
q1 0 5 3q1 1 3.5 4t5.5 6q2 2 3 4q39 50 59 74.5t42 50.5q58 69 108 125q6 6 12 12.5t9 9.5q22 25 68 71.5t75 74.5q140 132 251 202q110 70 174 70q17 0 31 -5q18 -5 38 -24q34 -34 45 -75q5 -19 6.5 -32t1.5 -25l-1 -13q-2 -64 -25 -137q-26 -90 -72 -189
q-3 -9 -7.5 -18.5t-7.5 -16.5q-15 -33 -45.5 -94t-60.5 -119q-18 -36 -31 -60.5t-16 -28.5q-1 -3 -5 -10q-3 -7 -7 -15q-10 -17 -18 -33q-20 -36 -30 -55q-4 -7 -8.5 -15.5t-7.5 -13.5q-3 -7 -9 -17q-2 -4 -5 -9l-11 -22q-4 -7 -8 -13q-5 -9 -11 -21t-11 -21q-5 -8 -10 -17
t-7 -13l-4 -8q-27 -49 -77 -138q-15 -28 -28 -51q-19 -36 -44 -80q-5 -9 -9 -18q-17 -31 -29 -53t-20 -36.5t-13 -23t-8 -12.5t-4.5 -5.5t-3.5 -2.5q-2 -2 -7 -2q-4 0 -8 2z" />
    <glyph glyph-name="N" unicode="N" horiz-adv-x="1520" 
d="M4 -27q-17 4 -32 12t-20 16q-2 3 -2 9q0 37 73 199q85 194 228 452q37 68 72 134q25 44 51 93q44 80 67.5 122.5t38.5 68.5t29 49t19 30q8 9 22 9q11 0 26 -5q27 -9 46 -28q12 -11 12 -21q1 -3 1 -10t-1 -18q-1 -21 -3 -43q-1 -14 -2 -26v-7q0 -5 -0.5 -11.5t-1.5 -10.5
q0 -5 -0.5 -10t-0.5 -8v-8t-1 -8q0 -2 -0.5 -6.5t-0.5 -11.5q-1 -5 -1 -10q0 -9 -1 -23t-2 -26q-1 -17 -2 -32v-11q-1 -6 -1 -13q-1 -10 -1 -18q-3 -48 -3.5 -95t-0.5 -72v-45q1 -58 5 -101q7 -80 14 -124q2 -5 3 -11q2 -10 3 -16q0 -3 1 -7.5t2 -8.5v-2q1 -4 2 -9t2 -9
t2 -8.5t2 -6.5q2 -4 4 -14q1 -4 3 -8q9 -34 25 -70q4 -9 12 -24t15 -25q20 -31 41 -44q6 -4 11.5 -5.5t14.5 -1.5q61 1 143 54q109 73 223 228q128 176 207 372q67 172 95 329q14 82 14 138v19q-2 32 -6 53q-14 73 -53 98q-13 8 -30.5 15t-32.5 10q-19 4 -37 4
q-30 0 -56 -11q-1 -1 -4 -2l-8 -4q-6 -4 -9 -5.5t-5.5 -2t-4.5 -0.5q-10 1 -21 9.5t-14 18.5v3q0 6 5 11q9 7 23.5 14.5t28.5 10.5q19 4 39 4q57 0 117 -33q36 -20 64 -48q11 -11 18.5 -20.5t15.5 -22.5q15 -27 24 -61q3 -8 5 -21t4 -27q1 -16 1 -33q0 -36 -4 -79
q-2 -21 -6 -45t-8 -45q-7 -31 -10.5 -47.5t-7.5 -31.5q-40 -153 -100 -296q-49 -113 -108 -211q-107 -178 -215 -279q-18 -16 -35.5 -30t-40.5 -31q-10 -7 -24 -15t-22 -12q-3 -1 -8 -3q-4 -3 -8 -4q-32 -15 -70 -22q-12 -2 -24 -2h-20h-14q-85 10 -142 56q-40 33 -67 81
q-9 15 -20 41.5t-16 43.5v3q-1 4 -2.5 8t-2.5 8q-1 3 -1 6q-3 7 -4 14q-1 4 -2 8.5t-2 7.5t-2 8.5t-2 12.5q-1 6 -2.5 12t-1.5 9q-2 8 -5 30t-6 46t-4 39q-4 41 -5.5 77.5t-2.5 86.5v32q0 96 5 189q1 9 1.5 18t0.5 13q0 8 1 23.5t2 32.5q1 14 2 23q1 16 0.5 21.5t-3.5 5.5
h-1q-2 -1 -3 -3q-4 -5 -26.5 -50.5t-54 -110t-60.5 -126.5q-28 -60 -77.5 -170.5t-97.5 -221.5q-4 -9 -10 -23.5t-12 -28.5q-4 -7 -7 -14q-4 -11 -11 -25q-11 -26 -19 -44q-27 -63 -42.5 -97.5t-24 -52t-16.5 -30.5q-15 -25 -25 -27q-4 -2 -11 -2t-12 1z" />
    <glyph glyph-name="O" unicode="O" horiz-adv-x="1217" 
d="M408 -73q-19 2 -32.5 5t-27.5 7q-34 10 -63 26q-8 5 -20 13.5t-21 17.5q-11 10 -23.5 25t-21.5 29q-4 6 -11 19t-12 25q-19 42 -29 99q-6 28 -7 47t-1 51q0 25 1 37.5t3 26.5q4 31 6.5 47.5t5.5 30.5q2 12 2 15q-1 3 -4 5.5t-11 4.5q-70 23 -115 63q-9 8 -18.5 19.5
t-16.5 21.5q-5 7 -11.5 19t-9.5 21q-15 38 -20 89q-1 13 -1 37q0 25 1 40q12 126 80 259q80 158 218 277q124 104 278 160q110 41 210 43h10q142 0 265 -80q33 -22 65 -53q49 -47 76 -104q8 -15 13 -26.5t10 -26.5q21 -65 21 -149v-15q0 -44 -7 -92q-11 -76 -33 -156
q-55 -201 -179 -411q-142 -238 -302 -364q-7 -6 -13 -10.5t-9 -6.5q-2 -2 -7 -5t-10 -7q-53 -37 -110 -57q-39 -13 -73 -16q-6 -1 -16 -1h-19h-11zM426 -31q14 3 24 5t23 6q39 13 81 37q18 11 27.5 17t21.5 15q24 17 44 33.5t46 41.5q53 51 109 120q144 182 241 409
q61 144 90 292q15 83 15 154v16q-1 27 -3 47.5t-7 41.5q-4 18 -8.5 32.5t-11.5 31.5q-4 10 -7.5 16.5t-7.5 13.5q-36 60 -92 96q-83 54 -189 65q-23 3 -47 3t-49 -3q-118 -13 -249 -78q-179 -90 -299 -245q-89 -115 -133 -247q-33 -101 -33 -185q0 -65 20 -119
q14 -36 35 -57q23 -23 67 -36q16 -5 24 -5h2q7 0 9 9v1q1 3 2.5 8.5t3.5 11.5q11 37 24.5 75t25.5 66q2 3 4 9l6 14q8 17 23.5 48.5t25.5 48.5q70 127 152 216q12 13 30 30.5t28 26.5q17 15 36.5 28.5t34.5 20.5q31 17 59 17q12 0 23 -3.5t27 -11.5q22 -10 35 -24
q14 -12 14 -25q0 -4 -2 -8t-7 -9q-9 -10 -13.5 -11t-6.5 -1q-6 0 -16 4q-5 2 -9 2.5t-8.5 -1.5t-13.5 -7q-80 -45 -171 -164q-88 -118 -150 -265q-14 -34 -22.5 -58t-8.5 -31q0 -2 0.5 -4t3 -3.5t8.5 -4.5q21 -10 21 -21v-2q0 -4 -7 -7.5t-25 -8.5q-12 -3 -16 -6t-6 -9
q-2 -9 -6 -28t-7.5 -38.5t-4.5 -29.5q0 -3 -0.5 -7.5t-1.5 -7.5q-1 -12 -2 -35.5t-1 -39.5q0 -55 7 -106q3 -16 6 -28t8 -27q8 -25 19 -45q9 -15 15.5 -24.5t16.5 -19.5q30 -31 59 -34h21q14 0 23 1z" />
    <glyph glyph-name="P" unicode="P" horiz-adv-x="1260" 
d="M167 -53q-6 1 -15 4t-15 6q-19 13 -25 32q-1 4 -1 11.5v12.5v11q0 12 1 19q3 18 8 42t11 43q14 49 40 116t54 128q13 25 37 73t47 91q97 181 196 340l8 12q3 5 5 8q31 50 92 143q13 20 25.5 39t19.5 29q12 20 18 28t11 13q15 15 31 15q5 0 11 -2q16 -5 35 -23
q11 -11 13 -18.5t2 -12.5q0 -8 -3 -18q-1 -7 -4.5 -14t-12.5 -21l-27 -42q-9 -13 -16 -23.5t-15.5 -24.5t-23.5 -37q-22 -32 -43.5 -66t-33.5 -54q-3 -5 -9 -14l-12 -20q-39 -63 -81 -136t-73 -130q-5 -10 -11 -23q-6 -11 -10 -19q-5 -8 -7.5 -13t-3 -7t-1.5 -4q0 -5 2 -8.5
t7 -6.5q21 -14 76 -14q50 0 110 13q171 37 350 185q36 30 74.5 68.5t69.5 74.5q16 19 34.5 44t29.5 41q55 87 72 144q9 28 13.5 47t7.5 40q2 18 2 36q0 38 -10 73q-18 53 -74 105q-51 47 -137 82q-42 17 -87 26q-2 1 -5.5 1.5t-6.5 1.5q-4 1 -16.5 3t-26.5 4t-25 3
q-27 3 -49.5 3h-33.5q-21 0 -39 -1q-127 -9 -251 -52q-102 -37 -196 -95q-196 -127 -257 -261q-7 -17 -10 -30.5t-4 -28.5q0 -9 0.5 -13t1.5 -8q3 -14 10 -20q1 -1 4 -2.5l5 -2.5q11 -4 18 -8t13 -10q9 -10 9 -18v-1q0 -7 -9 -7h-2q-9 1 -22 6.5t-25 13.5q-62 40 -62 105
q0 12 2 25q15 82 94.5 171.5t205.5 167.5q95 57 202 95q40 14 86 26q88 22 177 28q20 1 50 1q29 0 48 -1q74 -6 127 -20l16 -4l5 -2q11 -3 26.5 -8t25.5 -9q29 -11 60.5 -28t55.5 -35q106 -81 151 -220q12 -40 16 -79q2 -19 2 -41t-2 -38q-3 -30 -10.5 -61t-16.5 -51
q-1 -2 -2.5 -5.5t-2.5 -7.5v-1q-14 -37 -43 -87q-19 -30 -45.5 -66t-52.5 -63q-63 -70 -125 -118q-120 -97 -244 -144q-50 -19 -101 -30q-76 -15 -135 -15q-18 0 -34 1q-18 1 -29.5 3.5t-23.5 6.5q-14 4 -24.5 11t-21.5 19l-6.5 6.5t-4 3t-2.5 0.5t-2.5 -0.5t-2.5 -1.5
q-1 -2 -6.5 -12.5t-13.5 -25.5q-6 -12 -16 -33l-30 -60q-28 -56 -44.5 -91.5t-32.5 -72.5q-29 -65 -38 -98q-2 -9 -2 -12v-4q0 -3 1 -5q1 -4 5 -8q7 -6 8.5 -9.5t1.5 -4.5q0 -4 -3 -7q-8 -13 -25 -13h-7z" />
    <glyph glyph-name="Q" unicode="Q" horiz-adv-x="1243" 
d="M455 -53q-52 6 -107 33q-17 8 -31 18t-29 24q-18 18 -35 44q-15 23 -24 48q-4 11 -6.5 16t-5.5 6.5t-9 1.5q-7 0 -28 -2t-69 -6q-32 -3 -49.5 -4.5t-27 -2t-18.5 -0.5q-9 -1 -14.5 -1.5t-9.5 -1.5t-5.5 -1h-2.5h-4q-9 3 -15.5 16.5t-7.5 31.5v6q0 29 27 35q41 11 168 19
h2q14 1 22 2t11.5 1t5.5 1t3 2q2 1 3 2t1.5 3.5t0.5 4.5q0 3 -1 6q0 7 -1 18q-1 18 -1 30q0 11 1 31q0 22 1 34t3 28q1 6 1 9v4.5t-1 2.5q-1 3 -2.5 4t-5.5 1.5t-11 1.5q-19 2 -35 5.5t-34 11.5q-12 5 -24 11.5t-28 17.5q-43 30 -71 69q-35 50 -42 123v80q8 70 26 136
q16 54 46 119q9 20 25 47.5t31 49.5q91 136 231 242q185 138 380 160q17 1 46 3h28.5t22.5 -1q68 -6 138 -31q49 -19 96 -51q87 -60 137 -145q10 -17 19 -38t15 -39q22 -69 22 -152q0 -75 -18 -161q-7 -33 -12 -53t-15 -55q-30 -101 -76 -201q-82 -177 -203 -331
q-6 -6 -10 -11.5t-5 -6.5q-2 -3 -2 -5q0 -5 7 -7q2 -1 13 -2.5t26 -3.5q92 -13 165.5 -26.5t105.5 -23.5q12 -3 14 -10q2 -4 2 -10t-2 -11q-1 -5 -3.5 -9.5t-4.5 -5.5q-2 -2 -6 -2h-3q-5 0 -18 3q-46 11 -160 25q-50 7 -102 12.5t-75 6.5h-2q-7 0 -11 -0.5t-8.5 -4.5
t-13.5 -13l-1 -1q-128 -130 -235 -164q-11 -4 -18 -5.5t-20 -3.5q-26 -4 -51 -4h-16zM782 213q3 1 10 8t21 22q157 180 252 399q76 178 98 331q1 6 1.5 13.5t1.5 11.5q0 4 1 8v10q1 8 1.5 24t0.5 32t-1 25q-3 59 -19 106q-23 69 -68 115q-107 108 -277 119q-15 1 -29 1h-13
q-20 -1 -43 -3q-151 -17 -304 -115q-120 -78 -217 -193q-71 -86 -117 -184q-55 -119 -65 -236q-2 -18 -2 -33v-23v-14q2 -23 4.5 -37t6.5 -30q14 -48 49 -80q10 -10 18 -15.5t20 -9.5q27 -11 58 -11q9 0 18 1q13 2 17.5 4t6.5 7q1 1 2.5 7t3.5 13q25 119 70 222q1 5 4 10
q2 6 4 11q5 11 17 35l21 42q48 92 107 169q83 111 154 147q8 4 14.5 6.5t15.5 4.5l9 1.5t5 0.5l5 -1q27 0 60 -27q33 -26 33 -50v-5q0 -5 -1 -11q-1 -8 -3 -13q-3 -6 -11 -6q-9 0 -24 10q-4 3 -7 4.5t-5 2t-4 0.5q-6 0 -26 -13q-9 -5 -15.5 -10.5t-18.5 -15.5
q-91 -80 -185 -248q-7 -13 -18 -34.5t-21 -43.5q-18 -40 -35 -87.5t-27 -85.5l-2 -6q-1 -6 -2 -10q-2 -7 -3 -17q-1 -5 -1.5 -8t-2.5 -7l-4 -12q-2 -11 -4.5 -24.5t-3.5 -19.5q0 -4 -0.5 -7t-0.5 -4q0 -3 -1 -10t-2 -16t-2 -15v-4q-1 -7 -1.5 -18.5t-1.5 -35.5v-26
q0 -9 0.5 -14t2 -7t3.5 -3q0 -1 1.5 -1t4 -0.5t7.5 -0.5h13.5h21h30.5q31 0 61.5 -0.5t42.5 -0.5q140 -5 258 -18q3 -1 6 -1q8 -1 12.5 -1.5t6.5 -0.5h3.5h2.5h1zM450 -2q16 1 38 7t42 14q14 6 21.5 9.5t20.5 9.5q51 27 108 76q18 15 24.5 21t6.5 9q0 1 -1 2.5t-4.5 2
t-11.5 1t-21.5 1t-35.5 1.5h-46q-48 0 -101 -1q-80 -1 -144 -5q-12 0 -17 -1t-6 -3t-1 -5q0 -9 8 -32q2 -6 7 -16l10 -20t8 -15q12 -18 25.5 -32t24.5 -19q12 -5 32 -5h13z" />
    <glyph glyph-name="R" unicode="R" horiz-adv-x="1288" 
d="M191 -44q-4 0 -10.5 2.5t-12.5 5.5q-11 6 -20 14t-13 15q-6 15 -6 39q0 62 39 179q10 29 19 52.5t27 64.5q23 52 59.5 124.5t71.5 137.5q77 139 180 299q8 13 26.5 41t37.5 56.5t28 40.5q23 34 44.5 64.5t26.5 36.5l3 3t4 3t3.5 1.5t3.5 0.5h6q6 0 8.5 -0.5t6.5 -2.5
q24 -9 42 -26q19 -19 19 -33q0 -4 -1.5 -7.5t-6.5 -11t-15 -20.5q-113 -160 -221 -337q-60 -99 -106 -182q-6 -12 -9 -18.5t-4 -9.5t-1 -4v-1q0 -2 2 -4q1 -2 7 -2q11 0 37 6q37 7 86 24q137 44 278 127q140 81 270 188q24 20 57 52q65 63 110 132q12 17 24.5 43t20.5 48
q3 10 7 26.5t6 28.5v1q1 6 1.5 10.5t0.5 9.5v14q0 20 -3 31t-11 24q-29 52 -91 88q-87 53 -215 64q-12 1 -23.5 1h-36.5q-33 0 -51.5 -0.5t-51.5 -4.5q-114 -14 -236 -56q-125 -45 -239 -114q-173 -104 -276 -230q-30 -38 -51 -78q-27 -52 -28 -94v-5q0 -48 35 -69
q7 -5 11.5 -7.5t7 -5l5.5 -5.5q16 -16 17 -29q0 -11 -10 -11q-4 0 -9 2q-22 10 -48 33t-43 48q-5 7 -10 17l-8 16q-12 30 -12 62q0 9 1 19q7 62 53 130q62 89 167 173q286 221 628 281q58 10 120 11q24 1 41.5 0.5t41.5 -1.5q86 -6 165 -36q14 -6 32 -14.5t31 -16.5
q20 -13 34 -23.5t28 -24.5q30 -31 49 -64q9 -16 15 -29.5t12 -32.5q8 -24 12 -44t7 -47q1 -12 1 -23t-2 -30q-5 -49 -26 -103q-17 -42 -52 -96q-9 -14 -24 -33t-24 -29l-4 -4q-4 -4 -6 -7q-4 -5 -16 -18t-25 -26t-21 -19q-27 -26 -49 -44t-47 -37q-121 -91 -268 -160
q-105 -49 -219 -82q-26 -7 -56 -14t-50 -10q-10 -1 -13 -3.5t-3 -7.5q1 -4 11 -25t22 -45.5t20 -37.5q14 -25 29 -48.5t23 -33.5q44 -57 97 -73q16 -5 35 -5q35 0 66 18q6 3 10.5 5.5t6.5 2.5q5 2 11 2q5 0 11 -2q12 -2 18 -8q5 -4 5 -8q0 -3 -3 -6q-3 -4 -12 -9.5
t-19.5 -10.5t-18.5 -8q-28 -9 -61 -9q-11 0 -23 1q-49 4 -93 20q-40 14 -80 44q-16 12 -29 25t-34 35q-13 14 -28 38t-28 48q-2 3 -3.5 6.5t-2.5 4.5q-1 2 -7.5 14.5t-13 26t-9.5 19.5q-4 10 -9 10q-2 0 -5 -3q-3 -4 -14 -26.5t-25.5 -54t-27.5 -61.5q-4 -9 -9 -20
q-4 -9 -6 -15q-3 -6 -7 -14.5t-7 -15.5v-1q-26 -57 -44 -105.5t-18 -57.5q0 -4 1.5 -7t8.5 -8q8 -8 9 -11t1 -5q0 -4 -2 -9q-3 -4 -9 -9.5t-11 -8.5q-4 -1 -7.5 -1.5t-6.5 -0.5h-4z" />
    <glyph glyph-name="S" unicode="S" horiz-adv-x="984" 
d="M216 -76q-76 3 -131 48q-17 13 -32.5 30.5t-23.5 33.5q-13 21 -18.5 40.5t-7.5 45.5q-1 8 -1 16q0 12 2 24q1 3 1.5 8.5t1.5 10.5q10 62 59 165q27 55 57.5 101t73.5 98q5 6 9 11q12 15 19 24l2 2q4 5 7 8.5t4 3.5q3 2 7 2t8 -2q10 -5 17 -14.5t7 -16.5q0 -2 -0.5 -4.5
t-2.5 -6.5t-7 -11t-14 -18.5t-22 -29.5q-57 -75 -94 -154q-41 -86 -58 -162q-3 -15 -6 -33t-3 -28v-14q0 -33 8 -59q4 -9 6.5 -14.5t6.5 -9.5q22 -20 75 -25h15t18 1q16 1 31 3t25 5q75 19 151 63q147 87 257 218q10 12 17 21t15 21q37 54 51 95q4 10 6 15.5t3 10t3 11.5v1
q5 24 5 45q0 19 -4 36q-6 25 -20 42t-44 35q-9 6 -18.5 10.5t-30.5 12.5q-31 13 -78 22.5t-95 12.5h-39t-54.5 -0.5t-33.5 -0.5q-4 -1 -12 -1.5t-18 -0.5q-9 0 -20 -1t-18 -1q-12 -1 -33 -2.5t-38 -2.5h-9q-4 -1 -15 -1h-24q-1 -1 -2 -1h-29.5t-19.5 1q-16 1 -25 2.5
t-18 3.5q-12 3 -18.5 5.5t-15.5 6.5q-26 12 -51 41q-7 9 -11.5 15.5t-8.5 17.5q-7 13 -8.5 20.5t-1.5 12.5q0 6 1 12q0 6 1 11.5t4 14.5q13 49 69 121q34 45 78 89q100 100 233 194q234 168 441 235q79 25 130 25q34 0 56 -11q18 -9 31 -23q7 -7 10 -8.5t4 -1.5h2q2 1 3.5 2
t3.5 3.5t7 8.5q1 1 2 3q10 12 16.5 19t11.5 11q19 17 31 17q15 0 37 -21q22 -23 22 -41v-4q-2 -12 -9 -25t-24 -34q-66 -82 -107 -143q-54 -79 -76.5 -113.5t-32.5 -54.5q-4 -7 -8 -17t-6 -16q-1 -5 -1 -8v-3q0 -4 5 -11q6 -8 6 -14t-6 -9q-4 -2 -11 -2t-13 1q-15 5 -29 17
t-18 25q-4 12 -4 27q0 16 4 36q1 5 2 9t3 10t5 16q8 31 35 83q28 56 66 111q4 5 8 10.5t7 9.5q14 20 14 28q0 6 -4 7.5t-14 1.5q-16 -1 -41.5 -6.5t-47.5 -12.5q-125 -37 -271 -121q-133 -76 -250 -169q-44 -36 -78.5 -67t-72.5 -69q-108 -109 -134 -170q-6 -12 -6 -18t6 -9
q9 -5 64 -6q19 0 57.5 1t84.5 4q36 2 69 3t50 1t29 -1q20 -1 48 -3t43 -3q24 -3 53 -8.5t50 -12.5q5 -2 12 -4t13 -4q22 -7 49 -20.5t46 -26.5q66 -48 101 -114q17 -34 22 -70q2 -15 2 -31t-2 -33q-2 -12 -3.5 -19.5t-5.5 -20.5l-4.5 -15t-3.5 -10l-2 -4q-35 -83 -111 -168
q-73 -79 -160 -141q-97 -69 -193 -97q-17 -5 -26.5 -7.5t-23.5 -4.5q-34 -7 -64 -7q-9 0 -19 1z" />
    <glyph glyph-name="T" unicode="T" horiz-adv-x="463" 
d="M48 7q-10 2 -19.5 7t-15.5 11q-14 13 -14 55q0 20 3 46q3 24 7 45t11 51q33 132 111 316q9 23 23.5 55.5t23.5 53.5q5 9 10 20t8 18q3 8 12 25.5t19 38.5q99 199 276 482q0 1 1 2q8 12 13 20.5t8.5 14t5.5 9t2.5 5t1 2.5t0.5 2v1q0 3 -2 4t-4 1t-6 -1q-7 -1 -22 -4
q-30 -7 -47 -10.5t-31 -6.5q-12 -3 -28 -6q-8 -2 -14 -4q-9 -2 -20.5 -4.5t-19.5 -3.5q-5 -2 -12 -3q-16 -4 -31 -7q-10 -2 -22 -4.5t-19 -4.5q-8 -1 -17.5 -3t-15.5 -4q-7 -1 -13.5 -2.5t-10.5 -2.5q-4 0 -10.5 -1.5t-11.5 -2.5q-6 -1 -13 -2.5t-13 -2.5q-11 -2 -30 -5
t-32 -4q-21 -3 -39 -3q-24 0 -41 6q-39 14 -56 63q-4 12 -4 21q0 13 10 17q3 1 8 1q4 0 12 -2q5 -1 9 -1.5t10 -0.5h18h15q17 1 27 1q22 1 60.5 5.5t74.5 9.5q107 15 162 24q11 2 20 3q10 2 12 3q1 0 11 1.5t24 3.5q8 2 17 3q48 8 76 12.5t48 7.5l12 2q12 2 15 3t6 4t8 10
q7 11 13 15t15 5h2q15 0 34 -13q6 -4 10.5 -6t10.5 -2t17 2q42 6 99 12t105 9q121 10 209 10q94 0 152 -11q57 -10 77 -34q14 -15 14 -35q0 -4 -1 -9q-1 -12 -6 -15q-2 -1 -4 -1q-1 0 -3 1q-3 1 -8 8q-3 5 -7 8.5t-13 7.5q-41 19 -137 24q-10 1 -25 1q-14 0 -32 -1
q-37 0 -60 -1q-144 -9 -319 -38q-15 -2 -24.5 -3.5t-14.5 -3t-7.5 -2t-3.5 -1.5q-2 -1 -4 -3t-4.5 -6t-8.5 -13l-2 -4q-4 -6 -13.5 -22t-22.5 -36q-9 -15 -19 -30q-49 -80 -75 -121.5t-46 -75.5q-55 -94 -97 -169.5t-100 -188.5q-17 -33 -38 -75l-33 -66
q-107 -225 -155 -393q-5 -18 -9.5 -39t-4.5 -28q0 -9 8 -14q8 -7 9 -12l1 -3q0 -6 -7 -12q-9 -8 -20 -8q-1 0 -3 0.5t-3 0.5q-2 1 -3 1z" />
    <glyph glyph-name="U" unicode="U" horiz-adv-x="1078" 
d="M637 -28q-16 4 -29 13.5t-19 20.5q-4 9 -4.5 17.5t-0.5 15.5v17q6 82 57 214q58 152 165 357q8 17 21.5 42t25.5 47.5t17 31.5q3 6 9 16l6 10q15 28 29 51q3 6 6 11q3 4 4 6q1 3 3.5 7t4.5 8q19 31 25 43l1 1q3 5 15 26q10 16 28 46q19 32 29 49t14 24.5t6 10.5q1 4 1 5
q0 2 -1 2q-2 0 -9 -7q-3 -3 -8.5 -9t-10.5 -12q-9 -11 -38 -45.5t-60.5 -72.5t-50.5 -60q-11 -14 -22.5 -28.5t-18.5 -22.5q-9 -10 -15 -17q-13 -17 -25.5 -32t-39.5 -47q-108 -132 -193 -227q-11 -13 -21 -24l-11 -12q-38 -42 -88.5 -92.5t-80.5 -76.5l-1 -1l-12 -10
q-19 -17 -44.5 -36.5t-49.5 -35.5q-53 -34 -96 -43q-19 -4 -35 -4h-6q-18 2 -42 10q-8 2 -21 8.5l-21 10.5q-7 4 -15 10.5t-14 12.5q-9 8 -15 16.5t-12 21.5q-7 13 -10 21t-6 20q-1 5 -2 9.5t-2 11.5t-2 20q-2 13 -2 35t1 35q1 4 1 11l2 16q3 28 11 68t19 82q38 136 105 287
q10 22 27 56.5t28 54.5q2 4 5 9q3 6 5 11q20 37 46 82t51 82q126 197 208 260q22 17 38 17q13 0 31.5 -11.5t32.5 -28.5q10 -13 10 -22q0 -3 -1 -5q-1 -3 -8.5 -10.5t-16 -15.5t-13.5 -12q-18 -13 -38 -35q-107 -120 -220 -319q-17 -29 -26 -46.5t-23 -44.5q-1 -3 -3 -6
q-15 -29 -23.5 -47t-19.5 -44q-3 -6 -6.5 -14l-7 -16t-5.5 -14l-2 -6l-5 -12q-2 -6 -5 -13q-4 -9 -7.5 -17.5t-4.5 -12.5q-1 -1 -1 -2l-2.5 -7.5t-3.5 -9.5t-7.5 -20.5t-11 -33.5t-10.5 -31q-3 -10 -6 -20.5t-8 -28.5q-5 -21 -12 -51.5t-10 -50.5q-3 -18 -5.5 -38t-3.5 -32
v-72q4 -24 9.5 -41t10.5 -22q3 -1 7 -1q8 0 23 4q106 33 264 173l7 7q5 5 9 8q22 20 61 58t71 72q33 35 58 62t59 65l14 16q14 16 20 23t24 27q9 10 18 21q14 16 25 29t15 17q3 3 11 12.5t17 20.5q9 10 17.5 20t12.5 15q4 4 9 10t15 17.5t28 33.5q11 13 25 30q17 19 31 35.5
t18 21.5q5 5 16 18.5t24 28.5q211 247 296 344q1 2 3 4l16 18t13 15q10 12 15.5 17t8 6t5.5 1h3q5 0 10 -2.5t12 -8.5q22 -18 22 -39v-2q-1 -17 -22 -59q-23 -47 -67 -122q-3 -5 -7.5 -12t-7.5 -12l-32.5 -55t-34.5 -56q-4 -7 -11.5 -19t-15.5 -25q-46 -77 -63 -105
q-3 -6 -6 -10q-5 -7 -17.5 -28.5t-26.5 -45.5q-4 -6 -9 -14.5t-9 -16.5q-6 -9 -13 -21q-3 -6 -6 -10q-4 -7 -8.5 -15t-7.5 -13q-5 -9 -16 -28t-22.5 -39.5t-18.5 -34.5q-5 -7 -9.5 -15t-6.5 -13q-14 -23 -29 -51.5t-26 -48.5q-4 -8 -7 -13.5t-3 -6.5q-3 -4 -15.5 -29
t-28.5 -56.5t-28 -55.5q-41 -83 -76 -164t-53 -135q-12 -36 -12 -44q0 -4 2 -7t9 -7q14 -9 16 -17q1 -1 1 -2t-1 -2q0 -2 -1 -4q-2 -7 -11 -15.5t-17 -12.5q-5 -2 -11 -2t-13 2z" />
    <glyph glyph-name="V" unicode="V" horiz-adv-x="811" 
d="M133 -55q-14 1 -32.5 5t-29.5 7q-29 11 -50 30q-25 22 -43 69q-6 15 -10 29.5t-7 33.5q-1 5 -2 9.5t-1 6.5q-2 6 -3.5 21t-2.5 32q-2 25 -2 60v25q0 51 3 90q3 40 7.5 81.5t8.5 67.5q1 7 2.5 17t2.5 19q7 48 20 118.5t27 132.5q39 173 74 300q8 28 13.5 44.5t12.5 30.5
l6 10.5t6 6.5q2 3 4.5 4.5t4.5 2.5q7 2 14 2q19 0 45 -13q23 -12 29 -20q2 -2 3 -4t1 -4t-1 -5q-2 -6 -5 -17q-2 -8 -4.5 -16t-4.5 -13q-7 -19 -14.5 -45.5t-20.5 -76.5l-4 -16q-23 -89 -35 -146q-2 -6 -4 -16q-3 -11 -5 -21q-1 -7 -3 -13q-3 -13 -4 -19q-1 -4 -2 -9
q-2 -10 -5 -22q-10 -46 -22 -116q-2 -11 -5.5 -34t-6.5 -44l-2 -10q-2 -11 -2 -18q-1 -2 -1 -4q-1 -4 -1.5 -8.5t-0.5 -6.5q-1 -4 -1 -9q-1 -5 -1 -9q-2 -13 -4 -31.5t-4 -32.5q-1 -14 -2 -23.5t-2 -22.5t-2 -40l-1 -4v-90q0 -25 1 -37q1 -15 3.5 -35.5t4.5 -32.5
q2 -13 8 -33t11 -33q5 -15 13 -27t14 -15q2 -1 5 -1q2 0 5 1q6 2 21 11q43 26 93 80q30 34 41 47q2 2 5.5 7t6.5 9q67 82 163 236q18 29 51.5 85.5t55.5 94.5q4 7 11 18q4 8 8 15q5 10 13.5 24.5t16.5 27.5q7 13 14 24.5t16 28.5q10 18 28 50l6 10q5 8 10 17.5t9 16.5
q72 127 128 221.5t119 197.5q28 45 50.5 80.5t48.5 77.5q2 3 4 7q8 11 17 25.5t17 26.5q3 4 5 8l13.5 21t7.5 10t5 4q3 1 6 1q6 0 14 -4q12 -6 17 -15q1 -3 1 -6t-3 -7q-3 -5 -20.5 -35t-40.5 -67q-158 -261 -280 -486l-20 -35q-12 -23 -18 -34t-9 -18q-3 -6 -7 -13.5
t-7 -12.5q-2 -3 -5 -9q-8 -15 -18 -34q-16 -30 -36.5 -68t-30.5 -56q-4 -7 -7.5 -14t-6.5 -12q-2 -4 -5 -8q-3 -7 -5 -10t-5.5 -9.5t-6.5 -12.5q-3 -5 -8 -15l-12 -22q-69 -124 -109 -190q-2 -4 -5 -8q-8 -14 -13 -22q-17 -28 -39 -62l-2 -2q-4 -6 -8 -13q-7 -11 -10 -16
q-2 -2 -4 -6l-12 -18q-6 -8 -9.5 -13t-5.5 -8l-4 -6q-2 -2 -4 -5q-3 -4 -8.5 -11t-10.5 -14q-48 -65 -93 -102q-11 -9 -17.5 -13.5t-16.5 -10.5q-41 -23 -83 -23q-6 0 -13 1z" />
    <glyph glyph-name="W" unicode="W" horiz-adv-x="1696" 
d="M906 -71q-4 1 -13 2t-17.5 2.5t-12.5 2.5q-9 2 -21.5 6t-21.5 7q-20 8 -36.5 18t-35.5 26q-32 25 -59 73q-12 23 -23 57t-17 67q-5 32 -7.5 54.5t-3.5 57.5q-1 13 -1 35q0 23 0.5 43.5t1.5 27.5q0 4 1 12v6q1 31 7 73q0 7 2 22t4.5 29t2.5 19q1 3 2 7q1 8 3 17
q1 7 2.5 14.5l2.5 12.5q2 12 3 20v5t-0.5 2.5t-0.5 1t-1 0.5t-3 -1t-5 -5t-8 -11.5l-13 -19.5q-6 -8 -15 -22q-13 -20 -26 -39q-26 -38 -40.5 -59.5t-25.5 -36.5q-8 -13 -18 -27q-100 -148 -154.5 -224.5t-97.5 -125.5q-19 -22 -40 -43t-36 -32q-4 -3 -11.5 -7.5t-14.5 -9
t-9 -5.5q-4 -1 -10 -3t-12 -3.5t-8 -2.5q-7 -1 -18 -1q-10 0 -17 1q-17 4 -35.5 11t-33.5 16q-40 24 -55 72q-1 5 -2.5 10t-2.5 7q-2 10 -3.5 26t-2.5 30v35q0 19 1 29v2q0 4 1 9.5t1 11.5q2 23 9 64q1 4 1 9q2 9 2 14q4 19 11.5 53.5t14.5 59.5q31 115 78 236q35 93 87 206
q56 125 131 261q40 75 81.5 143.5t67.5 102.5q12 16 19 21.5t14 5.5h2q13 0 28 -8q26 -13 39 -28t13 -26v-3q0 -3 -2 -5.5l-6 -7.5l-6.5 -6.5t-5.5 -6.5q-22 -28 -65 -99t-86 -149q-90 -167 -158 -324q-4 -9 -7 -16q-2 -6 -4 -8q-12 -29 -31 -78t-31 -85q-23 -64 -38 -114.5
t-28 -107.5q-7 -31 -13 -65t-7 -55q-1 -3 -2 -9q0 -6 -1 -11q-2 -23 -2 -41.5v-26.5q0 -21 2 -38q1 -7 2.5 -16t3.5 -17t4 -11q2 -7 9 -7t19 8q11 6 24.5 16t22.5 17q58 49 126 132q80 96 195 254q8 11 16.5 23t13.5 19t11 16q7 9 12 16q5 6 12.5 17t14.5 21q11 15 20 27
q10 15 36 51q33 47 63.5 90t44.5 63q8 11 12.5 19t9.5 17q14 27 24 37t27 11q4 1 8 1q15 0 33 -10q19 -9 29 -19q5 -5 7 -9t2 -9q0 -2 -0.5 -3.5l-1.5 -4.5t-4 -7q-1 -1 -1 -3q-3 -4 -5.5 -9t-5.5 -9q-15 -24 -33 -77q-15 -44 -25 -87q-5 -19 -7.5 -29.5t-4 -16.5t-2.5 -12
v-1q-1 -3 -2 -8q-2 -11 -4 -21q-23 -127 -25 -246q0 -16 1 -36t2 -30q0 -3 0.5 -6.5t0.5 -5.5t0.5 -7t0.5 -9q1 -5 2 -12.5t1 -13.5q4 -27 12 -57t17 -52q12 -26 23 -42.5t25 -30.5q16 -15 26 -17h17q11 0 18 2q48 12 85 35q13 8 30.5 19.5t25.5 18.5q20 15 31.5 25t30.5 28
q14 13 23 22t20 21t29 32q54 61 121 154q8 10 21.5 30.5t27 40.5t19.5 30q3 6 8.5 15t11.5 17q11 18 25.5 43.5t27.5 49.5q139 252 185 492q5 22 9 52t6 51q1 24 1 47q0 31 -2 58q-2 12 -3 19t-4 20q-13 63 -49 102q-32 37 -100 45q-17 2 -38 2q-16 0 -34 -1q-42 -4 -76 -12
q-24 -7 -47 -16.5t-39 -19.5l-12 -7.5t-6 -2.5h-4h-4q-6 1 -13.5 6.5t-11.5 12.5q-2 2 -2.5 4t-0.5 4q0 3 0.5 4.5t3.5 4.5q6 7 23 17t35 19q54 23 108 28q6 1 14 1t18 -1q20 0 33 -2q89 -9 147 -39q53 -28 86 -73q24 -35 38 -86q1 -7 4 -22t4 -25q2 -17 2.5 -37.5
t0.5 -30.5q0 -18 -1 -33q-6 -101 -37 -221q-59 -229 -201 -477q-80 -140 -160 -248q-28 -37 -48.5 -62t-43.5 -50q-21 -23 -43.5 -45t-40.5 -36l-5 -5l-6 -4q-10 -9 -27 -21t-32 -20q-50 -29 -96 -35q-11 -2 -24 -3t-18 -1h-7z" />
    <glyph glyph-name="X" unicode="X" horiz-adv-x="1038" 
d="M13 -45q-17 2 -35.5 13t-24.5 22q-3 5 -3 9q0 2 1 4q2 6 11 18q2 4 6 10l10 14q9 12 31.5 42.5t41.5 55.5q7 8 14 17q4 5 6 9l58 72.5t69 84.5q18 22 34 41t23 27q30 36 53 62.5t27 32.5l5 5q7 7 14 15q10 13 22 26.5t37 41.5q12 13 19.5 22t12.5 14.5t8 9t4.5 5t2 2.5
t1.5 2q1 3 1 6q0 4 -2.5 12t-8.5 25l-1 4q-3 7 -5.5 15.5t-6.5 21.5q-2 8 -4 15q-1 4 -2 7q-4 12 -10.5 36.5t-12.5 49.5t-9 39v1q-1 5 -2 10.5t-2 8.5q-3 12 -12 55q-1 7 -2.5 15.5t-2.5 14.5q-2 10 -4 21q-1 4 -2 7q0 5 -1.5 12t-2.5 12v2q-2 8 -5.5 29.5t-7 43.5t-5.5 32
v6q-2 10 -4 21q-1 7 -3.5 21.5t-5.5 29.5q-2 15 -4.5 29.5t-4.5 21.5q-4 25 -4 32v9q0 8 2 12q5 8 16 10q4 1 10 1h7q11 -1 20 -3q30 -8 44 -21q5 -5 7.5 -9.5t3.5 -12.5q2 -14 4 -24t3 -19q2 -8 3 -18q3 -11 4.5 -21.5t2.5 -15.5t2.5 -14t2.5 -17q2 -9 3.5 -18.5t2.5 -15.5
q1 -7 3 -22q2 -11 4 -21q12 -73 21 -123q2 -6 4 -17.5t4.5 -21.5t2.5 -13q1 -2 2 -7.5t3 -12.5l2 -10q2 -9 3 -16q2 -5 4 -13l4 -16q3 -13 7.5 -29.5t8.5 -30t5 -17.5q3 -8 8 -8h2t2.5 1.5l4.5 4.5l8 8t12.5 13t17.5 20l14 14q6 7 9 10t8.5 9t10.5 12q27 28 73.5 77.5
t79.5 83.5q302 318 461 453q17 15 31 26t17 13q4 2 8 2q8 0 18 -9q12 -12 12 -23v-2q-1 -2 -2.5 -4.5t-6.5 -7t-13 -11.5q-121 -103 -343 -340q-34 -37 -77 -83.5t-71 -78.5q-36 -40 -76.5 -86t-58.5 -68q-7 -7 -16.5 -18.5t-18.5 -22.5q-7 -8 -20 -23.5t-26 -31.5t-19 -23
q-8 -10 -9.5 -13.5t-1.5 -6.5t1 -7q1 -1 1.5 -3t2 -5t3.5 -9q3 -8 9 -25l6 -14q4 -11 6 -16q3 -7 11 -26.5t17.5 -40.5t14.5 -33q20 -40 42 -77l6 -10q4 -9 7 -13t6 -10q3 -4 5 -7t5.5 -7.5t6.5 -8.5q0 -1 1 -2q8 -12 19 -26t19 -23q15 -17 32 -33t28 -24q35 -26 67 -32h1
q4 -1 7 -1t7 1q21 3 43 21q9 7 15.5 9.5t17.5 2.5q14 0 19 -5q2 -2 2 -5q0 -7 -13 -17q-8 -7 -13.5 -10.5t-13.5 -7.5q-29 -14 -68 -14q-14 0 -30 2q-54 7 -103 38q-4 3 -7.5 5t-5.5 3q-4 3 -15.5 12t-21.5 17q-21 19 -47 47.5t-42 49.5q-3 4 -6.5 9t-6.5 8q-8 12 -22.5 34
t-22.5 35q-20 34 -30.5 54.5t-20.5 40.5l-8.5 17t-4.5 8q-2 2 -5 2t-7 -4q-2 -2 -14.5 -17.5t-30.5 -38t-35 -44.5q-5 -6 -13 -16l-16 -20q-7 -9 -20 -25.5t-25 -32.5l-8 -10q-10 -13 -18.5 -23.5t-11.5 -15.5q-22 -28 -44 -57q-10 -13 -20 -27q-2 -1 -4 -4q-6 -8 -14 -18
t-14 -18q-6 -9 -14.5 -19.5t-13.5 -17.5q-40 -53 -61.5 -80t-34.5 -43l-14.5 -14.5t-16.5 -16t-11 -10.5q-9 -5 -20 -5h-6z" />
    <glyph glyph-name="Y" unicode="Y" horiz-adv-x="861" 
d="M391 -162q-7 2 -16 6.5t-15 9.5q-10 7 -14 18.5t-4 28.5l1 9q2 95 64 283q12 35 26 73.5t25 65.5q94 231 243 515q3 5 5 9.5t5 7.5q3 7 10 20l8 16q3 5 6 11q10 18 31 56l42 76t32 55q3 6 9.5 17t13.5 23q6 11 13 22q6 11 8 15q3 5 9 14l12 21q3 4 6 10q5 8 9.5 16
t7.5 13q18 30 23 40t5 13q0 1 -1 1q-4 0 -59 -65q-7 -8 -15.5 -18t-14.5 -17q-76 -89 -207 -254q-77 -97 -116.5 -145.5t-69.5 -83.5q-8 -10 -15 -19q-9 -11 -13 -15q-45 -53 -99 -111q-99 -106 -165 -129q-14 -5 -24.5 -7.5t-23.5 -3.5h-8q-32 0 -64 14q-20 8 -34.5 17
t-29.5 23q-6 6 -10.5 12t-10.5 17q-6 9 -9.5 17t-5.5 19q-1 5 -2.5 10t-2.5 8q-3 13 -4.5 32.5t-1.5 30.5l1 21q1 6 1.5 13t0.5 11q2 25 8.5 59t14.5 64q10 42 17 65.5t21 66.5q15 48 38 106q67 168 153 316q38 64 71 112.5t45 57.5q8 4 17 4t20 -3q11 -4 22.5 -11t19.5 -15
q14 -13 14 -26v-3q0 -5 -3 -10t-9 -13q-25 -30 -61 -86.5t-71 -120.5q-89 -165 -147 -331q-10 -28 -15 -44t-14 -45q-29 -100 -37 -190q-2 -9 -2 -23l1 -15q0 -24 2 -38t4 -21t6 -16q5 -11 8.5 -15.5t6.5 -4.5q2 -1 4 -1q7 0 18 4q14 4 28 11t33.5 19.5t31.5 22.5l6 4l6 5
q4 3 7.5 6t6.5 5l6 6q3 3 6 5q11 9 32.5 29.5t38.5 38.5q23 23 55 57t46 49q1 2 4.5 6t8.5 9q2 2 4 5q18 20 43 48.5t49 56.5q29 35 45 54l35 40q8 11 19 23q21 26 35 43q5 5 10 11t8 10q10 12 22.5 26.5t20.5 24.5q6 7 13 15q3 4 5 7q4 4 9 10t9 10l8 10t7 8t7 8l12 14
q8 10 17 20l7 7q0 1 1 2q9 10 28 31.5t38 42.5q41 46 99 110q17 18 28.5 31t27 29.5t43.5 45.5q2 2 4 5q16 17 25.5 27t14.5 16t8 9t5 6q7 11 13 13.5t10 2.5q5 0 11 -2q18 -4 37 -21q11 -9 17 -21t6 -23q0 -7 -2 -14t-9 -19q-19 -38 -57 -98q-4 -7 -13 -22t-19 -30
q-9 -16 -17.5 -29.5t-11.5 -18.5q-4 -6 -8.5 -13t-14.5 -23q-7 -12 -19 -32q-11 -19 -25 -42q-20 -32 -32 -53q-39 -65 -68 -116t-67 -120q-20 -35 -46 -84t-44 -85l-48.5 -97t-34.5 -70q-3 -7 -11 -23q-6 -13 -11 -26q-42 -88 -83 -184q-7 -16 -16.5 -39t-18.5 -42
q-29 -68 -48.5 -116.5t-36.5 -94.5q-19 -51 -32 -93t-13 -55q0 -4 1.5 -6.5t5.5 -5.5q5 -3 8.5 -6.5t4.5 -5.5t1 -5t-1 -7q-2 -3 -7 -8t-11 -8q-2 -1 -3.5 -2t-3.5 -1h-6h-7.5t-6.5 1z" />
    <glyph glyph-name="Z" unicode="Z" horiz-adv-x="1114" 
d="M9 -44q-18 5 -41 37q-18 26 -18 46q0 10 4 18q10 20 86 92q23 23 60.5 57.5t66.5 60.5q5 4 10 8.5t7 7.5q1 0 2 1q3 3 9 8t12 11q8 6 16 13.5t14 13.5q17 15 58.5 51.5t74.5 64.5q5 4 10 9q14 11 19 16q4 3 12 10l10 8q7 6 16 14q7 6 13 11q12 10 22 19q19 16 37 31
q10 9 22 19q8 6 13 11q32 27 51 43q4 3 8.5 6.5t6.5 6.5q3 2 10.5 8.5t16.5 13.5q9 8 17 14.5t12 9.5q14 12 29.5 25t23.5 20q15 13 27.5 23.5t18.5 14.5q4 5 18.5 17t29.5 25q14 11 22 18q3 3 7 6.5t7 5.5q1 2 4 4l14 12q4 4 10 8.5t11 9.5q2 2 4 3q5 5 12 11.5t12 10.5
t11.5 9.5t10.5 9.5l5 5q9 7 16 14q5 4 16.5 15t23.5 22q15 14 23 22q9 8 13.5 12.5l7.5 7.5l6 6q4 3 11.5 10.5t15.5 16.5q13 11 27.5 26.5t37.5 40.5q13 15 31.5 37.5t29.5 37.5q47 66 61 106q3 10 5.5 21t2.5 14q0 8 -8 16q-5 4 -10 7t-15 8q-11 5 -18 7t-19 5
q-16 3 -30.5 4t-34.5 1q-105 0 -257 -53q-172 -62 -335 -173q-94 -65 -160 -131q-102 -103 -107 -167v-13q2 -5 7 -12q6 -9 6 -16q0 -5 -5 -8q-3 -1 -6 -1q-11 0 -27 18q-22 25 -25 56v15q0 7 2 18q33 129 277 306q232 163 479 227q88 22 159 22q16 0 28.5 -1.5t26.5 -3.5
q15 -3 26 -6.5t24 -9.5q16 -8 26 -16.5t21 -23.5q12 -15 21.5 -40t14.5 -49q1 -9 1.5 -24t-0.5 -26q-2 -23 -9 -45t-23 -53q-9 -19 -24.5 -43.5t-29.5 -41.5q-3 -4 -8 -10q-4 -6 -8 -10q-4 -5 -8 -10.5t-7 -8.5t-6.5 -8t-7.5 -9l-2 -2q-27 -31 -75.5 -80t-89.5 -86
q-2 -3 -6 -6q-7 -6 -13 -12q-12 -10 -25 -22q-10 -9 -16 -14l-5 -5q-5 -4 -9 -7q-2 -3 -7.5 -8t-12.5 -10q-6 -6 -14 -13q-7 -6 -12 -10q-8 -7 -15 -13l-3 -3q-1 -1 -3 -2q-4 -4 -13 -11.5t-18 -16.5q-15 -13 -28 -24q-9 -7 -13 -11q-6 -5 -13 -11q-5 -4 -9 -7q-1 -1 -1 -2
q-4 -4 -8 -7t-6 -5q-3 -2 -6 -5t-6 -5q-4 -4 -14.5 -12.5t-21.5 -18t-18 -16.5q-3 -2 -9 -6.5t-13 -10.5l-8 -8q-9 -7 -17.5 -14.5t-13.5 -11.5l-1 -1q-20 -17 -59 -50q-7 -6 -14.5 -12.5t-12.5 -11.5q-3 -2 -5 -4q-5 -4 -11 -9.5t-11 -9.5q-6 -5 -16 -13q-5 -4 -9 -8
q-7 -6 -13 -12l-7 -5q-2 -2 -7 -6.5t-11 -9.5t-12.5 -10.5t-10.5 -8.5q-5 -5 -19.5 -17.5t-30.5 -26.5t-26 -23q-5 -4 -13 -12q-10 -8 -19 -16q-6 -5 -12 -11q-15 -13 -25 -22q-9 -7 -19 -17q-9 -8 -15 -14l-8 -6q-5 -5 -10 -9.5t-8 -7.5q-18 -15 -33 -29t-17 -18
q-2 -3 -2 -5t4 -2q6 0 37 10q19 6 41 13t38 11q56 16 119 29.5t113 20.5q3 1 9 1q9 1 19 3q85 11 176 17q19 1 41 1.5t33 0.5q12 0 20 -1q32 -2 58 -6.5t36 -9.5q3 -1 6.5 -4.5t6.5 -7.5q4 -7 5.5 -15t1.5 -13v-4q-1 -7 -8 -9h-5q-4 0 -11 1h-2q-11 2 -18.5 3t-17.5 1.5
t-31 0.5q-31 -1 -51.5 -2t-55.5 -5q-134 -15 -259 -47q-40 -11 -74 -21t-88 -27q-101 -34 -241 -95q-22 -9 -39.5 -16t-26.5 -9q-6 -2 -12.5 -2h-9.5h-6z" />
    <glyph glyph-name="bracketleft" unicode="[" horiz-adv-x="1453" 
d="M197 -157q-35 2 -48 6q-2 1 -8 3.5t-13 6.5q-9 4 -13.5 7t-7.5 6t-4 5l-2 4t-1 4t1.5 6t5.5 11t11 20q4 6 25.5 48.5t51.5 102.5q16 33 32 63q19 40 34 69t20 39q6 13 17.5 35.5t22.5 43.5q57 116 117 229q21 39 44.5 82.5t38.5 71.5q5 9 12 21.5t12 23.5q9 14 17 30
q5 7 7 13q16 28 29.5 51.5t19.5 33.5q1 2 1 3l9 15q4 7 8 13q4 9 8.5 16.5t6.5 11.5q3 4 8 12q2 5 5 9q36 64 123 207q19 33 42.5 70.5t41.5 64.5q6 10 12 19q5 7 6 10q11 17 29 43t29 41l10 15t5 7q0 1 1 4l2 6q2 7 4.5 10.5t5.5 5.5q2 0 4.5 0.5t6.5 1t12 0.5
q35 1 81.5 1.5t72.5 -0.5q13 -1 32.5 -1.5t37.5 -0.5q14 -1 27 -1q20 -1 30 -1h3q8 -1 17 -1.5t17 -0.5l20 -1l4 -2q12 -10 13 -35q0 -10 -2 -14.5t-8 -7.5t-52 -7q-18 -2 -42.5 -4t-36.5 -3q-3 0 -16.5 -1.5l-31.5 -3.5q-72 -8 -105 -9q-10 0 -15.5 -0.5t-8 -1.5t-4.5 -4
q-1 -1 -6 -10l-7 -14q-8 -16 -19 -36t-20 -35q-16 -25 -35 -55t-54 -84l-29 -45l-6 -9q-18 -28 -38 -59t-27 -42q-23 -36 -40.5 -63.5t-23.5 -37.5q-4 -6 -8.5 -13.5t-8.5 -14.5l-2 -4q-41 -66 -89 -144.5t-72 -119.5q-2 -4 -9 -17q-4 -6 -8 -13q-1 -2 -3 -4
q-19 -33 -44 -77q-53 -91 -118.5 -208.5t-122.5 -222.5q-4 -8 -9 -16q-6 -13 -12 -24t-10 -17q-7 -14 -11 -21.5t-5.5 -10.5t-1.5 -5q0 -4 2 -5.5t7.5 -1.5h10.5h12q30 1 65 1h37q58 0 153 -4q53 -2 76.5 -3t38.5 -3q12 -1 17 -3t8 -5q4 -5 7.5 -15t3.5 -19q0 -6 -1 -9
t-3 -6q-2 -2 -4.5 -3t-9 -1.5t-20.5 -0.5q-42 -2 -96 -5q-7 0 -14.5 -0.5t-14.5 -1.5h-5q-9 0 -19 -1q-4 0 -6 -1h-9q-8 -1 -15 -1q-9 -1 -22 -2q-6 -1 -12 -1q-8 -1 -17.5 -1.5t-15.5 -0.5q-8 -1 -21 -2q-6 -1 -12 -1q-56 -5 -90 -5q-15 0 -26 1z" />
    <glyph glyph-name="backslash" unicode="\" horiz-adv-x="1623" 
d="M1500 -4q-5 -2 -9 -2q-3 0 -6 1q-2 1 -7.5 6t-17.5 18.5t-35 38.5q-235 262 -582 610q-62 62 -133.5 132.5t-110.5 108.5q-24 24 -56.5 54.5t-58.5 55.5t-33 31q-3 2 -7 6l-6 6q-4 4 -12 11.5t-17 15.5q-8 7 -15 13.5t-13 11.5q-2 3 -4 4l-2 2q-4 4 -8 7.5t-6 5.5
q-17 15 -83 78q-12 11 -21.5 20.5l-12.5 12.5q-4 3 -9 8q-4 3 -7 6q-12 12 -54 50q-8 8 -18 17q-20 18 -29.5 28.5t-15.5 18.5q-6 9 -8.5 15t-2.5 13v6.5t2 6.5q9 28 31 45q11 8 21.5 7.5t24.5 -10.5q8 -5 15.5 -11t18.5 -17q37 -34 52 -47q8 -7 13 -12l10 -10
q94 -87 194 -190q9 -9 25 -25.5t32 -32.5q6 -6 14 -15q16 -15 33 -33t31 -33l8 -8q23 -23 47 -47.5t64 -67.5q4 -3 10 -10q14 -15 31 -33q13 -13 23.5 -24t14.5 -15t14.5 -15.5t24.5 -26.5q13 -14 25 -27t19 -20q5 -5 12.5 -13.5t14.5 -15.5q6 -7 13.5 -15t12.5 -13t13 -14
q8 -10 17 -19q8 -8 16 -17t14 -15q1 -1 1 -2q5 -6 12.5 -14t13.5 -15t12 -12q5 -6 7 -8t6 -7q5 -5 10 -11q5 -5 9 -10t6 -7t9.5 -10.5t17.5 -19.5q90 -100 188.5 -212t151.5 -175q63 -74 66 -80q2 -3 2 -6q0 -2 -1 -5q-2 -6 -8 -12.5t-14 -10.5z" />
    <glyph glyph-name="bracketright" unicode="]" horiz-adv-x="1452" 
d="M1255 1465q35 -2 48 -6q3 -1 8.5 -4t12.5 -6q9 -5 13.5 -8t7.5 -6q3 -2 4.5 -4t1.5 -5q1 -2 1 -4t-1.5 -5.5t-5.5 -11t-11 -20.5q-2 -3 -10 -20q-23 -45 -66 -131q-24 -47 -45 -89q-32 -63 -41 -81q-7 -14 -19 -37q-11 -22 -22 -43q-57 -116 -117 -229q-21 -39 -44 -82.5
t-39 -70.5q-4 -8 -10 -18q-8 -15 -14 -27l-15 -26q-5 -10 -9 -17q-17 -31 -31.5 -55.5t-18.5 -32.5q-3 -6 -11 -19q-2 -5 -5 -10q-2 -3 -5 -7q-3 -7 -6.5 -12t-4.5 -8q-2 -3 -5.5 -9t-6.5 -12q-37 -65 -123 -208q-20 -32 -43.5 -70t-41.5 -65l-8 -12q-7 -12 -10 -16
q-11 -17 -28.5 -43.5t-28.5 -41.5q-5 -6 -8 -12q-7 -8 -7 -9q-1 -1 -1.5 -3t-1.5 -5q-1 -1 -1 -2q-2 -8 -4.5 -11.5t-5.5 -4.5q-2 -1 -4 -1.5t-6.5 -0.5t-12.5 -1q-35 -1 -81 -1q-47 0 -72 1q-13 0 -33 0.5t-38 1.5q-17 0 -33 0.5t-23 1.5q-9 0 -22 1h-16l-20 1l-4 2
q-12 12 -12 36v6q0 5 1 8q3 5 9 8q5 3 51 7q19 2 43 4t37 3q2 0 15.5 1.5l31.5 3.5q72 8 105 8q10 1 15.5 1.5t8 1.5t4.5 3q1 1 5 8t8 16q8 16 19 36t20 35q16 26 35 56t54 83q10 15 18.5 28.5t14.5 21.5q2 3 3 5q15 23 33 51q11 17 19.5 30.5t12.5 19.5q22 35 39.5 62.5
t23.5 38.5q4 5 8 12q7 11 12 19q41 67 88.5 145t71.5 120q1 2 6 11q5 8 11 18q8 13 16 27q14 25 31 54q53 91 118.5 208.5t122.5 222.5q6 12 13 24q11 22 18 33q7 14 11 21.5t5.5 11t1.5 5.5q0 3 -2 5t-8.5 2h-20.5q-31 -1 -66 -1h-37q-58 0 -152 3q-54 2 -77 3.5t-39 3.5
q-12 1 -16.5 2.5t-7.5 5.5q-5 5 -8 14.5t-3 19.5q0 6 1 9t3 5q1 2 4 3t9.5 1.5l19.5 1.5q42 1 96 4q9 1 18.5 1.5t15.5 1.5q6 0 13.5 0.5t12.5 0.5q2 1 6 1q9 0 18 1h2q6 1 14.5 1.5t16.5 0.5q4 1 7 1q8 1 15 1.5t11 0.5q10 1 24 2q5 0 9 1q60 5 95 5q12 0 21 -1z" />
    <glyph glyph-name="underscore" unicode="_" horiz-adv-x="654" 
d="M159 238q-19 2 -30 11q-8 6 -15.5 17.5t-11.5 24.5q-2 6 -2 12q0 14 15 18q3 1 15 2t25 2q5 0 12 1h3q23 3 42 4.5t55 1.5h117q148 0 149 -1q6 -2 11.5 -9.5t8.5 -17.5q1 -4 1 -8q0 -13 -14 -16q-3 0 -16.5 -1.5t-32.5 -3.5q-60 -6 -92.5 -10.5t-59.5 -8.5
q-72 -13 -110 -17q-16 -2 -30.5 -2h-20.5q-12 0 -19 1z" />
    <glyph glyph-name="a" unicode="a" horiz-adv-x="712" 
d="M-11 319q-12 3 -27 10q-28 14 -37 38q-2 6 -3.5 16t-1.5 17q0 6 1 17.5t3 19.5q3 20 10.5 44t15.5 45q16 44 39 86t45 70q12 15 30 33.5t33 31.5q30 26 61 42q29 15 53 15h4q25 0 48 -12q21 -11 40.5 -28.5t30.5 -35.5q6 -10 10 -10q1 0 2.5 0.5t3.5 0.5q3 3 20 20.5
t36 38.5q24 25 30 29q4 2 12 2q7 0 14 -1q15 -4 28.5 -14.5t20.5 -22.5q2 -3 2 -5.5v-6.5q0 -7 -2 -14t-9 -20t-21 -35q-20 -34 -30 -52t-19 -39q-25 -58 -27 -104v-7q0 -21 5 -37q7 -19 18 -24q4 -1 8 -1q23 0 63 25q34 22 87 71q5 5 11 10l7 7q9 7 25 22l48 45
q15 14 24.5 22.5t14.5 13t7 6.5t3 2q4 2 8 2q3 0 6 -1q9 -3 15.5 -8.5t6.5 -12.5q0 -2 -3 -6t-11 -13t-25 -26t-46 -45q-27 -26 -41 -39.5t-22.5 -21t-17.5 -16.5q-39 -34 -65.5 -49.5t-50.5 -19.5q-10 -2 -23 -2q-14 0 -24 2q-65 13 -91 65q-3 6 -6 15.5t-4 15.5
q-4 21 -4 47t4 48q1 4 2 9q1 6 2 11q1 7 1.5 10t0.5 5l-1 2q0 2 -1 3t-3 1t-5.5 -3t-8.5 -9q-4 -3 -11 -11q-8 -8 -16 -17q-7 -8 -21 -23.5t-28 -30.5q-1 -2 -3 -3q-20 -22 -35 -38q-7 -8 -11 -12q-10 -11 -26 -28q-25 -27 -44 -48q-36 -38 -56 -56q-26 -21 -46 -27
q-6 -2 -15 -2q-10 0 -18 1zM8 378q9 5 31 25q7 6 24 22.5t35.5 35.5t32.5 33q53 57 114 118q19 19 32.5 33t14.5 16t1 4v3q-1 4 -7 10q-4 5 -7 10.5t-7 14.5q-3 7 -6 10t-6 4h-4t-6 -1v-1q-32 -11 -73 -46q-18 -15 -42.5 -42t-48.5 -57q-56 -72 -81 -145q-9 -27 -9 -39
q0 -7 3 -9h3q3 0 6 1z" />
    <glyph glyph-name="b" unicode="b" horiz-adv-x="715" 
d="M195 68q-7 1 -13 3t-14 6q-19 9 -36 25q-25 23 -25 54l1 7q5 74 88 172q12 14 31.5 33.5t32.5 31.5q46 39 99 67q44 23 84 36q11 4 15.5 6.5t7.5 6.5q2 3 8 19t13 36q5 16 10 36t7 35q1 4 1.5 9t1.5 9q2 18 2 36t-2 32q-6 29 -21 33q-6 1 -16.5 1.5t-18.5 -0.5
q-49 -7 -112 -49q-70 -47 -146 -135q-24 -28 -47.5 -60t-57.5 -82q-15 -23 -24.5 -36.5t-14.5 -20t-8.5 -9.5t-6.5 -5q-6 -2 -12 -2q-10 0 -22 4q-21 6 -35 19q-12 12 -14 28l-1 9q0 29 15 88q16 71 45 149q11 31 28.5 73.5t31.5 71.5q12 27 38 76t50 91q39 69 86 139.5
t89 122.5q73 92 142 150q67 57 111 74q13 4 21.5 5.5t17.5 1.5q12 0 19.5 -2t17.5 -8q31 -18 47 -49q7 -14 7 -34q0 -34 -21 -88q-45 -110 -161 -246q-18 -21 -32 -36t-37 -38q-134 -137 -243 -176l-9 -3t-13 -4q-3 -1 -7 -2q-9 -3 -14 -4.5t-7.5 -3t-3.5 -3.5
q-8 -10 -41 -90q-27 -68 -45 -121q-6 -18 -6 -24q0 -2 1 -3h1q5 0 25 23q102 119 184 181q22 15 38 25t34 20q27 14 51 20q11 3 19 4.5t18 1.5q36 0 66 -23q55 -36 69 -95q3 -10 5 -23t2 -23v-12q0 -12 -1 -27q-2 -22 -6 -41q-3 -13 -8.5 -33t-9.5 -33q-20 -58 -52 -120
q-103 -190 -224 -273q-11 -8 -26 -16t-25 -11q-20 -7 -36 -7h-6zM224 845q19 9 47.5 28.5t54.5 39.5q111 91 210 217q101 129 122 218q5 21 5 32q0 15 -9 15q-3 0 -7 -2q-14 -6 -37 -21.5t-46 -35.5q-73 -62 -150 -162q-91 -122 -175 -266q-18 -34 -25 -46.5t-7 -16.5l1 -2
q1 -3 4 -3q4 0 12 5zM194 141q9 5 23.5 16t28.5 24q71 66 147 191q28 45 28 53q0 4 -4 4q-10 0 -39 -22q-52 -38 -95 -82q-56 -58 -84 -115q-12 -24 -17 -44q-4 -12 -4 -19q0 -4 2 -6t5 -2q4 0 9 2z" />
    <glyph glyph-name="c" unicode="c" horiz-adv-x="541" 
d="M88 265q-23 3 -52 17q-56 28 -76 81q-10 28 -10 65q0 29 6 64q4 20 12.5 49t15.5 47q26 64 59 113q47 71 113 121q38 29 73 41q11 4 17.5 5t13.5 1h7h10.5t6 -0.5t5.5 -1.5q26 -8 55 -35q29 -29 36 -54q1 -7 1 -13v-6q-2 -10 -9 -23q-2 -6 -5.5 -11t-5.5 -8
q-6 -8 -12.5 -15t-8.5 -8t-4 -1h-3q-4 0 -7 1q-8 3 -16.5 10.5t-12.5 14.5q-2 3 -2.5 7t-0.5 6v3q0 1 0.5 4.5t1.5 8.5q1 9 1 14q0 4 -2 6t-5 2q-2 0 -4 -1q-6 -1 -18 -8q-66 -36 -131 -123q-45 -58 -71 -115q-20 -43 -30 -86q-4 -14 -5 -24.5t-1 -27.5v-12.5t0.5 -8
t1.5 -6.5q7 -36 22 -40q5 -2 16 -2h8q16 1 32 5q47 12 106 47q75 43 205 160q5 4 11 9q43 39 110 101q5 5 9.5 8.5t5.5 3.5q4 2 7 2q9 0 18 -10q5 -5 7 -9t2 -8q0 -3 -1 -5l-2 -4q-2 -3 -24 -25t-53 -52.5t-60 -59t-47 -45.5q-77 -73 -138 -112q-41 -27 -74 -40
q-17 -7 -30 -10.5t-27 -6.5q-8 -1 -23 -1t-24 1z" />
    <glyph glyph-name="d" unicode="d" horiz-adv-x="679" 
d="M209 -106q-12 1 -25 8t-19 15q-11 11 -11 34v4q3 57 44 169q16 45 41.5 106t50.5 116q42 89 79 161q9 20 16.5 34t21.5 40l8 14l5 10q2 5 9 17q4 7 8 15q37 68 67 121t75 128q9 14 16.5 27t10.5 18q16 28 16 34q0 2 -1 2t-6 -4q-6 -4 -23 -22t-56 -62
q-85 -95 -155 -176.5t-158 -188.5q-63 -77 -93 -111.5t-51 -54.5q-15 -15 -23.5 -22.5t-17.5 -12.5q-19 -13 -38 -13q-9 0 -18 3q-27 9 -46 28q-4 4 -6.5 7.5t-5.5 7.5q-7 13 -8 27q-1 7 -1 15q0 36 18 91q41 124 117 227q42 56 80 80q15 11 25.5 16t22.5 8t24 3
q26 0 53 -15q45 -25 63 -51q4 -7 6 -10t3.5 -4t2.5 -2q2 -1 3 -1t3 2q1 0 2.5 1t4 3.5l7.5 7.5t12.5 13.5t18.5 20.5q3 3 5 6q15 16 29 32q9 9 14 15q7 7 16 17l16 16l18 21q15 16 47 50q78 84 122 131t71.5 75.5t54.5 56.5q18 18 28.5 28t16 14.5t8 5.5t5.5 1
q11 0 22.5 -11.5t13.5 -23.5l1 -4q0 -7 -6 -19q-6 -16 -25 -50.5t-55 -96.5q-12 -21 -23 -40t-16 -27q-39 -70 -69 -121q-14 -26 -19 -34l-6 -12l-26 -45.5t-20 -36.5q-3 -6 -8 -15t-10 -17q-4 -8 -10 -18.5t-10 -18.5t-9 -16.5t-8 -14.5q-15 -26 -37 -68q-6 -12 -12 -23
q-5 -9 -8 -15q-87 -163 -165 -329q-34 -73 -61 -136.5t-38 -96.5q-2 -6 -2.5 -9t-0.5 -7q0 -2 0.5 -3t1.5 -2.5t3 -2.5q6 -6 9.5 -9t4 -4.5t0.5 -3.5q1 -1 1 -2.5v-2.5q-1 -4 -5 -7.5t-8 -6.5q-6 -3 -9.5 -3.5t-6.5 -0.5h-7zM10 379q15 11 44.5 39.5t64.5 66.5
q14 16 39.5 44.5t47.5 52.5q5 6 16 19l16 18q12 13 20 22t12.5 14.5t7 8.5t3.5 5v1q2 3 2 5l-1 2q-1 3 -5 8q-12 13 -16 25q-5 12 -8 15.5t-7 3.5h-2q-20 -3 -77 -55q-29 -28 -62 -71q-75 -103 -106 -206q-2 -6 -2 -10v-6q0 -3 1 -4q1 -2 3 -2q3 0 9 4z" />
    <glyph glyph-name="e" unicode="e" horiz-adv-x="526" 
d="M97 307q-86 14 -128 77q-8 14 -14 36q-3 12 -4 22t-1 26v6q0 20 5 43q19 89 93 185q14 18 32 36.5t32 30.5q59 45 107 45q13 0 25 -3q18 -6 36.5 -21t29.5 -33q10 -17 10 -38q0 -27 -17 -61q-21 -43 -57 -76q-41 -38 -84 -47q-12 -3 -24 -3q-24 0 -48 13q-9 5 -14 5h-2
q-5 -2 -11 -16q-28 -64 -28 -113q0 -32 9 -47q4 -9 11 -12.5t21 -4.5h10q35 0 82 18q15 6 39.5 18.5t42.5 23.5q136 79 271 212q9 8 15.5 14.5t7.5 6.5q4 2 8 2q8 0 16 -9q8 -7 8 -15q0 -3 -2 -7q-3 -6 -23.5 -28t-47.5 -48q-40 -41 -70.5 -67.5t-66.5 -53.5
q-7 -5 -19.5 -14t-24 -17t-17.5 -12q-79 -52 -133 -66q-19 -5 -34 -7t-24 -2t-17 1zM124 578q15 3 33 12q33 16 60.5 45t40.5 61q5 15 5.5 22t0.5 9q0 7 -2 10t-6 3h-2q-6 -1 -17 -7q-56 -28 -116 -104q-9 -11 -16 -21.5t-9 -14.5t-2 -7q0 -6 5 -8q4 -1 8.5 -1h7.5q4 0 9 1z
" />
    <glyph glyph-name="f" unicode="f" 
d="M-47 -282q-40 8 -70 28q-9 5 -19.5 15.5t-17.5 18.5q-25 36 -36 87q0 2 -1 6l-2 14q-6 31 -6.5 58.5t-0.5 35.5q0 39 4 72q17 137 76 305q76 216 212 447q44 75 97.5 155.5t100.5 142.5q36 48 58 69q8 7 13.5 10.5t11.5 4.5h2q11 0 26 -8q17 -9 30.5 -22t16.5 -24l1 -4
l-1 -4q0 -3 -3 -8q-4 -10 -20 -27q-23 -25 -52 -63.5t-77 -108.5q-3 -4 -10 -14.5t-15 -23.5q-95 -144 -162 -275q-28 -55 -30 -63v-2q0 -6 4 -10t14.5 -11.5t20.5 -13.5q24 -15 46.5 -21.5t50.5 -7.5h10q39 0 82 14q21 7 45.5 18.5t41.5 24.5q31 21 55.5 45t54.5 60
q6 8 9.5 10.5t7.5 2.5q11 0 20 -6t9 -14q0 -4 -4.5 -11.5t-16.5 -23.5q-46 -61 -95 -96q-33 -22 -74 -38q-17 -8 -32 -12t-32 -7q-14 -2 -24 -3t-26 -1q-58 0 -110 20q-12 5 -15 5.5t-4 0.5q-2 0 -3 -1q-2 -1 -2 -2q0 -2 1 -6t4 -11.5t9 -20.5q6 -14 16.5 -39t16.5 -41
q18 -51 26 -107q3 -27 4.5 -45.5t1.5 -47.5q0 -37 -2.5 -63.5t-7.5 -57.5q-28 -156 -105 -252q-25 -29 -54 -43q-12 -6 -22 -8.5t-25 -2.5h-13t-9 1zM-49 -233q6 1 14 5.5t15 10.5q3 2 8.5 6.5t10.5 9.5q44 43 76 113q35 78 48 172q5 37 5 75q0 43 -6 86q-8 66 -33 139
q-2 7 -7 21t-10.5 28t-8.5 21q-7 19 -12 19q-4 0 -11 -12l-14 -35t-18 -46q-56 -140 -82 -268q-7 -34 -14 -76t-10 -71q-2 -28 -2 -54q0 -37 5 -68q7 -37 20 -60q6 -12 10.5 -14.5t9.5 -2.5q3 0 6 1z" />
    <glyph glyph-name="g" unicode="g" horiz-adv-x="587" 
d="M-220 -271q-10 1 -23 4t-25 7q-15 5 -31.5 15t-27.5 19q-7 6 -14.5 14.5t-12.5 14.5q-5 8 -10.5 20t-8.5 22q-17 51 -17 100q0 24 4 48q2 10 5 21t5 16q3 6 6 7.5t8 1.5q4 0 6.5 -0.5t6.5 -2.5q13 -6 17 -14q1 -3 1 -7q0 -5 -3 -14q-4 -17 -5.5 -30t-1.5 -31v-15.5
t1 -11.5q4 -33 14 -64t23 -49q9 -13 17.5 -17.5t23.5 -4.5h3q63 0 137 54q10 8 19.5 16.5t22.5 20.5q32 32 64 74t73 108q3 5 7 11q6 9 11 17t8 12q12 19 29.5 48.5t30.5 52.5q1 2 1 3q7 12 12.5 21.5t12 22t17.5 33.5q7 14 22.5 45.5t32.5 65.5t28 57q6 11 15 29
q11 23 21 44q10 18 17.5 34.5t10.5 22.5l7.5 15t7.5 18q11 21 16 32.5t6.5 15.5t1.5 5q0 2 -1 3q0 1 -2 1t-7 -3q-4 -2 -35.5 -33t-103.5 -102q-48 -48 -75.5 -75t-42 -41t-24.5 -23q-65 -58 -99 -63q-6 -1 -12 -1q-15 0 -32 7q-32 12 -42 34q-3 7 -4.5 14t-1.5 17
q0 39 23.5 100t62.5 123q58 88 118 143q20 19 44 30q32 16 62 16q11 0 22 -2q20 -5 45 -20t44 -33q5 -6 9.5 -11.5t10.5 -16.5q5 -7 7.5 -8t3.5 -1q3 0 6 2q6 4 16 14q15 13 31.5 27.5t24.5 20.5q6 6 12 6.5t14 -3.5q16 -7 31.5 -22.5t24.5 -32.5l3 -7.5t1 -6.5v-6t-1 -5.5
l-3 -10.5q-28 -80 -102 -235q-4 -7 -8 -15q-1 -3 -3 -6q-2 -5 -9 -19q-8 -17 -17.5 -36.5t-14.5 -31.5q-3 -5 -7.5 -14t-9.5 -20q-4 -7 -8 -15q-13 -28 -32.5 -67t-28.5 -55q-2 -4 -5 -9l-10 -20q-19 -35 -42 -73t-41 -65q-90 -131 -184 -206q-18 -13 -32.5 -22.5
t-30.5 -17.5q-29 -14 -50 -20q-37 -12 -72 -12q-7 0 -15 1zM-32 372q8 3 30 19q15 10 30 22t41 36q11 9 27.5 24.5t27.5 25.5q6 6 18 17l21 21q81 77 106 101q9 9 11.5 12.5t2.5 6.5q0 1 -1 3q-1 3 -8 10t-12 14.5t-10 20.5q-5 12 -10 13q-2 1 -4 1t-5 -1q-5 -1 -15 -6
q-8 -4 -24 -13.5t-26 -15.5q-109 -77 -177 -207q-17 -34 -25 -59.5t-8 -35.5q0 -4 1 -6q0 -1 1 -1.5t2 -0.5l1 -1h5z" />
    <glyph glyph-name="h" unicode="h" horiz-adv-x="810" 
d="M-56 271q-10 2 -19 6.5t-14 8.5q-9 10 -11 26v8q0 83 93 305q41 98 96 202q59 112 140 236q117 175 206 266q97 97 169 122q11 4 18 5.5t17 1.5t17 -2t16 -6q7 -4 13 -8.5t13 -11.5q27 -24 27 -58q0 -16 -6 -34q-21 -69 -84 -166q-118 -176 -272 -305q-44 -35 -91 -65.5
t-81 -45.5q-9 -3 -14 -5.5t-7.5 -4.5t-4.5 -5q-4 -5 -17.5 -30t-30 -58.5t-31.5 -63.5q-22 -45 -40 -85.5t-22 -53.5q-1 -3 -1 -6q0 -4 3 -4q1 0 5 2.5t11.5 10t22 21.5t36.5 36q71 71 114.5 111.5t83.5 72.5q27 21 52.5 36.5t39.5 19.5q8 2 15 2t14 -2q15 -5 31 -16t24 -23
q4 -5 7 -12.5t5 -15.5q1 -3 1.5 -6.5t1 -8t0.5 -12.5v-32q-1 -12 -3.5 -29.5t-4.5 -28.5q-5 -28 -6 -49.5t-1 -30.5q0 -20 1 -36q1 -11 2.5 -18t4.5 -13q4 -11 8.5 -14t10.5 -3q3 0 7 1q37 5 90 40q37 24 83.5 65.5t119.5 114.5q20 20 25 23q4 3 9 3q8 0 16 -8q8 -6 8 -15
t-8 -20q-9 -12 -40.5 -47t-68 -72.5t-58.5 -57.5q-52 -49 -95 -69q-28 -14 -56 -14h-12q-4 0 -10 1q-37 6 -67 34q-29 28 -42 60q-3 7 -7.5 23t-5.5 26q-2 11 -2 30q0 20 1 32q0 9 3 28t9 56q3 15 5 27t2 15v6t-0.5 3t-1.5 2q-2 2 -5 2t-8 -3q-29 -15 -81 -59
q-93 -81 -219 -231q-2 -3 -5 -6q-13 -16 -28.5 -34t-27.5 -31q-10 -12 -24 -26t-21 -19q-15 -12 -32 -12q-6 0 -11 1zM229 830l2 2q7 4 18 11q78 53 161 138q184 189 247 345q13 35 13 47q0 3 -1 5t-2 2.5t-4 0.5q-6 0 -23 -12q-58 -38 -147 -139q-103 -117 -210 -286
q-20 -32 -38 -62.5t-24 -40.5q-2 -5 -2 -8q0 -5 4 -5q2 0 6 2z" />
    <glyph glyph-name="i" unicode="i" horiz-adv-x="394" 
d="M272 991q-13 5 -26 19q-9 9 -10 13.5t-1 6.5q0 7 2 15q2 7 8 23.5t12 31.5t8 19q2 5 6.5 9t7.5 5t7 1q11 0 29 -8q36 -19 48 -45q1 -4 1 -10q0 -5 -2 -9t-4.5 -7t-7.5 -8.5t-15 -14.5q-23 -22 -33 -31t-12 -10q-4 -1 -8 -1q-5 0 -10 1zM53 324q-12 1 -29 8
q-63 24 -73 100q-1 10 -1 29q0 18 1 31q5 55 28 118q18 54 31 77q11 20 24.5 41t22.5 32q6 10 12.5 13t15.5 3q17 -2 36 -13.5t30 -26.5q3 -5 4.5 -9t1.5 -9q0 -7 -3 -12.5t-11 -18.5q-9 -14 -24 -37.5t-24 -38.5q-5 -10 -14.5 -27t-14.5 -27q-34 -67 -42 -120q-1 -9 -1 -19
v-9q0 -15 2 -24q6 -27 21 -27q3 0 10.5 2t13.5 4q60 25 208 165q9 8 20 18t18 17q15 14 35 32.5t34 32.5q10 9 16 14t9.5 7t6.5 2q6 0 13.5 -4.5t11.5 -10.5q2 -4 2 -8q0 -3 -1 -6t-21 -24t-73 -73q-20 -21 -40.5 -40.5t-31.5 -29.5q-4 -4 -12 -11l-8 -8q-69 -61 -121 -92
q-28 -16 -52 -21q-6 -1 -15 -1t-16 1z" />
    <glyph glyph-name="j" unicode="j" horiz-adv-x="228" 
d="M-549 -345q-40 9 -68 36q-29 28 -32 75l-1 12q0 40 18 95q84 232 314 372q13 8 32.5 18t31.5 15q37 16 77 27q10 3 15 5t7 6q5 5 35 65q4 7 8 15q8 15 13 25q3 6 11 23q10 18 21 40q9 19 17 35l10 20q2 3 4.5 8.5t4.5 9.5q2 5 5 11.5t5 10.5q4 9 15 32q12 26 21 46
q5 10 12.5 28t15.5 37t13 29q8 23 13.5 36.5t8.5 23t7 21.5q3 10 5.5 14.5t5.5 7.5q5 5 12 5t16 -5q13 -7 26 -20.5t20 -28.5q7 -12 7 -23t-7 -30q-22 -69 -76 -187q-26 -57 -84 -174q-9 -17 -14 -28t-8 -17t-4 -9.5t-1 -4.5q0 -2 1 -3q0 -2 5 -3.5t18 -2.5q7 -1 14 -1.5
t10 -1.5q10 -2 22.5 -5t19.5 -6q9 -4 19.5 -9.5t17.5 -10.5q8 -6 16.5 -14t10.5 -13t2 -8q0 -2 -1 -4q-2 -3 -5 -3q-2 0 -4 1q-2 0 -5.5 2t-7.5 4l-8 6t-7 4q-20 10 -55 14q-11 2 -29.5 2t-35 -0.5t-22.5 -1.5q-3 -1 -6 -3.5t-7 -9.5t-10 -20q-45 -87 -71.5 -136.5
t-52.5 -91.5q-66 -110 -117 -181q-110 -150 -188 -177q-10 -3 -17 -4t-17 -2q-9 0 -13 0.5t-9 1.5zM283 1088q-6 2 -11.5 5.5t-10.5 9.5q-7 6 -9.5 11.5t-3.5 11.5q0 8 3.5 24t12.5 50q13 49 26 63q8 8 17 9q13 0 30.5 -11t29.5 -26q4 -5 7 -12t4 -12v-6v-6q-1 -5 -6 -14
q-3 -7 -9 -16t-20 -26q-6 -8 -12.5 -17t-11.5 -14q-5 -8 -9 -14q-3 -3 -4 -5q-6 -7 -14 -7q-4 0 -9 2zM-555 -290q34 14 77 60q66 72 153 227q13 23 25.5 46t34.5 64q4 7 8 15q5 11 10.5 21t8.5 15q3 6 10 18q5 10 10 19q7 12 10.5 19.5t5.5 11.5t2.5 6t0.5 3q0 6 -4 6
t-16 -5q-62 -25 -130 -75q-106 -79 -173 -190q-8 -13 -18.5 -33.5t-16.5 -35.5q-22 -51 -29 -101q-2 -14 -2 -32t2 -30t5 -20.5t7 -9.5q2 -2 5 -2h3q4 0 11 3z" />
    <glyph glyph-name="k" unicode="k" horiz-adv-x="766" 
d="M-36 233q-17 5 -32 13t-21 16q-11 12 -11 38q0 20 7 50q22 110 101 300q70 167 160 327q81 143 157 247q62 85 125 148q68 67 126 95q8 3 17.5 6.5t16.5 4.5q8 1 17 1t15 -1q19 -5 35.5 -20.5t22.5 -34.5q1 -3 2 -5t1 -5.5v-9.5q0 -12 -2 -21t-7 -25q-58 -162 -283 -408
q-18 -19 -46.5 -47.5t-43.5 -42.5q-79 -72 -138 -101q-13 -7 -16 -10q-2 -3 -9.5 -18t-22.5 -48q-56 -122 -95 -234q-7 -19 -9.5 -28.5t-2.5 -12.5q0 -5 2 -5t5 3q6 6 23 27l33 43.5t18 23.5q1 0 1 1q139 173 260 255q72 47 109 47q28 -1 53 -27q17 -17 17 -36v-5
q0 -18 -13 -44q-26 -54 -87 -106q-57 -49 -114 -73q-16 -7 -36 -13.5t-37 -10.5q-5 -1 -9 -2t-5 -2q-4 -2 -4 -7v-2q2 -9 11.5 -26.5t20.5 -33.5q39 -56 82 -69q19 -5 39 -5q45 0 98 26q72 36 145 112q36 37 71 79q15 18 25 31t24 33l13.5 18t6.5 8t4 3q3 2 6 2t7 -2
q8 -2 13 -8q6 -5 6 -12v-2q-3 -9 -21 -36.5t-45 -63.5q-82 -106 -146 -155q-42 -33 -89 -53q-44 -17 -88 -17q-21 0 -43 4q-93 21 -155 91q-28 30 -41 62q-3 9 -5.5 13.5t-3.5 6t-3 2.5q-1 1 -2 1t-3 -1t-4 -2.5t-5.5 -7t-11.5 -14.5q-17 -24 -33.5 -49t-43.5 -68
q-22 -34 -34.5 -53.5t-20 -29t-13.5 -14.5q-6 -7 -12 -10q-2 -1 -4 -1.5t-4 -0.5h-6h-8q-4 0 -7 1zM228 847q15 9 67 58q106 102 215 241q113 147 141 241q5 15 5 23t-6 8h-3q-8 -2 -26 -14t-40 -31q-9 -8 -26 -25t-28 -30q-137 -152 -281 -415q-17 -30 -22 -41.5t-5 -14.5
v-1q1 -1 2 -1h1q3 0 6 2zM247 557q5 2 16.5 7.5t25 12.5t23.5 13q41 25 78 57q6 5 16.5 15.5l20.5 20.5t15 16q8 9 16 20t12 16q3 6 3 10t-5 4q-11 0 -48 -21q-62 -37 -135 -110q-42 -43 -49 -56q-2 -2 -2 -3t2 -2q0 -1 1 -1h3q2 0 6 1h1z" />
    <glyph glyph-name="l" unicode="l" horiz-adv-x="520" 
d="M113 159q-18 1 -30 4q-42 11 -72 35q-12 10 -20 21t-17 28q-13 27 -18.5 57.5t-5.5 78.5q0 89 36 223q1 5 2 9q2 8 4 13q4 16 12.5 41t17.5 50q51 137 127 267q155 257 319 385q79 59 140 73q4 1 7.5 1.5t7.5 0.5h12q13 0 21 -1t17 -5q20 -8 37 -25t25 -37q5 -11 5 -26
q0 -25 -15 -60q-60 -144 -244 -322q-167 -157 -314 -214q-11 -4 -15.5 -7t-7.5 -7q-4 -7 -15 -33t-21 -53q-56 -146 -70 -255q-4 -36 -4 -66q0 -61 17 -100q5 -11 11.5 -20t12.5 -12q2 -1 3.5 -2t4 -1h8.5h1q7 0 11 0.5t10 2.5q55 15 127 81q6 6 11.5 11t6.5 6l10.5 10.5
t18.5 19.5t18 19q72 82 201 264q9 12 14 19l7.5 10.5t4.5 5t3 1.5q3 1 5 1.5t6 0.5t6.5 -1t6.5 -3q12 -6 12 -15v-3q-3 -7 -23 -36q-5 -9 -15 -23q-7 -9 -12 -17q-10 -14 -24 -34.5t-27.5 -39.5t-19.5 -27q-99 -140 -156 -195q-74 -74 -131 -92q-10 -3 -21.5 -5t-17.5 -2
h-11zM203 826q16 9 44 26.5t55 37.5q71 52 144.5 122t126.5 136q74 92 101 168q4 10 6 17.5t3 16.5q2 10 2 16v3q-1 6 -6 7h-4q-18 0 -68 -32q-56 -38 -121 -101q-151 -146 -276 -371q-14 -25 -18 -33.5t-4 -11.5q0 -2 1 -2q1 -2 4 -2q4 0 10 3z" />
    <glyph glyph-name="m" unicode="m" horiz-adv-x="1040" 
d="M329 249q-6 2 -16.5 7t-17.5 10q-20 14 -26 34q-1 7 -1 16q0 37 22 107q8 27 20.5 60.5t23.5 60.5q2 6 6 15l6 16q16 38 38.5 89t46.5 100q7 13 10.5 20.5t5 11.5t2 6t0.5 3q0 2 -1 2.5t-3 0.5q-1 0 -3 -0.5t-6 -3.5q-22 -15 -66.5 -58.5t-90.5 -95.5q-61 -67 -147 -171
q-1 -2 -4 -5q-5 -7 -12.5 -16t-14.5 -17q-9 -11 -18.5 -22.5t-15.5 -18.5q-44 -54 -66 -74q-7 -7 -12 -11t-10 -6l-6 -2t-8 -1q-7 0 -13 1.5t-14 5.5q-15 6 -26 18q-11 11 -11.5 20t-0.5 12q0 14 6 37q13 53 50 136t74 144q20 31 44 67t37 54q21 27 41 27h4
q14 -3 29.5 -12.5t24.5 -21.5q8 -9 8.5 -14t0.5 -7q0 -7 -4 -17q-1 -6 -6 -13.5t-16 -24.5q-33 -47 -74 -112q-6 -10 -13 -20.5t-11 -17.5q-22 -34 -40 -64t-25 -46q-3 -5 -3.5 -8t-0.5 -4v-2h1q4 0 20 16q10 11 36.5 39.5t48.5 54.5q79 89 117.5 130.5t70.5 72.5
q85 86 135 116q9 5 14 7t12 2q3 0 5 -0.5l4 -1t5 -1.5q27 -15 35 -40q1 -6 1.5 -15t-0.5 -17q-2 -23 -15.5 -62.5t-41.5 -110.5q-8 -22 -16 -42t-11 -29q-4 -9 -8 -20q-4 -9 -7 -16l-20 -55t-19 -52q-4 -13 -4 -19q0 -3 1 -4h3q2 0 5 3t9.5 10t17.5 18q29 33 49 53.5
t38 37.5q58 55 90 65q7 2 15 2t14 -2q21 -7 39 -24q8 -8 13.5 -18t14.5 -33q3 -9 6.5 -17t5.5 -11q4 -8 9 -15.5t8 -10.5q12 -11 38 -11h3q55 0 141 74q25 20 59 51t50 47q32 33 38 36q3 2 6 2q5 0 11 -4q9 -4 13 -10t4 -12q0 -2 -2 -5t-6.5 -8.5t-13.5 -15.5t-24 -26
q-15 -14 -36 -35.5t-41 -40.5t-28 -27q-57 -52 -104 -64q-12 -4 -22 -4.5t-14 -0.5q-9 0 -17 1q-8 2 -18.5 5t-18.5 6q-35 15 -62 44q-11 13 -19 28t-16 38q-4 9 -6 14t-4 6.5t-5 1.5h-3q-2 0 -5 -1q-4 -2 -12 -8q-71 -47 -191 -213q-19 -27 -29.5 -40.5t-17.5 -19.5
q-9 -9 -13 -11q-10 -4 -20 -4q-6 0 -13 1z" />
    <glyph glyph-name="n" unicode="n" horiz-adv-x="721" 
d="M-52 317q-23 6 -37 18q-6 7 -8.5 13.5t-2.5 15.5v6q0 27 13 65q21 66 72 169q15 30 26.5 50t27.5 46q9 15 25 39l31 46.5t22 31.5q8 11 19 20.5t19 14.5q8 4 16 4q17 0 37 -14q10 -7 18 -15q11 -10 12.5 -15.5t1.5 -8.5q0 -7 -3 -14q-4 -11 -11 -22.5t-23 -34.5
q-41 -58 -80 -119q-7 -12 -15 -24.5t-13 -19.5q-22 -33 -40.5 -64.5t-26.5 -48.5q-3 -7 -3.5 -10t-0.5 -4v-2h2.5t4 2.5t7.5 7t13.5 12.5t21 20.5l29.5 29.5q59 60 91 90.5t63 58.5q52 45 82 63q14 10 29 10q17 0 34 -14q24 -18 36 -40q4 -9 5.5 -16.5t1.5 -20.5l1 -13
l-1 -15q-2 -15 -6.5 -38t-12.5 -64q-2 -7 -3.5 -20.5t-3 -26.5t-1.5 -17q0 -3 0.5 -9.5t1.5 -12.5t1 -9q3 -15 13 -16q4 0 12.5 2t15.5 4q67 26 166 123q23 22 52.5 53t47.5 53q7 8 11.5 11.5t8.5 4.5h3q5 0 11 -2q8 -2 14 -9q6 -5 6 -11q0 -5 -5 -12q-7 -10 -32 -39
t-54.5 -62t-49.5 -54q-53 -56 -97 -85q-10 -6 -24 -13.5t-23 -10.5q-19 -7 -38 -7q-16 0 -32 5q-7 3 -19.5 8.5t-19.5 10.5q-27 18 -42 44q-4 8 -6.5 15t-5.5 18q-3 10 -3.5 15.5t-0.5 13.5q-2 22 -2 33t1 21q2 20 3.5 33.5t4.5 29t8 42.5q3 16 3 22q0 5 -5 5q-13 0 -76 -53
q-78 -67 -208 -212q-61 -69 -73 -76q-5 -5 -10 -6.5t-12 -1.5h-8t-7 2z" />
    <glyph glyph-name="o" unicode="o" horiz-adv-x="570" 
d="M100 321q-18 2 -37.5 9.5t-33.5 17.5q-11 8 -22 21t-17 26q-5 9 -7.5 15.5t-4.5 16.5q-8 28 -8 64q0 59 16 115q17 59 43 101q40 65 71 83q10 5 23 5q8 0 18 -2q9 -2 14.5 -4t13.5 -7t11 -5.5t4 -0.5h3q2 0 6 2.5t10 6.5q10 7 16 10t14 6q13 4 25 4q7 0 14 -1
q24 -5 48 -24.5t36 -43.5q3 -6 5.5 -14.5t3.5 -15.5q2 -10 2.5 -27.5t-0.5 -29.5q-4 -38 -17 -79q-9 -27 -25 -60q-4 -8 -6.5 -14t-2.5 -7v-3q0 -1 1 -3q1 -1 2 -1.5t2.5 -0.5h4.5q10 1 30 7t39 13q14 6 29.5 15t28.5 17q25 17 57.5 45.5t51.5 49.5q10 11 15 16t8 7t7 2
t9 -3t10 -7q9 -8 9 -17q0 -10 -11 -22q-5 -6 -15 -17t-20.5 -22t-17.5 -18q-85 -82 -187 -102q-25 -4 -48 -4h-14q-7 1 -11 1h-3q-5 -1 -9 -5q-1 -1 -4.5 -5.5t-8.5 -10.5q-28 -38 -53 -58q-22 -18 -42 -28q-16 -8 -27.5 -11t-26.5 -3h-22zM243 484q2 1 6 5.5t11 14.5
q30 48 47 96q11 33 14.5 58.5t3.5 39.5t-3 25q-6 31 -22 37l-4 1l-6 -1q-7 0 -12 -1q-7 -2 -15 -6t-15 -9q-23 -17 -45.5 -46t-31.5 -55q-5 -16 -6 -29t-1 -18q0 -14 2 -28q4 -21 15 -41t26 -31q10 -8 18 -10.5t13 -2.5q3 0 5 1zM101 359q32 7 67 36q9 8 19.5 18.5t19 20
t10.5 13.5q2 3 2 5q0 3 -2 4q-2 4 -14 10q-13 6 -20 10.5t-14 9.5q-24 18 -42 45q-5 8 -11 19.5t-9 21.5q-3 9 -5 12.5t-5 3.5q-4 0 -11 -15t-14 -37t-12 -45q-5 -25 -5 -48q0 -18 3 -34q6 -28 18 -42q6 -6 10.5 -7.5t7.5 -1.5t7 1z" />
    <glyph glyph-name="p" unicode="p" horiz-adv-x="611" 
d="M-353 -165q-1 0 -4 1t-6 3q-17 8 -17 19v4q3 14 81 186q38 84 105 215q14 27 32.5 64.5t33.5 67.5q33 66 57.5 112.5t62.5 113.5q33 61 52 94t28.5 48t15.5 21q8 8 20 8q13 0 30 -9q35 -18 38 -39q1 -6 2 -8.5t3 -2.5h1q4 0 11 6q27 22 47.5 36.5t40.5 25.5q40 22 73 27
q7 1 20 1q12 0 20 -1q31 -5 62 -27.5t47 -52.5q13 -25 16 -49q2 -12 2 -30t-2 -31q-16 -95 -91 -186q-9 -11 -24 -26l-25 -25q-83 -73 -177 -103q-37 -12 -75 -13h-13q-12 0 -23 1q-16 2 -34 8q-45 14 -80 39q-6 5 -9.5 7.5t-5.5 3.5t-4 1t-3.5 -1t-2.5 -2q-3 -3 -11.5 -17
t-18.5 -31q-3 -6 -6 -11.5t-6 -9.5q-11 -17 -108 -192q-28 -49 -42 -74.5t-25 -46.5q-5 -8 -10 -19q-4 -6 -7 -11q-3 -6 -8.5 -16.5t-11.5 -22.5q-3 -5 -5 -10l-2 -2q-9 -18 -14 -27t-8 -12t-6 -4q-3 -2 -5 -2h-4q-3 0 -7 1zM89 336q14 2 34 8t36 13l46 23q88 52 154 138
q54 74 74 148q3 15 5 24.5t2 21.5q1 8 1 16q0 23 -7 40q-6 13 -16 16q-5 1 -18 1q-12 0 -20 -1q-68 -13 -157 -89q-12 -11 -31 -29t-32 -32q-92 -95 -166 -225q-7 -11 -10 -17.5t-3 -9.5q0 -4 1 -7q3 -7 12 -16.5t19 -14.5q6 -3 17 -6t20 -4h11.5t15 0.5t12.5 1.5z" />
    <glyph glyph-name="q" unicode="q" horiz-adv-x="616" 
d="M91 -230q-9 3 -18 8.5t-14 11.5q-4 4 -7.5 10.5t-4.5 12.5q-2 8 -3 18.5t-1 16.5l1 12q2 22 5.5 41.5t10.5 48.5q37 144 148 376q6 13 17.5 36.5t22.5 45t14 28.5q21 39 38.5 70t41.5 71q22 37 23 43v2t-0.5 1h-1.5l-2 -1q-2 -1 -3 -2q-3 -2 -17.5 -16t-35.5 -35l-52 -52
t-58 -56q-86 -82 -121 -106q-37 -26 -68 -26q-15 0 -28 6q-50 20 -57 68q-1 7 -1 15q0 24 7 54q27 100 104 199q40 50 82 79q12 9 21 14.5t23 12.5q35 18 65 18q6 0 13 -1q9 -1 15.5 -3t15.5 -6q18 -8 39 -25q32 -26 40 -56q2 -7 3.5 -9.5t4.5 -2.5q1 0 2.5 0.5t2.5 0.5
q1 1 8.5 8t17.5 17q24 23 53 50t46 42q7 6 12.5 11t7.5 7q11 11 27 11q24 0 48 -23q19 -20 19 -35q0 -16 -26 -54q-46 -70 -98.5 -155.5t-91.5 -155.5q-2 -3 -13 -23q-7 -12 -15 -27q-106 -186 -171 -332q-67 -153 -73 -209l-1 -4q0 -3 2 -6t8 -7q11 -8 14 -13q1 -2 1 -6
q0 -3 -1 -6q-1 -2 -5 -5.5t-9 -5.5q-3 -2 -5.5 -2.5t-7.5 -0.5t-8 0.5t-6 0.5zM7 376q34 14 102 75q1 1 3 2q8 8 19.5 18.5t35.5 33.5q30 28 61.5 58t54 52.5t26.5 27.5q2 3 2 6q0 2 -1 5q0 1 -2 3.5t-5 4.5q-6 7 -9.5 12.5t-6.5 12.5q-4 13 -7.5 16t-8.5 3h-2
q-7 -1 -21.5 -6.5t-26.5 -11.5q-26 -15 -58.5 -40.5t-57.5 -50.5q-81 -84 -111 -172q-8 -23 -8 -37q0 -6 2 -10q1 -5 7 -5q5 0 12 3z" />
    <glyph glyph-name="r" unicode="r" horiz-adv-x="536" 
d="M-63 335q-11 3 -21 10.5t-13 15.5q-3 6 -3 16v8q2 16 13 47q22 66 64.5 157t82.5 156q32 53 52 54h3q11 0 28 -9q19 -10 31 -23q10 -11 10 -23q0 -6 -2 -11q-3 -9 -12.5 -24.5t-33.5 -48.5q-16 -23 -27 -38.5t-23 -33.5q-41 -64 -41 -75q0 -2 1 -2t3.5 2t8 7.5t16 15.5
t25.5 25q34 34 57.5 56t55.5 52q117 104 176 127q8 2 16 2q5 0 10 -1q21 -6 41.5 -26.5t27.5 -42.5q2 -10 2 -20q0 -11 -2 -19q-5 -15 -14 -27q-13 -18 -25 -18q-14 0 -30 15.5t-20 32.5q-1 4 -1 9v6q0 8 -0.5 12t-2.5 5q-1 3 -4 3q-2 0 -5 -1q-8 -2 -24 -11
q-86 -45 -201 -158q-74 -73 -143 -161q-15 -19 -22.5 -28t-13.5 -16q-10 -11 -15.5 -15t-13.5 -4q-7 0 -11 2z" />
    <glyph glyph-name="s" unicode="s" horiz-adv-x="587" 
d="M-89 -159l-18 3t-10 2q-35 11 -59 48q-24 34 -24 71q0 7 1 14q0 11 2 20.5t7 22.5q25 75 105 165q12 13 33 34t35 34q67 61 151 121q7 5 12.5 9t6.5 5q2 2 4 4.5t2 5.5t-5.5 7.5t-20.5 16.5q-71 52 -93 81q-14 18 -26 41.5t-18 44.5q-5 18 -5 36q0 11 2 21
q4 19 10.5 33.5t18.5 30.5q10 13 17.5 21.5t18.5 20.5q17 17 32 29t36 27q53 39 99 57q16 7 28.5 9.5t27.5 2.5q6 1 10 1t6 -0.5t5 -1.5q8 -2 13.5 -6t13.5 -11q15 -16 22 -30.5t7 -22.5q0 -4 -1 -6q-2 -5 -10 -9t-29 -11q-89 -31 -177 -102q-15 -11 -24.5 -19.5
t-18.5 -18.5q-26 -27 -37 -50q-5 -9 -5 -15q0 -3 1 -5q2 -8 16 -20q4 -4 8 -7t12 -9.5t24 -18.5q8 -6 18 -14q26 -19 40.5 -30.5t28.5 -24.5q6 -6 9.5 -7.5t5.5 -1.5h3q2 0 4.5 1t6.5 3l1 1q43 26 48 29q120 72 211 118l17 8.5t14 7.5q7 4 15 7q4 3 7 4q6 3 15 8l8 4
q6 4 14 8l14 7q10 5 14.5 6t6.5 1t4 -1q6 -2 12 -13q3 -6 3 -11q0 -9 -9 -16q-8 -6 -26 -16t-35 -19q-6 -3 -12.5 -6.5t-11.5 -6.5q-4 -3 -16 -9q-10 -6 -21 -12q-122 -68 -209 -125q-11 -7 -17.5 -11.5t-10 -7t-4.5 -4t-2 -2.5q-1 -2 -1 -4v-3q1 -4 6 -12q27 -46 39 -83
q4 -12 7.5 -26.5t4.5 -26.5q2 -15 2 -29q0 -22 -4 -42q-14 -80 -74 -153q-58 -67 -146 -118q-100 -54 -174 -54h-12zM-99 -86q61 7 134.5 50t126.5 104q38 45 62 91q6 13 9 20.5t7 18.5q6 17 9 30.5t4 29.5v9q0 9 -1 19q-2 15 -6 25t-13.5 22.5t-16.5 17.5q-2 2 -5 2t-7 -2
q-5 -2 -29 -20.5t-52.5 -41.5t-47.5 -40q-90 -81 -146 -152q-75 -99 -78 -165q0 -7 2.5 -10.5t9.5 -5.5q7 -3 15 -3t23 1z" />
    <glyph glyph-name="t" unicode="t" horiz-adv-x="510" 
d="M36 44q-17 2 -36.5 9.5t-35.5 19.5q-8 6 -17 15t-15 18q-6 8 -9.5 14.5t-7.5 18.5q-5 14 -7.5 25.5t-4.5 28.5t-2 37q0 42 9 97q4 30 12.5 66.5t15.5 61.5q1 5 3 10q1 4 2 7q4 17 17.5 57.5t25.5 72.5q9 24 21.5 55.5t21.5 53.5q20 44 57 115.5t77 140.5q4 8 6.5 12.5
t3 6.5t0.5 4v2q0 5 -10 5q-14 0 -200 -20q-36 -3 -65 -5.5t-41 -3.5q-22 0 -37 2q-27 8 -30 49v4q0 28 15 33q8 3 43 5.5t83 3.5q44 1 82 2q67 2 161 4q11 1 20 1h22q9 2 14 9q2 2 6 8.5t9 14.5q64 102 123 185q11 16 17 24t9.5 11.5t6.5 4.5q4 2 10 2t11 -2q21 -6 39.5 -23
t22.5 -34v-4q0 -8 -3 -16q-1 -2 -5 -8t-10 -13q-15 -21 -36 -52t-38 -57.5t-21 -33.5q-2 -4 -2 -7t3 -5q1 -1 4.5 -1h11.5h23q109 0 244 -2.5t204 -5.5q31 -2 48.5 -3t25 -2t10.5 -2q7 -4 7 -13v-3q-1 -19 -13 -25l-4 -2l-29 1q-27 1 -97.5 1t-145 -0.5t-112.5 -0.5
q-89 -3 -161 -6q-33 -2 -46.5 -2.5t-16.5 -1.5q-2 -1 -4.5 -2.5t-5 -5t-7.5 -11.5t-13 -21q-83 -139 -149 -273l-6 -12q-20 -43 -31 -64.5t-16.5 -33.5t-11.5 -26q-16 -38 -27 -64.5t-25 -66.5q-8 -23 -17 -54t-16 -59q-5 -25 -9.5 -51.5t-6.5 -45.5q-1 -15 -1 -35
q0 -21 1 -31q3 -17 6 -27.5t8 -20.5q5 -11 10 -13.5t10 -2.5q4 0 9 1q18 2 40 14q53 27 122 95q80 78 196 239q20 27 50 69t52 73q19 27 29.5 42t15 21t5.5 7q2 2 4 2.5t6 0.5q11 0 20 -9q6 -5 6 -10v-3q-1 -8 -13 -26q-11 -17 -44.5 -68t-68 -102.5t-47.5 -70.5
q-60 -86 -111 -146q-18 -22 -31 -36t-31 -31q-33 -33 -59 -54q-9 -8 -23 -17.5t-23 -14.5q-8 -4 -19 -8.5t-19 -7.5q-17 -4 -34 -4h-10z" />
    <glyph glyph-name="u" unicode="u" horiz-adv-x="741" 
d="M39 345q-20 2 -43 17q-13 9 -21 18.5t-15 22.5q-10 20 -10 49q0 23 6 51q11 50 30 98q24 58 52 105t44 54q3 2 5.5 2.5t8.5 0.5q4 0 6 -0.5l4 -1t5 -2.5q13 -6 24.5 -17.5t18.5 -25.5q4 -9 4 -16q0 -8 -6 -19q-2 -5 -6 -11.5t-11 -17.5t-21 -31q-9 -14 -17.5 -26.5
t-11.5 -17.5q-13 -21 -26.5 -46.5t-21.5 -44.5q-20 -48 -20 -77q0 -7 1 -10.5t4 -4.5t6 -1q22 0 78 43q16 13 30 26t35 35q17 17 31.5 32t44.5 47q41 45 94 99q9 10 19 21l27 27q15 16 24 25t14.5 13.5t9.5 7.5l14 7q4 2 9 2q9 0 21 -7q14 -7 25 -18.5t14 -20.5
q1 -5 1.5 -9.5t0.5 -7.5t-1 -5t-2.5 -6t-2.5 -9q-2 -5 -5.5 -12.5t-11 -23t-21.5 -42.5q-35 -68 -43 -127q-1 -11 -1 -20q0 -13 2 -24q4 -20 12 -25q4 -1 9 -1q14 0 36 9q38 15 82 50q69 57 172 162q7 8 11.5 10.5t9.5 2.5q9 -2 17 -9t8 -15q0 -2 -2 -6t-5 -8
q-9 -12 -34 -39.5t-55 -58t-52 -51.5q-64 -57 -113 -77q-26 -11 -50 -11q-27 0 -52 13q-31 16 -47 39q-18 26 -22 68q-1 12 -1 24q0 36 9 77q4 17 4 24q0 4 -1 5t-2 1t-3 -1q-3 -2 -9 -8.5l-18 -19.5q-132 -152 -190 -202q-50 -44 -83 -52q-5 -2 -11 -2h-9h-6z" />
    <glyph glyph-name="v" unicode="v" horiz-adv-x="463" 
d="M60 281q-6 1 -15 3t-17 4q-41 15 -59 41q-6 9 -10.5 23t-6.5 26q-2 13 -2 25.5v19.5v13q5 93 47 250l2 7q3 10 5.5 19.5t3.5 14.5q1 2 2 7q3 7 4 15q5 16 9 29.5t7 18.5q4 9 12 11q4 1 11.5 0.5t14.5 -3.5q26 -10 43 -25t17 -28q0 -1 -1 -5.5t-2 -8.5q-4 -14 -9.5 -32
t-15.5 -53q-37 -136 -44 -220q-1 -9 -1.5 -20.5t-0.5 -22.5q0 -9 1 -14q0 -5 2.5 -6t3.5 -1q3 0 6 3q5 4 14.5 13t18.5 19q82 94 217 291q7 10 13 18.5t8 12.5q3 3 10.5 14t16.5 25q41 60 57.5 84.5t19.5 25.5q5 5 11 5q5 0 11 -3q19 -8 19 -19q0 -5 -3 -10q-2 -2 -7 -11
q-4 -6 -7 -11q-6 -8 -16 -24l-20 -32q-7 -11 -14 -23q-15 -24 -23 -36q-45 -73 -71 -116q-23 -35 -32 -49q-37 -61 -70 -112t-52 -77q-3 -4 -6.5 -8.5t-5.5 -8.5q-8 -9 -17.5 -20t-15.5 -17q-25 -23 -54 -23q-4 0 -9 1z" />
    <glyph glyph-name="w" unicode="w" horiz-adv-x="726" 
d="M355 249q-5 0 -13 2t-13 4q-13 4 -26 11.5t-22 15.5q-10 8 -19.5 22.5t-14.5 28.5q-7 19 -10 37t-5 43q-1 16 -1 32q0 50 9 108q2 20 2.5 28.5t-1.5 10.5q-1 1 -3 1t-5 -1q-17 -11 -77 -71q-17 -18 -34.5 -37t-45.5 -51q-35 -39 -50.5 -54t-22.5 -18q-5 -2 -10 -2
q-15 0 -32 13q-14 9 -17.5 19.5t-3.5 22.5q0 7 1 16q4 42 38 134q27 71 45 107q23 47 34.5 68.5t14.5 26.5q15 24 27 43q9 13 14 19t9 8t10 2q3 0 6 -0.5t8 -1.5q26 -9 44.5 -26t20.5 -33v-3q0 -3 -1 -6q-2 -4 -9 -13q-13 -19 -32 -50l-11 -16q-6 -10 -10 -17
q-15 -22 -29 -46t-33 -59q-29 -54 -37 -71t-8 -22q0 -3 2 -3t7 4t15.5 14.5t29.5 30.5q90 97 112 116q29 25 42 26l5 1q14 0 34 -13q14 -10 22 -22q4 -6 6.5 -11.5t4.5 -14.5q2 -8 2 -31q0 -34 -5 -101q-1 -21 -1.5 -38t-0.5 -27l1 -16q2 -19 5 -39.5t6 -28.5q1 -3 3 -5
t4 -3q1 -1 2 -1q8 0 32 23q33 33 72 91q73 109 137 261q10 24 24.5 60t28.5 70q4 11 8 20t5 10q4 6 12 6q5 0 12 -3q12 -6 15 -14q2 -3 2 -4.5v-4.5q-1 -5 -10.5 -34.5t-23.5 -69t-27 -75.5q-62 -167 -124 -269q-61 -103 -105 -123q-9 -4 -18.5 -5.5t-16.5 -1.5h-6z" />
    <glyph glyph-name="x" unicode="x" horiz-adv-x="523" 
d="M-99 173q-12 4 -24 13.5t-16 17.5q-1 3 -1 6q0 4 2 8q2 8 11 21q38 56 159 194q11 12 16 18t6.5 8.5t1.5 5.5q0 2 -0.5 4l-1.5 6t-4 11q-26 70 -34 144q-3 34 -3 55v10q1 16 2.5 33t3.5 24q5 19 20 26q3 1 5.5 1.5l7.5 1.5q19 0 38.5 -8t33.5 -21q9 -9 10.5 -16t1.5 -13
q0 -9 -2 -20q0 -2 -0.5 -9t-1.5 -15v-11q-1 -12 -1 -20q-2 -35 -2 -59q0 -25 2 -32q2 -4 5 -4h3q1 0 3.5 2.5l9 9l18.5 18.5t31 32q114 118 209 203q14 13 22.5 20t12.5 10t6 3.5t3 0.5l3 -1q6 -1 13 -6t11 -11l1.5 -6t-0.5 -6q-1 -1 -1.5 -2t-3 -3.5l-6.5 -6.5t-12 -11
q-5 -4 -11 -10q-42 -39 -93.5 -91t-92.5 -98q-24 -26 -48.5 -54.5t-42 -49.5t-20.5 -27q-1 -3 -1 -7q0 -11 13 -33q16 -28 33 -40l12 -6t10 -4q5 -1 11 -1q13 0 30 6q25 9 52 28q58 38 190 198q12 15 21 25t10 12q5 4 12 4q6 0 13 -3q16 -6 16 -16q0 -2 -0.5 -4.5t-3.5 -6.5
t-8.5 -11.5t-15.5 -19.5q-62 -80 -103 -125t-74 -69q-55 -42 -106 -49q-14 -1 -31 -1q-18 0 -31 1q-51 8 -86 39l-1 1q-4 3 -7 5.5t-4 2.5q-2 1 -4 1q-4 0 -7 -3q-2 -1 -21 -26t-65 -86q-31 -42 -47.5 -63t-23.5 -29.5t-12 -11.5q-7 -5 -14 -5q-3 0 -7 1z" />
    <glyph glyph-name="y" unicode="y" horiz-adv-x="626" 
d="M159 -281q-5 1 -12.5 3.5t-13.5 5.5q-30 15 -40 56q-3 13 -4 20.5t-1 23.5q0 43 11 96q5 27 14 61.5t18 62.5q10 33 16 51t14 39q12 36 24 67.5t27 67.5q30 75 56 130.5t59 117.5q6 10 10 18q10 19 16 30.5t9.5 18.5t5.5 10.5t2.5 5.5t0.5 4l1 3q0 1 -1 1t-3 -1
q-3 -1 -11.5 -9.5t-25.5 -26.5q-46 -49 -72.5 -76.5t-42 -43t-27.5 -26.5q-57 -56 -93 -74q-24 -13 -47 -13q-6 0 -13 1q-37 8 -62 31q-9 10 -14.5 23.5t-8.5 34.5q-1 10 -1 20v10q2 16 7 40q12 62 49 148q19 44 41.5 80t39.5 49q18 12 31 12q24 0 52 -26q12 -12 12 -24
q0 -5 -2 -9q-1 -6 -6 -15t-10 -16q-12 -18 -33.5 -51.5t-37.5 -59.5q-65 -110 -69 -182q0 -8 1 -12t4 -5q2 -1 5 -1q17 0 61 32q11 9 28.5 23.5t30.5 26.5q21 19 55.5 54.5t68.5 72.5q15 16 46.5 48.5t67.5 68.5t63.5 63t32.5 31q9 7 20 7q7 0 15 -3q20 -6 36.5 -19
t23.5 -27q3 -6 3 -12q0 -5 -2 -10l-4 -8t-10.5 -19t-20.5 -35q-11 -20 -29 -51q-2 -4 -4 -7q-17 -30 -32 -56.5t-22 -39.5q-7 -12 -12 -21t-6 -11q-2 -4 -12.5 -23.5t-23 -44t-21.5 -43.5q-8 -15 -18 -33q-5 -11 -9 -18q-54 -105 -94 -198q-83 -191 -103 -312q-3 -25 -3 -42
q0 -20 4 -28q1 -2 4 -3.5t9 -5.5q17 -8 18 -14v-1q0 -8 -10 -12q-6 -2 -14 -2q-5 0 -12 1z" />
    <glyph glyph-name="z" unicode="z" horiz-adv-x="488" 
d="M0 248q-22 6 -42 33q-6 8 -10.5 16.5t-5.5 14.5q-2 7 -2 13q0 8 2 12q7 26 52 84q22 26 49.5 57t71.5 79l17 17q14 14 26 27q11 12 19.5 21t12.5 12q2 3 7.5 9t13.5 14q4 5 10 11q10 11 18.5 20t10.5 11l6 8l5 5q10 11 21 26q12 15 15 19.5t3 7.5q0 2 -2 3q-1 1 -4 1
q-5 0 -17 -3q-10 -3 -23.5 -8t-22.5 -9q-18 -8 -47 -22.5t-45 -24.5q-11 -6 -24.5 -13t-19.5 -9t-11 -2q-3 0 -6 1q-7 3 -14 12q-10 15 -10 26l1 3q0 2 1 4t2 3q10 11 47 32q5 2 10 5.5t9 5.5q57 33 116 54q35 13 58 14h9q9 0 15 -2q9 -3 19 -13q7 -8 17 -22t15 -23
q6 -14 8 -26t2 -19t-2 -14t-7.5 -19.5t-10.5 -21.5q-10 -13 -26 -33t-29 -34q-3 -3 -7 -6.5t-6 -6.5q-11 -13 -85 -92q-8 -8 -13 -14l-14.5 -14.5t-13.5 -14.5q-6 -6 -13 -14q-3 -4 -6 -7q-15 -16 -30 -33t-20 -24l-2 -4t-2 -3q-1 -2 -1 -3q0 -2 4 -2q6 0 21 6q64 23 142 42
q58 14 106 24t70 11h6.5t3.5 -0.5l3 -1.5q10 -5 13.5 -14.5t3.5 -15.5q0 -4 -1 -7q-1 -4 -6 -6t-18 -4q-86 -19 -168 -49q-40 -16 -90 -37t-86 -39q-66 -32 -80 -34q-4 -1 -10 -1t-9 1z" />
    <glyph glyph-name="braceleft" unicode="{" horiz-adv-x="1041" 
d="M235 -228q-14 2 -22.5 4.5t-21.5 9.5q-38 19 -65 56q-15 20 -22 51q-2 10 -3 25.5t-1 26.5q2 54 26 137q6 23 18 57.5t23 58.5q2 7 7 19q3 8 6 15q2 4 4 9q3 8 6 15.5l5 12.5q3 6 6.5 13.5t5.5 12.5l5 12.5t6 14.5q4 8 8 19q3 5 4 8q3 6 6 14t6 14q21 52 31.5 89t10.5 52
q0 6 -1 9q-1 1 -2 2.5t-2 2.5q-3 4 -7.5 5t-16.5 1q-11 0 -16 1.5t-11 6.5q-5 3 -10.5 8.5t-7.5 9.5q-1 1 -2 3t-1 3v7q1 3 5 8q2 2 4 5t3 4q3 4 6.5 7t9.5 6q19 11 44.5 26t48.5 30q26 18 43.5 31.5t33.5 29.5q17 17 29.5 31.5t25.5 34.5q8 13 13 21.5t12 25.5
q12 28 20 53.5t14 60.5q1 6 2 10v3q0 1 0.5 4t0.5 7q1 3 1.5 9t1.5 11q0 2 1 5q0 5 1 10.5t2 9.5q6 53 14 90.5t20 74.5q33 96 97 171q45 52 79 74q36 24 73 32q17 4 31 3.5t30 -4.5q38 -10 60 -51q8 -15 8 -27q0 -13 -9 -13q-3 0 -6 1.5t-8 6.5q-7 7 -11 7.5t-6 0.5
q-6 0 -14 -2q-32 -9 -69 -36q-64 -47 -102 -100q-30 -39 -50 -79q-26 -53 -38 -105q-2 -7 -4.5 -20l-5 -26t-3.5 -19q-7 -44 -10 -74q0 -4 -1 -10t-2 -10q-1 -5 -1 -10q-1 -3 -1 -4q-4 -34 -13 -68q-4 -15 -6.5 -23t-6.5 -18q-6 -16 -12.5 -28.5t-18.5 -29.5
q-7 -11 -13.5 -19t-15.5 -17q-29 -30 -66 -53q-14 -7 -49.5 -24.5t-65.5 -31.5q-10 -4 -13.5 -6.5t-4.5 -4.5q-1 -1 -1 -3q0 -1 1 -3q2 -3 9 -9q7 -7 12 -13t11 -15q12 -17 17.5 -33t6.5 -38q1 -10 0.5 -19t-3.5 -26q-4 -21 -14 -49t-34 -82q-7 -17 -13 -30.5t-7 -17.5
q-2 -3 -4.5 -9.5t-5.5 -12.5q-2 -4 -5.5 -12t-6.5 -17q-3 -6 -5 -12l-8 -20q-5 -10 -6 -14q-1 -3 -3 -8.5t-4 -10.5q-14 -35 -26 -73.5t-17 -63.5q-7 -28 -9 -47.5t-2 -41.5q0 -52 14 -56q7 -2 19 -2h17q11 0 20 1q14 2 26.5 5.5t27.5 9.5q10 4 14 4h5q5 0 9 -2
q8 -3 16.5 -10t12.5 -14q2 -5 2 -9q0 -3 -1 -5q-3 -5 -25 -16q-11 -6 -20 -9.5t-22 -6.5q-27 -8 -52 -8q-13 0 -26 2z" />
    <glyph glyph-name="bar" unicode="|" horiz-adv-x="387" 
d="M111 -341q-8 4 -10 10q-1 2 -1 9t1.5 24.5t4.5 50.5q0 1 1 3q31 351 51 842q3 88 6.5 188t4.5 155q0 34 1 78t1 80.5v45.5v8t1 10v39q-1 13 -1 25.5v18.5v43q0 31 1 92v38q1 7 1 9v120q0 28 0.5 41.5t3.5 23.5q2 11 4.5 16.5t7.5 10.5q3 3 5 4.5t6 3.5q19 8 39 8
q8 0 16 -1q13 -2 19.5 -10t8.5 -26q2 -9 3 -18t1 -25v-103q0 -128 -8 -271q-1 -15 -2 -44q-1 -19 -2 -37q-1 -16 -2 -37q-2 -41 -3 -75q-3 -37 -5 -72t-5 -96v-3l-2 -30q-1 -15 -2 -29q-2 -28 -3 -47v-8q-1 -8 -2.5 -32t-3.5 -49.5t-3 -39.5q0 -8 -1 -19t-2 -21
q-1 -9 -1.5 -20t-1.5 -18q0 -6 -1 -16t-2 -21q0 -3 -1 -7q0 -13 -1 -26t-2 -20q-1 -6 -1.5 -14t-1.5 -16v-9q-1 -6 -1 -12q-1 -11 -1 -15q-1 -4 -2 -13q0 -5 -1 -11v-7q-1 -11 -2 -16q0 -2 -0.5 -10t-1.5 -19q-1 -5 -1 -11q-13 -134 -28 -282.5t-26 -229.5q-11 -97 -13 -103
q-2 -4 -3.5 -5.5l-3.5 -3.5q-6 -2 -15 -2q-10 0 -18 3z" />
    <glyph glyph-name="braceright" unicode="}" horiz-adv-x="804" 
d="M182 -210q-39 5 -64 31q-18 18 -18 29q0 3 0.5 4t2.5 2q2 3 6.5 2.5t12.5 -4.5q9 -5 14.5 -5.5t8.5 -0.5q8 0 20 2q9 1 16.5 3t15.5 5q58 22 107 86q49 66 68 141q6 24 8.5 41t4.5 48q1 5 1.5 10t0.5 9v4q1 3 1 9.5v13.5q1 3 1 6v16t1 18v9q0 8 1 19v22q1 8 1.5 15
t0.5 10t0.5 8t0.5 11v4q1 17 4 40t6 41q8 35 20 64q11 24 23 41.5t32 37.5l12 12t5 6q1 1 1 2.5v2.5v2t-1 2.5t-3.5 4t-7.5 6.5q-44 42 -55 97q-3 12 -3 43q0 46 15 105q1 5 2.5 10.5t2.5 7.5q0 3 1 6.5t2 7.5q4 13 14 41t18 47q1 3 3 7.5t3 8.5q3 6 6.5 14.5t11.5 24.5
q2 6 5 12q1 2 2 3q3 8 6 14t3 8q1 3 4.5 9.5t6.5 14.5l10 22q3 5 4 9q3 5 5.5 10.5t3.5 8.5q2 2 4 7l4 10q1 3 3 6l4 11q2 3 7 14.5t10 24.5t8 21q8 21 14.5 44.5t8.5 40.5q2 13 2 25q0 13 -1 18q-2 6 -10 10.5t-24 9.5q-15 4 -23.5 5.5t-21.5 1.5h-15l-7 3q-17 9 -29 32
q-3 7 -3 12q0 7 6 11q8 8 37 8q12 0 21 -1t20 -4q42 -9 74 -42q50 -49 57 -112q1 -6 1.5 -12.5t0.5 -16.5q-1 -10 -1.5 -16.5t-2.5 -16.5q-6 -29 -17 -60q-6 -17 -10 -26q-4 -11 -5.5 -16t-3.5 -8q-1 -4 -4 -9q-2 -6 -4 -10q-3 -7 -7 -16q-2 -4 -3 -8q-4 -7 -7 -15
q-2 -3 -3 -5q-1 -4 -4 -11q-4 -8 -8 -17q-4 -8 -7.5 -16.5t-5.5 -12.5q-3 -5 -5 -10t-3 -8q-2 -2 -6 -11t-9 -20q-5 -13 -10 -23q-3 -8 -5 -11q-5 -11 -13 -31.5t-14 -35.5q-29 -82 -38 -149q-1 -10 -1.5 -17t-0.5 -18q0 -8 0.5 -12t1 -6t1.5 -4q1 -3 4.5 -6t10.5 -6
q21 -11 53 -15q10 -1 16 -3t10 -4q7 -5 13.5 -13t8.5 -15q1 -2 1 -5q0 -7 -5 -16q-3 -8 -5.5 -9.5t-12.5 -1.5q-9 0 -16 -2.5t-16 -8.5q-18 -13 -39 -41t-36 -58q-4 -10 -6 -15.5t-5 -16.5q-16 -51 -21 -105q0 -5 -0.5 -11t-1.5 -11q0 -5 -0.5 -11t-0.5 -9v-27t-0.5 -49
t-0.5 -48v-5q-1 -47 -4 -69q-4 -34 -7.5 -52t-10.5 -41q-20 -62 -60 -112q-64 -73 -147 -83q-11 -1 -25 -1q-15 0 -24 1z" />
    <glyph glyph-name="exclamdown" unicode="&#xa1;" horiz-adv-x="1037" 
d="M770 1159q10 -4 18.5 -10t10.5 -13q2 -3 2 -7t-1 -8q-3 -12 -17 -47.5t-29 -71.5q-12 -28 -33.5 -78t-33.5 -78q-3 -7 -9 -22q-12 -26 -25 -55q-13 -31 -21 -49q-6 -14 -11.5 -27t-13.5 -30q-5 -10 -10 -21t-8 -19l-11 -22q-9 -21 -20 -44q-3 -6 -7 -16q-5 -10 -9 -19
q-8 -16 -23.5 -47.5t-27.5 -53.5l-48 -92q-9 -15 -17 -31q-4 -7 -9 -17t-10 -18l-9 -18q-5 -8 -8 -13q-9 -18 -25 -46.5t-27 -48.5q-2 -5 -6 -11q-6 -12 -12 -23q-4 -5 -9 -15l-20 -36q-20 -35 -38 -69q-9 -15 -16 -29q-10 -18 -20.5 -38.5t-14.5 -31.5q-4 -9 -7 -13.5
t-7 -7.5t-10 -3q-9 0 -22 7q-18 9 -33.5 25.5t-21.5 32.5q-1 4 -1 8q0 7 3 15q13 31 64 122q3 6 7 13q9 16 15 27q7 13 13 24l2 4q70 125 112 202q5 11 11 22t10 18l12 22q3 5 4 9q5 8 11 19q3 6 5 11l3 6q4 7 9.5 18t11.5 21q17 34 28.5 55.5t24.5 43.5q7 12 16 28t16 28
q6 12 12.5 23t8.5 15q16 28 44 79.5t47 85.5q18 34 47 92l56 112l39 78q7 16 11 23.5t7 9t8 1.5q7 0 12 -1zM893 1573q6 -1 14.5 -6.5t15.5 -12.5q11 -10 12.5 -16.5t1.5 -9.5q0 -8 -4 -20q-2 -5 -5.5 -16.5t-7 -22t-5.5 -13.5q-4 -9 -11 -18t-13 -12q-1 -2 -2.5 -2.5
t-4 -0.5h-6.5q-7 0 -11 1t-13 6q-13 6 -26 16t-20 20q-6 9 -6 18q0 5 2 10q3 7 11 16t18 18q17 15 36 34q4 3 7 6t4 3q2 2 5 2.5t5 0.5z" />
    <glyph glyph-name="cent" unicode="&#xa2;" horiz-adv-x="663" 
d="M184 165q-17 4 -29 17q-3 4 -4.5 7t-1.5 8q0 7 4.5 27t11 41.5t12.5 34.5q3 7 3.5 11t-0.5 6t-4 4.5t-7 5.5q-37 32 -55 80q-8 27 -12 56q-2 11 -2 24.5v22.5v18q7 109 69 228q49 91 115 154q24 22 49 39q39 26 71 29q7 1 10 2t5 3q1 2 3 7t5 11q11 31 22 55.5t18 34.5
q12 19 26 19h2q15 0 33 -13q20 -15 20 -31v-6.5t-2 -7.5q-3 -9 -10 -22t-25 -40q-7 -10 -10 -15.5t-4 -8t-1 -4.5q0 -3 2.5 -6t10.5 -8t13.5 -9.5t12.5 -10.5q27 -24 28 -58l1 -12l-1 -11q-2 -10 -7 -27l-2 -10t-2 -7q-2 -13 -14 -13q-9 0 -21.5 6.5t-16.5 13.5q-1 2 -1 4v3
v4q1 6 1 11q0 20 -8 44q-4 14 -7 18.5t-9 4.5q-3 0 -6 -0.5t-9 -2.5q-47 -14 -101 -70q-64 -67 -106 -156q-4 -8 -6.5 -13.5l-5 -11t-5.5 -15.5q-23 -59 -31 -133q-2 -17 -2 -37q0 -21 2 -36q8 -55 37 -83q6 -7 10.5 -8.5t12.5 -1.5q15 1 37 10q54 22 120 88q35 36 68 82
q4 5 7.5 7t9.5 2q11 0 22 -5.5t13 -13.5l1 -3l-1 -4q-1 -4 -6 -13q-31 -56 -87 -113q-20 -21 -34 -33.5t-29 -21.5t-27.5 -14.5t-27.5 -9.5q-11 -3 -19 -4t-18 -1q-9 1 -14 1h-7.5t-3.5 -0.5t-2 -1.5q-3 -1 -10 -16q-3 -7 -7.5 -15t-7.5 -13q-12 -19 -34 -58q-5 -8 -8 -11.5
t-7 -4.5h-1q-1 -1 -2 -1h-2t-4 1h-1z" />
    <glyph glyph-name="sterling" unicode="&#xa3;" horiz-adv-x="955" 
d="M127 172q-11 2 -19 19q-8 16 -8 30q0 7 2 14q3 7 6.5 11t11.5 10q50 34 91 69q22 18 44 40t35 38q3 3 6.5 7t5.5 6q6 7 15 19t15 22q14 21 27.5 47t19.5 46q3 7 3 10t-2 5q-1 2 -2.5 2h-5.5t-11 -2q-27 -4 -42 -4q-5 1 -7 1.5t-5 2.5q-13 8 -17.5 23t-4.5 23q0 11 5 18
q1 2 8 4.5t23 7.5q16 4 26.5 6.5t31.5 6.5q9 2 16 4t9 2q4 2 6.5 7t4.5 18q1 5 2 12q2 6 3 11q1 6 3 15.5t4 19.5q6 35 11.5 56t12.5 43l9 27q28 74 71 124q47 58 108 88q28 14 55 19q8 2 12 2.5t7 0.5q4 0 9 -1q13 0 20 -0.5t13 -3.5q23 -7 42 -26q22 -22 40 -58
q6 -11 9.5 -20.5t6.5 -20.5q2 -10 2 -20q0 -22 -10 -42q-3 -8 -9.5 -17t-10.5 -13q-2 -3 -3.5 -4t-4.5 -1q-7 0 -13 6q-8 6 -13.5 15t-7.5 17q-1 6 -1 15t1 18q1 5 1 11v16q0 9 -0.5 13.5t-2 6.5t-4.5 4q-4 2 -11 2q-6 0 -13 -1q-18 -2 -39 -10q-51 -19 -98 -67
q-11 -11 -16 -17t-13 -17q-25 -35 -44 -74q-5 -13 -11.5 -30t-9.5 -27q-1 -4 -3 -11q-2 -5 -3 -11q-12 -44 -12 -51q0 -3 0.5 -4l1.5 -3q1 -1 2 -1.5t3 -0.5q1 0 5 1q3 0 11 0.5t17 1.5q8 1 14 2q17 1 27 2t23 3q37 3 68 3q32 0 40 -2q8 -3 13.5 -14t5.5 -24q0 -11 -4 -15
t-15 -5q-4 -1 -12 -2t-16 -1q-58 -7 -146 -23q-18 -4 -29 -6t-17 -3.5t-8 -3t-3 -3.5q-3 -3 -5.5 -11t-5.5 -27q-6 -25 -12.5 -46t-16.5 -46q-24 -62 -72 -113l-10 -10t-7 -8q-3 -2 -6.5 -5.5l-5.5 -5.5q-7 -7 -7 -10t8 -3q5 0 14 1q87 14 179 18q15 1 31 1q32 0 70 -3
q57 -3 91 -9q23 -5 32.5 -15t9.5 -29v-4q0 -18 -12 -18q-3 0 -7 1q-15 4 -39 5t-43 1q-18 0 -38 -1q-104 -6 -259 -32q-38 -7 -70.5 -13.5t-78.5 -16.5q-14 -3 -27 -6t-18 -4q-18 -4 -29 -5t-16 -1t-8 1z" />
    <glyph glyph-name="yen" unicode="&#xa5;" horiz-adv-x="873" 
d="M347 131q-30 9 -40 28q-1 2 -1.5 4t-0.5 5v9q0 14 1 25q11 62 31 131q3 9 4 13.5t0.5 7t-1.5 3.5t-2.5 1.5t-2.5 0.5l-3 -1q-4 -1 -10 -3.5t-17 -6.5q-21 -8 -47 -16.5t-41 -13.5q-11 -3 -18 -3h-6h-3.5t-3.5 2q-7 3 -14.5 12.5t-12.5 20.5q-3 8 -3 14q0 3 1 6q3 7 18 13
q54 24 163 54q12 4 21.5 7t11.5 4q4 1 7 5.5t6 12.5q2 5 4.5 12.5t5.5 12.5q7 17 16.5 40.5t18.5 44.5q4 9 8 19q5 12 8 19q6 15 18 41q5 9 9 19q4 7 7.5 14.5t5.5 12.5q7 15 27 55.5t46 93.5q15 29 25 49.5t11 23.5q2 4 2 7t-1 3q-6 0 -54 -62q-4 -5 -10.5 -13.5
t-12.5 -15.5q-6 -8 -20 -26.5t-29 -38.5q-11 -14 -20 -26q-29 -38 -44 -57t-23 -29.5t-17 -22.5q-44 -55 -75 -85q-38 -40 -64 -46q-4 -1 -7.5 -1.5t-9.5 -0.5q-26 0 -47 11q-36 18 -50 46q-2 5 -4 11.5t-5 19.5q-3 15 -3 35q0 12 1 26q1 15 3 27.5t6 35.5q4 18 6.5 28.5
t5.5 21.5q1 5 3 12t4 13q12 41 42 108q48 104 105 180q28 39 42 43q5 2 10.5 2.5t8.5 0.5l6 -1q10 -3 25 -13t25 -21q12 -14 12 -26q0 -6 -3 -11.5t-11 -14.5q-13 -14 -23 -26.5t-23 -32.5q-31 -46 -61 -107q-30 -59 -48 -109q-2 -5 -5 -13l-6 -16q-2 -7 -4.5 -13.5
t-3.5 -8.5q0 -2 -1 -5q-2 -7 -5 -17q-9 -29 -15 -58.5t-6 -46.5q0 -16 7 -16q3 0 14 7t25 18q25 20 54 50q28 29 65 72.5t98 120.5q86 107 128.5 158t80.5 90q14 15 29 30t21 19q6 5 14 5t18 -7q6 -3 12 -9.5t8 -10.5q9 -13 9 -28v-3q-1 -17 -13 -52q-5 -18 -12.5 -37
t-20.5 -51q-15 -34 -29.5 -64.5t-37.5 -76.5q-31 -64 -54.5 -113t-49.5 -105q-6 -14 -14 -31l-10 -22q0 -1 -1 -1q-6 -14 -9.5 -22t-4.5 -11t-1 -5v-1q0 -2 1 -3h1q0 -1 1 -1h2h3q2 0 8.5 1.5t13.5 3.5q12 3 17 4t8 1t5 -1q8 -5 13.5 -16t5.5 -22q-1 -5 -3 -7.5t-7 -5.5
q-3 -1 -17.5 -6.5t-34.5 -12.5q-20 -6 -34.5 -11t-16.5 -6t-3.5 -2.5t-3.5 -5t-5.5 -10.5t-8.5 -20t-13 -32q-3 -8 -7 -16q-34 -82 -48 -117q-10 -29 -14 -42t-5 -22q-1 -5 -2 -8t-4 -6q-3 -1 -7 -1h-6q-4 0 -8 1z" />
    <glyph glyph-name="copyright" unicode="&#xa9;" horiz-adv-x="916" 
d="M429 354h-3q-9 2 -13 4q-10 3 -22.5 10t-24.5 16q-43 35 -56 96q-1 5 -1.5 8.5t-0.5 9.5v17q0 20 1 30.5t5 26.5q17 68 56 123q41 55 84 65q8 2 19 2q10 0 17 -2q21 -5 44 -21q42 -28 44 -51v-3q0 -6 -2 -11q-2 -7 -6 -10q-3 -2 -8 -2q-11 0 -27 10q-7 5 -9.5 5h-3.5
q-4 0 -8 -2q-23 -11 -56 -52q-53 -68 -66 -139q-1 -10 -1 -24t1 -24q4 -23 9.5 -26.5t11.5 -3.5q9 0 23 5q9 2 17 5.5t22 10.5q51 26 101 73q7 8 11.5 10.5t9.5 2.5q8 0 18.5 -7t13.5 -16q2 -3 2 -6t-2 -7q-1 -3 -11 -14.5t-21 -22.5q-28 -28 -61.5 -51.5t-57.5 -31.5
q-15 -5 -30 -5q-9 0 -19 2zM368 149q-64 5 -123 40q-40 24 -65 51q-10 11 -15 17t-10 13q-25 37 -40 86q-7 20 -10 38.5t-4 44.5q-1 14 -1 22.5v19.5q1 18 4 39.5t6 37.5q1 1 1 3q1 3 1.5 7t1.5 7q4 23 16 57.5t25 65.5q38 84 93 151q98 120 169 120q6 0 12 -1
q8 -1 17.5 -4.5t18.5 -8.5q4 -2 8 -3.5t5 -1.5q2 -1 6.5 -1h9.5q33 0 86 -10q44 -8 74 -20t56 -30q60 -44 88 -113q5 -13 9.5 -33t7.5 -39q0 -7 0.5 -21.5t0 -30t-0.5 -23.5q-15 -146 -101 -275q-65 -96 -148 -152q-53 -35 -107 -47q-17 -4 -28 -5.5t-24 -1.5q-10 -1 -16 -1
t-10.5 0.5t-12.5 1.5zM362 215q13 1 24 2.5t23 5.5q83 22 162 89q10 8 27 25t26 28q85 98 121 212q21 71 21 130v5q-1 54 -17 89q-7 17 -16 26q-46 49 -172 70q-14 2 -21.5 2.5t-10.5 -0.5t-4.5 -3t-1.5 -9v-4q0 -12 -10 -12h-1q-3 0 -7 2l-12 6q-3 2 -5 2.5t-6 0.5
q-15 0 -37.5 -11t-45.5 -29q-10 -8 -27 -25t-28 -30q-85 -102 -123 -221q-7 -23 -13 -50t-8 -46q-3 -24 -3 -53t3 -49q8 -69 34 -106q10 -15 19 -23t20 -13q21 -8 51 -11q10 -1 18 -1t20 1z" />
    <glyph glyph-name="guillemotleft" unicode="&#xab;" horiz-adv-x="739" 
d="M523 217q-2 0 -4.5 2l-7.5 6t-14 11q-6 6 -14.5 13t-14.5 12l-12 10t-14.5 12.5t-24.5 21.5l-4 4q-31 27 -58.5 55t-42.5 48q-22 28 -30 51q-3 8 -5 18t-2 17v3q0 43 57 118q10 14 18 23t18 20q46 48 96.5 94t82.5 68q7 6 11.5 8.5t8 3.5t8.5 2q4 1 6 1h4t5 -1
q6 -2 13 -7.5t12 -11.5q11 -13 17.5 -30t6.5 -27v-3q-2 -8 -9 -16q-2 -1 -6 -4t-9 -6q-26 -19 -67.5 -55t-77.5 -73q-13 -12 -23 -22.5t-14 -14.5q-2 -3 -7.5 -8.5l-11.5 -11.5q-25 -24 -38.5 -39.5t-22.5 -28.5q-7 -10 -10.5 -17.5t-4.5 -13.5q-1 -2 -1 -4q0 -3 2 -7
q2 -6 10.5 -16.5t25.5 -29.5q44 -49 102 -103q22 -21 33.5 -32t15.5 -16.5t6 -9.5q1 -4 1 -7t-1 -5q-2 -3 -5 -3q-2 0 -4 1zM349 278l-5 2.5t-8 5.5t-13 12q-5 4 -11 9q-11 9 -18 15q-6 5 -11.5 10t-13.5 12q-11 9 -30 26q-32 28 -59.5 56t-42.5 47q-21 28 -30 52
q-3 7 -5 17t-2 17q0 47 57 121q11 14 19 23.5t18 19.5q46 48 96.5 94t82.5 69q7 5 11.5 7.5t8 4t8.5 2.5q4 0 6 0.5t3.5 0l4.5 -1.5q6 -2 13.5 -7t12.5 -11q11 -14 17 -29.5t6 -25.5v-5q-2 -9 -9 -16q-1 -2 -5 -5t-9 -6q-27 -19 -68 -55t-78 -73l-22 -22t-14 -15l-20 -20
q-24 -24 -38 -39.5t-22 -27.5q-8 -11 -11 -18t-4 -13q-1 -3 -1 -6t1 -6q3 -6 11 -16.5t26 -29.5q44 -48 102 -103q22 -20 33 -31t15.5 -16.5t5.5 -10.5q2 -4 2 -7q0 -2 -1 -4q-2 -3 -7 -3h-2z" />
    <glyph glyph-name="registered" unicode="&#xae;" horiz-adv-x="916" 
d="M313 298q-32 6 -40 23q-2 5 -3 11t-1 17q0 33 7 87t19 106q9 42 20.5 82t28.5 90q22 64 38 88q6 10 12 14t13 4h2q16 0 36 -13q14 -10 19 -20t5 -25v-5q-1 -14 -6 -36t-19 -62q-23 -68 -23 -81q0 -3 1 -3q0 -1 1 -1q2 0 5 3q5 6 17 24q31 44 54.5 74t49.5 55q42 43 75 59
q19 10 34 10q4 0 7 -1q20 -4 41 -24q4 -5 6.5 -7.5t4.5 -7.5q2 -4 3.5 -7.5t1.5 -5.5q1 -6 1 -14q0 -9 -1 -16q-8 -35 -40 -76t-79 -77q-19 -14 -43 -26.5t-44 -19.5q-9 -2 -13 -4t-6 -4q-2 -1 -2 -2.5v-2.5q0 -2 2 -6q2 -6 7 -16q4 -7 8 -13.5t5 -9.5q10 -16 23.5 -29
t24.5 -18q5 -2 14 -2q15 -1 23 -5q9 -5 10 -9v-3q0 -4 -7 -8q-5 -2 -11.5 -2.5t-17.5 -0.5q-8 0 -14 1t-14 3q-40 7 -66 24q-11 7 -23 18t-21 21q-6 9 -9 11t-5 2t-3 -1q-3 -1 -14 -25q-19 -42 -39 -98q-4 -12 -6.5 -18.5t-4.5 -9.5t-3 -5q-4 -4 -8.5 -5.5t-14.5 -2.5
q-10 0 -18 1zM368 149q-64 5 -122 40q-40 24 -65 51q-11 11 -15.5 17t-9.5 13q-26 37 -41 86q-6 20 -9.5 38.5t-4.5 44.5q-1 14 -1 22.5v19.5q2 18 4.5 39.5t6.5 37.5v3q1 3 2 7t1 7q5 23 16.5 57.5t25.5 65.5q38 84 92 151q98 120 169 120q6 0 12 -1q8 -1 18 -4.5t18 -8.5
q4 -2 8 -3.5t6 -1.5q2 -1 6.5 -1h8.5q34 0 87 -10q43 -8 73 -20t56 -30q60 -44 88 -113q5 -13 10 -33t7 -39q1 -7 1 -21.5v-30t-1 -23.5q-15 -146 -101 -275q-65 -96 -147 -152q-54 -35 -108 -47q-17 -4 -27.5 -5.5t-24.5 -1.5q-10 -1 -16 -1t-10.5 0.5t-12.5 1.5zM362 215
q14 1 24.5 2.5t23.5 5.5q82 22 161 89q10 8 27 25t26 28q85 98 122 212q20 68 20 125v10q-1 54 -17 89q-7 17 -16 26q-46 49 -171 70q-15 2 -22.5 2.5t-9.5 -0.5q-4 -1 -5 -3.5t-1 -8.5q0 -16 -9 -16h-2q-3 0 -7.5 2t-12.5 6q-3 2 -5 2.5t-6 0.5q-15 0 -37.5 -11t-45.5 -29
q-10 -8 -26.5 -25t-27.5 -30q-86 -102 -123 -221q-7 -23 -13 -50t-9 -46q-2 -24 -2 -42v-25q0 -20 2 -35q9 -69 35 -106q10 -15 19 -23t20 -13q21 -8 51 -11q10 -1 18 -1t19 1zM505 585q2 1 6.5 3.5t9.5 6.5q56 39 102 96q11 14 20.5 29t10.5 22v2q0 4 -4 4h-2
q-15 -3 -48 -33t-65 -70q-13 -16 -23.5 -30.5t-14.5 -20.5q-3 -5 -3 -8q0 -2 1 -3h4q3 0 6 2z" />
    <glyph glyph-name="degree" unicode="&#xb0;" horiz-adv-x="472" 
d="M224 1030q-24 4 -53 22q-16 11 -27 21.5t-20 25.5q-24 39 -24 88q0 18 3 36q2 9 5 20.5t7 22.5q18 47 45 71q15 15 35 15q8 0 13.5 -1.5t11.5 -4.5q7 -3 10.5 -3.5t5.5 -0.5q4 0 9 1q10 2 19 2q22 0 41 -11q38 -24 56 -65q6 -14 9 -34q2 -10 2 -20q0 -23 -8 -51
q-23 -81 -69 -117q-7 -5 -15.5 -9t-16.5 -6t-16 -2h-13h-10zM214 1094q25 8 47 30q9 9 15 17t12 18q20 33 27 71q1 7 1 16v8q0 13 -3 22q-3 14 -9.5 19t-22.5 5h-7.5t-4.5 -0.5t-4 -1.5q-4 -2 -8 -5.5t-9 -11t-14 -22.5q-25 -41 -34 -66q-3 -9 -6.5 -22t-4.5 -23
q-2 -9 -2 -20t2 -18q2 -18 15 -18q4 0 10 2z" />
    <glyph glyph-name="guillemotright" unicode="&#xbb;" horiz-adv-x="787" 
d="M215 878q3 -1 5.5 -2.5t7.5 -5.5t14 -12q6 -5 14 -12t15 -13l12 -10t15.5 -13.5t26.5 -23.5q32 -28 59.5 -56t42.5 -48q21 -27 30 -50q3 -8 5 -18t2 -17v-3q0 -44 -57 -118q-11 -14 -19 -23.5t-18 -19.5q-45 -48 -95.5 -94t-82.5 -69l-12 -7.5t-8 -4t-8 -2.5h-15
q-6 3 -13.5 8t-12.5 11q-11 14 -17 30.5t-6 26.5v3q2 9 9 16q1 1 5 4.5t9 6.5q27 18 68.5 54.5t77.5 72.5q12 13 22 23t14 15q2 1 5 4q6 7 15 16q24 24 38 39.5t23 28.5q7 10 10.5 17t4.5 13v4q0 4 -1 8q-2 6 -10.5 16.5t-26.5 29.5q-44 49 -102 103q-22 20 -33 31
t-15.5 16.5t-5.5 10.5q-1 4 -1 6q0 3 1 5q2 3 6 3h2zM439 861q2 0 4.5 -1.5t7.5 -5.5t14 -12q7 -6 15 -13t14 -12q5 -4 10 -9q7 -5 17 -13.5t28 -24.5q32 -28 59.5 -56t42.5 -48q21 -27 30 -51q2 -7 4 -17.5t2 -17.5v-3q0 -43 -57 -117q-10 -14 -18 -23.5t-18 -20.5
q-46 -48 -96.5 -94t-82.5 -68q-7 -6 -11.5 -8.5t-8 -3.5t-8.5 -2q-4 -1 -6 -1h-4t-4 1q-6 2 -13.5 7.5t-12.5 11.5q-11 14 -17 29.5t-6 25.5v5q1 8 9 16q1 1 5 4t9 7q26 18 67.5 54t78.5 73q10 10 18 19l18 18q2 3 7.5 9t12.5 11q24 25 37.5 40.5t22.5 27.5q8 11 11.5 18
t3.5 13q1 2 1 5t-2 7q-2 6 -10.5 16.5t-25.5 28.5q-44 49 -102 103q-22 21 -33 32t-15.5 16.5t-5.5 9.5q-2 5 -2 8q0 2 1 4q2 3 5 3q2 0 4 -1z" />
    <glyph glyph-name="questiondown" unicode="&#xbf;" horiz-adv-x="1231" 
d="M900 1182q12 -3 24.5 -14.5t18.5 -24.5q3 -6 3 -15t-3 -20q-6 -22 -27 -64q-45 -91 -119 -193q-24 -32 -53.5 -71t-52.5 -67q-7 -8 -12 -14q-21 -25 -27 -32l-8 -9q-3 -4 -5 -7q-11 -12 -31 -35t-39 -45t-27 -30q-5 -5 -10 -11q-3 -4 -6 -7q-2 -3 -5 -6t-6 -7l-2 -2
q-3 -3 -6.5 -7.5t-6.5 -8.5q-4 -4 -11 -12t-15 -17q-3 -4 -7 -9q-13 -15 -20 -23q-24 -27 -31 -36q-6 -7 -10 -11q-3 -4 -6.5 -8t-5.5 -6q-1 -1 -3.5 -4t-5.5 -7q-1 -1 -2 -3q-4 -4 -8 -9q-10 -12 -26 -33q-6 -6 -16 -19.5t-21 -27.5q-7 -9 -12 -15q-21 -28 -43.5 -61
t-33.5 -54q-34 -61 -44 -97q-9 -34 -9 -55q0 -10 2 -17q2 -4 7 -9t10 -8t14.5 -7t16.5 -6q8 -3 21.5 -6t24.5 -5q13 -2 28 -2q35 0 83 8q14 2 39.5 8.5t42.5 12.5q59 19 108.5 42t106.5 58q100 60 196 146q25 22 56.5 54t54.5 60q74 87 96 147q4 9 5 14.5t1 8.5l-1 7v6
q0 5 1 8q2 4 7 5h2q8 0 18 -8q12 -8 18 -19q3 -6 3 -14q0 -15 -8 -40q-19 -54 -63 -121q-50 -75 -119 -146q-93 -97 -209 -174q-156 -104 -307 -145q-34 -8 -58 -12t-51 -4h-16q-15 0 -26 1q-17 2 -35 8q-11 3 -18.5 7t-19.5 11q-12 8 -19 13.5t-15 13.5q-31 32 -52 85
q-8 20 -11.5 37t-3.5 40v14.5t0.5 10t1.5 9.5q2 13 5 27t6 24q2 4 4 9.5t3 10.5q7 18 20 43.5t25 45.5q2 4 5 8.5t4 7.5q4 6 14 21.5t21.5 32t19.5 26.5q1 2 3 5q9 11 19 25q9 12 25.5 32.5t32.5 40t23 28.5l5 5q3 3 4 5q7 8 20 24t24 29q2 3 5 5l12 14t9 12l4 4q4 5 8 9.5
t7 6.5q3 4 7 9t8 9q3 3 6.5 7.5t6.5 7.5l3 3l8 10q3 4 5 6q3 3 8 9t16 19t32 38q10 11 19 21q16 20 19 23q1 1 3 4q6 7 15 17q5 7 10.5 13.5t8.5 9.5t7.5 8t8.5 10l3 4q5 6 12 14l14 16q101 118 164 202q21 28 39.5 56t26.5 45q3 6 3 9v4q0 4 -2 9v2l-1.5 6t-0.5 3q1 6 7 9
q2 1 6.5 1.5t7.5 -0.5zM1012 1607q6 -2 14.5 -7t15.5 -12q11 -10 12.5 -16t1.5 -9q0 -8 -5 -21q-1 -5 -4.5 -16.5t-7.5 -22t-5 -13.5q-4 -9 -11 -18t-13 -13l-3 -1.5t-3.5 -0.5h-6.5q-7 0 -11 1t-13 5q-13 6 -26 16.5t-20 20.5q-6 9 -6 18q0 5 2 10q7 15 29 34q18 15 36 34
q4 3 6.5 5.5t4.5 3.5t6 1.5t7 0.5z" />
    <glyph glyph-name="multiply" unicode="&#xd7;" horiz-adv-x="672" 
d="M456 342q-1 1 -4.5 4t-7.5 7q-3 4 -11.5 12.5t-17.5 18.5q-24 26 -38.5 41t-27.5 30q-36 38 -38 39t-5 1q-4 0 -9 -3t-51 -37q-5 -5 -11 -9q-91 -69 -96 -71q-4 -2 -7 -2q-9 0 -19 11q-13 14 -13 26q0 2 1 5v1q1 1 1.5 2.5t3 4.5t8.5 8t15.5 14t25.5 24q4 3 8 7
q19 18 32.5 30.5t22.5 20.5t14 13.5t8 8t4 4t2 2.5q1 3 0.5 6t-4.5 8l-12 15q-42 46 -85 103q-33 42 -33 53v3q0 15 26 28q11 5 21 5h5q11 -1 23 -12q9 -8 26.5 -29.5t54.5 -71.5q11 -15 17.5 -23.5t10.5 -13t6 -6.5l3 -3q2 -1 4 -1t4 1q4 2 13 11q67 61 134 111
q16 12 25.5 18t16.5 10q15 8 25 8q6 0 11 -3q14 -8 24 -26t10 -33q0 -10 -11.5 -23t-44 -38t-94.5 -70q-13 -9 -24 -17t-15 -11q-12 -8 -14 -11t-2 -5q0 -3 2 -6q4 -9 84 -107q21 -25 30 -36.5t11 -14.5q1 -3 1 -6q0 -9 -9 -17q-13 -10 -23 -10q-4 0 -7 1z" />
    <glyph glyph-name="divide" unicode="&#xf7;" horiz-adv-x="653" 
d="M158 512q-18 2 -30 11q-8 6 -15 18t-11 24q-2 6 -2 12q0 14 15 18q3 1 15 2t25 2q3 0 6 1h8q1 0 2 1q23 2 41.5 3.5t56 1.5h115.5q147 0 149 -1q6 -1 11.5 -9t7.5 -18q1 -5 1 -9q0 -12 -14 -14q-1 -1 -11 -2t-25 -3q-6 0 -13 -1q-59 -6 -92 -10.5t-59 -8.5
q-73 -13 -110 -17q-16 -2 -30.5 -2h-20.5q-13 0 -20 1zM263 262q-7 2 -15 7t-16 12q-10 10 -11.5 16t-1.5 9q0 9 4 21q2 5 5.5 16.5t7 22t5.5 13.5q4 9 11 18t13 13l3 1.5t3 0.5h6q7 0 11.5 -1.5l13.5 -4.5q13 -7 25.5 -17t19.5 -20t7 -19q0 -4 -2 -9q-3 -7 -11 -16t-19 -18
q-17 -15 -35 -34l-2 -2q-3 -2 -5.5 -4.5l-3.5 -3.5q-3 -1 -5.5 -1h-4.5h-3zM345 705q-7 2 -15.5 7t-15.5 13q-11 9 -12 15t-1 8q0 8 3 22q2 5 5.5 16.5t7.5 22t5 14.5q4 8 11 17t13 13l3 1.5t3.5 0.5h6.5q7 0 11.5 -1t12.5 -5q13 -6 26 -16.5t19 -20.5q7 -10 7 -19
q0 -4 -2 -9q-3 -7 -11 -16t-18 -18q-17 -15 -36 -34q-3 -3 -6 -5.5t-5 -3.5t-6 -1.5t-6 -0.5z" />
    <glyph glyph-name="quoteleft" unicode="&#x2018;" horiz-adv-x="373" 
d="M130 1234q-10 4 -19 14q-11 10 -11 20q0 5 3 10q10 20 54 87q13 20 20 29t14 16q16 18 31 18q7 0 14 -4q11 -6 21.5 -17.5t13.5 -22.5q2 -3 2 -7q0 -22 -47 -63q-14 -13 -32.5 -31t-30.5 -32q-13 -13 -17.5 -15.5t-7.5 -2.5q-4 0 -8 1z" />
    <glyph glyph-name="quoteright" unicode="&#x2019;" horiz-adv-x="373" 
d="M243 1426q10 -4 20 -14t10 -20q0 -5 -2 -10q-10 -20 -55 -87q-13 -19 -20 -28.5t-14 -16.5q-17 -17 -31 -17q-7 0 -13 3q-12 6 -22.5 17.5t-13.5 22.5q-2 3 -2 7q0 22 47 63q15 14 33 32l31 31q12 14 17 16.5t8 2.5q4 0 7 -2z" />
    <glyph glyph-name="quotesinglbase" unicode="&#x201a;" horiz-adv-x="373" 
d="M243 196q10 -4 20 -14t10 -20q0 -5 -2 -10q-10 -20 -55 -88q-13 -19 -20 -28t-14 -16q-16 -18 -31 -18q-7 0 -14 4q-11 6 -21.5 17.5t-13.5 21.5q-2 3 -2 7q0 23 47 64q15 13 33 31t31 32q12 13 17 16t8 3q4 0 7 -2z" />
    <glyph glyph-name="quotedblleft" unicode="&#x201c;" horiz-adv-x="505" 
d="M131 1235q-10 4 -20 14q-11 10 -11 20q0 4 3 9q10 21 55 88q13 19 20 28.5t14 16.5q17 17 31 17q7 0 13 -3q12 -6 22.5 -17.5t13.5 -22.5q2 -3 2 -7q0 -22 -47 -63q-15 -13 -33 -31.5t-31 -31.5q-12 -14 -16.5 -16t-8.5 -2q-3 0 -7 1zM254 1176q-6 2 -12.5 8t-10.5 12
q-1 3 -1 5v5v4.5t1 4l3 7.5q3 6 11 20.5t26 47.5v1q4 7 9 16t8 16q5 8 10 15q2 5 4 7q4 8 8 13.5t10 13.5q7 8 10.5 11t6.5 4q2 1 5 1q17 0 40 -22q14 -13 19 -25q4 -8 4 -14t-3 -10q-1 -2 -5 -6.5t-8 -9.5t-7 -8q-2 -2 -5 -4l-8 -8q-50 -42 -91 -90l-2 -2q-5 -6 -7.5 -8.5
t-4.5 -3.5q-3 -1 -4.5 -1h-2.5h-3z" />
    <glyph glyph-name="quotedblright" unicode="&#x201d;" horiz-adv-x="505" 
d="M374 1369q10 -4 20 -14q11 -10 11 -20q0 -5 -3 -10q-10 -20 -55 -88q-13 -19 -20 -28t-14 -16q-16 -18 -31 -18q-7 0 -13 4q-11 6 -21.5 17.5t-14.5 21.5q-1 3 -1 7q0 22 46 64q15 13 33 31.5t31 31.5q12 14 17 16.5t8 2.5q4 0 7 -2zM251 1427q6 -2 12.5 -7.5t10.5 -12.5
q1 -2 1 -4v-6v-4t-1 -4t-3 -7q-3 -6 -10.5 -20.5t-26.5 -47.5q-4 -9 -10 -20q-4 -7 -7 -13q-6 -8 -10 -17l-4 -6q-4 -7 -8 -12.5t-10 -13.5q-7 -8 -10.5 -11.5t-6.5 -3.5q-3 -1 -5 -1q-17 0 -40 21q-13 14 -19 25q-4 8 -4 15q0 5 3 10q1 2 5 6.5t8 9.5t7 8q2 2 6 5.5t8 6.5
q50 42 90 90q6 7 9 10t5 3q3 2 5 2t5 -1z" />
    <glyph glyph-name="quotedblbase" unicode="&#x201e;" horiz-adv-x="504" 
d="M374 196q10 -3 20 -13t10 -20q0 -5 -3 -10q-9 -20 -55 -88q-12 -19 -19 -28.5t-14 -15.5q-17 -18 -32 -18q-6 0 -12 3q-12 7 -22.5 18.5t-13.5 21.5q-2 3 -2 7q0 23 47 64q15 13 33 31l31 31q12 14 16.5 16.5t8.5 2.5q3 0 7 -2zM251 255q5 -2 12 -8t10 -12l1.5 -4.5
t0.5 -5.5v-4.5t-1 -4t-4 -6.5q-3 -7 -10.5 -21t-25.5 -48q-4 -7 -9 -16.5t-9 -15.5t-7.5 -12.5t-5.5 -10.5q-4 -7 -8 -12.5t-10 -13.5q-7 -8 -10.5 -11.5t-7.5 -4.5q-2 -1 -5 -1q-17 0 -39 22q-14 13 -19 25q-4 8 -4 11.5v5.5q0 3 2 7q2 2 5.5 7t8 10t7.5 8q2 2 7 6l6 6
q50 42 91 89q6 7 9 10t5 4q3 2 5 2t5 -1z" />
    <glyph glyph-name="guilsinglleft" unicode="&#x2039;" horiz-adv-x="608" 
d="M295 258q-3 1 -5 3t-6 7t-12 14q-5 7 -11.5 15.5t-12.5 14.5l-10 12t-13 16.5t-22 27.5q-26 33 -48 65.5t-33 55.5q-16 30 -20 55q-2 8 -2 18t1 17q6 44 78 109q13 12 22.5 20t20.5 16q54 39 112.5 75t93.5 53q8 3 13 5t8.5 2.5t8.5 0.5h6t3.5 -0.5t4.5 -2.5
q6 -3 12 -9.5t10 -13.5q8 -15 11 -29t3 -21t-2 -13q-3 -8 -11 -14q-2 -1 -6.5 -3.5t-9.5 -4.5q-30 -14 -77 -42t-90 -57q-14 -10 -25.5 -18.5t-16.5 -11.5q-3 -2 -8 -5.5t-11 -7.5l-4 -4q-29 -19 -45 -31.5t-27 -23.5q-9 -9 -14 -15.5t-7 -11.5q-1 -4 -1 -8v-4
q1 -7 7.5 -18.5t20.5 -33.5q34 -56 81 -120q18 -24 27 -36.5t12.5 -19t3.5 -10.5v-4q0 -5 -2 -8q-2 -2 -4 -2t-4 1z" />
    <glyph glyph-name="guilsinglright" unicode="&#x203a;" horiz-adv-x="608" 
d="M313 859q2 -1 4.5 -3t7 -7t11.5 -14q5 -6 11 -14q7 -9 13 -16l10 -12t13 -16.5t22 -27.5q26 -33 48 -65.5t33 -55.5q16 -30 20 -55q2 -8 2 -18t-1 -17q-6 -44 -78 -109q-13 -12 -22.5 -20t-20.5 -16q-54 -39 -112.5 -75t-93.5 -52q-8 -4 -13 -6t-8.5 -2.5t-8.5 -0.5
q-4 0 -6 0.5l-4 1t-4 1.5q-6 3 -12 9.5t-10 13.5q-8 15 -11 29.5t-3 21.5t2 12q3 8 11 14q2 1 6.5 3.5t9.5 4.5q30 14 77 42t90 57q10 7 18 13q18 12 24 17q3 3 9.5 7.5t14.5 8.5q28 20 44 32.5t27 23.5q9 9 14 15.5t7 11.5q1 4 1 8v4q-1 7 -7.5 18.5t-20.5 33.5
q-34 56 -81 119l-27 37.5t-12.5 19t-3.5 10.5q-1 3 -1 5q0 4 3 7q2 2 4 2t4 -1z" />
    <glyph glyph-name="Euro" unicode="&#x20ac;" horiz-adv-x="877" 
d="M371 127q-30 3 -60.5 18.5t-51.5 37.5q-15 16 -28 40t-20 47q-6 19 -9 32t-6 29q-5 36 -5 66q0 18 -2.5 23t-6.5 5h-2q-2 0 -6 -0.5t-8 -1.5q-10 -2 -19.5 -3.5t-15.5 -1.5q-16 0 -25 19q-6 12 -6 22q0 9 7 15q10 5 62 21q7 3 13 5t8 3q4 2 5.5 7t4.5 17q0 4 1.5 11.5
t2.5 15.5q1 2 1 4q2 11 3 15.5t1 6.5l-1 3q0 2 -2 3q-1 1 -3.5 1.5t-7.5 -0.5l-15 -3q-21 -4 -29.5 -4.5t-12.5 -0.5h-8q-6 2 -10 7q-5 7 -10 18.5t-5 18.5q0 9 5 13t19 9q15 6 39 12.5t44 10.5q12 2 17.5 4t8.5 6.5t6 12.5q14 37 22 56t18 40q76 159 177 263q58 58 108 83
q3 1 10 3.5l14 5t12 3.5q9 3 20 3q6 0 13 -1q19 -1 34 -7q41 -17 77 -56q7 -9 11.5 -15t7.5 -12q9 -16 9 -38q0 -16 -4 -34q-3 -18 -6.5 -24.5t-8.5 -7.5h-2q-10 0 -24 9q-15 10 -22 22q-1 2 -1.5 4t-1.5 6.5t-2 11.5q-1 4 -1 9q-5 27 -11 38q-3 6 -6 7t-5 1q-4 0 -10 -1
q-14 -3 -34.5 -14.5t-41.5 -27.5q-52 -41 -103 -106q-32 -42 -62 -91q-13 -21 -27 -46.5t-24 -46t-10 -24.5l2 -3q0 -1 1 -1q1 -1 2.5 -1.5t3.5 -0.5q6 0 58 7q6 1 11.5 1.5t7.5 0.5q13 0 21 -17q5 -11 5 -20q0 -6 -2 -10q-1 -2 -4 -3.5t-11 -4t-23.5 -6.5t-42.5 -10
q-22 -5 -34.5 -7.5t-18.5 -4.5t-8 -4.5t-3 -5.5q-2 -3 -5.5 -14t-7 -24t-6.5 -21q-2 -9 -2 -13t1 -6t2.5 -2h3.5h4q5 1 13 2q31 6 53.5 9t27.5 3q11 -2 19 -17q5 -12 5 -20q0 -7 -4 -11q-1 -1 -2.5 -2t-5 -2t-9.5 -3t-17 -4q-55 -14 -94 -26q-11 -3 -14.5 -7t-5.5 -14
q-1 -10 -3 -26.5t-3 -28.5q-1 -13 -1 -28v-16q1 -25 3 -44q10 -81 43 -118q4 -4 6 -5t5 -2t8 -1q11 0 30 7q13 5 32.5 17t34.5 24q96 80 188 207q7 10 10.5 14t6.5 6q4 1 9 1q9 0 20 -5q13 -8 13 -16v-3q-1 -5 -11 -21t-23.5 -36t-25.5 -35q-36 -50 -77 -95.5t-72 -71.5
q-23 -18 -53 -31q-19 -8 -44 -9h-9.5t-6.5 1z" />
    <glyph glyph-name="minus" unicode="&#x2212;" horiz-adv-x="653" 
d="M158 512q-18 2 -30 11q-8 6 -15 18t-11 24q-2 6 -2 12q0 14 15 18q3 1 15 2t25 2q3 0 6 1h8q1 0 2 1q23 2 41.5 3.5t56 1.5h115.5q147 0 149 -1q6 -1 11.5 -9t7.5 -18q1 -5 1 -9q0 -12 -14 -14q-1 -1 -11 -2t-25 -3q-6 0 -13 -1q-59 -6 -92 -10.5t-59 -8.5
q-73 -13 -110 -17q-16 -2 -30.5 -2h-20.5q-13 0 -20 1z" />
    </font>
</defs>
</svg>
