<svg xmlns="http://www.w3.org/2000/svg" xmlns:xlink="http://www.w3.org/1999/xlink" xmlns:inkscape="http://www.inkscape.org/namespaces/inkscape" version="1.1" width="2834.65" height="2267.72" viewBox="0 0 2834.65 2267.72">
<defs>
<clipPath id="clip_0">
<path transform="matrix(1,0,0,-1,0,2267.72)" d="M0 2267.717H2834.646V0H0Z"/>
</clipPath>
</defs>
<g inkscape:groupmode="layer" inkscape:label="Layer 1">
<path transform="matrix(1,0,0,-1,0,2267.72)" d="M0 0H2834.646V2267.717H0Z" fill="#231f20"/>
<g clip-path="url(#clip_0)">
<path transform="matrix(1,0,0,-1,0,2267.72)" stroke-width="1" stroke-linecap="butt" stroke-miterlimit="10" stroke-linejoin="miter" fill="none" stroke="#231f20" d="M2834.646 0H-11.862061V2267.717H2834.646Z"/>
<path transform="matrix(1,0,0,-1,618.9494,1693.6001)" d="M0 0C284.031 0 636.297 226.953 870.219 375.938L877.172 380.11C885.531 385.688 888.313 398.219 882.75 406.563 877.172 416.313 864.641 419.094 856.297 413.532L849.328 407.953C633.516 270.11 272.891 38.985 0 38.985-139.234 38.985-218.609 103.032-218.609 213.032-218.609 445.547 297.953 1021.985 789.453 1072.11 879.969 1081.86 948.188 1048.438 957.938 991.344 973.25 888.313 795.031 735.157 366.172 644.641 356.422 643.25 349.469 632.11 350.86 622.375 353.641 611.235 363.391 604.266 374.531 607.047 861.86 710.094 1013.625 881.36 995.531 996.922 983 1074.891 896.672 1122.235 785.281 1111.094 265.922 1058.188-257.594 462.266-257.594 213.032-257.594 79.36-161.515 0 0 0" fill="#ffffff"/>
<path transform="matrix(1,0,0,-1,2056.0477,1273.3901)" d="M0 0C-47.344-33.422-168.469-97.469-229.734-97.469-247.828-97.469-267.328-90.516-267.328-73.797-267.328-65.453-261.75-54.313-252-43.172-249.219-41.782-247.828-40.391-246.438-37.594-190.734-57.094-136.438-50.125-98.844-19.5-75.172 0-64.047 23.656-68.234 44.547-72.391 69.609-97.453 82.14-119.734 82.14-158.719 82.14-222.766 44.547-264.531 1.39-267.328 0-268.719-2.797-270.109-5.578-271.5-6.969-274.281-9.75-275.672-11.141-336.938-52.922-467.828-119.75-534.656-119.75-558.328-119.75-583.391-110-583.391-87.719-583.391-75.188-573.641-59.875-558.328-41.782-462.25-75.188-400.984-34.813-382.891-20.891-357.828 0-343.906 27.843-348.078 50.125-352.25 77.968-381.5 91.89-406.563 91.89-452.5 91.89-527.703 47.328-576.422-4.188-577.828-5.578-577.828-5.578-579.219-6.969-604.281-34.813-620.984-64.063-620.984-87.719-620.984-129.5-584.781-158.735-533.266-158.735-473.391-157.344-375.922-115.578-304.922-75.188-304.922-111.391-272.891-136.453-226.938-136.453-157.328-135.063-27.844-66.844 22.281-30.641 30.625-23.672 33.422-12.532 26.453-4.188 20.891 5.562 8.359 6.953 0 0M-119.734 43.156C-112.766 43.156-105.813 38.984-105.813 37.593-104.406 33.406-108.594 22.265-122.516 11.125-132.266 2.781-164.281-18.11-215.797-6.969-183.781 20.875-143.406 43.156-119.734 43.156M-406.563 52.906C-396.813 52.906-387.063 48.718-385.672 43.156-384.281 37.593-391.25 22.265-407.953 9.734-419.094 0-460.859-27.86-526.297-11.141-487.313 23.656-435.797 52.906-406.563 52.906" fill="#ffffff"/>
<path transform="matrix(1,0,0,-1,2117.0828,1010.25027)" d="M0 0C-11.141-1.39-19.484-9.75-18.094-20.89-16.703-38.984-20.875-51.515-37.594-72.406-54.297-93.297-40.375-100.25-19.484-97.468 5.578-90.515 22.281-45.953 20.891-18.109 19.5-6.968 9.75 1.391 0 0" fill="#ffffff"/>
<path transform="matrix(1,0,0,-1,2421.5909,1323.5151)" d="M0 0C11.141 4.172 15.312 15.312 12.531 25.062 8.344 34.797-2.781 40.375-12.531 36.187-116.969-1.407-199.109-33.422-258.985-64.063V-51.532C-258.985-2.797-250.625 86.312-186.578 125.312-176.828 130.875-174.047 142.015-179.625 151.765-185.188 160.109-197.719 162.906-206.078 157.328-286.828 109.984-297.969 5.562-297.969-51.532-297.969-64.063-297.969-75.203-296.578-83.547-356.453-118.36-385.688-153.172-385.688-196.328-385.688-229.75-363.406-256.203-332.781-256.203-295.188-256.203-253.422-217.219-253.422-146.203-253.422-129.5-254.813-116.969-256.203-104.438-194.938-72.407-107.219-39 0 0M-332.781-217.219C-342.531-217.219-346.703-207.469-346.703-196.328-346.703-172.657-328.609-148.985-292.406-126.719V-146.203C-292.406-194.938-316.078-217.219-332.781-217.219" fill="#ffffff"/>
</g>
</g>
</svg>
