<svg width="149" height="80" viewBox="0 0 149 80" fill="none" xmlns="http://www.w3.org/2000/svg">
<g clip-path="url(#clip0_4_39)">
<path d="M18.5093 80.0002C38.9185 80.0002 64.2311 63.6833 81.0396 52.9715L81.539 52.6716C82.1397 52.2705 82.3395 51.3696 81.9399 50.77C81.539 50.069 80.6386 49.8691 80.0394 50.2689L79.5385 50.67C64.0313 60.5803 38.118 77.1977 18.5093 77.1977C8.50484 77.1977 2.80094 72.5927 2.80094 64.6841C2.80094 47.9675 39.9187 6.52341 75.2358 2.91924C81.7402 2.21824 86.6415 4.62103 87.3421 8.72632C88.4422 16.1338 75.636 27.1455 44.82 33.6529C44.1194 33.7528 43.62 34.5537 43.7199 35.254C43.9196 36.0549 44.6202 36.556 45.4207 36.3562C80.4382 28.9472 91.343 16.6342 90.0431 8.32514C89.1428 2.71936 82.9395 -0.684219 74.9354 0.116708C37.6179 3.92004 0 46.7646 0 64.6841C0 74.2945 6.9039 80.0002 18.5093 80.0002Z" fill="white"/>
<path d="M92.5596 45.9844C93.2602 45.9844 93.9608 46.2857 94.0607 46.6854C94.1606 47.0852 93.6598 48.1873 92.4598 49.0882C91.6593 49.7878 88.6579 51.7908 83.9564 50.5894C86.7573 48.0874 90.4593 45.9844 92.5596 45.9844ZM113.17 46.6854C113.671 46.6854 114.17 46.9852 114.17 47.0852C114.272 47.3864 113.97 48.1873 112.97 48.9883C112.27 49.5879 109.969 51.0905 106.268 50.2889C108.568 48.2873 111.469 46.6854 113.17 46.6854ZM121.773 49.7885C118.372 52.1913 109.668 56.7962 105.266 56.7962C103.966 56.7962 102.565 56.2965 102.565 55.0944C102.565 54.4948 102.966 53.6939 103.666 52.893C103.866 52.793 103.966 52.6931 104.066 52.4918C108.068 53.8938 111.97 53.3926 114.671 51.1912C116.372 49.7892 117.172 48.0881 116.871 46.5862C116.572 44.7845 114.771 43.8836 113.17 43.8836C110.369 43.8836 105.767 46.5862 102.765 49.6893C102.564 49.7892 102.464 49.9905 102.364 50.1904C102.264 50.2903 102.065 50.4902 101.965 50.5901C97.5622 53.594 88.1571 58.3988 83.3557 58.3988C81.6548 58.3988 79.8541 57.6978 79.8541 56.096C79.8541 55.1951 80.5547 54.0944 81.6548 52.793C88.5587 55.1951 92.9606 52.2919 94.2612 51.2911C96.0619 49.7892 97.0621 47.7876 96.7625 46.185C96.4628 44.1834 94.3611 43.1826 92.5604 43.1826C89.2593 43.1826 83.8558 46.3863 80.355 50.0904C80.2874 50.1571 80.2203 50.2237 80.1538 50.2903C78.3531 52.2919 77.1523 54.3949 77.1523 56.096C77.1523 59.0998 79.7535 61.202 83.4555 61.202C87.7583 61.1021 94.7613 58.099 99.8631 55.1951C99.8631 57.7977 102.165 59.5995 105.466 59.5995C110.468 59.4995 119.772 54.5948 123.374 51.9921C123.974 51.491 124.175 50.6901 123.674 50.0904C123.274 49.3894 122.374 49.2895 121.773 49.7892V49.7885Z" fill="white"/>
<path d="M126.159 30.8693C125.359 30.9692 124.759 31.5703 124.859 32.3712C124.959 33.6718 124.66 34.5727 123.458 36.0753C122.258 37.5772 123.258 38.0769 124.759 37.877C126.56 37.3774 127.761 34.1736 127.661 32.1713C127.561 31.3704 126.86 30.7693 126.16 30.8693H126.159Z" fill="white"/>
<path d="M124.127 69.0093C123.426 69.0093 123.126 68.3083 123.126 67.5074C123.126 65.8056 124.426 64.1038 127.028 62.5027V63.9032C127.028 67.4075 125.327 69.0093 124.127 69.0093ZM148.039 53.3927C148.84 53.0929 149.14 52.2919 148.94 51.591C148.639 50.8907 147.84 50.4902 147.139 50.7915C139.635 53.4941 133.732 55.7962 129.43 57.9991V57.0982C129.43 53.594 130.031 47.188 134.633 44.384C135.334 43.9843 135.534 43.1834 135.133 42.4824C134.733 41.8828 133.833 41.6814 133.232 42.0826C127.43 45.4862 126.629 52.9944 126.629 57.0989C126.629 57.9998 126.629 58.8007 126.729 59.4004C122.427 61.9031 120.326 64.4058 120.326 67.5088C120.326 69.9116 121.927 71.814 124.128 71.814C126.829 71.814 129.831 69.0115 129.831 63.9054C129.831 62.7047 129.731 61.8039 129.631 60.903C134.033 58.6001 140.336 56.1981 148.04 53.3941L148.039 53.3927Z" fill="white"/>
</g>
<defs>
<clipPath id="clip0_4_39">
<rect width="149" height="80" fill="white"/>
</clipPath>
</defs>
</svg>
