<svg width="55" height="55" viewBox="0 0 55 55" fill="none" xmlns="http://www.w3.org/2000/svg">
<rect width="55" height="55" fill="#151515"/>
<path d="M15.4184 47C24.701 47 36.2137 39.2494 43.8586 34.1613L44.0857 34.0189C44.3589 33.8283 44.4498 33.4004 44.2681 33.1156C44.0857 32.7826 43.6762 32.6877 43.4036 32.8776L43.1758 33.0681C36.1228 37.7755 24.3369 45.6688 15.4184 45.6688C10.8682 45.6688 8.27393 43.4814 8.27393 39.7248C8.27393 31.7844 25.1559 12.0984 41.2189 10.3864C44.1772 10.0534 46.4064 11.1948 46.7251 13.1448C47.2254 16.6634 41.4009 21.8939 27.3851 24.9849C27.0665 25.0324 26.8393 25.4128 26.8848 25.7455C26.9756 26.1259 27.2943 26.3639 27.6583 26.269C43.585 22.7497 48.5448 16.901 47.9536 12.9542C47.5441 10.2915 44.7227 8.67476 41.0823 9.0552C24.1094 10.8618 7 31.213 7 39.7248C7 44.2898 10.14 47 15.4184 47Z" fill="white"/>
</svg>
