<svg width="30" height="30" viewBox="0 0 30 30" fill="none" xmlns="http://www.w3.org/2000/svg">
<path d="M11 10V6M19 10V6M10 14H20M8 24H22C22.5304 24 23.0391 23.7893 23.4142 23.4142C23.7893 23.0391 24 22.5304 24 22V10C24 9.46957 23.7893 8.96086 23.4142 8.58579C23.0391 8.21071 22.5304 8 22 8H8C7.46957 8 6.96086 8.21071 6.58579 8.58579C6.21071 8.96086 6 9.46957 6 10V22C6 22.5304 6.21071 23.0391 6.58579 23.4142C6.96086 23.7893 7.46957 24 8 24Z" stroke="white" stroke-linecap="round" stroke-linejoin="round"/>
</svg>
