<svg width="30" height="30" viewBox="0 0 30 30" fill="none" xmlns="http://www.w3.org/2000/svg">
<path d="M6.5801 8.10872C6.20867 8.47253 6 8.96596 6 9.48047V10.4504C6 18.4857 12.6508 25 20.8544 25H21.8447C22.3699 25 22.8737 24.7956 23.2451 24.4318C23.6166 24.068 23.8252 23.5746 23.8252 23.06V19.8795C23.8253 19.6759 23.7599 19.4773 23.6383 19.3121C23.5167 19.1469 23.3452 19.0234 23.1479 18.959L18.6985 17.506C18.4724 17.4324 18.2267 17.4411 18.0066 17.5305C17.7865 17.62 17.6068 17.7841 17.5003 17.9929L16.3812 20.1821C13.9565 19.1091 12.0144 17.2068 10.9188 14.8318L13.1539 13.7357C13.367 13.6314 13.5346 13.4553 13.626 13.2397C13.7173 13.0241 13.7262 12.7835 13.651 12.5621L12.1675 8.20399C12.1019 8.01092 11.9759 7.84297 11.8074 7.7239C11.6389 7.60483 11.4365 7.54068 11.2287 7.54053H7.98058C7.4553 7.54053 6.95153 7.74491 6.5801 8.10872Z" stroke="white" stroke-linecap="round" stroke-linejoin="round"/>
<path d="M15.9609 9.76562C17.126 9.99385 19.6658 11.135 20.5046 13.8737" stroke="white" stroke-linecap="round"/>
<path d="M23.9998 14.2162C23.7668 11.8198 21.8328 6.82162 15.9609 6" stroke="white" stroke-linecap="round"/>
</svg>
