<svg width="167" height="90" viewBox="0 0 167 90" fill="none" xmlns="http://www.w3.org/2000/svg">
<g clip-path="url(#clip0_90_648)">
<path d="M20.7453 90.0002C43.62 90.0002 71.9906 71.6437 90.8296 59.5928L91.3893 59.2555C92.0626 58.8042 92.2865 57.7907 91.8387 57.1162C91.3893 56.3275 90.3802 56.1027 89.7085 56.5524L89.1472 57.0037C71.7667 68.1527 42.7229 86.8474 20.7453 86.8474C9.53227 86.8474 3.1393 81.6668 3.1393 72.7696C3.1393 53.9633 44.7411 7.33877 84.3247 3.28408C91.6148 2.49546 97.1082 5.19859 97.8934 9.81705C99.1264 18.1505 84.7733 30.5386 50.2345 37.8594C49.4493 37.9718 48.8895 38.8729 49.0015 39.6607C49.2254 40.5617 50.0106 41.1255 50.9078 40.9006C90.1555 32.5656 102.378 18.7134 100.921 9.36572C99.9117 3.05922 92.959 -0.769808 83.988 0.131236C42.1623 4.40998 0 52.6101 0 72.7696C0 83.5813 7.73792 90.0002 20.7453 90.0002Z" fill="white"/>
<path d="M103.741 51.7321C104.526 51.7321 105.312 52.071 105.424 52.5207C105.536 52.9704 104.974 54.2104 103.629 55.2239C102.732 56.0109 99.3681 58.2643 94.0986 56.9127C97.2379 54.098 101.387 51.7321 103.741 51.7321ZM126.841 52.5207C127.403 52.5207 127.963 52.858 127.963 52.9704C128.076 53.3093 127.739 54.2104 126.618 55.1114C125.832 55.786 123.254 57.4765 119.105 56.5746C121.684 54.3228 124.935 52.5207 126.841 52.5207ZM136.484 56.0117C132.671 58.7148 122.916 63.8954 117.982 63.8954C116.526 63.8954 114.955 63.3332 114.955 61.9809C114.955 61.3063 115.405 60.4053 116.19 59.5042C116.414 59.3918 116.526 59.2794 116.638 59.0529C121.123 60.6301 125.497 60.0664 128.524 57.5897C130.43 56.0125 131.327 54.0988 130.989 52.4091C130.654 50.3822 128.636 49.3687 126.841 49.3687C123.702 49.3687 118.544 52.4091 115.18 55.9C114.954 56.0125 114.842 56.239 114.73 56.4638C114.618 56.5762 114.395 56.8011 114.283 56.9135C109.348 60.2928 98.8068 65.6983 93.4254 65.6983C91.5191 65.6983 89.5008 64.9097 89.5008 63.1076C89.5008 62.0941 90.2861 60.8558 91.5191 59.3918C99.257 62.0941 104.191 58.828 105.648 57.7021C107.667 56.0125 108.788 53.7607 108.452 51.9578C108.116 49.706 105.76 48.5801 103.742 48.5801C100.042 48.5801 93.9859 52.1843 90.0622 56.3514C89.9865 56.4263 89.9113 56.5013 89.8367 56.5762C87.8184 58.828 86.4727 61.1939 86.4727 63.1076C86.4727 66.4869 89.3881 68.8519 93.5373 68.8519C98.3598 68.7395 106.209 65.361 111.927 62.0941C111.927 65.0221 114.507 67.049 118.207 67.049C123.813 66.9366 134.241 61.4187 138.278 58.4907C138.95 57.927 139.176 57.0259 138.614 56.3514C138.166 55.5628 137.157 55.4503 136.484 56.0125V56.0117Z" fill="white"/>
<path d="M141.399 34.7281C140.502 34.8405 139.831 35.5167 139.942 36.4177C140.054 37.8809 139.719 38.8944 138.372 40.5848C137.027 42.2745 138.148 42.8366 139.83 42.6118C141.849 42.0496 143.194 38.4455 143.083 36.1929C142.971 35.2918 142.185 34.6156 141.4 34.7281H141.399Z" fill="white"/>
<path d="M139.123 77.6351C138.338 77.6351 138.002 76.8465 138.002 75.9455C138.002 74.031 139.459 72.1164 142.375 70.3152V71.8908C142.375 75.833 140.469 77.6351 139.123 77.6351ZM165.925 60.0664C166.822 59.7291 167.158 58.8281 166.934 58.0395C166.596 57.2516 165.701 56.8011 164.915 57.14C156.504 60.1804 149.889 62.7703 145.067 65.2486V64.2351C145.067 60.2929 145.741 53.0861 150.899 49.9317C151.684 49.482 151.908 48.5809 151.459 47.7923C151.011 47.1177 150.002 46.8913 149.328 47.3426C142.825 51.1716 141.928 59.6183 141.928 64.2359C141.928 65.2494 141.928 66.1505 142.04 66.825C137.217 69.6406 134.863 72.4561 134.863 75.9471C134.863 78.6502 136.658 80.7904 139.124 80.7904C142.152 80.7904 145.516 77.6376 145.516 71.8932C145.516 70.5424 145.404 69.529 145.292 68.5155C150.226 65.9248 157.29 63.2225 165.925 60.068L165.925 60.0664Z" fill="white"/>
</g>
<defs>
<clipPath id="clip0_90_648">
<rect width="167" height="90" fill="white"/>
</clipPath>
</defs>
</svg>
