<?xml version="1.0" standalone="no"?>
<!DOCTYPE svg PUBLIC "-//W3C//DTD SVG 1.1//EN" "http://www.w3.org/Graphics/SVG/1.1/DTD/svg11.dtd" >
<svg xmlns="http://www.w3.org/2000/svg" xmlns:xlink="http://www.w3.org/1999/xlink" version="1.1">
<metadata>
Created by FontForge 20201107 at Fri Oct 18 14:56:37 2024
 By 
Copyright 2017 The Spectral Project Authors (https://github.com/productiontype/Spectral)
</metadata>
<defs>
<font id="Spectral-Light" horiz-adv-x="500" >
  <font-face 
    font-family="Spectral Light"
    font-weight="300"
    font-stretch="normal"
    units-per-em="1000"
    panose-1="0 0 0 0 0 0 0 0 0 0"
    ascent="800"
    descent="-200"
    x-height="450"
    cap-height="660"
    bbox="-205 -250 1298 1057"
    underline-thickness="50"
    underline-position="-145"
    unicode-range="U+000D-FB06"
  />
<missing-glyph 
d="M55 0v750h390v-750h-390zM250 406l150 312h-300zM85 62l150 313l-150 313v-626zM415 62v626l-150 -313zM100 32h300l-150 312z" />
    <glyph glyph-name="f_f" unicode="ff" horiz-adv-x="674" 
d="M58 0v16l63 25v367h-82v42h82v38q0 39 18 83.5t47 84.5t64.5 65t71.5 25q25 0 35 -8t10 -18q0 -6 -2 -16l-10 -38l-99 25q-30 -26 -48.5 -75.5t-18.5 -113.5v-52h269v42q0 38 18.5 83t50 84.5t71.5 64.5t84 25q26 0 37.5 -8.5t11.5 -19.5q0 -4 -1 -8.5t-3 -9.5l-10 -35
l-111 27q-36 -20 -58 -71t-22 -119v-55h132v-42h-132v-368l73 -24v-16h-204v16l63 25v367h-269v-368l73 -24v-16h-204z" />
    <glyph glyph-name="fi" unicode="fi" horiz-adv-x="646" 
d="M395 0v16l63 25v367h-269v-368l73 -24v-16h-204v16l63 25v367h-82v42h82v38q0 39 18 83.5t47 84.5t64.5 65t71.5 25q25 0 35 -8t10 -18q0 -6 -2 -16l-10 -38l-99 25q-30 -26 -48.5 -75.5t-18.5 -113.5v-52h337v-409l66 -25v-16h-197zM485 596q-23 0 -37 14.5t-14 36.5
t14 36.5t37 14.5q21 0 35.5 -14.5t14.5 -36.5t-14.5 -36.5t-35.5 -14.5z" />
    <glyph glyph-name="fl" unicode="fl" horiz-adv-x="626" 
d="M385 0v16l63 25v631l-60 33v10l120 35h8v-709l66 -25v-16h-197zM39 408v42h82v38q0 39 17.5 83.5t46.5 84.5t63.5 65t68.5 25q24 0 34.5 -8t10.5 -17q0 -7 -3 -17l-9 -37l-95 24q-30 -25 -48 -75t-18 -114v-52h132v-42h-132v-368l73 -24v-16h-204v16l63 25v367h-82z" />
    <glyph glyph-name="f_f_i" unicode="ffi" horiz-adv-x="983" 
d="M58 0v16l63 25v367h-82v42h82v38q0 39 18 83.5t47 84.5t64.5 65t71.5 25q25 0 35 -8t10 -18q0 -6 -2 -16l-10 -38l-99 25q-30 -26 -48.5 -75.5t-18.5 -113.5v-52h269v38q0 39 18 83.5t47 84.5t64.5 65t71.5 25q25 0 35 -8t10 -18q0 -6 -2 -16l-10 -38l-99 25
q-30 -26 -48.5 -75.5t-18.5 -113.5v-52h337v-409l66 -25v-16h-197v16l63 25v367h-269v-368l73 -24v-16h-204v16l63 25v367h-269v-368l73 -24v-16h-204zM822 596q-23 0 -37 14.5t-14 36.5t14 36.5t37 14.5q21 0 36 -14.5t15 -36.5t-15 -36.5t-36 -14.5z" />
    <glyph glyph-name="f_f_l" unicode="ffl" horiz-adv-x="963" 
d="M722 0v16l63 25v631l-60 33v10l120 35h8v-709l66 -25v-16h-197zM39 408v42h82v38q0 39 18 83.5t47 84.5t64.5 65t71.5 25q25 0 35 -8t10 -18q0 -6 -2 -16l-10 -38l-99 25q-30 -26 -48.5 -75.5t-18.5 -113.5v-52h269v38q0 39 17.5 83.5t46.5 84.5t63.5 65t68.5 25
q24 0 34.5 -8t10.5 -17q0 -7 -3 -17l-9 -37l-95 24q-30 -25 -48 -75t-18 -114v-52h132v-42h-132v-368l73 -24v-16h-204v16l63 25v367h-269v-368l73 -24v-16h-204v16l63 25v367h-82z" />
    <glyph glyph-name="f_b" unicode="fb" horiz-adv-x="890" 
d="M445 -6v678l-57 33v10l117 35h8v-352h4q38 32 74 47t76 15q50 0 89.5 -26t62 -73.5t22.5 -113.5q0 -82 -31.5 -139.5t-84.5 -87.5t-118 -30q-35 0 -68.5 9t-61.5 22l-24 -27h-8zM39 408v42h82v38q0 39 17.5 83.5t46.5 84.5t63.5 65t68.5 25q24 0 34.5 -8t10.5 -17
q0 -7 -3 -17l-9 -37l-95 24q-31 -25 -48.5 -75t-17.5 -114v-52h132v-42h-132v-368l73 -24v-16h-204v16l63 25v367h-82zM624 405q-60 0 -111 -38v-297q55 -41 123 -41q37 0 68.5 19.5t50.5 63t19 115.5q0 62 -21 101.5t-55 58t-74 18.5z" />
    <glyph glyph-name="f_f_b" unicode="ffb" horiz-adv-x="1227" 
d="M782 -6v678l-57 33v10l118 35h7v-352h4q38 32 74 47t76 15q50 0 89.5 -26t62 -73.5t22.5 -113.5q0 -82 -31.5 -139.5t-84.5 -87.5t-118 -30q-35 0 -68.5 9t-61.5 22l-24 -27h-8zM39 408v42h82v38q0 39 18 83.5t47 84.5t64.5 65t71.5 25q25 0 35 -8t10 -18q0 -6 -2 -16
l-10 -38l-99 25q-30 -26 -48.5 -75.5t-18.5 -113.5v-52h269v38q0 39 17.5 83.5t46.5 84.5t63.5 65t68.5 25q24 0 34.5 -8t10.5 -17q0 -7 -3 -17l-9 -37l-95 24q-31 -25 -48.5 -75t-17.5 -114v-52h132v-42h-132v-368l73 -24v-16h-204v16l63 25v367h-269v-368l73 -24v-16h-204
v16l63 25v367h-82zM961 405q-60 0 -111 -38v-297q55 -41 123 -41q37 0 68.5 19.5t50.5 63t19 115.5q0 62 -21 101.5t-55 58t-74 18.5z" />
    <glyph glyph-name="f_h" unicode="fh" horiz-adv-x="911" 
d="M402 0v16l63 25v622l-66 39v10l126 38h7v-363h4q37 38 71.5 55.5t76.5 17.5q61 0 99.5 -31.5t38.5 -93.5v-294l63 -25v-16h-201v16l71 24v256q0 51 -30 77.5t-77 26.5q-28 0 -61.5 -11t-54.5 -33v-316l71 -24v-16h-201zM39 408v42h82v38q0 39 17.5 83.5t46.5 84.5
t63.5 65t68.5 25q24 0 34.5 -8t10.5 -17q0 -7 -3 -17l-9 -37l-95 24q-30 -25 -48 -75t-18 -114v-52h132v-42h-132v-368l73 -24v-16h-204v16l63 25v367h-82z" />
    <glyph glyph-name="f_f_h" unicode="ffh" horiz-adv-x="1248" 
d="M739 0v16l63 25v622l-66 39v10l126 38h7v-363h4q38 38 72.5 55.5t75.5 17.5q61 0 99.5 -31.5t38.5 -93.5v-294l63 -25v-16h-201v16l71 24v256q0 51 -30 77.5t-77 26.5q-28 0 -61.5 -11t-54.5 -33v-316l71 -24v-16h-201zM39 408v42h82v38q0 39 18 83.5t47 84.5t64.5 65
t71.5 25q25 0 35 -8t10 -18q0 -6 -2 -16l-10 -38l-99 25q-30 -26 -48.5 -75.5t-18.5 -113.5v-52h269v38q0 39 17.5 83.5t46.5 84.5t63.5 65t68.5 25q24 0 34.5 -8t10.5 -17q0 -7 -3 -17l-9 -37l-95 24q-30 -25 -48 -75t-18 -114v-52h132v-42h-132v-368l73 -24v-16h-204v16
l63 25v367h-269v-368l73 -24v-16h-204v16l63 25v367h-82z" />
    <glyph glyph-name="f_j" unicode="fj" horiz-adv-x="636" 
d="M395 -230v16q26 24 39.5 50.5t18.5 64t5 93.5v414h-269v-368l73 -24v-16h-204v16l63 25v367h-82v42h82v38q0 39 18 83.5t47 84.5t64.5 65t71.5 25q25 0 35 -8t10 -18q0 -6 -2 -16l-10 -38l-99 25q-30 -26 -48.5 -75.5t-18.5 -113.5v-52h337v-450q0 -50 -10.5 -92
t-38.5 -76.5t-82 -61.5zM485 596q-23 0 -37 14.5t-14 36.5t14 36.5t37 14.5q21 0 35.5 -14.5t14.5 -36.5t-14.5 -36.5t-35.5 -14.5z" />
    <glyph glyph-name="f_f_j" unicode="ffj" horiz-adv-x="973" 
d="M58 0v16l63 25v367h-82v42h82v38q0 39 18 83.5t47 84.5t64.5 65t71.5 25q25 0 35 -8t10 -18q0 -6 -2 -16l-10 -38l-99 25q-30 -26 -48.5 -75.5t-18.5 -113.5v-52h269v38q0 39 18 83.5t47 84.5t64.5 65t71.5 25q25 0 35 -8t10 -18q0 -6 -2 -16l-10 -38l-99 25
q-30 -26 -48.5 -75.5t-18.5 -113.5v-52h337v-450q0 -50 -10.5 -92t-38.5 -76.5t-82 -61.5v16q26 24 39.5 50.5t18.5 64t5 93.5v414h-269v-368l73 -24v-16h-204v16l63 25v367h-269v-368l73 -24v-16h-204zM822 596q-23 0 -37 14.5t-14 36.5t14 36.5t37 14.5q21 0 36 -14.5
t15 -36.5t-15 -36.5t-36 -14.5z" />
    <glyph glyph-name="f_k" unicode="fk" horiz-adv-x="883" 
d="M39 408v42h82v38q0 39 17.5 83.5t46.5 84.5t63.5 65t68.5 25q24 0 34.5 -8t10.5 -17q0 -7 -3 -17l-9 -37l-95 24q-30 -25 -48 -75t-18 -114v-52h132v-42h-132v-368l73 -24v-16h-204v16l63 25v367h-82zM389 0v16l63 25v622l-65 39v10l125 38h8v-497l169 146v6l-49 29v16
h178v-16l-64 -28l-174 -135l211 -228l64 -27v-16h-122l-33 45l-180 197v-202l71 -24v-16h-202z" />
    <glyph glyph-name="f_f_k" unicode="ffk" horiz-adv-x="1220" 
d="M39 408v42h82v38q0 39 18 83.5t47 84.5t64.5 65t71.5 25q25 0 35 -8t10 -18q0 -6 -2 -16l-10 -38l-99 25q-30 -26 -48.5 -75.5t-18.5 -113.5v-52h269v38q0 39 17.5 83.5t46.5 84.5t63.5 65t68.5 25q24 0 34.5 -8t10.5 -17q0 -7 -3 -17l-9 -37l-95 24q-30 -25 -48 -75
t-18 -114v-52h132v-42h-132v-368l73 -24v-16h-204v16l63 25v367h-269v-368l73 -24v-16h-204v16l63 25v367h-82zM726 0v16l63 25v622l-65 39v10l125 38h8v-497l169 146v6l-49 29v16h178v-16l-64 -28l-174 -135l211 -228l64 -27v-16h-121l-34 45l-180 197v-202l71 -24v-16
h-202z" />
    <glyph glyph-name="f_t" unicode="ft" horiz-adv-x="681" 
d="M58 0v16l63 25v367h-82v42h82v42q0 38 18.5 83t50 84.5t71.5 64.5t84 25q25 0 36.5 -8.5t11.5 -19.5q0 -4 -1 -8.5t-2 -9.5l-10 -35l-111 27q-36 -20 -58 -71t-22 -119v-55h255l55 110h8v-110h132v-42h-132v-308q0 -28 21.5 -41.5t52.5 -13.5q20 0 37.5 3t30.5 9l2 -1v-7
q-9 -20 -37 -39.5t-73 -19.5q-43 0 -72 26t-29 73v319h-251v-368l73 -24v-16h-204z" />
    <glyph glyph-name="f_f_t" unicode="fft" horiz-adv-x="1018" 
d="M58 0v16l63 25v367h-82v42h82v38q0 39 18 83.5t47 84.5t64.5 65t71.5 25q25 0 35 -8t10 -18q0 -6 -2 -16l-10 -38l-99 25q-30 -26 -48.5 -75.5t-18.5 -113.5v-52h269v42q0 38 18.5 83t50 84.5t71.5 64.5t84 25q26 0 37.5 -8.5t11.5 -19.5q0 -4 -1 -8.5t-3 -9.5l-10 -35
l-111 27q-36 -20 -58 -71t-22 -119v-55h255l55 110h8v-110h132v-42h-132v-308q0 -28 21.5 -41.5t52.5 -13.5q20 0 37.5 3t30.5 9l2 -1v-7q-9 -20 -37 -39.5t-73 -19.5q-43 0 -72 26t-29 73v319h-251v-368l73 -24v-16h-204v16l63 25v367h-269v-368l73 -24v-16h-204z" />
    <glyph glyph-name=".notdef" 
d="M55 0v750h390v-750h-390zM250 406l150 312h-300zM85 62l150 313l-150 313v-626zM415 62v626l-150 -313zM100 32h300l-150 312z" />
    <glyph glyph-name=".null" horiz-adv-x="0" 
 />
    <glyph glyph-name=".null" horiz-adv-x="0" 
 />
    <glyph glyph-name="nonmarkingreturn" horiz-adv-x="333" 
 />
    <glyph glyph-name="CR" unicode="&#xd;" horiz-adv-x="250" 
 />
    <glyph glyph-name="space" unicode=" " horiz-adv-x="250" 
 />
    <glyph glyph-name="exclam" unicode="!" horiz-adv-x="250" 
d="M115 200l-37 460h94l-37 -460h-20zM125 -5q-22 0 -38 17t-16 38q0 22 16 38.5t38 16.5t38 -16.5t16 -38.5q0 -21 -16 -38t-38 -17z" />
    <glyph glyph-name="quotedbl" unicode="&#x22;" horiz-adv-x="405" 
d="M103 490l-30 250h79l-29 -250h-20zM282 490l-30 250h79l-29 -250h-20z" />
    <glyph glyph-name="numbersign" unicode="#" 
d="M43 0l59 203h-99v41h111l48 165h-99v41h111l61 210h44l-61 -210h136l61 210h44l-61 -210h99v-41h-111l-48 -165h99v-41h-111l-59 -203h-44l59 203h-136l-59 -203h-44zM158 244h136l48 165h-136z" />
    <glyph glyph-name="dollar" unicode="$" 
d="M188 -80v77q-63 15 -99.5 55.5t-36.5 82.5q0 18 10.5 26.5t26.5 8.5h35v-95q24 -25 64 -37v289q-70 35 -97 73t-27 92q0 52 35.5 97t88.5 66v85h35v-74q20 4 39 4q12 0 23 -1v71h36v-77q55 -13 86 -46.5t31 -71.5q0 -20 -7.5 -28.5t-27.5 -8.5h-31v81q-20 22 -51 32v-273
q73 -39 99.5 -79t26.5 -96q0 -62 -35.5 -107t-90.5 -64v-82h-36v73q-19 -3 -39 -3q-12 0 -23 1v-71h-35zM275 371q5 -3 10 -5v262q-12 1 -25 1q-20 0 -37 -4v-229q22 -12 52 -25zM133 518q0 -32 11 -55t44 -46v195q-55 -30 -55 -94zM245 30q22 0 40 4v246q-14 8 -30.5 16
t-31.5 14v-278q11 -2 22 -2zM379 154q0 32 -11.5 56t-46.5 48v-211q58 31 58 107z" />
    <glyph glyph-name="percent" unicode="%" horiz-adv-x="709" 
d="M143 345q-64 0 -100 56t-36 147q0 57 17.5 102.5t48 72.5t70.5 27q63 0 98.5 -55.5t35.5 -147.5q0 -56 -17 -102t-47.5 -73t-69.5 -27zM149 370q20 0 34.5 22.5t22 60t7.5 80.5q0 55 -8.5 98.5t-26 68.5t-42.5 25q-21 0 -35 -22.5t-22 -59.5t-8 -81q0 -55 9 -98.5
t26 -68.5t43 -25zM106 11l470 739l32 -21l-471 -739zM568 -10q-64 0 -100 56t-36 147q0 57 17.5 102.5t48 72.5t70.5 27q63 0 98.5 -55.5t35.5 -147.5q0 -56 -17 -102t-47.5 -73t-69.5 -27zM574 15q20 0 34.5 22.5t22 60t7.5 80.5q0 55 -8.5 98.5t-26 68.5t-42.5 25
q-21 0 -35 -22.5t-22 -59.5t-8 -81q0 -55 9 -98.5t26 -68.5t43 -25z" />
    <glyph glyph-name="ampersand" unicode="&#x26;" horiz-adv-x="705" 
d="M223 -10q-84 0 -135.5 48t-51.5 123q0 48 31 96.5t108 98.5q-44 46 -63 79.5t-19 78.5q0 36 22 72t61.5 60t92.5 24q73 0 113.5 -36t40.5 -91q0 -49 -42 -87t-117 -83l13 -13l14 -14l168 -167q29 45 54.5 104t48.5 129l-98 32v20h233v-20l-84 -31q-32 -75 -63.5 -140.5
t-66.5 -117.5l107 -107l79 -28v-20h-141l-92 93q-44 -49 -95.5 -76t-117.5 -27zM166 532q0 -38 18.5 -67.5t58.5 -69.5q51 35 79.5 67.5t28.5 75.5q0 40 -24 66t-66 26t-68.5 -27t-26.5 -71zM113 183q0 -65 40 -101.5t104 -36.5q45 0 83 18.5t72 53.5l-144 144l-39 39
t-33 34q-51 -38 -67 -70.5t-16 -80.5z" />
    <glyph glyph-name="quotesingle" unicode="'" horiz-adv-x="225" 
d="M103 490l-30 250h79l-29 -250h-20z" />
    <glyph glyph-name="parenleft" unicode="(" horiz-adv-x="242" 
d="M218 -150q-77 96 -119 208.5t-42 236.5t42 236.5t119 208.5h18v-3q-61 -97 -93 -201t-32 -241q0 -91 14.5 -167t42 -143t68.5 -132v-3h-18z" />
    <glyph glyph-name="parenright" unicode=")" horiz-adv-x="242" 
d="M6 -150v3q40 65 68 132t42.5 143t14.5 167q0 92 -14.5 167.5t-42.5 142.5t-68 132v3h18q77 -96 119 -208.5t42 -236.5t-42 -236.5t-119 -208.5h-18z" />
    <glyph glyph-name="asterisk" unicode="*" horiz-adv-x="350" 
d="M13 605q-4 30 18 50l134 -60l-16 146q26 14 52 0l-16 -146l134 60q22 -20 18 -50l-145 -30l99 -110q-10 -28 -42 -32l-74 127l-74 -127q-32 4 -42 32l99 110z" />
    <glyph glyph-name="plus" unicode="+" 
d="M229 62v190h-189v40h189v190h42v-190h189v-40h-189v-190h-42z" />
    <glyph glyph-name="comma" unicode="," horiz-adv-x="240" 
d="M20 -197l70 278h91v-13l-146 -265h-15z" />
    <glyph glyph-name="hyphen" unicode="-" horiz-adv-x="375" 
d="M50 228v58h275v-58h-275z" />
    <glyph glyph-name="period" unicode="." horiz-adv-x="237" 
d="M118 -5q-22 0 -38 16.5t-16 38.5t16 38t38 16q23 0 39 -16t16 -38t-16 -38.5t-39 -16.5z" />
    <glyph glyph-name="slash" unicode="/" horiz-adv-x="242" 
d="M0 -120l200 870h42l-200 -870h-42z" />
    <glyph glyph-name="zero" unicode="0" 
d="M250 -10q-67 0 -114.5 42t-72 119t-24.5 180q0 96 26.5 172.5t74 121.5t110.5 45q67 0 114.5 -42t72 -118.5t24.5 -180.5q0 -95 -27 -172t-74.5 -122t-109.5 -45zM266 33q37 0 63.5 35t40.5 96.5t14 138.5q0 151 -38 238t-111 87q-36 0 -63 -35t-42 -96t-15 -139
q0 -150 39 -237.5t112 -87.5z" />
    <glyph glyph-name="one" unicode="1" 
d="M155 0v20l89 30v526l-164 -87v32l217 139h18v-610l79 -30v-20h-239z" />
    <glyph glyph-name="two" unicode="2" 
d="M54 0v25q84 99 139.5 166.5t88 112t48 75.5t20.5 56.5t5 55.5q0 63 -32.5 98.5t-89.5 35.5q-34 0 -63 -11t-50 -29v-98h-50q-17 0 -23.5 6.5t-6.5 25.5q0 25 17 51.5t47 49t68 36.5t80 14q55 0 96.5 -23t64 -63.5t22.5 -90.5q0 -33 -7.5 -60.5t-26.5 -57t-52 -69t-84 -97
t-122 -141.5h249l42 98h18l-10 -166h-388z" />
    <glyph glyph-name="three" unicode="3" 
d="M241 -10q-62 0 -108.5 20.5t-72.5 50.5t-26 60q0 20 7.5 26.5t24.5 6.5h47v-87q46 -37 128 -37q68 0 105 40t37 102q0 70 -37.5 109.5t-131.5 39.5h-61v40h35q69 0 115 37.5t46 106.5q0 61 -30.5 92t-86.5 31q-25 0 -51 -8t-49 -26v-97h-50q-17 0 -22.5 6.5t-5.5 23.5
q0 32 26 65t70.5 55.5t102.5 22.5q50 0 90 -20.5t63 -56t23 -81.5q0 -51 -37.5 -94t-103.5 -62q88 -12 132 -59.5t44 -118.5q0 -51 -30 -93.5t-80.5 -68.5t-112.5 -26z" />
    <glyph glyph-name="four" unicode="4" 
d="M195 0v20l89 30v143h-280v18l334 449h17v-412h119v-55h-119v-143l79 -30v-20h-239zM86 248h198v275z" />
    <glyph glyph-name="five" unicode="5" 
d="M438 225q0 -75 -33 -127.5t-89.5 -80t-126.5 -27.5q-64 0 -97 23.5t-33 47.5q0 7 3.5 13.5t12.5 13.5l36 26l59 -85q13 -1 26 -1q48 0 88.5 19.5t64.5 57t24 90.5q0 67 -44 109t-134 42q-23 0 -50 -3.5t-56 -11.5l12 329h312v-66h-270l-8 -213q29 12 58 17.5t55 5.5
q59 0 101.5 -23.5t65.5 -64t23 -91.5z" />
    <glyph glyph-name="six" unicode="6" 
d="M254 -10q-62 0 -110 31.5t-75 87t-27 125.5q0 105 45 192t128 149.5t198 94.5v-29q-123 -39 -196.5 -126.5t-89.5 -208.5q27 38 67.5 60.5t91.5 22.5q54 0 93.5 -25t61 -67.5t21.5 -96.5q0 -53 -23 -101t-69.5 -78.5t-115.5 -30.5zM123 243q0 -111 39.5 -162t94.5 -51
q42 0 70 21t42.5 55.5t14.5 73.5q0 151 -129 151q-42 0 -76.5 -20t-54.5 -53q-1 -7 -1 -15z" />
    <glyph glyph-name="seven" unicode="7" 
d="M97 0q21 50 38.5 92t37 85.5t47 99.5t68.5 132.5t101 185.5h-334v65h401v-19q-47 -90 -98 -193t-95 -216t-71 -232h-95z" />
    <glyph glyph-name="eight" unicode="8" 
d="M252 -10q-54 0 -100.5 19.5t-75 54t-28.5 80.5q0 34 11 64.5t41.5 61t87.5 65.5q-68 41 -95 77.5t-27 91.5q0 45 26 82.5t69 60.5t92 23q50 0 91.5 -21t66 -57.5t24.5 -82.5q0 -45 -34.5 -82t-94.5 -71q75 -44 110.5 -85.5t35.5 -104.5q0 -58 -31 -97t-77 -59t-92 -20z
M139 528q0 -28 10.5 -51.5t39.5 -47.5t83 -54q41 25 66 54.5t25 70.5q0 63 -33.5 95t-84.5 32q-44 0 -75 -27t-31 -72zM122 164q0 -65 38.5 -99t95.5 -34q56 0 91 30t35 83q0 42 -20.5 70t-57 51.5t-86.5 51.5q-56 -38 -76 -70.5t-20 -82.5z" />
    <glyph glyph-name="nine" unicode="9" 
d="M88 -10v29q123 39 196.5 126.5t88.5 208.5q-26 -38 -66.5 -60.5t-91.5 -22.5q-54 0 -93.5 25t-61.5 67.5t-22 96.5q0 53 23.5 101t69.5 78.5t115 30.5q63 0 110.5 -31.5t74.5 -87t27 -125.5q0 -105 -45 -192t-128 -149.5t-197 -94.5zM117 480q0 -151 129 -151q42 0 76 20
t55 53v15q0 111 -39 162t-94 51q-42 0 -70 -21t-42.5 -55.5t-14.5 -73.5z" />
    <glyph glyph-name="colon" unicode=":" horiz-adv-x="237" 
d="M118 -5q-22 0 -38 16.5t-16 38.5t16 38t38 16q23 0 39 -16t16 -38t-16 -38.5t-39 -16.5zM118 351q-22 0 -38 16.5t-16 38.5t16 38t38 16q23 0 39 -16t16 -38t-16 -38.5t-39 -16.5z" />
    <glyph glyph-name="semicolon" unicode=";" horiz-adv-x="240" 
d="M118 351q-22 0 -38 16.5t-16 38.5t16 38t38 16q23 0 39 -16t16 -38t-16 -38.5t-39 -16.5zM4 -197l70 278h91v-13l-146 -265h-15z" />
    <glyph glyph-name="less" unicode="&#x3c;" 
d="M460 62l-420 190v40l420 190v-45l-363 -165l363 -165v-45z" />
    <glyph glyph-name="equal" unicode="=" 
d="M40 354v40h420v-40h-420zM40 150v40h420v-40h-420z" />
    <glyph glyph-name="greater" unicode="&#x3e;" 
d="M40 62v45l363 165l-363 165v45l420 -190v-40z" />
    <glyph glyph-name="question" unicode="?" horiz-adv-x="475" 
d="M205 200l-21 140q77 27 118.5 64.5t41.5 95.5q0 65 -34.5 95t-80.5 30q-56 0 -104 -35v-97h-51q-15 0 -21 6.5t-6 28.5q0 32 28 65t73.5 55t99.5 22q50 0 89 -23t61.5 -62.5t22.5 -88.5q0 -62 -42 -113.5t-146 -97.5l-8 -85h-20zM215 -5q-22 0 -38.5 17t-16.5 38
q0 22 16.5 38.5t38.5 16.5t38 -16.5t16 -38.5q0 -21 -16 -38t-38 -17z" />
    <glyph glyph-name="at" unicode="@" horiz-adv-x="813" 
d="M377 -118q-91 0 -160 39t-108 106.5t-39 153.5q0 80 28 149.5t79.5 121.5t120.5 81t150 29q94 0 159.5 -40.5t100 -108t34.5 -148.5q0 -73 -24.5 -128t-65 -86t-87.5 -31q-56 0 -82.5 32t-17.5 83q-79 -114 -152 -114q-34 0 -57 29.5t-23 86.5q0 52 18 104t49 94.5t71 68
t83 25.5q21 0 41.5 -6.5t35.5 -15.5l25 18h19l-50 -278q-10 -52 3.5 -74t50.5 -22q36 0 67 26.5t50 74t19 112.5q0 77 -32 138t-91 97t-141 36q-101 0 -174.5 -44.5t-114 -120t-40.5 -168.5q0 -89 35 -154.5t97.5 -101.5t145.5 -36q65 0 116 16t94 45l11 -18
q-53 -34 -110 -52.5t-134 -18.5zM291 160q0 -50 13 -71t41 -21q29 0 61.5 26.5t63.5 69.5l35 198q-14 16 -30 27t-43 11q-40 0 -72 -34t-50.5 -89t-18.5 -117z" />
    <glyph glyph-name="A" unicode="A" horiz-adv-x="733" 
d="M33 0v20l59 24l256 621h35l253 -619l64 -26v-20h-233v20l86 26l-78 195h-247l-77 -196l86 -25v-20h-204zM246 288h210l-106 263z" />
    <glyph glyph-name="B" unicode="B" horiz-adv-x="631" 
d="M65 0v20l79 30v560l-79 30v20h223q66 0 119 -16.5t84 -49t31 -82.5q0 -52 -34.5 -95.5t-99.5 -61.5q90 -13 140.5 -55t50.5 -108q0 -55 -34 -98.5t-93.5 -68.5t-135.5 -25h-251zM278 613h-56v-249h62q71 0 113 32t42 90q0 63 -41 95t-120 32zM316 317h-94v-271h101
q79 0 126 38t47 98q0 70 -47.5 102.5t-132.5 32.5z" />
    <glyph glyph-name="C" unicode="C" horiz-adv-x="721" 
d="M397 -10q-99 0 -172.5 42t-114 115t-40.5 165q0 73 27 138t74.5 114.5t109.5 77.5t132 28q49 0 83.5 -6.5t62 -17.5t54.5 -24l5 -167h-19l-52 119q-38 27 -69.5 40.5t-69.5 13.5q-75 0 -134 -37t-93 -101t-34 -144q0 -96 34 -166.5t92 -108.5t129 -38q51 0 86.5 13.5
t63.5 32.5l59 115h18l-10 -155q-29 -14 -59.5 -25.5t-69 -17.5t-93.5 -6z" />
    <glyph glyph-name="D" unicode="D" horiz-adv-x="750" 
d="M65 0v20l80 30v560l-80 30v20h268q111 0 188.5 -39t118 -107t40.5 -154q0 -107 -45 -188t-124.5 -126.5t-184.5 -45.5h-261zM323 613h-100v-566h111q81 0 140 35t91.5 98.5t32.5 148.5q0 86 -32 150t-93.5 99t-149.5 35z" />
    <glyph glyph-name="E" unicode="E" horiz-adv-x="635" 
d="M65 0v20l79 30v560l-79 30v20h472v-168h-17l-54 121h-244v-249h175l40 83h17v-211h-17l-40 81h-175v-270h272l54 131h17v-178h-500z" />
    <glyph glyph-name="F" unicode="F" horiz-adv-x="602" 
d="M65 0v20l80 30v560l-79 30v20h466v-168h-18l-53 121h-238v-249h169l39 83h18v-211h-18l-39 81h-169v-267l90 -30v-20h-248z" />
    <glyph glyph-name="G" unicode="G" horiz-adv-x="759" 
d="M403 -10q-96 0 -171 42t-118.5 114.5t-43.5 165.5q0 77 27.5 142t75.5 113.5t112 75.5t136 27q53 0 90 -6.5t66 -17t57 -24.5l5 -161h-18l-55 113q-42 29 -74.5 41.5t-74.5 12.5q-80 0 -141.5 -36.5t-96 -97.5t-34.5 -136q0 -100 38 -171t101 -109t140 -38q35 0 67.5 4.5
t67.5 18.5v176l-88 31v20h238v-20l-72 -32v-168q-44 -37 -108.5 -58.5t-125.5 -21.5z" />
    <glyph glyph-name="H" unicode="H" horiz-adv-x="799" 
d="M65 0v20l79 30v560l-79 30v20h239v-20l-82 -30v-246h355v246l-82 30v20h239v-20l-79 -30v-560l79 -30v-20h-239v20l82 30v267h-355v-267l82 -30v-20h-239z" />
    <glyph glyph-name="I" unicode="I" horiz-adv-x="376" 
d="M70 0v20l79 30v560l-79 30v20h236v-20l-79 -30v-560l79 -30v-20h-236z" />
    <glyph glyph-name="J" unicode="J" horiz-adv-x="378" 
d="M53 -174q-18 0 -28 8.5t-10 21.5q0 3 3 19l7 30l83 -16q21 22 31.5 61t10.5 101v559l-80 30v20h238v-20l-80 -30v-382q0 -128 -18 -209t-56 -123q-26 -29 -43 -44t-30 -20.5t-28 -5.5z" />
    <glyph glyph-name="K" unicode="K" horiz-adv-x="712" 
d="M65 0v20l80 30v560l-80 30v20h238v-20l-80 -30v-271l282 274l-73 27v20h205v-20l-61 -19l-275 -262l324 -318l64 -21v-20h-131l-335 337v-287l80 -30v-20h-238z" />
    <glyph glyph-name="L" unicode="L" horiz-adv-x="623" 
d="M65 0v20l79 30v560l-79 30v20h247v-20l-90 -30v-563h254l60 171h17v-218h-488z" />
    <glyph glyph-name="M" unicode="M" horiz-adv-x="949" 
d="M60 0v20l79 30l21 558l-86 32v20h173l235 -547l238 547h166v-20l-84 -32l17 -558l70 -30v-20h-220v20l74 29l-11 517l-248 -571h-35l-243 568l-12 -514l81 -29v-20h-215z" />
    <glyph glyph-name="N" unicode="N" horiz-adv-x="793" 
d="M62 0v20l79 30v559l-78 31v20h140l392 -508v459l-94 29v20h230v-20l-79 -30v-615h-31l-422 545v-489l96 -31v-20h-233z" />
    <glyph glyph-name="O" unicode="O" horiz-adv-x="791" 
d="M395 -10q-70 0 -129.5 25.5t-103 71t-68 108t-24.5 135.5q0 74 24.5 136t68 107.5t103 71t129.5 25.5t129.5 -25.5t103.5 -71t68.5 -107.5t24.5 -136q0 -73 -24.5 -135.5t-68.5 -108t-103.5 -71t-129.5 -25.5zM416 32q66 0 116 33t78 93t28 141q0 100 -35 174t-94 115
t-131 41q-66 0 -117 -32.5t-79.5 -92.5t-28.5 -141q0 -100 35 -174.5t95 -115.5t133 -41z" />
    <glyph glyph-name="P" unicode="P" horiz-adv-x="613" 
d="M65 0v20l80 30v560l-80 30v20h235q118 0 189.5 -43t71.5 -136q0 -54 -36 -97t-99.5 -68t-144.5 -25h-58v-241l90 -30v-20h-248zM297 613h-74v-275h81q78 0 125.5 37.5t47.5 97.5q0 74 -48 107t-132 33z" />
    <glyph glyph-name="Q" unicode="Q" horiz-adv-x="795" 
d="M673 -149q-39 0 -80 10t-94 40t-127 90q-88 5 -156 50.5t-107 120t-39 168.5q0 74 24.5 136t68 107.5t103 71t129.5 25.5t129.5 -25.5t103.5 -71t68.5 -107.5t24.5 -136q0 -83 -31 -151.5t-86.5 -115t-127.5 -64.5q60 -45 102 -70t75.5 -34.5t68.5 -9.5q41 0 73 11v-18
q-22 -11 -53.5 -19t-68.5 -8zM416 32q66 0 116 33t78 93t28 141q0 100 -35 174t-94 115t-131 41q-66 0 -117 -32.5t-79.5 -92.5t-28.5 -141q0 -100 35 -174.5t94.5 -115.5t133.5 -41z" />
    <glyph glyph-name="R" unicode="R" horiz-adv-x="637" 
d="M65 0v20l80 30v560l-80 30v20h233q105 0 165.5 -43.5t60.5 -119.5q0 -58 -38 -101.5t-101 -64.5l191 -285l66 -26v-20h-132l-197 307h-90v-256l75 -31v-20h-233zM288 613h-65v-259h71q63 0 104.5 36.5t41.5 93.5q0 60 -41 94.5t-111 34.5z" />
    <glyph glyph-name="S" unicode="S" horiz-adv-x="525" 
d="M260 -10q-60 0 -102 11.5t-88 34.5l-10 160h17l52 -115q36 -28 69 -39.5t67 -11.5q63 0 96.5 33t33.5 91q0 45 -21 71t-59.5 46t-90.5 46q-46 23 -77.5 46t-47.5 53t-16 75q0 33 16 65t43.5 57.5t62 41t71.5 15.5q45 0 83 -11t78 -31l10 -156h-17l-44 110
q-31 25 -56.5 36t-58.5 11q-52 0 -82 -31.5t-30 -78.5q0 -36 14.5 -60t44.5 -44t76 -43q60 -29 99 -55t58 -59.5t19 -84.5q0 -43 -19 -77t-50 -57.5t-68 -36t-73 -12.5z" />
    <glyph glyph-name="T" unicode="T" horiz-adv-x="670" 
d="M196 0v20l100 30v563h-176l-57 -147h-18v194h580v-194h-18l-57 147h-176v-563l100 -30v-20h-278z" />
    <glyph glyph-name="U" unicode="U" horiz-adv-x="797" 
d="M399 -10q-73 0 -130.5 27t-90.5 84t-33 148v361l-80 30v20h238v-20l-80 -30v-347q0 -83 25.5 -131.5t70 -69.5t103.5 -21q47 0 86.5 20t63 62t23.5 109v380l-100 28v20h237v-20l-79 -29v-362q0 -91 -33.5 -148t-90.5 -84t-130 -27z" />
    <glyph glyph-name="V" unicode="V" horiz-adv-x="721" 
d="M349 -5l-249 618l-65 27v20h235v-20l-85 -27v-4l191 -485h6l188 487v4l-84 25v20h200v-20l-55 -22l-253 -623h-29z" />
    <glyph glyph-name="W" unicode="W" horiz-adv-x="970" 
d="M272 -5l-183 618l-74 27v20h243v-20l-87 -27l133 -464h4l176 516h31l183 -516h5l129 461l-87 30v20h210v-20l-66 -28l-184 -617h-29l-186 508h-5l-184 -508h-29z" />
    <glyph glyph-name="X" unicode="X" horiz-adv-x="728" 
d="M35 0v20l72 28l214 283l-205 281l-66 28v20h238v-20l-79 -28v-5l165 -224l169 225v4l-75 28v20h200v-20l-62 -27l-204 -268l217 -295l74 -30v-20h-243v20l74 27v4l-176 242l-178 -242v-4l80 -27v-20h-215z" />
    <glyph glyph-name="Y" unicode="Y" horiz-adv-x="706" 
d="M228 0v20l90 30v261l-220 302l-63 27v20h228v-20l-70 -26v-4l183 -255l166 254v4l-73 27v20h202v-20l-64 -24l-211 -307v-259l90 -30v-20h-258z" />
    <glyph glyph-name="Z" unicode="Z" horiz-adv-x="638" 
d="M90 0v23l349 590h-266l-53 -131h-18v178h435v-23l-350 -590h290l54 141h17v-188h-458z" />
    <glyph glyph-name="bracketleft" unicode="[" horiz-adv-x="242" 
d="M61 -150v890h173v-21h-121v-848h121v-21h-173z" />
    <glyph glyph-name="backslash" unicode="\" horiz-adv-x="242" 
d="M200 -120l-200 870h42l200 -870h-42z" />
    <glyph glyph-name="bracketright" unicode="]" horiz-adv-x="242" 
d="M8 -150v21h121v848h-121v21h173v-890h-173z" />
    <glyph glyph-name="asciicircum" unicode="^" 
d="M40 250l190 420h40l190 -420h-45l-165 363l-165 -363h-45z" />
    <glyph glyph-name="underscore" unicode="_" 
d="M25 -136v42h450v-42h-450z" />
    <glyph glyph-name="grave" unicode="`" horiz-adv-x="257" 
d="M207 530h-12l-161 163v14h87z" />
    <glyph glyph-name="a" unicode="a" horiz-adv-x="474" 
d="M156 -10q-47 0 -78 27.5t-31 76.5q0 48 36 82.5t119 54.5l97 24v77q0 38 -27.5 63t-63.5 25q-17 0 -33.5 -4t-38.5 -16v-89h-51q-16 0 -22 6t-6 24q0 27 24.5 54.5t64.5 46t85 18.5q67 0 101 -28.5t34 -80.5v-295q8 -7 20 -11.5t31 -4.5h44l2 -2v-2q-10 -18 -30.5 -32
t-51.5 -14q-33 0 -52 17t-26 43h-4q-26 -25 -63.5 -42.5t-79.5 -17.5zM114 113q0 -35 21 -52.5t59 -17.5q25 0 50.5 6t54.5 20v157q-81 -16 -120.5 -32.5t-52 -36t-12.5 -44.5z" />
    <glyph glyph-name="b" unicode="b" horiz-adv-x="553" 
d="M108 -6v669l-65 36v11l125 40h8v-352h4q38 32 74 47t76 15q50 0 89.5 -26t62 -73.5t22.5 -113.5q0 -82 -31.5 -139.5t-84.5 -87.5t-118 -30q-35 0 -68.5 9t-61.5 22l-24 -27h-8zM287 405q-60 0 -111 -38v-297q55 -41 123 -41q37 0 68.5 19.5t50.5 63t19 115.5
q0 62 -21 101.5t-55.5 58t-73.5 18.5z" />
    <glyph glyph-name="c" unicode="c" horiz-adv-x="476" 
d="M261 -10q-67 0 -114 28t-72 77.5t-25 114.5q0 72 31.5 128.5t86 89t124.5 32.5q40 0 71.5 -12.5t49.5 -30t18 -32.5q0 -12 -17 -26l-30 -24l-70 89q-13 3 -28 3q-48 0 -86 -24t-60.5 -67t-22.5 -100q0 -86 46.5 -135.5t128.5 -49.5q72 0 136 45h3v-11q-23 -40 -67 -67.5
t-103 -27.5z" />
    <glyph glyph-name="d" unicode="d" horiz-adv-x="553" 
d="M219 -10q-50 0 -89 25t-61.5 71.5t-22.5 111.5q0 83 32.5 142t86.5 89.5t119 30.5q26 0 48 -4t41 -11v218l-68 39v10l128 38h8v-710l71 -24v-16h-129l-8 51h-6q-37 -31 -72.5 -46t-77.5 -15zM112 218q0 -60 21 -98.5t55.5 -56.5t74.5 -18q28 0 56.5 9t53.5 29v298
q-27 19 -53 29t-58 10q-40 0 -74.5 -20t-55 -64.5t-20.5 -117.5z" />
    <glyph glyph-name="e" unicode="e" horiz-adv-x="483" 
d="M262 -10q-67 0 -114.5 28t-72.5 77.5t-25 114.5q0 71 29 127.5t77 89.5t104 33q79 0 124 -54t48 -152l-4 -4h-311v-8q0 -52 18 -95.5t57 -69.5t101 -26q72 0 136 45h3v-11q-23 -40 -67 -67.5t-103 -27.5zM245 425q-48 0 -82 -36.5t-43 -102.5h245q-11 70 -40 104.5
t-80 34.5z" />
    <glyph glyph-name="f" unicode="f" horiz-adv-x="337" 
d="M58 0v16l63 25v367h-82v42h82v42q0 38 18.5 83t50 84.5t71.5 64.5t84 25q25 0 36.5 -8.5t11.5 -19.5q0 -4 -1 -8.5t-2 -9.5l-10 -35l-111 27q-36 -20 -58 -71t-22 -119v-55h132v-42h-132v-368l73 -24v-16h-204z" />
    <glyph glyph-name="g" unicode="g" horiz-adv-x="530" 
d="M246 165q-25 0 -48 6q-35 -20 -46 -36.5t-11 -31.5q0 -23 15 -36.5t53 -13.5h134q67 0 100 -32t33 -92q0 -42 -26 -80.5t-75.5 -63.5t-118.5 -25q-86 0 -128 41.5t-42 100.5q0 22 8 43l67 51v2q-37 7 -55.5 29.5t-18.5 53.5q0 21 9 46l75 54q-38 18 -61.5 52.5
t-23.5 78.5q0 42 21.5 75.5t57.5 53t81 19.5q20 0 43 -5t40 -13l144 8v-49l-100 7l-2 -2q16 -18 25.5 -42.5t9.5 -51.5q0 -42 -21.5 -75.5t-57.5 -52.5t-81 -19zM256 197q38 0 61 31.5t23 81.5q0 56 -29 87.5t-71 31.5t-65 -32t-23 -82q0 -56 29 -87t75 -31zM145 -83
q0 -56 35.5 -92.5t92.5 -36.5q67 0 105.5 35t38.5 85q0 42 -20.5 64t-87.5 22h-109q-29 -10 -42 -31t-13 -46z" />
    <glyph glyph-name="h" unicode="h" horiz-adv-x="574" 
d="M52 0v16l63 25v622l-65 39v10l125 38h8v-363h3q38 38 72.5 55.5t76.5 17.5q60 0 99 -31.5t39 -93.5v-294l63 -25v-16h-202v16l71 24v256q0 51 -29.5 77.5t-77.5 26.5q-28 0 -61.5 -11t-53.5 -33v-316l71 -24v-16h-202z" />
    <glyph glyph-name="i" unicode="i" horiz-adv-x="308" 
d="M147 596q-22 0 -36.5 14.5t-14.5 36.5t14.5 36.5t36.5 14.5t36.5 -14.5t14.5 -36.5t-14.5 -36.5t-36.5 -14.5zM58 0v16l63 25v332l-65 39v10l125 38h8v-419l66 -25v-16h-197z" />
    <glyph glyph-name="j" unicode="j" horiz-adv-x="299" 
d="M147 596q-22 0 -36.5 14.5t-14.5 36.5t14.5 36.5t36.5 14.5t36.5 -14.5t14.5 -36.5t-14.5 -36.5t-36.5 -14.5zM58 -230v16q26 24 39.5 50.5t18.5 64t5 93.5v379l-65 39v10l125 38h8v-460q0 -50 -10.5 -92t-38.5 -76.5t-82 -61.5z" />
    <glyph glyph-name="k" unicode="k" horiz-adv-x="546" 
d="M52 0v16l63 25v622l-65 39v10l125 38h8v-497l169 146v6l-49 29v16h178v-16l-64 -28l-174 -135l211 -228l64 -27v-16h-122l-33 45l-180 197v-202l71 -24v-16h-202z" />
    <glyph glyph-name="l" unicode="l" horiz-adv-x="289" 
d="M48 0v16l63 25v622l-65 39v10l125 38h8v-709l66 -25v-16h-197z" />
    <glyph glyph-name="m" unicode="m" horiz-adv-x="835" 
d="M50 0v16l63 25v332l-66 34v11l118 42h7l8 -73h4q36 37 68.5 55t72.5 18q46 0 79 -20.5t46 -59.5h2q40 41 74.5 60.5t76.5 19.5q58 0 95.5 -31.5t37.5 -93.5v-294l63 -25v-16h-202v16l71 25v255q0 51 -28.5 77.5t-72.5 26.5q-31 0 -61.5 -11.5t-50.5 -32.5q1 -10 1 -21
v-294l67 -25v-16h-203v16l69 25v255q0 51 -28 77.5t-72 26.5q-27 0 -58 -11t-51 -33v-315l68 -25v-16h-198z" />
    <glyph glyph-name="n" unicode="n" horiz-adv-x="574" 
d="M52 0v16l63 25v332l-65 34v11l117 42h8l7 -73h4q38 38 72.5 55.5t76.5 17.5q60 0 99 -31.5t39 -93.5v-294l63 -25v-16h-202v16l71 25v255q0 51 -29.5 77.5t-77.5 26.5q-28 0 -61.5 -11t-53.5 -33v-315l71 -25v-16h-202z" />
    <glyph glyph-name="o" unicode="o" horiz-adv-x="528" 
d="M264 -10q-64 0 -112 31t-75 84t-27 120t27 120t75 84t112 31t112 -31t75 -84t27 -120t-27 -120t-75 -84t-112 -31zM278 25q43 0 71 26t41.5 67t13.5 87q0 58 -16.5 108.5t-50 81.5t-85.5 31q-43 0 -71.5 -25t-42.5 -66t-14 -89q0 -58 17 -108.5t51 -81.5t86 -31z" />
    <glyph glyph-name="p" unicode="p" horiz-adv-x="558" 
d="M52 -230v16l63 25v562l-65 34v11l117 42h8l6 -61h6q39 32 74 46.5t76 14.5q50 0 89.5 -26t61.5 -73.5t22 -113.5q0 -82 -31 -139.5t-83 -87.5t-115 -30q-27 0 -51.5 4t-46.5 12v-195l71 -25v-16h-202zM293 405q-59 0 -110 -38v-297q30 -22 60.5 -31.5t68.5 -9.5
q35 0 65.5 19t48.5 61.5t18 111.5q0 64 -21 104.5t-55.5 60t-74.5 19.5z" />
    <glyph glyph-name="q" unicode="q" horiz-adv-x="545" 
d="M302 -230v16l74 23v242h-5q-38 -33 -74.5 -47t-74.5 -14q-51 0 -90 25t-61.5 71.5t-22.5 111.5q0 83 32.5 142t87 89.5t118.5 30.5q31 0 58.5 -7.5t55.5 -19.5l36 27h7v-649l63 -25v-16h-204zM114 218q0 -60 21 -98.5t55.5 -56.5t74.5 -18q26 0 54.5 9t56.5 29v245
q0 26 -1 37.5t-4.5 16t-9.5 9.5q-23 16 -48.5 22.5t-54.5 6.5q-39 0 -71.5 -20t-52.5 -64.5t-20 -117.5z" />
    <glyph glyph-name="r" unicode="r" horiz-adv-x="382" 
d="M56 0v16l63 25v332l-65 34v11l117 42h8l8 -95h2q47 54 77.5 73.5t57.5 19.5q19 0 31 -8.5t12 -25.5q0 -3 -0.5 -8.5t-2.5 -13.5l-5 -29l-96 17q-45 -21 -76 -64v-285l73 -25v-16h-204z" />
    <glyph glyph-name="s" unicode="s" horiz-adv-x="421" 
d="M200 -10q-42 0 -73.5 7.5t-63.5 24.5v109h13l25 -51q13 -29 37.5 -44t63.5 -15q43 0 67 21t24 58q0 41 -26.5 60.5t-80.5 43.5q-55 24 -83 51.5t-28 78.5q0 35 19.5 63.5t50.5 45.5t65 17q37 0 67.5 -9t57.5 -23v-106h-13l-25 49q-14 30 -37 43.5t-48 13.5
q-36 0 -56.5 -19.5t-20.5 -52.5q0 -35 23.5 -54t71.5 -40q34 -15 62 -30.5t44.5 -40.5t16.5 -69q0 -40 -22 -69.5t-57 -46t-74 -16.5z" />
    <glyph glyph-name="t" unicode="t" horiz-adv-x="344" 
d="M204 -10q-43 0 -72.5 26t-29.5 73v319h-84v8l89 34l55 110h8v-110h132v-42h-132v-308q0 -28 21.5 -41.5t52.5 -13.5q20 0 37 3t31 9l2 -1v-7q-9 -20 -37 -39.5t-73 -19.5z" />
    <glyph glyph-name="u" unicode="u" horiz-adv-x="548" 
d="M230 -10q-59 0 -97.5 31.5t-38.5 93.5v294l-66 25v16h134v-296q0 -51 29 -77.5t76 -26.5q27 0 60 11t53 33v315l-75 25v16h143v-410l71 -24v-16h-139v62h-4q-37 -37 -71 -54.5t-75 -17.5z" />
    <glyph glyph-name="v" unicode="v" horiz-adv-x="457" 
d="M218 -2l-175 410l-66 26v16h220v-16l-80 -24v-5l129 -308h3l119 304v5l-76 28v16h188v-16l-69 -28l-177 -408h-16z" />
    <glyph glyph-name="w" unicode="w" horiz-adv-x="722" 
d="M192 -2l-150 410l-65 26v16h220v-16l-80 -24v-5l105 -306h3l142 351h18l142 -348h3l103 299v5l-76 28v16h188v-16l-70 -28l-158 -408h-17l-143 342l-148 -342h-17z" />
    <glyph glyph-name="x" unicode="x" horiz-adv-x="484" 
d="M26 0v16l56 27l129 181l-128 185l-52 25v16h195v-16l-66 -24v-5l96 -138l85 134v5l-56 28v16h156v-16l-54 -29l-116 -160l142 -204l45 -25v-16h-182v16l59 24v5l-108 156l-95 -152v-5l59 -28v-16h-165z" />
    <glyph glyph-name="y" unicode="y" horiz-adv-x="457" 
d="M-23 450h220v-16l-80 -25v-4l133 -312h3l116 308v5l-77 28v16h188v-16l-70 -27l-216 -531q-26 -65 -54.5 -90.5t-69.5 -25.5q-23 0 -30 6.5t-7 30.5v34h94q16 21 31 50t41 88l18 40l-175 399l-65 26v16z" />
    <glyph glyph-name="z" unicode="z" horiz-adv-x="470" 
d="M70 0v18l231 396h-172l-44 -100h-16l11 145h5q12 -3 29.5 -6t29.5 -3h243v-18l-231 -396h189l33 103h17v-139h-325z" />
    <glyph glyph-name="braceleft" unicode="{" horiz-adv-x="242" 
d="M218 -150q-80 0 -116 37t-36 96q0 42 11.5 78t23.5 70t12 68t-19 60t-67 26h-22v21h22q48 0 67 26t19 59q0 34 -12 68t-23.5 70.5t-11.5 77.5q0 59 36 96t116 37h19v-21h-27q-46 0 -68.5 -26t-22.5 -68q0 -39 11 -74.5t22 -69t11 -68.5q0 -37 -16.5 -67t-60.5 -51
q44 -21 60.5 -51t16.5 -67q0 -34 -11 -68t-22 -69.5t-11 -74.5q0 -42 22.5 -68t68.5 -26h27v-21h-19z" />
    <glyph glyph-name="bar" unicode="|" horiz-adv-x="242" 
d="M100 -250v1000h42v-1000h-42z" />
    <glyph glyph-name="braceright" unicode="}" horiz-adv-x="242" 
d="M24 -150h-19v21h27q46 0 68.5 26t22.5 68q0 39 -11 74.5t-22 69.5t-11 68q0 37 16.5 67t60.5 51q-44 21 -60.5 51t-16.5 67q0 35 11 68.5t22 69t11 74.5q0 42 -22.5 68t-68.5 26h-27v21h19q80 0 116 -37t36 -96q0 -41 -12 -77.5t-23.5 -70.5t-11.5 -68q0 -33 18.5 -59
t67.5 -26h22v-21h-22q-49 0 -67.5 -26t-18.5 -60t11.5 -68t23.5 -70t12 -78q0 -59 -36 -96t-116 -37z" />
    <glyph glyph-name="asciitilde" unicode="~" 
d="M40 201q0 68 30.5 105t81.5 37q37 0 62.5 -15t45.5 -35t40.5 -35t48.5 -15q68 0 68 100h43q0 -67 -30.5 -104.5t-81.5 -37.5q-37 0 -62.5 15t-45.5 35t-40.5 35t-48.5 15q-32 0 -50 -26t-18 -74h-43z" />
    <glyph glyph-name="uni00A0" unicode="&#xa0;" horiz-adv-x="250" 
 />
    <glyph glyph-name="exclamdown" unicode="&#xa1;" horiz-adv-x="250" 
d="M125 350q-22 0 -38 16.5t-16 38.5q0 21 16 38t38 17t38 -17t16 -38q0 -22 -16 -38.5t-38 -16.5zM78 -205l37 468h20l37 -468h-94z" />
    <glyph glyph-name="cent" unicode="&#xa2;" 
d="M171 26l20 82q-63 22 -97 76.5t-34 130.5q0 73 31 129.5t85.5 89t124.5 32.5h3l17 69h36l-18 -73q46 -8 73.5 -30t27.5 -41q0 -12 -16 -26l-30 -25l-65 81l-88 -354q28 -8 61 -8q35 0 69.5 12t65.5 35h3v-22q-23 -36 -66.5 -62t-102.5 -26q-24 0 -46 3l-18 -73h-36z
M127 342q0 -53 20 -95.5t62 -65.5l87 351q-49 0 -87 -23.5t-60 -66.5t-22 -100z" />
    <glyph glyph-name="sterling" unicode="&#xa3;" 
d="M42 317v34h87v118q0 37 17 72.5t46 64t67 46t80 17.5q52 0 81.5 -17t29.5 -36q0 -11 -14 -27l-26 -30l-74 73q-6 1 -12 1q-57 0 -90.5 -41t-33.5 -117v-124h164v-34h-164v-92q0 -28 -11.5 -52.5t-45.5 -68.5l-28 -36h263l50 98h18l-27 -166h-369l-5 21l47 67q15 22 23 38
t11 32.5t3 40.5v118h-87z" />
    <glyph glyph-name="currency" unicode="&#xa4;" 
d="M40 92l84 84q-15 20 -24 44.5t-9 51.5t9 51.5t24 44.5l-84 84l30 30l84 -84q20 15 44.5 24t51.5 9t51.5 -9t44.5 -24l84 84l30 -30l-84 -84q15 -20 24 -44.5t9 -51.5t-9 -51.5t-24 -44.5l84 -84l-30 -30l-84 84q-20 -15 -44.5 -24t-51.5 -9t-51.5 9t-44.5 24l-84 -84z
M250 152q49 0 82 34.5t33 85.5t-33 85.5t-82 34.5t-82 -34.5t-33 -85.5t33 -85.5t82 -34.5z" />
    <glyph glyph-name="yen" unicode="&#xa5;" 
d="M127 0v20l85 30v191h-133v35h133v115h-133v35h109l-146 201l-33 13v20h192v-20l-61 -18v-2l128 -186l116 181v3l-62 22v20h169v-20l-48 -18l-137 -196h109v-35h-132v-115h132v-35h-132v-191l85 -30v-20h-241z" />
    <glyph glyph-name="brokenbar" unicode="&#xa6;" horiz-adv-x="242" 
d="M100 350v400h42v-400h-42zM100 -250v400h42v-400h-42z" />
    <glyph glyph-name="section" unicode="&#xa7;" horiz-adv-x="485" 
d="M295 670q30 0 55 -9.5t40.5 -22.5t15.5 -25q0 -8 -6 -15l-31 -37l-92 74q-53 -3 -89 -33.5t-36 -71.5q0 -26 11.5 -45.5t43 -34.5t91.5 -28q59 -12 92 -30.5t46.5 -44.5t13.5 -59q0 -47 -27.5 -81.5t-79.5 -53.5q28 -19 39.5 -44.5t11.5 -58.5q0 -46 -29.5 -84.5
t-76.5 -62t-101 -23.5q-29 0 -55 9.5t-42 22.5t-16 26q0 7 7 15l32 39l94 -77q36 1 66 16t47.5 38.5t17.5 50.5q0 28 -12.5 49t-45.5 37.5t-92 28.5q-90 18 -123 52.5t-33 86.5q0 47 29 80.5t79 52.5q-25 18 -35.5 43.5t-10.5 58.5q0 45 29 81.5t75 58t97 21.5zM240 190
q40 -8 68 -19q36 7 60.5 31t24.5 55q0 27 -11.5 47t-43 34.5t-89.5 26.5q-47 9 -78 24q-38 -8 -59 -32t-21 -57q0 -27 12.5 -47.5t44.5 -35.5t92 -27z" />
    <glyph glyph-name="dieresis" unicode="&#xa8;" horiz-adv-x="377" 
d="M96 571q-19 0 -32.5 13.5t-13.5 32.5t13.5 32.5t32.5 13.5q20 0 33 -13.5t13 -32.5t-13 -32.5t-33 -13.5zM282 571q-20 0 -33 13.5t-13 32.5t13 32.5t33 13.5q19 0 32.5 -13.5t13.5 -32.5t-13.5 -32.5t-32.5 -13.5z" />
    <glyph glyph-name="copyright" unicode="&#xa9;" horiz-adv-x="806" 
d="M403 -10q-72 0 -132.5 25.5t-105.5 71t-70 108t-25 135.5q0 74 25 136t70 107.5t105.5 71t132.5 25.5t132.5 -25.5t105.5 -71t70 -107.5t25 -136q0 -73 -25 -135.5t-70 -108t-105.5 -71t-132.5 -25.5zM403 22q85 0 152.5 40t106.5 109.5t39 158.5t-39 158.5t-106.5 109.5
t-152.5 40t-152.5 -40t-106.5 -109.5t-39 -158.5t39 -158.5t106.5 -109.5t152.5 -40zM416 129q-63 0 -108 25.5t-69 70t-24 100.5q0 59 28.5 107.5t75.5 78t103 29.5q42 0 68 -8t54 -22l4 -107h-25l-30 72q-20 14 -36.5 20.5t-36.5 6.5q-43 0 -76 -21t-51.5 -57.5
t-18.5 -83.5q0 -80 40.5 -126.5t101.5 -46.5q25 0 44 5.5t37 16.5l33 70h24l-7 -99q-27 -13 -58 -22t-73 -9z" />
    <glyph glyph-name="ordfeminine" unicode="&#xaa;" horiz-adv-x="392" 
d="M142 417q-25 0 -42.5 15.5t-17.5 42.5q0 28 18 45.5t66 29.5l52 14v36q0 21 -12 32t-32 11q-8 0 -17 -1.5t-19 -7.5v-47h-35q-14 0 -14 15t14.5 31t37 26t47.5 10q40 0 63.5 -15.5t23.5 -47.5v-150q8 -8 25 -8h21l1 -2v-4q-5 -10 -17.5 -17.5t-33.5 -7.5q-41 0 -51 34h-3
q-14 -15 -32.5 -24.5t-42.5 -9.5zM138 487q0 -34 39 -34q17 0 41 11v79q-51 -10 -65.5 -23t-14.5 -33zM84 297v41h224v-41h-224z" />
    <glyph glyph-name="guillemotleft" unicode="&#xab;" horiz-adv-x="407" 
d="M208 70l-178 177l178 177h12l-109 -177l109 -177h-12zM365 70l-178 177l178 177h12l-109 -177l109 -177h-12z" />
    <glyph glyph-name="logicalnot" unicode="&#xac;" 
d="M418 62v190h-378v40h420v-230h-42z" />
    <glyph glyph-name="registered" unicode="&#xae;" horiz-adv-x="540" 
d="M270 238q-61 0 -109 28.5t-75.5 77.5t-27.5 110q0 62 27.5 110.5t75.5 77t109 28.5t109 -28.5t75.5 -77t27.5 -110.5q0 -61 -27.5 -110t-75.5 -77.5t-109 -28.5zM270 265q54 0 94.5 25t63.5 67.5t23 96.5t-23 96.5t-63.5 67.5t-94.5 25t-94.5 -25t-63.5 -67.5t-23 -96.5
t23 -96.5t63.5 -67.5t94.5 -25zM164 329v9l31 12v214l-31 12v8h98q41 0 64 -17t23 -46q0 -22 -15 -39t-39 -26l58 -108l27 -10v-9h-60l-62 119h-25v-98l30 -12v-9h-99zM252 563h-19v-94h22q23 0 38.5 12.5t15.5 34.5q0 23 -15.5 35t-41.5 12z" />
    <glyph glyph-name="macron" unicode="&#xaf;" horiz-adv-x="361" 
d="M50 595v44h262v-44h-262z" />
    <glyph glyph-name="degree" unicode="&#xb0;" 
d="M250 410q-37 0 -66.5 18t-46.5 47.5t-17 64.5t17 64.5t46.5 47.5t66.5 18q38 0 67 -18t46 -47.5t17 -64.5t-17 -64.5t-46 -47.5t-67 -18zM250 445q38 0 65 25.5t27 69.5t-27 69.5t-65 25.5t-65 -25.5t-27 -69.5t27 -69.5t65 -25.5z" />
    <glyph glyph-name="plusminus" unicode="&#xb1;" 
d="M229 152v140h-189v40h189v150h42v-150h189v-40h-189v-140h-42zM40 67v40h420v-40h-420z" />
    <glyph glyph-name="twosuperior" unicode="&#xb2;" horiz-adv-x="302" 
d="M27 505v18q61 71 96.5 115.5t52.5 72.5t22 47t5 40q0 33 -16 52t-50 19q-36 0 -63 -22v-72h-35q-9 0 -14 3.5t-5 17.5q0 22 18.5 46t49.5 41t70 17q52 0 81 -30t29 -76q0 -24 -7.5 -43.5t-27.5 -44t-57.5 -61.5t-98.5 -96h167l23 59h15l-6 -103h-249z" />
    <glyph glyph-name="threesuperior" unicode="&#xb3;" horiz-adv-x="308" 
d="M148 495q-39 0 -67.5 12t-44.5 30.5t-16 35.5q0 15 5.5 18t16.5 3h33v-53q24 -19 69 -19q39 0 59 22.5t20 58.5q0 42 -21.5 65t-76.5 23h-35v24h16q43 0 70 22.5t27 65.5q0 32 -16.5 49.5t-45.5 17.5q-14 0 -29 -4t-29 -13v-64h-33q-11 0 -15.5 4.5t-4.5 18.5
q0 20 17.5 40.5t47 34t63.5 13.5q49 0 79.5 -25.5t30.5 -67.5q0 -34 -25 -58.5t-66 -35.5q111 -14 111 -103q0 -49 -39.5 -82t-100.5 -33z" />
    <glyph glyph-name="acute" unicode="&#xb4;" horiz-adv-x="258" 
d="M50 530l86 177h87v-14l-161 -163h-12z" />
    <glyph glyph-name="micro" unicode="&#xb5;" horiz-adv-x="544" 
d="M242 -10q-27 0 -53 9t-48 34l18 -246l-66 -17h-2v680h68v-296q0 -55 29 -79.5t75 -24.5q28 0 61 11t53 33v356h68v-394q7 -7 19 -11.5t31 -4.5h44l2 -2v-2q-10 -18 -30.5 -32t-51.5 -14q-36 0 -55.5 20.5t-23.5 52.5h-6q-33 -38 -64 -55.5t-68 -17.5z" />
    <glyph glyph-name="paragraph" unicode="&#xb6;" horiz-adv-x="471" 
d="M257 -110v469h-39q-53 0 -94 20t-65 55.5t-24 79.5q0 76 47.5 111t124.5 35h93v-770h-43zM358 -110v770h123v-20l-79 -30v-720h-44z" />
    <glyph glyph-name="periodcentered" unicode="&#xb7;" horiz-adv-x="250" 
d="M125 217q-22 0 -38 16t-16 38t16 38.5t38 16.5t38 -16.5t16 -38.5t-16 -38t-38 -16z" />
    <glyph glyph-name="cedilla" unicode="&#xb8;" 
d="M241 -240q-51 0 -76 27v12h3q27 -14 62 -14q31 0 44 12.5t13 31.5q0 26 -25 41.5t-83 32.5l59 113h29l-39 -75q52 -16 79.5 -37.5t27.5 -60.5q0 -36 -24.5 -59.5t-69.5 -23.5z" />
    <glyph glyph-name="onesuperior" unicode="&#xb9;" horiz-adv-x="256" 
d="M68 505v15l54 17v299l-107 -58v24l140 88h28v-353l48 -17v-15h-163z" />
    <glyph glyph-name="ordmasculine" unicode="&#xba;" horiz-adv-x="393" 
d="M197 417q-53 0 -87.5 36.5t-34.5 89.5t33.5 89.5t88.5 36.5q54 0 87.5 -36.5t33.5 -89.5t-34 -89.5t-87 -36.5zM203 440q27 0 41 25t14 67q0 50 -17.5 82.5t-49.5 32.5q-26 0 -41 -25t-15 -68q0 -50 18.5 -82t49.5 -32zM85 297v41h223v-41h-223z" />
    <glyph glyph-name="guillemotright" unicode="&#xbb;" horiz-adv-x="407" 
d="M30 70l109 177l-109 177h12l178 -177l-178 -177h-12zM187 70l109 177l-109 177h12l178 -177l-178 -177h-12z" />
    <glyph glyph-name="onequarter" unicode="&#xbc;" horiz-adv-x="709" 
d="M97 355v15l54 17v299l-107 -58v24l140 88h28v-353l48 -17v-15h-163zM119 11l470 739l32 -21l-471 -739zM484 0v15l54 17v76h-167v13l200 264h28v-243h70v-34h-70v-76l49 -17v-15h-164zM421 142h117v157z" />
    <glyph glyph-name="onehalf" unicode="&#xbd;" horiz-adv-x="709" 
d="M93 355v15l54 17v299l-107 -58v24l140 88h28v-353l48 -17v-15h-163zM81 11l470 739l32 -21l-471 -739zM404 0v18q61 71 96.5 115.5t52.5 72.5t22 47t5 40q0 33 -16 52t-50 19q-36 0 -63 -22v-72h-35q-9 0 -14 3.5t-5 17.5q0 22 18.5 46t49.5 41t70 17q52 0 81 -30t29 -76
q0 -24 -7.5 -43.5t-27.5 -44t-57.5 -61.5t-98.5 -96h167l23 59h15l-6 -103h-249z" />
    <glyph glyph-name="threequarters" unicode="&#xbe;" horiz-adv-x="717" 
d="M156 345q-39 0 -67.5 12t-44.5 30.5t-16 35.5q0 15 5.5 18t16.5 3h33v-53q24 -19 69 -19q39 0 59 22.5t20 58.5q0 42 -21.5 65t-76.5 23h-35v24h16q43 0 70 22.5t27 65.5q0 32 -16.5 49.5t-45.5 17.5q-14 0 -29 -4t-29 -13v-64h-33q-11 0 -15.5 4.5t-4.5 18.5
q0 20 17.5 40.5t47 34t63.5 13.5q49 0 79.5 -25.5t30.5 -67.5q0 -34 -25 -58.5t-66 -35.5q111 -14 111 -103q0 -49 -39.5 -82t-100.5 -33zM142 11l470 739l32 -21l-471 -739zM514 0v15l54 17v76h-167v13l200 264h28v-243h70v-34h-70v-76l49 -17v-15h-164zM451 142h117v157z
" />
    <glyph glyph-name="questiondown" unicode="&#xbf;" horiz-adv-x="475" 
d="M260 460q22 0 38 -17t16 -38q0 -22 -16 -38.5t-38 -16.5t-38.5 16.5t-16.5 38.5q0 21 16.5 38t38.5 17zM270 255l21 -140q-78 -27 -119.5 -64.5t-41.5 -95.5q0 -65 34.5 -95t81.5 -30q55 0 104 35v97h50q16 0 22 -6.5t6 -28.5q0 -32 -28 -65t-74 -55t-99 -22
q-51 0 -90 23t-61 62.5t-22 88.5q0 62 41.5 113.5t145.5 97.5l8 85h21z" />
    <glyph glyph-name="Agrave" unicode="&#xc0;" horiz-adv-x="733" 
d="M33 0v20l59 24l256 621h35l253 -619l64 -26v-20h-233v20l86 26l-78 195h-247l-77 -196l86 -25v-20h-204zM246 288h210l-106 263zM372 710h-14l-155 138v14h86z" />
    <glyph glyph-name="Aacute" unicode="&#xc1;" horiz-adv-x="733" 
d="M33 0v20l59 24l256 621h35l253 -619l64 -26v-20h-233v20l86 26l-78 195h-247l-77 -196l86 -25v-20h-204zM246 288h210l-106 263zM361 710l83 152h86v-14l-155 -138h-14z" />
    <glyph glyph-name="Acircumflex" unicode="&#xc2;" horiz-adv-x="733" 
d="M33 0v20l59 24l256 621h35l253 -619l64 -26v-20h-233v20l86 26l-78 195h-247l-77 -196l86 -25v-20h-204zM246 288h210l-106 263zM224 710l129 152h26l129 -152h-12l-130 86l-130 -86h-12z" />
    <glyph glyph-name="Atilde" unicode="&#xc3;" horiz-adv-x="733" 
d="M33 0v20l59 24l256 621h35l253 -619l64 -26v-20h-233v20l86 26l-78 195h-247l-77 -196l86 -25v-20h-204zM246 288h210l-106 263zM219 728q15 48 29 72.5t28.5 33t32.5 8.5q26 0 47 -15.5t41 -31t41 -15.5q19 0 33.5 13.5t28.5 48.5h13q-15 -49 -29 -73.5t-28.5 -32.5
t-32.5 -8q-26 0 -47 15.5t-41 30.5t-41 15q-19 0 -33.5 -13t-28.5 -48h-13z" />
    <glyph glyph-name="Adieresis" unicode="&#xc4;" horiz-adv-x="733" 
d="M33 0v20l59 24l256 621h35l253 -619l64 -26v-20h-233v20l86 26l-78 195h-247l-77 -196l86 -25v-20h-204zM246 288h210l-106 263zM273 741q-19 0 -32.5 13t-13.5 32q0 20 13.5 33t32.5 13q20 0 33 -13t13 -33q0 -19 -13 -32t-33 -13zM459 741q-20 0 -33 13t-13 32
q0 20 13 33t33 13q19 0 32.5 -13t13.5 -33q0 -19 -13.5 -32t-32.5 -13z" />
    <glyph glyph-name="Aring" unicode="&#xc5;" horiz-adv-x="733" 
d="M33 0v20l59 24l256 621h35l253 -619l64 -26v-20h-233v20l86 26l-78 195h-247l-77 -196l86 -25v-20h-204zM246 288h210l-106 263zM366 710q-38 0 -61.5 23t-23.5 59q0 34 23.5 58t61.5 24t61.5 -24t23.5 -58q0 -36 -23.5 -59t-61.5 -23zM371 732q35 0 35 53q0 67 -44 67
q-16 0 -25 -12t-9 -41q0 -67 43 -67z" />
    <glyph glyph-name="AE" unicode="&#xc6;" horiz-adv-x="956" 
d="M455 660h403v-168h-17l-54 121h-244v-249h175l40 83h17v-211h-17l-40 81h-175v-270h272l54 131h17v-178h-500v20l79 30v191h-202l-113 -195l83 -26v-20h-203v20l61 26zM290 288h175v302z" />
    <glyph glyph-name="Ccedilla" unicode="&#xc7;" horiz-adv-x="721" 
d="M385 -215q31 0 44 12.5t13 31.5q0 26 -25 41.5t-83 32.5l45 87q-93 4 -162.5 47t-108 114t-38.5 161q0 73 27 137.5t74.5 114.5t109.5 78t132 28q49 0 83.5 -6.5t62 -17.5t54.5 -24l5 -167h-19l-52 119q-38 27 -69.5 40.5t-69.5 13.5q-75 0 -134 -37t-93 -101t-34 -144
q0 -96 34 -166.5t92 -108.5t129 -38q51 0 86.5 13.5t63.5 32.5l59 115h18l-10 -155q-28 -14 -57.5 -25t-66 -17t-87.5 -7l-25 -49q52 -16 79.5 -37.5t27.5 -60.5q0 -36 -24.5 -59.5t-69.5 -23.5q-51 0 -77 27v12h3q28 -14 63 -14z" />
    <glyph glyph-name="Egrave" unicode="&#xc8;" horiz-adv-x="635" 
d="M65 0v20l79 30v560l-79 30v20h472v-168h-17l-54 121h-244v-249h175l40 83h17v-211h-17l-40 81h-175v-270h272l54 131h17v-178h-500zM338 710h-14l-155 138v14h86z" />
    <glyph glyph-name="Eacute" unicode="&#xc9;" horiz-adv-x="635" 
d="M65 0v20l79 30v560l-79 30v20h472v-168h-17l-54 121h-244v-249h175l40 83h17v-211h-17l-40 81h-175v-270h272l54 131h17v-178h-500zM327 710l83 152h86v-14l-155 -138h-14z" />
    <glyph glyph-name="Ecircumflex" unicode="&#xca;" horiz-adv-x="635" 
d="M65 0v20l79 30v560l-79 30v20h472v-168h-17l-54 121h-244v-249h175l40 83h17v-211h-17l-40 81h-175v-270h272l54 131h17v-178h-500zM190 710l129 152h26l129 -152h-12l-130 86l-130 -86h-12z" />
    <glyph glyph-name="Edieresis" unicode="&#xcb;" horiz-adv-x="635" 
d="M65 0v20l79 30v560l-79 30v20h472v-168h-17l-54 121h-244v-249h175l40 83h17v-211h-17l-40 81h-175v-270h272l54 131h17v-178h-500zM239 741q-19 0 -32.5 13t-13.5 32q0 20 13.5 33t32.5 13q20 0 33 -13t13 -33q0 -19 -13 -32t-33 -13zM425 741q-20 0 -33 13t-13 32
q0 20 13 33t33 13q19 0 32.5 -13t13.5 -33q0 -19 -13.5 -32t-32.5 -13z" />
    <glyph glyph-name="Igrave" unicode="&#xcc;" horiz-adv-x="376" 
d="M70 0v20l79 30v560l-79 30v20h236v-20l-79 -30v-560l79 -30v-20h-236zM194 710h-14l-155 138v14h86z" />
    <glyph glyph-name="Iacute" unicode="&#xcd;" horiz-adv-x="376" 
d="M70 0v20l79 30v560l-79 30v20h236v-20l-79 -30v-560l79 -30v-20h-236zM182 710l83 152h86v-14l-155 -138h-14z" />
    <glyph glyph-name="Icircumflex" unicode="&#xce;" horiz-adv-x="376" 
d="M70 0v20l79 30v560l-79 30v20h236v-20l-79 -30v-560l79 -30v-20h-236zM46 710l129 152h26l129 -152h-12l-130 86l-130 -86h-12z" />
    <glyph glyph-name="Idieresis" unicode="&#xcf;" horiz-adv-x="376" 
d="M70 0v20l79 30v560l-79 30v20h236v-20l-79 -30v-560l79 -30v-20h-236zM95 741q-19 0 -32.5 13t-13.5 32q0 20 13.5 33t32.5 13q20 0 33 -13t13 -33q0 -19 -13 -32t-33 -13zM281 741q-20 0 -33 13t-13 32q0 20 13 33t33 13q19 0 32.5 -13t13.5 -33q0 -19 -13.5 -32
t-32.5 -13z" />
    <glyph glyph-name="Eth" unicode="&#xd0;" horiz-adv-x="750" 
d="M65 0v20l80 30v270h-80v44h80v246l-80 30v20h268q111 0 188.5 -39t118 -107t40.5 -154q0 -107 -45 -188t-124.5 -126.5t-184.5 -45.5h-261zM394 320h-171v-273h111q81 0 140 35t91.5 98.5t32.5 148.5q0 86 -32 150t-93.5 99t-149.5 35h-100v-249h171v-44z" />
    <glyph glyph-name="Ntilde" unicode="&#xd1;" horiz-adv-x="793" 
d="M62 0v20l79 30v559l-78 31v20h140l392 -508v459l-94 29v20h230v-20l-79 -30v-615h-31l-422 545v-489l96 -31v-20h-233zM256 728q15 48 29 72.5t28.5 33t32.5 8.5q26 0 47 -15.5t41 -31t41 -15.5q19 0 33.5 13.5t28.5 48.5h13q-15 -49 -29 -73.5t-28.5 -32.5t-32.5 -8
q-26 0 -47 15.5t-41 30.5t-41 15q-19 0 -33.5 -13t-28.5 -48h-13z" />
    <glyph glyph-name="Ograve" unicode="&#xd2;" horiz-adv-x="791" 
d="M395 -10q-70 0 -129.5 25.5t-103 71t-68 108t-24.5 135.5q0 74 24.5 136t68 107.5t103 71t129.5 25.5t129.5 -25.5t103.5 -71t68.5 -107.5t24.5 -136q0 -73 -24.5 -135.5t-68.5 -108t-103.5 -71t-129.5 -25.5zM416 32q66 0 116 33t78 93t28 141q0 100 -35 174t-94 115
t-131 41q-66 0 -117 -32.5t-79.5 -92.5t-28.5 -141q0 -100 35 -174.5t95 -115.5t133 -41zM394 710h-14l-155 138v14h86z" />
    <glyph glyph-name="Oacute" unicode="&#xd3;" horiz-adv-x="791" 
d="M395 -10q-70 0 -129.5 25.5t-103 71t-68 108t-24.5 135.5q0 74 24.5 136t68 107.5t103 71t129.5 25.5t129.5 -25.5t103.5 -71t68.5 -107.5t24.5 -136q0 -73 -24.5 -135.5t-68.5 -108t-103.5 -71t-129.5 -25.5zM416 32q66 0 116 33t78 93t28 141q0 100 -35 174t-94 115
t-131 41q-66 0 -117 -32.5t-79.5 -92.5t-28.5 -141q0 -100 35 -174.5t95 -115.5t133 -41zM383 710l83 152h86v-14l-155 -138h-14z" />
    <glyph glyph-name="Ocircumflex" unicode="&#xd4;" horiz-adv-x="791" 
d="M395 -10q-70 0 -129.5 25.5t-103 71t-68 108t-24.5 135.5q0 74 24.5 136t68 107.5t103 71t129.5 25.5t129.5 -25.5t103.5 -71t68.5 -107.5t24.5 -136q0 -73 -24.5 -135.5t-68.5 -108t-103.5 -71t-129.5 -25.5zM416 32q66 0 116 33t78 93t28 141q0 100 -35 174t-94 115
t-131 41q-66 0 -117 -32.5t-79.5 -92.5t-28.5 -141q0 -100 35 -174.5t95 -115.5t133 -41zM246 710l129 152h26l129 -152h-12l-130 86l-130 -86h-12z" />
    <glyph glyph-name="Otilde" unicode="&#xd5;" horiz-adv-x="791" 
d="M395 -10q-70 0 -129.5 25.5t-103 71t-68 108t-24.5 135.5q0 74 24.5 136t68 107.5t103 71t129.5 25.5t129.5 -25.5t103.5 -71t68.5 -107.5t24.5 -136q0 -73 -24.5 -135.5t-68.5 -108t-103.5 -71t-129.5 -25.5zM416 32q66 0 116 33t78 93t28 141q0 100 -35 174t-94 115
t-131 41q-66 0 -117 -32.5t-79.5 -92.5t-28.5 -141q0 -100 35 -174.5t95 -115.5t133 -41zM241 728q15 48 29 72.5t28.5 33t32.5 8.5q26 0 47 -15.5t41 -31t41 -15.5q19 0 33.5 13.5t28.5 48.5h13q-15 -49 -29 -73.5t-28.5 -32.5t-32.5 -8q-26 0 -47 15.5t-41 30.5t-41 15
q-19 0 -33.5 -13t-28.5 -48h-13z" />
    <glyph glyph-name="Odieresis" unicode="&#xd6;" horiz-adv-x="791" 
d="M395 -10q-70 0 -129.5 25.5t-103 71t-68 108t-24.5 135.5q0 74 24.5 136t68 107.5t103 71t129.5 25.5t129.5 -25.5t103.5 -71t68.5 -107.5t24.5 -136q0 -73 -24.5 -135.5t-68.5 -108t-103.5 -71t-129.5 -25.5zM416 32q66 0 116 33t78 93t28 141q0 100 -35 174t-94 115
t-131 41q-66 0 -117 -32.5t-79.5 -92.5t-28.5 -141q0 -100 35 -174.5t95 -115.5t133 -41zM295 741q-19 0 -32.5 13t-13.5 32q0 20 13.5 33t32.5 13q20 0 33 -13t13 -33q0 -19 -13 -32t-33 -13zM481 741q-20 0 -33 13t-13 32q0 20 13 33t33 13q19 0 32.5 -13t13.5 -33
q0 -19 -13.5 -32t-32.5 -13z" />
    <glyph glyph-name="multiply" unicode="&#xd7;" 
d="M98 90l-30 30l152 152l-152 152l30 30l152 -152l152 152l30 -30l-152 -152l152 -152l-30 -30l-152 152z" />
    <glyph glyph-name="Oslash" unicode="&#xd8;" horiz-adv-x="791" 
d="M70 -10l88 101q-41 46 -64.5 106.5t-23.5 132.5q0 74 24.5 136t68 107.5t103 71t129.5 25.5q59 0 111 -18.5t93 -51.5l60 70h62l-88 -101q41 -46 64.5 -106.5t23.5 -132.5q0 -73 -24.5 -135.5t-68.5 -108t-103.5 -71t-129.5 -25.5q-59 0 -110.5 18t-92.5 52l-60 -70h-62z
M153 363q0 -64 14.5 -117.5t41.5 -95.5l345 399q-35 38 -80 59t-96 21q-66 0 -117 -32.5t-79.5 -92.5t-28.5 -141zM416 32q66 0 116 33t78 93t28 141q0 63 -14.5 116.5t-40.5 95.5l-345 -398q35 -39 80.5 -60t97.5 -21z" />
    <glyph glyph-name="Ugrave" unicode="&#xd9;" horiz-adv-x="797" 
d="M399 -10q-73 0 -130.5 27t-90.5 84t-33 148v361l-80 30v20h238v-20l-80 -30v-347q0 -83 25.5 -131.5t70 -69.5t103.5 -21q47 0 86.5 20t63 62t23.5 109v380l-100 28v20h237v-20l-79 -29v-362q0 -91 -33.5 -148t-90.5 -84t-130 -27zM415 710h-14l-155 138v14h86z" />
    <glyph glyph-name="Uacute" unicode="&#xda;" horiz-adv-x="797" 
d="M399 -10q-73 0 -130.5 27t-90.5 84t-33 148v361l-80 30v20h238v-20l-80 -30v-347q0 -83 25.5 -131.5t70 -69.5t103.5 -21q47 0 86.5 20t63 62t23.5 109v380l-100 28v20h237v-20l-79 -29v-362q0 -91 -33.5 -148t-90.5 -84t-130 -27zM404 710l83 152h86v-14l-155 -138h-14z
" />
    <glyph glyph-name="Ucircumflex" unicode="&#xdb;" horiz-adv-x="797" 
d="M399 -10q-73 0 -130.5 27t-90.5 84t-33 148v361l-80 30v20h238v-20l-80 -30v-347q0 -83 25.5 -131.5t70 -69.5t103.5 -21q47 0 86.5 20t63 62t23.5 109v380l-100 28v20h237v-20l-79 -29v-362q0 -91 -33.5 -148t-90.5 -84t-130 -27zM267 710l129 152h26l129 -152h-12
l-130 86l-130 -86h-12z" />
    <glyph glyph-name="Udieresis" unicode="&#xdc;" horiz-adv-x="797" 
d="M399 -10q-73 0 -130.5 27t-90.5 84t-33 148v361l-80 30v20h238v-20l-80 -30v-347q0 -83 25.5 -131.5t70 -69.5t103.5 -21q47 0 86.5 20t63 62t23.5 109v380l-100 28v20h237v-20l-79 -29v-362q0 -91 -33.5 -148t-90.5 -84t-130 -27zM316 741q-19 0 -32.5 13t-13.5 32
q0 20 13.5 33t32.5 13q20 0 33 -13t13 -33q0 -19 -13 -32t-33 -13zM502 741q-20 0 -33 13t-13 32q0 20 13 33t33 13q19 0 32.5 -13t13.5 -33q0 -19 -13.5 -32t-32.5 -13z" />
    <glyph glyph-name="Yacute" unicode="&#xdd;" horiz-adv-x="706" 
d="M228 0v20l90 30v261l-220 302l-63 27v20h228v-20l-70 -26v-4l183 -255l166 254v4l-73 27v20h202v-20l-64 -24l-211 -307v-259l90 -30v-20h-258zM361 710l83 152h86v-14l-155 -138h-14z" />
    <glyph glyph-name="Thorn" unicode="&#xde;" horiz-adv-x="613" 
d="M65 0v20l79 30v560l-79 30v20h236v-20l-79 -30v-74h78q117 0 189 -43t72 -136q0 -55 -36.5 -98t-99.5 -67.5t-145 -24.5h-58v-117l79 -30v-20h-236zM296 489h-74v-275h81q79 0 126 37.5t47 97.5q0 74 -47.5 107t-132.5 33z" />
    <glyph glyph-name="germandbls" unicode="&#xdf;" horiz-adv-x="594" 
d="M64 0v16l63 25v367h-82v42h82v30q0 51 15 99t44 87t70.5 61.5t94.5 22.5q67 0 107 -37.5t40 -89.5q0 -31 -12.5 -57t-32 -48.5t-38.5 -45t-32 -47.5t-13 -54q0 -28 24 -49t74 -60q51 -40 72 -69t21 -69q0 -37 -20.5 -67.5t-53.5 -48.5t-72 -18q-42 0 -74 7.5t-66 24.5
v109h13l25 -52q14 -32 40 -45t59 -13q38 0 63.5 20t25.5 60q0 28 -15 49t-39.5 40.5t-54.5 42.5q-34 25 -58.5 50.5t-24.5 69.5q0 27 12.5 48t31 41t37 43t31 52.5t12.5 70.5q0 42 -28.5 72t-82.5 30q-69 0 -98 -43.5t-29 -114.5v-552h-131z" />
    <glyph glyph-name="agrave" unicode="&#xe0;" horiz-adv-x="474" 
d="M156 -10q-47 0 -78 27.5t-31 76.5q0 48 36 82.5t119 54.5l97 24v77q0 38 -27.5 63t-63.5 25q-17 0 -33.5 -4t-38.5 -16v-89h-51q-16 0 -22 6t-6 24q0 27 24.5 54.5t64.5 46t85 18.5q67 0 101 -28.5t34 -80.5v-295q8 -7 20 -11.5t31 -4.5h44l2 -2v-2q-10 -18 -30.5 -32
t-51.5 -14q-33 0 -52 17t-26 43h-4q-26 -25 -63.5 -42.5t-79.5 -17.5zM114 113q0 -35 21 -52.5t59 -17.5q25 0 50.5 6t54.5 20v157q-81 -16 -120.5 -32.5t-52 -36t-12.5 -44.5zM227 530h-12l-161 163v14h87z" />
    <glyph glyph-name="aacute" unicode="&#xe1;" horiz-adv-x="474" 
d="M156 -10q-47 0 -78 27.5t-31 76.5q0 48 36 82.5t119 54.5l97 24v77q0 38 -27.5 63t-63.5 25q-17 0 -33.5 -4t-38.5 -16v-89h-51q-16 0 -22 6t-6 24q0 27 24.5 54.5t64.5 46t85 18.5q67 0 101 -28.5t34 -80.5v-295q8 -7 20 -11.5t31 -4.5h44l2 -2v-2q-10 -18 -30.5 -32
t-51.5 -14q-33 0 -52 17t-26 43h-4q-26 -25 -63.5 -42.5t-79.5 -17.5zM114 113q0 -35 21 -52.5t59 -17.5q25 0 50.5 6t54.5 20v157q-81 -16 -120.5 -32.5t-52 -36t-12.5 -44.5zM219 530l86 177h87v-14l-161 -163h-12z" />
    <glyph glyph-name="acircumflex" unicode="&#xe2;" horiz-adv-x="474" 
d="M156 -10q-47 0 -78 27.5t-31 76.5q0 48 36 82.5t119 54.5l97 24v77q0 38 -27.5 63t-63.5 25q-17 0 -33.5 -4t-38.5 -16v-89h-51q-16 0 -22 6t-6 24q0 27 24.5 54.5t64.5 46t85 18.5q67 0 101 -28.5t34 -80.5v-295q8 -7 20 -11.5t31 -4.5h44l2 -2v-2q-10 -18 -30.5 -32
t-51.5 -14q-33 0 -52 17t-26 43h-4q-26 -25 -63.5 -42.5t-79.5 -17.5zM114 113q0 -35 21 -52.5t59 -17.5q25 0 50.5 6t54.5 20v157q-81 -16 -120.5 -32.5t-52 -36t-12.5 -44.5zM79 530l129 177h26l129 -177h-12l-130 106l-130 -106h-12z" />
    <glyph glyph-name="atilde" unicode="&#xe3;" horiz-adv-x="474" 
d="M156 -10q-47 0 -78 27.5t-31 76.5q0 48 36 82.5t119 54.5l97 24v77q0 38 -27.5 63t-63.5 25q-17 0 -33.5 -4t-38.5 -16v-89h-51q-16 0 -22 6t-6 24q0 27 24.5 54.5t64.5 46t85 18.5q67 0 101 -28.5t34 -80.5v-295q8 -7 20 -11.5t31 -4.5h44l2 -2v-2q-10 -18 -30.5 -32
t-51.5 -14q-33 0 -52 17t-26 43h-4q-26 -25 -63.5 -42.5t-79.5 -17.5zM114 113q0 -35 21 -52.5t59 -17.5q25 0 50.5 6t54.5 20v157q-81 -16 -120.5 -32.5t-52 -36t-12.5 -44.5zM74 556q16 52 30 79t28 36t32 9q19 0 36 -11t32 -25.5t30 -25.5t31 -11q19 0 32.5 16.5
t29.5 56.5h13q-16 -52 -30 -79t-28 -36t-32 -9q-19 0 -36 11t-32 25.5t-30 25.5t-31 11q-19 0 -32.5 -16.5t-29.5 -56.5h-13z" />
    <glyph glyph-name="adieresis" unicode="&#xe4;" horiz-adv-x="474" 
d="M156 -10q-47 0 -78 27.5t-31 76.5q0 48 36 82.5t119 54.5l97 24v77q0 38 -27.5 63t-63.5 25q-17 0 -33.5 -4t-38.5 -16v-89h-51q-16 0 -22 6t-6 24q0 27 24.5 54.5t64.5 46t85 18.5q67 0 101 -28.5t34 -80.5v-295q8 -7 20 -11.5t31 -4.5h44l2 -2v-2q-10 -18 -30.5 -32
t-51.5 -14q-33 0 -52 17t-26 43h-4q-26 -25 -63.5 -42.5t-79.5 -17.5zM114 113q0 -35 21 -52.5t59 -17.5q25 0 50.5 6t54.5 20v157q-81 -16 -120.5 -32.5t-52 -36t-12.5 -44.5zM128 571q-19 0 -32.5 13.5t-13.5 32.5t13.5 32.5t32.5 13.5q20 0 33 -13.5t13 -32.5t-13 -32.5
t-33 -13.5zM314 571q-20 0 -33 13.5t-13 32.5t13 32.5t33 13.5q19 0 32.5 -13.5t13.5 -32.5t-13.5 -32.5t-32.5 -13.5z" />
    <glyph glyph-name="aring" unicode="&#xe5;" horiz-adv-x="474" 
d="M156 -10q-47 0 -78 27.5t-31 76.5q0 48 36 82.5t119 54.5l97 24v77q0 38 -27.5 63t-63.5 25q-17 0 -33.5 -4t-38.5 -16v-89h-51q-16 0 -22 6t-6 24q0 27 24.5 54.5t64.5 46t85 18.5q67 0 101 -28.5t34 -80.5v-295q8 -7 20 -11.5t31 -4.5h44l2 -2v-2q-10 -18 -30.5 -32
t-51.5 -14q-33 0 -52 17t-26 43h-4q-26 -25 -63.5 -42.5t-79.5 -17.5zM114 113q0 -35 21 -52.5t59 -17.5q25 0 50.5 6t54.5 20v157q-81 -16 -120.5 -32.5t-52 -36t-12.5 -44.5zM221 700q38 0 61.5 -23.5t23.5 -58.5t-23.5 -58.5t-61.5 -23.5t-61.5 23.5t-23.5 58.5
t23.5 58.5t61.5 23.5zM217 678q-16 0 -25 -12t-9 -41q0 -67 43 -67q35 0 35 53q0 67 -44 67z" />
    <glyph glyph-name="ae" unicode="&#xe6;" horiz-adv-x="732" 
d="M157 -10q-47 0 -78 27.5t-31 76.5q0 48 35.5 82.5t119.5 54.5l96 24v77q0 38 -27 63t-64 25q-16 0 -32.5 -4t-39.5 -16v-89h-50q-16 0 -22 6t-6 24q0 27 24.5 54.5t64 46t85.5 18.5q108 0 130 -74q28 35 66.5 54.5t80.5 19.5q79 0 124.5 -54t48.5 -152l-4 -4h-311v-8
q0 -52 18 -95.5t57 -69.5t101 -26q72 0 136 45h3v-11q-23 -40 -67 -67.5t-103 -27.5q-58 0 -102 21.5t-71 59.5h-6q-29 -35 -74 -58t-102 -23zM495 425q-48 0 -82 -36.5t-43 -102.5h244q-10 70 -39 104.5t-80 34.5zM115 113q0 -35 20.5 -52.5t59.5 -17.5q35 0 68 11.5
t66 32.5q-30 52 -30 124v15q-81 -16 -120.5 -32.5t-51.5 -36t-12 -44.5z" />
    <glyph glyph-name="ccedilla" unicode="&#xe7;" horiz-adv-x="476" 
d="M245 -215q31 0 44.5 12.5t13.5 31.5q0 26 -25.5 41.5t-83.5 32.5l46 88q-90 7 -140 67t-50 152q0 72 31.5 128.5t86 89t124.5 32.5q40 0 71.5 -12.5t49.5 -30t18 -32.5q0 -12 -17 -26l-30 -24l-70 89q-13 3 -28 3q-48 0 -86 -24t-60.5 -67t-22.5 -100q0 -86 46.5 -135.5
t128.5 -49.5q72 0 136 45h3v-11q-22 -39 -64 -66t-98 -29l-26 -49q53 -16 80.5 -37.5t27.5 -60.5q0 -36 -24.5 -59.5t-69.5 -23.5q-52 0 -77 27v12h3q28 -14 62 -14z" />
    <glyph glyph-name="egrave" unicode="&#xe8;" horiz-adv-x="483" 
d="M262 -10q-67 0 -114.5 28t-72.5 77.5t-25 114.5q0 71 29 127.5t77 89.5t104 33q79 0 124 -54t48 -152l-4 -4h-311v-8q0 -52 18 -95.5t57 -69.5t101 -26q72 0 136 45h3v-11q-23 -40 -67 -67.5t-103 -27.5zM245 425q-48 0 -82 -36.5t-43 -102.5h245q-11 70 -40 104.5
t-80 34.5zM264 530h-12l-161 163v14h87z" />
    <glyph glyph-name="eacute" unicode="&#xe9;" horiz-adv-x="483" 
d="M262 -10q-67 0 -114.5 28t-72.5 77.5t-25 114.5q0 71 29 127.5t77 89.5t104 33q79 0 124 -54t48 -152l-4 -4h-311v-8q0 -52 18 -95.5t57 -69.5t101 -26q72 0 136 45h3v-11q-23 -40 -67 -67.5t-103 -27.5zM245 425q-48 0 -82 -36.5t-43 -102.5h245q-11 70 -40 104.5
t-80 34.5zM255 530l86 177h87v-14l-161 -163h-12z" />
    <glyph glyph-name="ecircumflex" unicode="&#xea;" horiz-adv-x="483" 
d="M262 -10q-67 0 -114.5 28t-72.5 77.5t-25 114.5q0 71 29 127.5t77 89.5t104 33q79 0 124 -54t48 -152l-4 -4h-311v-8q0 -52 18 -95.5t57 -69.5t101 -26q72 0 136 45h3v-11q-23 -40 -67 -67.5t-103 -27.5zM245 425q-48 0 -82 -36.5t-43 -102.5h245q-11 70 -40 104.5
t-80 34.5zM116 530l129 177h26l129 -177h-12l-130 106l-130 -106h-12z" />
    <glyph glyph-name="edieresis" unicode="&#xeb;" horiz-adv-x="483" 
d="M262 -10q-67 0 -114.5 28t-72.5 77.5t-25 114.5q0 71 29 127.5t77 89.5t104 33q79 0 124 -54t48 -152l-4 -4h-311v-8q0 -52 18 -95.5t57 -69.5t101 -26q72 0 136 45h3v-11q-23 -40 -67 -67.5t-103 -27.5zM245 425q-48 0 -82 -36.5t-43 -102.5h245q-11 70 -40 104.5
t-80 34.5zM165 571q-19 0 -32.5 13.5t-13.5 32.5t13.5 32.5t32.5 13.5q20 0 33 -13.5t13 -32.5t-13 -32.5t-33 -13.5zM351 571q-20 0 -33 13.5t-13 32.5t13 32.5t33 13.5q19 0 32.5 -13.5t13.5 -32.5t-13.5 -32.5t-32.5 -13.5z" />
    <glyph glyph-name="igrave" unicode="&#xec;" horiz-adv-x="308" 
d="M58 0v16l63 25v332l-65 39v10l125 38h8v-419l66 -25v-16h-197zM161 530h-12l-161 163v14h87z" />
    <glyph glyph-name="iacute" unicode="&#xed;" horiz-adv-x="308" 
d="M58 0v16l63 25v332l-65 39v10l125 38h8v-419l66 -25v-16h-197zM152 530l86 177h87v-14l-161 -163h-12z" />
    <glyph glyph-name="icircumflex" unicode="&#xee;" horiz-adv-x="308" 
d="M58 0v16l63 25v332l-65 39v10l125 38h8v-419l66 -25v-16h-197zM13 530l129 177h26l129 -177h-12l-130 106l-130 -106h-12z" />
    <glyph glyph-name="idieresis" unicode="&#xef;" horiz-adv-x="308" 
d="M58 0v16l63 25v332l-65 39v10l125 38h8v-419l66 -25v-16h-197zM62 571q-19 0 -32.5 13.5t-13.5 32.5t13.5 32.5t32.5 13.5q20 0 33 -13.5t13 -32.5t-13 -32.5t-33 -13.5zM248 571q-20 0 -33 13.5t-13 32.5t13 32.5t33 13.5q19 0 32.5 -13.5t13.5 -32.5t-13.5 -32.5
t-32.5 -13.5z" />
    <glyph glyph-name="eth" unicode="&#xf0;" horiz-adv-x="531" 
d="M263 -10q-63 0 -111 30.5t-75 82.5t-27 116q0 77 30.5 131t82.5 82t116 28q31 0 54.5 -4t42.5 -11q-33 92 -96 161l-88 -83h-61l119 112q-65 59 -149 88v26q99 -30 177 -87l84 79h60l-111 -105q82 -71 126.5 -168t44.5 -209q0 -79 -26 -139.5t-75 -95t-118 -34.5z
M124 232q0 -51 16.5 -98.5t49.5 -78t82 -30.5q60 0 97 59t37 180q0 50 -8 97q-27 29 -58.5 45t-70.5 16q-63 0 -104 -45.5t-41 -144.5z" />
    <glyph glyph-name="ntilde" unicode="&#xf1;" horiz-adv-x="574" 
d="M52 0v16l63 25v332l-65 34v11l117 42h8l7 -73h4q38 38 72.5 55.5t76.5 17.5q60 0 99 -31.5t39 -93.5v-294l63 -25v-16h-202v16l71 25v255q0 51 -29.5 77.5t-77.5 26.5q-28 0 -61.5 -11t-53.5 -33v-315l71 -25v-16h-202zM147 556q16 52 30 79t28 36t32 9q19 0 36 -11
t32 -25.5t30 -25.5t31 -11q19 0 32.5 16.5t29.5 56.5h13q-16 -52 -30 -79t-28 -36t-32 -9q-19 0 -36 11t-32 25.5t-30 25.5t-31 11q-19 0 -32.5 -16.5t-29.5 -56.5h-13z" />
    <glyph glyph-name="ograve" unicode="&#xf2;" horiz-adv-x="528" 
d="M264 -10q-64 0 -112 31t-75 84t-27 120t27 120t75 84t112 31t112 -31t75 -84t27 -120t-27 -120t-75 -84t-112 -31zM278 25q43 0 71 26t41.5 67t13.5 87q0 58 -16.5 108.5t-50 81.5t-85.5 31q-43 0 -71.5 -25t-42.5 -66t-14 -89q0 -58 17 -108.5t51 -81.5t86 -31zM268 530
h-12l-161 163v14h87z" />
    <glyph glyph-name="oacute" unicode="&#xf3;" horiz-adv-x="528" 
d="M264 -10q-64 0 -112 31t-75 84t-27 120t27 120t75 84t112 31t112 -31t75 -84t27 -120t-27 -120t-75 -84t-112 -31zM278 25q43 0 71 26t41.5 67t13.5 87q0 58 -16.5 108.5t-50 81.5t-85.5 31q-43 0 -71.5 -25t-42.5 -66t-14 -89q0 -58 17 -108.5t51 -81.5t86 -31zM259 530
l86 177h87v-14l-161 -163h-12z" />
    <glyph glyph-name="ocircumflex" unicode="&#xf4;" horiz-adv-x="528" 
d="M264 -10q-64 0 -112 31t-75 84t-27 120t27 120t75 84t112 31t112 -31t75 -84t27 -120t-27 -120t-75 -84t-112 -31zM278 25q43 0 71 26t41.5 67t13.5 87q0 58 -16.5 108.5t-50 81.5t-85.5 31q-43 0 -71.5 -25t-42.5 -66t-14 -89q0 -58 17 -108.5t51 -81.5t86 -31zM120 530
l129 177h26l129 -177h-12l-130 106l-130 -106h-12z" />
    <glyph glyph-name="otilde" unicode="&#xf5;" horiz-adv-x="528" 
d="M264 -10q-64 0 -112 31t-75 84t-27 120t27 120t75 84t112 31t112 -31t75 -84t27 -120t-27 -120t-75 -84t-112 -31zM278 25q43 0 71 26t41.5 67t13.5 87q0 58 -16.5 108.5t-50 81.5t-85.5 31q-43 0 -71.5 -25t-42.5 -66t-14 -89q0 -58 17 -108.5t51 -81.5t86 -31zM115 556
q16 52 30 79t28 36t32 9q19 0 36 -11t32 -25.5t30 -25.5t31 -11q19 0 32.5 16.5t29.5 56.5h13q-16 -52 -30 -79t-28 -36t-32 -9q-19 0 -36 11t-32 25.5t-30 25.5t-31 11q-19 0 -32.5 -16.5t-29.5 -56.5h-13z" />
    <glyph glyph-name="odieresis" unicode="&#xf6;" horiz-adv-x="528" 
d="M264 -10q-64 0 -112 31t-75 84t-27 120t27 120t75 84t112 31t112 -31t75 -84t27 -120t-27 -120t-75 -84t-112 -31zM278 25q43 0 71 26t41.5 67t13.5 87q0 58 -16.5 108.5t-50 81.5t-85.5 31q-43 0 -71.5 -25t-42.5 -66t-14 -89q0 -58 17 -108.5t51 -81.5t86 -31zM169 571
q-19 0 -32.5 13.5t-13.5 32.5t13.5 32.5t32.5 13.5q20 0 33 -13.5t13 -32.5t-13 -32.5t-33 -13.5zM355 571q-20 0 -33 13.5t-13 32.5t13 32.5t33 13.5q19 0 32.5 -13.5t13.5 -32.5t-13.5 -32.5t-32.5 -13.5z" />
    <glyph glyph-name="divide" unicode="&#xf7;" 
d="M223 427v55h54v-55h-54zM40 252v40h420v-40h-420zM223 62v55h54v-55h-54z" />
    <glyph glyph-name="oslash" unicode="&#xf8;" horiz-adv-x="528" 
d="M50 -10l56 71q-27 31 -41.5 73t-14.5 91q0 67 27 120t75 84t112 31q36 0 68 -10.5t58 -30.5l32 41h56l-56 -71q26 -31 41 -73t15 -91q0 -67 -27 -120t-75 -84t-112 -31q-37 0 -68.5 10.5t-57.5 30.5l-32 -41h-56zM124 246q0 -74 25 -130l206 260q-18 23 -44 36.5
t-59 13.5q-43 0 -71.5 -25t-42.5 -66t-14 -89zM278 25q43 0 71 26t41.5 67t13.5 87q0 36 -6 69t-19 62l-205 -260q19 -24 45 -37.5t59 -13.5z" />
    <glyph glyph-name="ugrave" unicode="&#xf9;" horiz-adv-x="548" 
d="M230 -10q-59 0 -97.5 31.5t-38.5 93.5v294l-66 25v16h134v-296q0 -51 29 -77.5t76 -26.5q27 0 60 11t53 33v315l-75 25v16h143v-410l71 -24v-16h-139v62h-4q-37 -37 -71 -54.5t-75 -17.5zM274 530h-12l-161 163v14h87z" />
    <glyph glyph-name="uacute" unicode="&#xfa;" horiz-adv-x="548" 
d="M230 -10q-59 0 -97.5 31.5t-38.5 93.5v294l-66 25v16h134v-296q0 -51 29 -77.5t76 -26.5q27 0 60 11t53 33v315l-75 25v16h143v-410l71 -24v-16h-139v62h-4q-37 -37 -71 -54.5t-75 -17.5zM265 530l86 177h87v-14l-161 -163h-12z" />
    <glyph glyph-name="ucircumflex" unicode="&#xfb;" horiz-adv-x="548" 
d="M230 -10q-59 0 -97.5 31.5t-38.5 93.5v294l-66 25v16h134v-296q0 -51 29 -77.5t76 -26.5q27 0 60 11t53 33v315l-75 25v16h143v-410l71 -24v-16h-139v62h-4q-37 -37 -71 -54.5t-75 -17.5zM126 530l129 177h26l129 -177h-12l-130 106l-130 -106h-12z" />
    <glyph glyph-name="udieresis" unicode="&#xfc;" horiz-adv-x="548" 
d="M230 -10q-59 0 -97.5 31.5t-38.5 93.5v294l-66 25v16h134v-296q0 -51 29 -77.5t76 -26.5q27 0 60 11t53 33v315l-75 25v16h143v-410l71 -24v-16h-139v62h-4q-37 -37 -71 -54.5t-75 -17.5zM175 571q-19 0 -32.5 13.5t-13.5 32.5t13.5 32.5t32.5 13.5q20 0 33 -13.5
t13 -32.5t-13 -32.5t-33 -13.5zM361 571q-20 0 -33 13.5t-13 32.5t13 32.5t33 13.5q19 0 32.5 -13.5t13.5 -32.5t-13.5 -32.5t-32.5 -13.5z" />
    <glyph glyph-name="yacute" unicode="&#xfd;" horiz-adv-x="457" 
d="M-23 450h220v-16l-80 -25v-4l133 -312h3l116 308v5l-77 28v16h188v-16l-70 -27l-216 -531q-26 -65 -54.5 -90.5t-69.5 -25.5q-23 0 -30 6.5t-7 30.5v34h94q16 21 31 50t41 88l18 40l-175 399l-65 26v16zM243 530l86 177h87v-14l-161 -163h-12z" />
    <glyph glyph-name="thorn" unicode="&#xfe;" horiz-adv-x="558" 
d="M52 -230v16l63 25v852l-65 36v11l119 40h14v-351h4q39 32 74 46.5t76 14.5q50 0 89.5 -26t61.5 -73.5t22 -113.5q0 -82 -31 -139.5t-83 -87.5t-115 -30q-27 0 -51.5 4t-46.5 12v-195l71 -25v-16h-202zM293 405q-59 0 -110 -38v-297q30 -22 60.5 -31.5t68.5 -9.5
q35 0 65.5 19t48.5 61.5t18 111.5q0 64 -21 104.5t-55.5 60t-74.5 19.5z" />
    <glyph glyph-name="ydieresis" unicode="&#xff;" horiz-adv-x="457" 
d="M-23 450h220v-16l-80 -25v-4l133 -312h3l116 308v5l-77 28v16h188v-16l-70 -27l-216 -531q-26 -65 -54.5 -90.5t-69.5 -25.5q-23 0 -30 6.5t-7 30.5v34h94q16 21 31 50t41 88l18 40l-175 399l-65 26v16zM153 571q-19 0 -32.5 13.5t-13.5 32.5t13.5 32.5t32.5 13.5
q20 0 33 -13.5t13 -32.5t-13 -32.5t-33 -13.5zM339 571q-20 0 -33 13.5t-13 32.5t13 32.5t33 13.5q19 0 32.5 -13.5t13.5 -32.5t-13.5 -32.5t-32.5 -13.5z" />
    <glyph glyph-name="Amacron" unicode="&#x100;" horiz-adv-x="733" 
d="M33 0v20l59 24l256 621h35l253 -619l64 -26v-20h-233v20l86 26l-78 195h-247l-77 -196l86 -25v-20h-204zM246 288h210l-106 263zM235 766v44h262v-44h-262z" />
    <glyph glyph-name="amacron" unicode="&#x101;" horiz-adv-x="474" 
d="M156 -10q-47 0 -78 27.5t-31 76.5q0 48 36 82.5t119 54.5l97 24v77q0 38 -27.5 63t-63.5 25q-17 0 -33.5 -4t-38.5 -16v-89h-51q-16 0 -22 6t-6 24q0 27 24.5 54.5t64.5 46t85 18.5q67 0 101 -28.5t34 -80.5v-295q8 -7 20 -11.5t31 -4.5h44l2 -2v-2q-10 -18 -30.5 -32
t-51.5 -14q-33 0 -52 17t-26 43h-4q-26 -25 -63.5 -42.5t-79.5 -17.5zM114 113q0 -35 21 -52.5t59 -17.5q25 0 50.5 6t54.5 20v157q-81 -16 -120.5 -32.5t-52 -36t-12.5 -44.5zM90 595v44h262v-44h-262z" />
    <glyph glyph-name="Abreve" unicode="&#x102;" horiz-adv-x="733" 
d="M33 0v20l59 24l256 621h35l253 -619l64 -26v-20h-233v20l86 26l-78 195h-247l-77 -196l86 -25v-20h-204zM246 288h210l-106 263zM366 710q-62 0 -93 39.5t-49 112.5h12q17 -40 35.5 -60t41 -27.5t53.5 -7.5t53.5 7.5t41 27.5t35.5 60h12q-19 -73 -49.5 -112.5
t-92.5 -39.5z" />
    <glyph glyph-name="abreve" unicode="&#x103;" horiz-adv-x="474" 
d="M156 -10q-47 0 -78 27.5t-31 76.5q0 48 36 82.5t119 54.5l97 24v77q0 38 -27.5 63t-63.5 25q-17 0 -33.5 -4t-38.5 -16v-89h-51q-16 0 -22 6t-6 24q0 27 24.5 54.5t64.5 46t85 18.5q67 0 101 -28.5t34 -80.5v-295q8 -7 20 -11.5t31 -4.5h44l2 -2v-2q-10 -18 -30.5 -32
t-51.5 -14q-33 0 -52 17t-26 43h-4q-26 -25 -63.5 -42.5t-79.5 -17.5zM114 113q0 -35 21 -52.5t59 -17.5q25 0 50.5 6t54.5 20v157q-81 -16 -120.5 -32.5t-52 -36t-12.5 -44.5zM221 540q-62 0 -92 41.5t-50 125.5h12q19 -48 38.5 -71.5t41.5 -31t50 -7.5t50 7.5t41 31
t39 71.5h12q-20 -84 -50 -125.5t-92 -41.5z" />
    <glyph glyph-name="Aogonek" unicode="&#x104;" horiz-adv-x="733" 
d="M555 -138q0 -35 17.5 -50.5t47.5 -15.5q13 0 26.5 3.5t27.5 12.5h3v-12q-12 -18 -32.5 -29t-48.5 -11q-41 0 -68 22.5t-27 62.5q0 39 24 76.5t64 78.5h-122v20l86 26l-78 195h-247l-77 -196l86 -25v-20h-204v20l59 24l256 621h35l253 -619l64 -26v-20h-88
q-57 -76 -57 -138zM246 288h210l-106 263z" />
    <glyph glyph-name="aogonek" unicode="&#x105;" horiz-adv-x="474" 
d="M156 -10q-47 0 -78 27.5t-31 76.5q0 48 36 82.5t119 54.5l97 24v77q0 38 -27.5 63t-63.5 25q-17 0 -33.5 -4t-38.5 -16v-89h-51q-16 0 -22 6t-6 24q0 27 24.5 54.5t64.5 46t85 18.5q67 0 101 -28.5t34 -80.5v-295q8 -7 20 -11.5t31 -4.5h44l2 -2v-2q-9 -16 -27.5 -29.5
t-45.5 -16.5q-49 -70 -49 -128q0 -35 17 -50.5t47 -15.5q13 0 26.5 3.5t27.5 12.5h3v-12q-12 -18 -32.5 -29t-48.5 -11q-41 0 -68 22.5t-27 62.5q0 37 22 72t58 74q-26 4 -41.5 20t-21.5 39h-4q-26 -25 -63.5 -42.5t-79.5 -17.5zM114 113q0 -35 21 -52.5t59 -17.5
q25 0 50.5 6t54.5 20v157q-81 -16 -120.5 -32.5t-52 -36t-12.5 -44.5z" />
    <glyph glyph-name="Cacute" unicode="&#x106;" horiz-adv-x="721" 
d="M397 -10q-99 0 -172.5 42t-114 115t-40.5 165q0 73 27 138t74.5 114.5t109.5 77.5t132 28q49 0 83.5 -6.5t62 -17.5t54.5 -24l5 -167h-19l-52 119q-38 27 -69.5 40.5t-69.5 13.5q-75 0 -134 -37t-93 -101t-34 -144q0 -96 34 -166.5t92 -108.5t129 -38q51 0 86.5 13.5
t63.5 32.5l59 115h18l-10 -155q-29 -14 -59.5 -25.5t-69 -17.5t-93.5 -6zM390 710l83 152h86v-14l-155 -138h-14z" />
    <glyph glyph-name="cacute" unicode="&#x107;" horiz-adv-x="476" 
d="M261 -10q-67 0 -114 28t-72 77.5t-25 114.5q0 72 31.5 128.5t86 89t124.5 32.5q40 0 71.5 -12.5t49.5 -30t18 -32.5q0 -12 -17 -26l-30 -24l-70 89q-13 3 -28 3q-48 0 -86 -24t-60.5 -67t-22.5 -100q0 -86 46.5 -135.5t128.5 -49.5q72 0 136 45h3v-11q-23 -40 -67 -67.5
t-103 -27.5zM261 530l86 177h87v-14l-161 -163h-12z" />
    <glyph glyph-name="Ccircumflex" unicode="&#x108;" horiz-adv-x="721" 
d="M397 -10q-99 0 -172.5 42t-114 115t-40.5 165q0 73 27 138t74.5 114.5t109.5 77.5t132 28q49 0 83.5 -6.5t62 -17.5t54.5 -24l5 -167h-19l-52 119q-38 27 -69.5 40.5t-69.5 13.5q-75 0 -134 -37t-93 -101t-34 -144q0 -96 34 -166.5t92 -108.5t129 -38q51 0 86.5 13.5
t63.5 32.5l59 115h18l-10 -155q-29 -14 -59.5 -25.5t-69 -17.5t-93.5 -6zM253 710l129 152h26l129 -152h-12l-130 86l-130 -86h-12z" />
    <glyph glyph-name="ccircumflex" unicode="&#x109;" horiz-adv-x="476" 
d="M261 -10q-67 0 -114 28t-72 77.5t-25 114.5q0 72 31.5 128.5t86 89t124.5 32.5q40 0 71.5 -12.5t49.5 -30t18 -32.5q0 -12 -17 -26l-30 -24l-70 89q-13 3 -28 3q-48 0 -86 -24t-60.5 -67t-22.5 -100q0 -86 46.5 -135.5t128.5 -49.5q72 0 136 45h3v-11q-23 -40 -67 -67.5
t-103 -27.5zM122 530l129 177h26l129 -177h-12l-130 106l-130 -106h-12z" />
    <glyph glyph-name="Cdotaccent" unicode="&#x10a;" horiz-adv-x="721" 
d="M397 -10q-99 0 -172.5 42t-114 115t-40.5 165q0 73 27 138t74.5 114.5t109.5 77.5t132 28q49 0 83.5 -6.5t62 -17.5t54.5 -24l5 -167h-19l-52 119q-38 27 -69.5 40.5t-69.5 13.5q-75 0 -134 -37t-93 -101t-34 -144q0 -96 34 -166.5t92 -108.5t129 -38q51 0 86.5 13.5
t63.5 32.5l59 115h18l-10 -155q-29 -14 -59.5 -25.5t-69 -17.5t-93.5 -6zM395 737q-21 0 -36 14.5t-15 36.5q0 21 15 36t36 15t36 -15t15 -36q0 -22 -15 -36.5t-36 -14.5z" />
    <glyph glyph-name="cdotaccent" unicode="&#x10b;" horiz-adv-x="476" 
d="M261 -10q-67 0 -114 28t-72 77.5t-25 114.5q0 72 31.5 128.5t86 89t124.5 32.5q40 0 71.5 -12.5t49.5 -30t18 -32.5q0 -12 -17 -26l-30 -24l-70 89q-13 3 -28 3q-48 0 -86 -24t-60.5 -67t-22.5 -100q0 -86 46.5 -135.5t128.5 -49.5q72 0 136 45h3v-11q-23 -40 -67 -67.5
t-103 -27.5zM264 567q-21 0 -36 15t-15 36t15 36t36 15t36 -15t15 -36t-15 -36t-36 -15z" />
    <glyph glyph-name="Ccaron" unicode="&#x10c;" horiz-adv-x="721" 
d="M397 -10q-99 0 -172.5 42t-114 115t-40.5 165q0 73 27 138t74.5 114.5t109.5 77.5t132 28q49 0 83.5 -6.5t62 -17.5t54.5 -24l5 -167h-19l-52 119q-38 27 -69.5 40.5t-69.5 13.5q-75 0 -134 -37t-93 -101t-34 -144q0 -96 34 -166.5t92 -108.5t129 -38q51 0 86.5 13.5
t63.5 32.5l59 115h18l-10 -155q-29 -14 -59.5 -25.5t-69 -17.5t-93.5 -6zM382 710l-129 152h12l130 -86l130 86h12l-129 -152h-26z" />
    <glyph glyph-name="ccaron" unicode="&#x10d;" horiz-adv-x="476" 
d="M261 -10q-67 0 -114 28t-72 77.5t-25 114.5q0 72 31.5 128.5t86 89t124.5 32.5q40 0 71.5 -12.5t49.5 -30t18 -32.5q0 -12 -17 -26l-30 -24l-70 89q-13 3 -28 3q-48 0 -86 -24t-60.5 -67t-22.5 -100q0 -86 46.5 -135.5t128.5 -49.5q72 0 136 45h3v-11q-23 -40 -67 -67.5
t-103 -27.5zM251 530l-129 177h12l130 -106l130 106h12l-129 -177h-26z" />
    <glyph glyph-name="Dcaron" unicode="&#x10e;" horiz-adv-x="750" 
d="M65 0v20l80 30v560l-80 30v20h268q111 0 188.5 -39t118 -107t40.5 -154q0 -107 -45 -188t-124.5 -126.5t-184.5 -45.5h-261zM323 613h-100v-566h111q81 0 140 35t91.5 98.5t32.5 148.5q0 86 -32 150t-93.5 99t-149.5 35zM361 710l-129 152h12l130 -86l130 86h12
l-129 -152h-26z" />
    <glyph glyph-name="dcaron" unicode="&#x10f;" horiz-adv-x="553" 
d="M219 -10q-50 0 -89 25t-61.5 71.5t-22.5 111.5q0 83 32.5 142t86.5 89.5t119 30.5q26 0 48 -4t41 -11v218l-68 39v10l128 38h8v-710l71 -24v-16h-129l-8 51h-6q-37 -31 -72.5 -46t-77.5 -15zM112 218q0 -60 21 -98.5t55.5 -56.5t74.5 -18q28 0 56.5 9t53.5 29v298
q-27 19 -53 29t-58 10q-40 0 -74.5 -20t-55 -64.5t-20.5 -117.5zM498 553l25 187h76v-14l-90 -173h-11z" />
    <glyph glyph-name="Dcroat" unicode="&#x110;" horiz-adv-x="750" 
d="M65 0v20l80 30v270h-80v44h80v246l-80 30v20h268q111 0 188.5 -39t118 -107t40.5 -154q0 -107 -45 -188t-124.5 -126.5t-184.5 -45.5h-261zM394 320h-171v-273h111q81 0 140 35t91.5 98.5t32.5 148.5q0 86 -32 150t-93.5 99t-149.5 35h-100v-249h171v-44z" />
    <glyph glyph-name="dcroat" unicode="&#x111;" horiz-adv-x="562" 
d="M222 -10q-51 0 -90 25t-61.5 71.5t-22.5 111.5q0 83 32.5 142t87 89.5t118.5 30.5q26 0 48 -4t42 -11v96h-144v40h144v82l-69 39v10l129 38h7v-169h71v-40h-71v-501l71 -24v-16h-128l-9 51h-6q-36 -31 -72 -46t-77 -15zM114 218q0 -60 21 -98.5t55.5 -56.5t74.5 -18
q28 0 56.5 9t54.5 29v297q-28 19 -54 29.5t-58 10.5q-40 0 -74 -20t-55 -64.5t-21 -117.5z" />
    <glyph glyph-name="Emacron" unicode="&#x112;" horiz-adv-x="635" 
d="M65 0v20l79 30v560l-79 30v20h472v-168h-17l-54 121h-244v-249h175l40 83h17v-211h-17l-40 81h-175v-270h272l54 131h17v-178h-500zM201 766v44h262v-44h-262z" />
    <glyph glyph-name="emacron" unicode="&#x113;" horiz-adv-x="483" 
d="M262 -10q-67 0 -114.5 28t-72.5 77.5t-25 114.5q0 71 29 127.5t77 89.5t104 33q79 0 124 -54t48 -152l-4 -4h-311v-8q0 -52 18 -95.5t57 -69.5t101 -26q72 0 136 45h3v-11q-23 -40 -67 -67.5t-103 -27.5zM245 425q-48 0 -82 -36.5t-43 -102.5h245q-11 70 -40 104.5
t-80 34.5zM127 595v44h262v-44h-262z" />
    <glyph glyph-name="Ebreve" unicode="&#x114;" horiz-adv-x="635" 
d="M65 0v20l79 30v560l-79 30v20h472v-168h-17l-54 121h-244v-249h175l40 83h17v-211h-17l-40 81h-175v-270h272l54 131h17v-178h-500zM332 710q-62 0 -93 39.5t-49 112.5h12q17 -40 35.5 -60t41 -27.5t53.5 -7.5t53.5 7.5t41 27.5t35.5 60h12q-19 -73 -49.5 -112.5
t-92.5 -39.5z" />
    <glyph glyph-name="ebreve" unicode="&#x115;" horiz-adv-x="483" 
d="M262 -10q-67 0 -114.5 28t-72.5 77.5t-25 114.5q0 71 29 127.5t77 89.5t104 33q79 0 124 -54t48 -152l-4 -4h-311v-8q0 -52 18 -95.5t57 -69.5t101 -26q72 0 136 45h3v-11q-23 -40 -67 -67.5t-103 -27.5zM245 425q-48 0 -82 -36.5t-43 -102.5h245q-11 70 -40 104.5
t-80 34.5zM258 540q-62 0 -92 41.5t-50 125.5h12q19 -48 38.5 -71.5t41.5 -31t50 -7.5t50 7.5t41 31t39 71.5h12q-20 -84 -50 -125.5t-92 -41.5z" />
    <glyph glyph-name="Edotaccent" unicode="&#x116;" horiz-adv-x="635" 
d="M65 0v20l79 30v560l-79 30v20h472v-168h-17l-54 121h-244v-249h175l40 83h17v-211h-17l-40 81h-175v-270h272l54 131h17v-178h-500zM332 737q-21 0 -36 14.5t-15 36.5q0 21 15 36t36 15t36 -15t15 -36q0 -22 -15 -36.5t-36 -14.5z" />
    <glyph glyph-name="edotaccent" unicode="&#x117;" horiz-adv-x="483" 
d="M262 -10q-67 0 -114.5 28t-72.5 77.5t-25 114.5q0 71 29 127.5t77 89.5t104 33q79 0 124 -54t48 -152l-4 -4h-311v-8q0 -52 18 -95.5t57 -69.5t101 -26q72 0 136 45h3v-11q-23 -40 -67 -67.5t-103 -27.5zM245 425q-48 0 -82 -36.5t-43 -102.5h245q-11 70 -40 104.5
t-80 34.5zM258 567q-21 0 -36 15t-15 36t15 36t36 15t36 -15t15 -36t-15 -36t-36 -15z" />
    <glyph glyph-name="Eogonek" unicode="&#x118;" horiz-adv-x="635" 
d="M65 0v20l79 30v560l-79 30v20h472v-168h-17l-54 121h-244v-249h175l40 83h17v-211h-17l-40 81h-175v-270h272l54 131h17v-178h-66q-57 -76 -57 -138q0 -35 17 -50.5t47 -15.5q14 0 27.5 3.5t27.5 12.5h3v-12q-12 -18 -33 -29t-49 -11q-41 0 -67.5 22.5t-26.5 62.5
q0 39 24 76.5t63 78.5h-410z" />
    <glyph glyph-name="eogonek" unicode="&#x119;" horiz-adv-x="483" 
d="M262 -10q-67 0 -114.5 28t-72.5 77.5t-25 114.5q0 71 29 127.5t77 89.5t104 33q79 0 124 -54t48 -152l-4 -4h-311v-8q0 -52 18 -95.5t57 -69.5t101 -26q72 0 136 45h3v-11q-15 -27 -39 -48q-47 -55 -66 -96t-19 -79q0 -35 17 -50.5t48 -15.5q13 0 26.5 3.5t27.5 12.5h3
v-12q-12 -18 -33 -29t-49 -11q-41 0 -67.5 22.5t-26.5 62.5t25.5 80t66.5 82q-38 -17 -84 -17zM245 425q-48 0 -82 -36.5t-43 -102.5h245q-11 70 -40 104.5t-80 34.5z" />
    <glyph glyph-name="Ecaron" unicode="&#x11a;" horiz-adv-x="635" 
d="M65 0v20l79 30v560l-79 30v20h472v-168h-17l-54 121h-244v-249h175l40 83h17v-211h-17l-40 81h-175v-270h272l54 131h17v-178h-500zM319 710l-129 152h12l130 -86l130 86h12l-129 -152h-26z" />
    <glyph glyph-name="ecaron" unicode="&#x11b;" horiz-adv-x="483" 
d="M262 -10q-67 0 -114.5 28t-72.5 77.5t-25 114.5q0 71 29 127.5t77 89.5t104 33q79 0 124 -54t48 -152l-4 -4h-311v-8q0 -52 18 -95.5t57 -69.5t101 -26q72 0 136 45h3v-11q-23 -40 -67 -67.5t-103 -27.5zM245 425q-48 0 -82 -36.5t-43 -102.5h245q-11 70 -40 104.5
t-80 34.5zM245 530l-129 177h12l130 -106l130 106h12l-129 -177h-26z" />
    <glyph glyph-name="Gcircumflex" unicode="&#x11c;" horiz-adv-x="759" 
d="M403 -10q-96 0 -171 42t-118.5 114.5t-43.5 165.5q0 77 27.5 142t75.5 113.5t112 75.5t136 27q53 0 90 -6.5t66 -17t57 -24.5l5 -161h-18l-55 113q-42 29 -74.5 41.5t-74.5 12.5q-80 0 -141.5 -36.5t-96 -97.5t-34.5 -136q0 -100 38 -171t101 -109t140 -38q35 0 67.5 4.5
t67.5 18.5v176l-88 31v20h238v-20l-72 -32v-168q-44 -37 -108.5 -58.5t-125.5 -21.5zM264 710l129 152h26l129 -152h-12l-130 86l-130 -86h-12z" />
    <glyph glyph-name="gcircumflex" unicode="&#x11d;" horiz-adv-x="530" 
d="M246 165q-25 0 -48 6q-35 -20 -46 -36.5t-11 -31.5q0 -23 15 -36.5t53 -13.5h134q67 0 100 -32t33 -92q0 -42 -26 -80.5t-75.5 -63.5t-118.5 -25q-86 0 -128 41.5t-42 100.5q0 22 8 43l67 51v2q-37 7 -55.5 29.5t-18.5 53.5q0 21 9 46l75 54q-38 18 -61.5 52.5
t-23.5 78.5q0 42 21.5 75.5t57.5 53t81 19.5q20 0 43 -5t40 -13l144 8v-49l-100 7l-2 -2q16 -18 25.5 -42.5t9.5 -51.5q0 -42 -21.5 -75.5t-57.5 -52.5t-81 -19zM256 197q38 0 61 31.5t23 81.5q0 56 -29 87.5t-71 31.5t-65 -32t-23 -82q0 -56 29 -87t75 -31zM145 -83
q0 -56 35.5 -92.5t92.5 -36.5q67 0 105.5 35t38.5 85q0 42 -20.5 64t-87.5 22h-109q-29 -10 -42 -31t-13 -46zM110 530l129 177h26l129 -177h-12l-130 106l-130 -106h-12z" />
    <glyph glyph-name="Gbreve" unicode="&#x11e;" horiz-adv-x="759" 
d="M403 -10q-96 0 -171 42t-118.5 114.5t-43.5 165.5q0 77 27.5 142t75.5 113.5t112 75.5t136 27q53 0 90 -6.5t66 -17t57 -24.5l5 -161h-18l-55 113q-42 29 -74.5 41.5t-74.5 12.5q-80 0 -141.5 -36.5t-96 -97.5t-34.5 -136q0 -100 38 -171t101 -109t140 -38q35 0 67.5 4.5
t67.5 18.5v176l-88 31v20h238v-20l-72 -32v-168q-44 -37 -108.5 -58.5t-125.5 -21.5zM406 710q-62 0 -93 39.5t-49 112.5h12q17 -40 35.5 -60t41 -27.5t53.5 -7.5t53.5 7.5t41 27.5t35.5 60h12q-19 -73 -49.5 -112.5t-92.5 -39.5z" />
    <glyph glyph-name="gbreve" unicode="&#x11f;" horiz-adv-x="530" 
d="M246 165q-25 0 -48 6q-35 -20 -46 -36.5t-11 -31.5q0 -23 15 -36.5t53 -13.5h134q67 0 100 -32t33 -92q0 -42 -26 -80.5t-75.5 -63.5t-118.5 -25q-86 0 -128 41.5t-42 100.5q0 22 8 43l67 51v2q-37 7 -55.5 29.5t-18.5 53.5q0 21 9 46l75 54q-38 18 -61.5 52.5
t-23.5 78.5q0 42 21.5 75.5t57.5 53t81 19.5q20 0 43 -5t40 -13l144 8v-49l-100 7l-2 -2q16 -18 25.5 -42.5t9.5 -51.5q0 -42 -21.5 -75.5t-57.5 -52.5t-81 -19zM256 197q38 0 61 31.5t23 81.5q0 56 -29 87.5t-71 31.5t-65 -32t-23 -82q0 -56 29 -87t75 -31zM145 -83
q0 -56 35.5 -92.5t92.5 -36.5q67 0 105.5 35t38.5 85q0 42 -20.5 64t-87.5 22h-109q-29 -10 -42 -31t-13 -46zM252 540q-62 0 -92 41.5t-50 125.5h12q19 -48 38.5 -71.5t41.5 -31t50 -7.5t50 7.5t41 31t39 71.5h12q-20 -84 -50 -125.5t-92 -41.5z" />
    <glyph glyph-name="Gdotaccent" unicode="&#x120;" horiz-adv-x="759" 
d="M403 -10q-96 0 -171 42t-118.5 114.5t-43.5 165.5q0 77 27.5 142t75.5 113.5t112 75.5t136 27q53 0 90 -6.5t66 -17t57 -24.5l5 -161h-18l-55 113q-42 29 -74.5 41.5t-74.5 12.5q-80 0 -141.5 -36.5t-96 -97.5t-34.5 -136q0 -100 38 -171t101 -109t140 -38q35 0 67.5 4.5
t67.5 18.5v176l-88 31v20h238v-20l-72 -32v-168q-44 -37 -108.5 -58.5t-125.5 -21.5zM406 737q-21 0 -36 14.5t-15 36.5q0 21 15 36t36 15t36 -15t15 -36q0 -22 -15 -36.5t-36 -14.5z" />
    <glyph glyph-name="gdotaccent" unicode="&#x121;" horiz-adv-x="530" 
d="M246 165q-25 0 -48 6q-35 -20 -46 -36.5t-11 -31.5q0 -23 15 -36.5t53 -13.5h134q67 0 100 -32t33 -92q0 -42 -26 -80.5t-75.5 -63.5t-118.5 -25q-86 0 -128 41.5t-42 100.5q0 22 8 43l67 51v2q-37 7 -55.5 29.5t-18.5 53.5q0 21 9 46l75 54q-38 18 -61.5 52.5
t-23.5 78.5q0 42 21.5 75.5t57.5 53t81 19.5q20 0 43 -5t40 -13l144 8v-49l-100 7l-2 -2q16 -18 25.5 -42.5t9.5 -51.5q0 -42 -21.5 -75.5t-57.5 -52.5t-81 -19zM256 197q38 0 61 31.5t23 81.5q0 56 -29 87.5t-71 31.5t-65 -32t-23 -82q0 -56 29 -87t75 -31zM145 -83
q0 -56 35.5 -92.5t92.5 -36.5q67 0 105.5 35t38.5 85q0 42 -20.5 64t-87.5 22h-109q-29 -10 -42 -31t-13 -46zM252 567q-21 0 -36 15t-15 36t15 36t36 15t36 -15t15 -36t-15 -36t-36 -15z" />
    <glyph glyph-name="Gcommaaccent" unicode="&#x122;" horiz-adv-x="759" 
d="M403 -10q-96 0 -171 42t-118.5 114.5t-43.5 165.5q0 77 27.5 142t75.5 113.5t112 75.5t136 27q53 0 90 -6.5t66 -17t57 -24.5l5 -161h-18l-55 113q-42 29 -74.5 41.5t-74.5 12.5q-80 0 -141.5 -36.5t-96 -97.5t-34.5 -136q0 -100 38 -171t101 -109t140 -38q35 0 67.5 4.5
t67.5 18.5v176l-88 31v20h238v-20l-72 -32v-168q-44 -37 -108.5 -58.5t-125.5 -21.5zM315 -235l63 160h74v-11l-125 -149h-12z" />
    <glyph glyph-name="gcommaaccent" unicode="&#x123;" horiz-adv-x="530" 
d="M246 165q-25 0 -48 6q-35 -20 -46 -36.5t-11 -31.5q0 -23 15 -36.5t53 -13.5h134q67 0 100 -32t33 -92q0 -42 -26 -80.5t-75.5 -63.5t-118.5 -25q-86 0 -128 41.5t-42 100.5q0 22 8 43l67 51v2q-37 7 -55.5 29.5t-18.5 53.5q0 21 9 46l75 54q-38 18 -61.5 52.5
t-23.5 78.5q0 42 21.5 75.5t57.5 53t81 19.5q20 0 43 -5t40 -13l144 8v-49l-100 7l-2 -2q16 -18 25.5 -42.5t9.5 -51.5q0 -42 -21.5 -75.5t-57.5 -52.5t-81 -19zM256 197q38 0 61 31.5t23 81.5q0 56 -29 87.5t-71 31.5t-65 -32t-23 -82q0 -56 29 -87t75 -31zM145 -83
q0 -56 35.5 -92.5t92.5 -36.5q67 0 105.5 35t38.5 85q0 42 -20.5 64t-87.5 22h-109q-29 -10 -42 -31t-13 -46zM342 707l-67 -177h-74v12l129 165h12z" />
    <glyph glyph-name="Hcircumflex" unicode="&#x124;" horiz-adv-x="799" 
d="M65 0v20l79 30v560l-79 30v20h239v-20l-82 -30v-246h355v246l-82 30v20h239v-20l-79 -30v-560l79 -30v-20h-239v20l82 30v267h-355v-267l82 -30v-20h-239zM258 710l129 152h26l129 -152h-12l-130 86l-130 -86h-12z" />
    <glyph glyph-name="hcircumflex" unicode="&#x125;" horiz-adv-x="574" 
d="M52 0v16l63 25v622l-65 39v10l125 38h8v-363h3q38 38 72.5 55.5t76.5 17.5q60 0 99 -31.5t39 -93.5v-294l63 -25v-16h-202v16l71 24v256q0 51 -29.5 77.5t-77.5 26.5q-28 0 -61.5 -11t-53.5 -33v-316l71 -24v-16h-202zM152 765l129 152h26l129 -152h-12l-130 86l-130 -86
h-12z" />
    <glyph glyph-name="Hbar" unicode="&#x126;" horiz-adv-x="799" 
d="M65 0v20l79 30v423h-79v44h79v93l-79 30v20h239v-20l-82 -30v-93h355v93l-82 30v20h239v-20l-79 -30v-93h79v-44h-79v-423l79 -30v-20h-239v20l82 30v267h-355v-267l82 -30v-20h-239zM222 364h355v109h-355v-109z" />
    <glyph glyph-name="hbar" unicode="&#x127;" horiz-adv-x="574" 
d="M52 0v16l63 25v500h-63v40h63v82l-65 39v10l125 38h8v-169h148v-40h-148v-154h3q38 38 72.5 55.5t76.5 17.5q60 0 99 -31.5t39 -93.5v-294l63 -25v-16h-202v16l71 24v256q0 51 -29.5 77.5t-77.5 26.5q-28 0 -61.5 -11t-53.5 -33v-316l71 -24v-16h-202z" />
    <glyph glyph-name="Itilde" unicode="&#x128;" horiz-adv-x="376" 
d="M70 0v20l79 30v560l-79 30v20h236v-20l-79 -30v-560l79 -30v-20h-236zM41 728q15 48 29 72.5t28.5 33t32.5 8.5q26 0 47 -15.5t41 -31t41 -15.5q19 0 33.5 13.5t28.5 48.5h13q-15 -49 -29 -73.5t-28.5 -32.5t-32.5 -8q-26 0 -47 15.5t-41 30.5t-41 15q-19 0 -33.5 -13
t-28.5 -48h-13z" />
    <glyph glyph-name="itilde" unicode="&#x129;" horiz-adv-x="308" 
d="M58 0v16l63 25v332l-65 39v10l125 38h8v-419l66 -25v-16h-197zM8 556q16 52 30 79t28 36t32 9q19 0 36 -11t32 -25.5t30 -25.5t31 -11q19 0 32.5 16.5t29.5 56.5h13q-16 -52 -30 -79t-28 -36t-32 -9q-19 0 -36 11t-32 25.5t-30 25.5t-31 11q-19 0 -32.5 -16.5
t-29.5 -56.5h-13z" />
    <glyph glyph-name="Imacron" unicode="&#x12a;" horiz-adv-x="376" 
d="M70 0v20l79 30v560l-79 30v20h236v-20l-79 -30v-560l79 -30v-20h-236zM57 766v44h262v-44h-262z" />
    <glyph glyph-name="imacron" unicode="&#x12b;" horiz-adv-x="308" 
d="M58 0v16l63 25v332l-65 39v10l125 38h8v-419l66 -25v-16h-197zM24 595v44h262v-44h-262z" />
    <glyph glyph-name="Ibreve" unicode="&#x12c;" horiz-adv-x="376" 
d="M70 0v20l79 30v560l-79 30v20h236v-20l-79 -30v-560l79 -30v-20h-236zM188 710q-62 0 -93 39.5t-49 112.5h12q17 -40 35.5 -60t41 -27.5t53.5 -7.5t53.5 7.5t41 27.5t35.5 60h12q-19 -73 -49.5 -112.5t-92.5 -39.5z" />
    <glyph glyph-name="ibreve" unicode="&#x12d;" horiz-adv-x="308" 
d="M58 0v16l63 25v332l-65 39v10l125 38h8v-419l66 -25v-16h-197zM155 540q-62 0 -92 41.5t-50 125.5h12q19 -48 38.5 -71.5t41.5 -31t50 -7.5t50 7.5t41 31t39 71.5h12q-20 -84 -50 -125.5t-92 -41.5z" />
    <glyph glyph-name="Iogonek" unicode="&#x12e;" horiz-adv-x="376" 
d="M70 0v20l79 30v560l-79 30v20h236v-20l-79 -30v-560l79 -30v-20h-102q-57 -76 -57 -138q0 -35 17 -50.5t47 -15.5q14 0 27.5 3.5t27.5 12.5h3v-12q-12 -18 -33 -29t-49 -11q-41 0 -67.5 22.5t-26.5 62.5q0 39 24 76.5t63 78.5h-110z" />
    <glyph glyph-name="iogonek" unicode="&#x12f;" horiz-adv-x="308" 
d="M147 596q-22 0 -36.5 14.5t-14.5 36.5t14.5 36.5t36.5 14.5t36.5 -14.5t14.5 -36.5t-14.5 -36.5t-36.5 -14.5zM58 0v16l63 25v332l-65 39v10l125 38h8v-419l66 -25v-16h-79q-57 -76 -57 -138q0 -35 17 -50.5t48 -15.5q13 0 26.5 3.5t27.5 12.5h3v-12q-12 -18 -33 -29
t-48 -11q-41 0 -68 22.5t-27 62.5q0 39 24 76.5t64 78.5h-95z" />
    <glyph glyph-name="Idotaccent" unicode="&#x130;" horiz-adv-x="376" 
d="M70 0v20l79 30v560l-79 30v20h236v-20l-79 -30v-560l79 -30v-20h-236zM188 737q-21 0 -36 14.5t-15 36.5q0 21 15 36t36 15t36 -15t15 -36q0 -22 -15 -36.5t-36 -14.5z" />
    <glyph glyph-name="idotless" unicode="&#x131;" horiz-adv-x="308" 
d="M58 0v16l63 25v332l-65 39v10l125 38h8v-419l66 -25v-16h-197z" />
    <glyph glyph-name="IJ" unicode="&#x132;" horiz-adv-x="754" 
d="M70 0v20l79 30v560l-79 30v20h236v-20l-79 -30v-560l79 -30v-20h-236zM429 -174q-18 0 -28 8.5t-10 21.5q0 3 3 19l7 30l83 -16q21 22 31.5 61t10.5 101v559l-80 30v20h238v-20l-80 -30v-382q0 -128 -18 -209t-56 -123q-26 -29 -43 -44t-30 -20.5t-28 -5.5z" />
    <glyph glyph-name="ij" unicode="&#x133;" horiz-adv-x="607" 
d="M147 596q-22 0 -36.5 14.5t-14.5 36.5t14.5 36.5t36.5 14.5t36.5 -14.5t14.5 -36.5t-14.5 -36.5t-36.5 -14.5zM58 0v16l63 25v332l-65 39v10l125 38h8v-419l66 -25v-16h-197zM455 596q-22 0 -36.5 14.5t-14.5 36.5t14.5 36.5t36.5 14.5t36.5 -14.5t14.5 -36.5
t-14.5 -36.5t-36.5 -14.5zM366 -230v16q26 24 39.5 50.5t18.5 64t5 93.5v379l-65 39v10l125 38h8v-460q0 -50 -10.5 -92t-38.5 -76.5t-82 -61.5z" />
    <glyph glyph-name="Jcircumflex" unicode="&#x134;" horiz-adv-x="378" 
d="M53 -174q-18 0 -28 8.5t-10 21.5q0 3 3 19l7 30l83 -16q21 22 31.5 61t10.5 101v559l-80 30v20h238v-20l-80 -30v-382q0 -128 -18 -209t-56 -123q-26 -29 -43 -44t-30 -20.5t-28 -5.5zM47 710l129 152h26l129 -152h-12l-130 86l-130 -86h-12z" />
    <glyph glyph-name="jcircumflex" unicode="&#x135;" horiz-adv-x="299" 
d="M189 0q0 -50 -10.5 -92t-38.5 -76.5t-82 -61.5v16q26 24 39.5 50.5t18.5 64t5 93.5v379l-65 39v10l125 38h8v-460zM7 530l129 177h26l129 -177h-12l-130 106l-130 -106h-12z" />
    <glyph glyph-name="Kcommaaccent" unicode="&#x136;" horiz-adv-x="712" 
d="M65 0v20l80 30v560l-80 30v20h238v-20l-80 -30v-271l282 274l-73 27v20h205v-20l-61 -19l-275 -262l324 -318l64 -21v-20h-131l-335 337v-287l80 -30v-20h-238zM276 -235l63 160h74v-11l-125 -149h-12z" />
    <glyph glyph-name="kcommaaccent" unicode="&#x137;" horiz-adv-x="546" 
d="M52 0v16l63 25v622l-65 39v10l125 38h8v-497l169 146v6l-49 29v16h178v-16l-64 -28l-174 -135l211 -228l64 -27v-16h-122l-33 45l-180 197v-202l71 -24v-16h-202zM197 -235l63 160h74v-11l-125 -149h-12z" />
    <glyph glyph-name="kgreenlandic" unicode="&#x138;" horiz-adv-x="546" 
d="M52 0v16l63 25v332l-65 39v10l125 38h8v-207l169 146v6l-49 29v16h178v-16l-64 -28l-174 -135l211 -228l64 -27v-16h-122l-33 45l-180 197v-202l71 -24v-16h-202z" />
    <glyph glyph-name="Lacute" unicode="&#x139;" horiz-adv-x="623" 
d="M65 0v20l79 30v560l-79 30v20h247v-20l-90 -30v-563h254l60 171h17v-218h-488zM178 710l83 152h86v-14l-155 -138h-14z" />
    <glyph glyph-name="lacute" unicode="&#x13a;" horiz-adv-x="289" 
d="M48 0v16l63 25v622l-65 39v10l125 38h8v-709l66 -25v-16h-197zM139 765l83 152h86v-14l-155 -138h-14z" />
    <glyph glyph-name="Lcommaaccent" unicode="&#x13b;" horiz-adv-x="623" 
d="M65 0v20l79 30v560l-79 30v20h247v-20l-90 -30v-563h254l60 171h17v-218h-488zM243 -235l63 160h74v-11l-125 -149h-12z" />
    <glyph glyph-name="lcommaaccent" unicode="&#x13c;" horiz-adv-x="289" 
d="M48 0v16l63 25v622l-65 39v10l125 38h8v-709l66 -25v-16h-197zM50 -235l63 160h74v-11l-125 -149h-12z" />
    <glyph glyph-name="Lcaron" unicode="&#x13d;" horiz-adv-x="623" 
d="M65 0v20l79 30v560l-79 30v20h247v-20l-90 -30v-563h254l60 171h17v-218h-488zM413 473l25 187h76v-14l-90 -173h-11z" />
    <glyph glyph-name="lcaron" unicode="&#x13e;" horiz-adv-x="289" 
d="M48 0v16l63 25v622l-65 39v10l125 38h8v-709l66 -25v-16h-197zM237 553l25 187h76v-14l-90 -173h-11z" />
    <glyph glyph-name="Ldot" unicode="&#x13f;" horiz-adv-x="623" 
d="M65 0v20l79 30v560l-79 30v20h247v-20l-90 -30v-563h254l60 171h17v-218h-488zM485 293q-21 0 -36 15t-15 36t15 36t36 15t36 -15t15 -36t-15 -36t-36 -15z" />
    <glyph glyph-name="ldot" unicode="&#x140;" horiz-adv-x="289" 
d="M48 0v16l63 25v622l-65 39v10l125 38h8v-709l66 -25v-16h-197zM290 249q-21 0 -36 15t-15 36t15 36t36 15t36 -15t15 -36t-15 -36t-36 -15z" />
    <glyph glyph-name="Lslash" unicode="&#x141;" horiz-adv-x="623" 
d="M65 0v20l79 30v213l-78 -54v53l78 54v294l-79 30v20h247v-20l-90 -30v-251l149 101v-53l-149 -101v-259h254l60 171h17v-218h-488z" />
    <glyph glyph-name="lslash" unicode="&#x142;" horiz-adv-x="289" 
d="M48 0v16l63 25v277l-63 -40v47l63 40v298l-65 39v10l119 38h14v-347l72 47v-47l-72 -48v-314l66 -25v-16h-197z" />
    <glyph glyph-name="Nacute" unicode="&#x143;" horiz-adv-x="793" 
d="M62 0v20l79 30v559l-78 31v20h140l392 -508v459l-94 29v20h230v-20l-79 -30v-615h-31l-422 545v-489l96 -31v-20h-233zM397 710l83 152h86v-14l-155 -138h-14z" />
    <glyph glyph-name="nacute" unicode="&#x144;" horiz-adv-x="574" 
d="M52 0v16l63 25v332l-65 34v11l117 42h8l7 -73h4q38 38 72.5 55.5t76.5 17.5q60 0 99 -31.5t39 -93.5v-294l63 -25v-16h-202v16l71 25v255q0 51 -29.5 77.5t-77.5 26.5q-28 0 -61.5 -11t-53.5 -33v-315l71 -25v-16h-202zM291 530l86 177h87v-14l-161 -163h-12z" />
    <glyph glyph-name="Ncommaaccent" unicode="&#x145;" horiz-adv-x="793" 
d="M62 0v20l79 30v559l-78 31v20h140l392 -508v459l-94 29v20h230v-20l-79 -30v-615h-31l-422 545v-489l96 -31v-20h-233zM313 -235l63 160h74v-11l-125 -149h-12z" />
    <glyph glyph-name="ncommaaccent" unicode="&#x146;" horiz-adv-x="574" 
d="M52 0v16l63 25v332l-65 34v11l117 42h8l7 -73h4q38 38 72.5 55.5t76.5 17.5q60 0 99 -31.5t39 -93.5v-294l63 -25v-16h-202v16l71 25v255q0 51 -29.5 77.5t-77.5 26.5q-28 0 -61.5 -11t-53.5 -33v-315l71 -25v-16h-202zM199 -235l63 160h74v-11l-125 -149h-12z" />
    <glyph glyph-name="Ncaron" unicode="&#x147;" horiz-adv-x="793" 
d="M62 0v20l79 30v559l-78 31v20h140l392 -508v459l-94 29v20h230v-20l-79 -30v-615h-31l-422 545v-489l96 -31v-20h-233zM390 710l-129 152h12l130 -86l130 86h12l-129 -152h-26z" />
    <glyph glyph-name="ncaron" unicode="&#x148;" horiz-adv-x="574" 
d="M52 0v16l63 25v332l-65 34v11l117 42h8l7 -73h4q38 38 72.5 55.5t76.5 17.5q60 0 99 -31.5t39 -93.5v-294l63 -25v-16h-202v16l71 25v255q0 51 -29.5 77.5t-77.5 26.5q-28 0 -61.5 -11t-53.5 -33v-315l71 -25v-16h-202zM281 530l-129 177h12l130 -106l130 106h12
l-129 -177h-26z" />
    <glyph glyph-name="Eng" unicode="&#x14a;" horiz-adv-x="793" 
d="M652 -24q0 -59 -20 -108t-58 -78.5t-91 -29.5q-29 0 -37 8.5t-8 27.5v42h124q18 21 25.5 50.5t7.5 68.5v71l-396 508v-485l96 -31v-20h-233v20l79 30v559l-78 31v20h140l392 -508v459l-94 29v20h230v-20l-79 -30v-634z" />
    <glyph glyph-name="eng" unicode="&#x14b;" horiz-adv-x="573" 
d="M52 0v16l63 25v332l-65 34v11l117 42h8l7 -73h4q38 38 72.5 55.5t76.5 17.5q60 0 99 -31.5t39 -93.5v-329q0 -62 -16 -105t-53.5 -73.5t-102.5 -57.5v16q37 20 60 46t33.5 64.5t10.5 97.5v302q0 51 -29.5 77.5t-77.5 26.5q-28 0 -61.5 -11t-53.5 -33v-315l71 -25v-16
h-202z" />
    <glyph glyph-name="Omacron" unicode="&#x14c;" horiz-adv-x="791" 
d="M395 -10q-70 0 -129.5 25.5t-103 71t-68 108t-24.5 135.5q0 74 24.5 136t68 107.5t103 71t129.5 25.5t129.5 -25.5t103.5 -71t68.5 -107.5t24.5 -136q0 -73 -24.5 -135.5t-68.5 -108t-103.5 -71t-129.5 -25.5zM416 32q66 0 116 33t78 93t28 141q0 100 -35 174t-94 115
t-131 41q-66 0 -117 -32.5t-79.5 -92.5t-28.5 -141q0 -100 35 -174.5t95 -115.5t133 -41zM257 766v44h262v-44h-262z" />
    <glyph glyph-name="omacron" unicode="&#x14d;" horiz-adv-x="528" 
d="M264 -10q-64 0 -112 31t-75 84t-27 120t27 120t75 84t112 31t112 -31t75 -84t27 -120t-27 -120t-75 -84t-112 -31zM278 25q43 0 71 26t41.5 67t13.5 87q0 58 -16.5 108.5t-50 81.5t-85.5 31q-43 0 -71.5 -25t-42.5 -66t-14 -89q0 -58 17 -108.5t51 -81.5t86 -31zM131 595
v44h262v-44h-262z" />
    <glyph glyph-name="Obreve" unicode="&#x14e;" horiz-adv-x="791" 
d="M395 -10q-70 0 -129.5 25.5t-103 71t-68 108t-24.5 135.5q0 74 24.5 136t68 107.5t103 71t129.5 25.5t129.5 -25.5t103.5 -71t68.5 -107.5t24.5 -136q0 -73 -24.5 -135.5t-68.5 -108t-103.5 -71t-129.5 -25.5zM416 32q66 0 116 33t78 93t28 141q0 100 -35 174t-94 115
t-131 41q-66 0 -117 -32.5t-79.5 -92.5t-28.5 -141q0 -100 35 -174.5t95 -115.5t133 -41zM388 710q-62 0 -93 39.5t-49 112.5h12q17 -40 35.5 -60t41 -27.5t53.5 -7.5t53.5 7.5t41 27.5t35.5 60h12q-19 -73 -49.5 -112.5t-92.5 -39.5z" />
    <glyph glyph-name="obreve" unicode="&#x14f;" horiz-adv-x="528" 
d="M264 -10q-64 0 -112 31t-75 84t-27 120t27 120t75 84t112 31t112 -31t75 -84t27 -120t-27 -120t-75 -84t-112 -31zM278 25q43 0 71 26t41.5 67t13.5 87q0 58 -16.5 108.5t-50 81.5t-85.5 31q-43 0 -71.5 -25t-42.5 -66t-14 -89q0 -58 17 -108.5t51 -81.5t86 -31zM262 540
q-62 0 -92 41.5t-50 125.5h12q19 -48 38.5 -71.5t41.5 -31t50 -7.5t50 7.5t41 31t39 71.5h12q-20 -84 -50 -125.5t-92 -41.5z" />
    <glyph glyph-name="Ohungarumlaut" unicode="&#x150;" horiz-adv-x="791" 
d="M395 -10q-70 0 -129.5 25.5t-103 71t-68 108t-24.5 135.5q0 74 24.5 136t68 107.5t103 71t129.5 25.5t129.5 -25.5t103.5 -71t68.5 -107.5t24.5 -136q0 -73 -24.5 -135.5t-68.5 -108t-103.5 -71t-129.5 -25.5zM416 32q66 0 116 33t78 93t28 141q0 100 -35 174t-94 115
t-131 41q-66 0 -117 -32.5t-79.5 -92.5t-28.5 -141q0 -100 35 -174.5t95 -115.5t133 -41zM439 710l59 152h82v-14l-129 -138h-12zM326 710l50 152h80v-14l-118 -138h-12z" />
    <glyph glyph-name="ohungarumlaut" unicode="&#x151;" horiz-adv-x="528" 
d="M264 -10q-64 0 -112 31t-75 84t-27 120t27 120t75 84t112 31t112 -31t75 -84t27 -120t-27 -120t-75 -84t-112 -31zM278 25q43 0 71 26t41.5 67t13.5 87q0 58 -16.5 108.5t-50 81.5t-85.5 31q-43 0 -71.5 -25t-42.5 -66t-14 -89q0 -58 17 -108.5t51 -81.5t86 -31zM310 530
l58 177h73v-14l-119 -163h-12zM197 530l48 177h72v-14l-108 -163h-12z" />
    <glyph glyph-name="OE" unicode="&#x152;" horiz-adv-x="991" 
d="M417 0q-109 1 -187 40.5t-119 111t-41 169.5q0 101 44.5 177.5t124.5 119t185 42.5h469v-168h-18l-54 121h-243v-249h174l40 83h18v-211h-18l-40 81h-174v-270h271l54 131h18v-178h-504zM429 47h71v566h-83q-81 0 -140.5 -34.5t-91.5 -98.5t-32 -150q0 -134 71.5 -208.5
t204.5 -74.5z" />
    <glyph glyph-name="oe" unicode="&#x153;" horiz-adv-x="843" 
d="M264 -10q-64 0 -112 31t-75 84t-27 120t27 120t75 84t112 31q62 0 109.5 -30t73.5 -80q29 50 74.5 80t98.5 30q79 0 124.5 -54t48.5 -152l-4 -4h-311v-8q0 -52 18 -95.5t57 -69.5t101 -26q72 0 136 45h3v-11q-23 -40 -67 -67.5t-103 -27.5q-65 0 -111 26t-72 72
q-27 -45 -72.5 -71.5t-103.5 -26.5zM278 25q43 0 71 26t41.5 67t13.5 87q0 58 -16.5 108.5t-50 81.5t-85.5 31q-43 0 -71.5 -25t-42.5 -66t-14 -89q0 -58 17 -108.5t51.5 -81.5t85.5 -31zM606 425q-48 0 -82 -36.5t-43 -102.5h244q-10 70 -39 104.5t-80 34.5z" />
    <glyph glyph-name="Racute" unicode="&#x154;" horiz-adv-x="637" 
d="M65 0v20l80 30v560l-80 30v20h233q105 0 165.5 -43.5t60.5 -119.5q0 -58 -38 -101.5t-101 -64.5l191 -285l66 -26v-20h-132l-197 307h-90v-256l75 -31v-20h-233zM288 613h-65v-259h71q63 0 104.5 36.5t41.5 93.5q0 60 -41 94.5t-111 34.5zM303 710l83 152h86v-14
l-155 -138h-14z" />
    <glyph glyph-name="racute" unicode="&#x155;" horiz-adv-x="382" 
d="M56 0v16l63 25v332l-65 34v11l117 42h8l8 -95h2q47 54 77.5 73.5t57.5 19.5q19 0 31 -8.5t12 -25.5q0 -3 -0.5 -8.5t-2.5 -13.5l-5 -29l-96 17q-45 -21 -76 -64v-285l73 -25v-16h-204zM223 530l86 177h87v-14l-161 -163h-12z" />
    <glyph glyph-name="Rcommaaccent" unicode="&#x156;" horiz-adv-x="637" 
d="M65 0v20l80 30v560l-80 30v20h233q105 0 165.5 -43.5t60.5 -119.5q0 -58 -38 -101.5t-101 -64.5l191 -285l66 -26v-20h-132l-197 307h-90v-256l75 -31v-20h-233zM288 613h-65v-259h71q63 0 104.5 36.5t41.5 93.5q0 60 -41 94.5t-111 34.5zM263 -235l63 160h74v-11
l-125 -149h-12z" />
    <glyph glyph-name="rcommaaccent" unicode="&#x157;" horiz-adv-x="382" 
d="M56 0v16l63 25v332l-65 34v11l117 42h8l8 -95h2q47 54 77.5 73.5t57.5 19.5q19 0 31 -8.5t12 -25.5q0 -3 -0.5 -8.5t-2.5 -13.5l-5 -29l-96 17q-45 -21 -76 -64v-285l73 -25v-16h-204zM58 -235l63 160h74v-11l-125 -149h-12z" />
    <glyph glyph-name="Rcaron" unicode="&#x158;" horiz-adv-x="637" 
d="M65 0v20l80 30v560l-80 30v20h233q105 0 165.5 -43.5t60.5 -119.5q0 -58 -38 -101.5t-101 -64.5l191 -285l66 -26v-20h-132l-197 307h-90v-256l75 -31v-20h-233zM288 613h-65v-259h71q63 0 104.5 36.5t41.5 93.5q0 60 -41 94.5t-111 34.5zM296 710l-129 152h12l130 -86
l130 86h12l-129 -152h-26z" />
    <glyph glyph-name="rcaron" unicode="&#x159;" horiz-adv-x="382" 
d="M56 0v16l63 25v332l-65 34v11l117 42h8l8 -95h2q47 54 77.5 73.5t57.5 19.5q19 0 31 -8.5t12 -25.5q0 -3 -0.5 -8.5t-2.5 -13.5l-5 -29l-96 17q-45 -21 -76 -64v-285l73 -25v-16h-204zM212 530l-129 177h12l130 -106l130 106h12l-129 -177h-26z" />
    <glyph glyph-name="Sacute" unicode="&#x15a;" horiz-adv-x="525" 
d="M260 -10q-60 0 -102 11.5t-88 34.5l-10 160h17l52 -115q36 -28 69 -39.5t67 -11.5q63 0 96.5 33t33.5 91q0 45 -21 71t-59.5 46t-90.5 46q-46 23 -77.5 46t-47.5 53t-16 75q0 33 16 65t43.5 57.5t62 41t71.5 15.5q45 0 83 -11t78 -31l10 -156h-17l-44 110
q-31 25 -56.5 36t-58.5 11q-52 0 -82 -31.5t-30 -78.5q0 -36 14.5 -60t44.5 -44t76 -43q60 -29 99 -55t58 -59.5t19 -84.5q0 -43 -19 -77t-50 -57.5t-68 -36t-73 -12.5zM266 710l83 152h86v-14l-155 -138h-14z" />
    <glyph glyph-name="sacute" unicode="&#x15b;" horiz-adv-x="421" 
d="M200 -10q-42 0 -73.5 7.5t-63.5 24.5v109h13l25 -51q13 -29 37.5 -44t63.5 -15q43 0 67 21t24 58q0 41 -26.5 60.5t-80.5 43.5q-55 24 -83 51.5t-28 78.5q0 35 19.5 63.5t50.5 45.5t65 17q37 0 67.5 -9t57.5 -23v-106h-13l-25 49q-14 30 -37 43.5t-48 13.5
q-36 0 -56.5 -19.5t-20.5 -52.5q0 -35 23.5 -54t71.5 -40q34 -15 62 -30.5t44.5 -40.5t16.5 -69q0 -40 -22 -69.5t-57 -46t-74 -16.5zM206 530l86 177h87v-14l-161 -163h-12z" />
    <glyph glyph-name="Scircumflex" unicode="&#x15c;" horiz-adv-x="525" 
d="M260 -10q-60 0 -102 11.5t-88 34.5l-10 160h17l52 -115q36 -28 69 -39.5t67 -11.5q63 0 96.5 33t33.5 91q0 45 -21 71t-59.5 46t-90.5 46q-46 23 -77.5 46t-47.5 53t-16 75q0 33 16 65t43.5 57.5t62 41t71.5 15.5q45 0 83 -11t78 -31l10 -156h-17l-44 110
q-31 25 -56.5 36t-58.5 11q-52 0 -82 -31.5t-30 -78.5q0 -36 14.5 -60t44.5 -44t76 -43q60 -29 99 -55t58 -59.5t19 -84.5q0 -43 -19 -77t-50 -57.5t-68 -36t-73 -12.5zM129 710l129 152h26l129 -152h-12l-130 86l-130 -86h-12z" />
    <glyph glyph-name="scircumflex" unicode="&#x15d;" horiz-adv-x="421" 
d="M200 -10q-42 0 -73.5 7.5t-63.5 24.5v109h13l25 -51q13 -29 37.5 -44t63.5 -15q43 0 67 21t24 58q0 41 -26.5 60.5t-80.5 43.5q-55 24 -83 51.5t-28 78.5q0 35 19.5 63.5t50.5 45.5t65 17q37 0 67.5 -9t57.5 -23v-106h-13l-25 49q-14 30 -37 43.5t-48 13.5
q-36 0 -56.5 -19.5t-20.5 -52.5q0 -35 23.5 -54t71.5 -40q34 -15 62 -30.5t44.5 -40.5t16.5 -69q0 -40 -22 -69.5t-57 -46t-74 -16.5zM67 530l129 177h26l129 -177h-12l-130 106l-130 -106h-12z" />
    <glyph glyph-name="Scedilla" unicode="&#x15e;" horiz-adv-x="525" 
d="M266 -240q-51 0 -77 27v12h3q28 -14 63 -14q31 0 44 12.5t13 31.5q0 26 -25 41.5t-83 32.5l45 87q-55 1 -95 12.5t-84 33.5l-10 160h17l52 -115q36 -28 69 -39.5t67 -11.5q63 0 96.5 33t33.5 91q0 45 -21 71t-59.5 46t-90.5 46q-46 23 -77.5 46t-47.5 53t-16 75
q0 33 16 65t43.5 57.5t62 41t71.5 15.5q45 0 83 -11t78 -31l10 -156h-17l-45 110q-30 25 -55.5 36t-58.5 11q-52 0 -82 -31.5t-30 -78.5q0 -36 14.5 -60t44.5 -44t76 -43q60 -29 99 -55t58 -59.5t19 -84.5q0 -54 -28.5 -93t-72.5 -62t-90 -27l-26 -50q52 -16 79.5 -37.5
t27.5 -60.5q0 -36 -24.5 -59.5t-69.5 -23.5z" />
    <glyph glyph-name="scedilla" unicode="&#x15f;" horiz-adv-x="421" 
d="M205 -240q-51 0 -77 27v12h3q28 -14 63 -14q31 0 44 12.5t13 31.5q0 26 -25 41.5t-83 32.5l45 87q-37 1 -66 9t-59 23v109h13l25 -51q13 -29 37.5 -44t63.5 -15q43 0 67 21t24 58q0 41 -27 61t-80 43q-55 23 -83 51t-28 79q0 35 19.5 63.5t50.5 45.5t65 17q37 0 67.5 -9
t57.5 -23v-106h-13l-25 49q-14 31 -37 44t-48 13q-36 0 -56.5 -19.5t-20.5 -52.5q0 -35 23.5 -54t71.5 -40q34 -15 62 -30.5t44.5 -40.5t16.5 -69q0 -37 -19 -65t-50 -45.5t-66 -20.5l-26 -50q52 -16 79.5 -37.5t27.5 -60.5q0 -36 -24.5 -59.5t-69.5 -23.5z" />
    <glyph glyph-name="Scaron" unicode="&#x160;" horiz-adv-x="525" 
d="M260 -10q-60 0 -102 11.5t-88 34.5l-10 160h17l52 -115q36 -28 69 -39.5t67 -11.5q63 0 96.5 33t33.5 91q0 45 -21 71t-59.5 46t-90.5 46q-46 23 -77.5 46t-47.5 53t-16 75q0 33 16 65t43.5 57.5t62 41t71.5 15.5q45 0 83 -11t78 -31l10 -156h-17l-44 110
q-31 25 -56.5 36t-58.5 11q-52 0 -82 -31.5t-30 -78.5q0 -36 14.5 -60t44.5 -44t76 -43q60 -29 99 -55t58 -59.5t19 -84.5q0 -43 -19 -77t-50 -57.5t-68 -36t-73 -12.5zM258 710l-129 152h12l130 -86l130 86h12l-129 -152h-26z" />
    <glyph glyph-name="scaron" unicode="&#x161;" horiz-adv-x="421" 
d="M200 -10q-42 0 -73.5 7.5t-63.5 24.5v109h13l25 -51q13 -29 37.5 -44t63.5 -15q43 0 67 21t24 58q0 41 -26.5 60.5t-80.5 43.5q-55 24 -83 51.5t-28 78.5q0 35 19.5 63.5t50.5 45.5t65 17q37 0 67.5 -9t57.5 -23v-106h-13l-25 49q-14 30 -37 43.5t-48 13.5
q-36 0 -56.5 -19.5t-20.5 -52.5q0 -35 23.5 -54t71.5 -40q34 -15 62 -30.5t44.5 -40.5t16.5 -69q0 -40 -22 -69.5t-57 -46t-74 -16.5zM196 530l-129 177h12l130 -106l130 106h12l-129 -177h-26z" />
    <glyph glyph-name="Tcedilla" unicode="&#x162;" horiz-adv-x="670" 
d="M196 0v20l100 30v563h-176l-57 -147h-18v194h580v-194h-18l-57 147h-176v-563l100 -30v-20h-129l-31 -59q53 -16 80.5 -37.5t27.5 -60.5q0 -36 -24.5 -59.5t-69.5 -23.5q-52 0 -77 27v12h3q28 -14 62 -14q31 0 44.5 12.5t13.5 31.5q0 26 -25.5 41.5t-83.5 32.5l51 97
h-120z" />
    <glyph glyph-name="tcedilla" unicode="&#x163;" horiz-adv-x="344" 
d="M195 -240q-52 0 -77 27v12h3q28 -14 63 -14q30 0 43.5 12.5t13.5 31.5q0 26 -25.5 41.5t-82.5 32.5l46 89q-34 7 -55.5 32t-21.5 65v319h-84v8l89 34l55 110h8v-110h132v-42h-132v-308q0 -28 21.5 -41.5t52.5 -13.5q20 0 37 3t31 9l2 -1v-7q-9 -20 -36.5 -39.5
t-70.5 -19.5l-25 -49q52 -16 79.5 -37.5t27.5 -60.5q0 -36 -24.5 -59.5t-69.5 -23.5z" />
    <glyph glyph-name="Tcaron" unicode="&#x164;" horiz-adv-x="670" 
d="M196 0v20l100 30v563h-176l-57 -147h-18v194h580v-194h-18l-57 147h-176v-563l100 -30v-20h-278zM322 710l-129 152h12l130 -86l130 86h12l-129 -152h-26z" />
    <glyph glyph-name="tcaron" unicode="&#x165;" horiz-adv-x="344" 
d="M204 -10q-43 0 -72.5 26t-29.5 73v319h-84v8l89 34l55 110h8v-110h132v-42h-132v-308q0 -28 21.5 -41.5t52.5 -13.5q20 0 37 3t31 9l2 -1v-7q-9 -20 -37 -39.5t-73 -19.5zM238 553l25 187h76v-14l-90 -173h-11z" />
    <glyph glyph-name="Tbar" unicode="&#x166;" horiz-adv-x="670" 
d="M196 0v20l100 30v270h-128v44h128v249h-176l-57 -147h-18v194h580v-194h-18l-57 147h-176v-249h128v-44h-128v-270l100 -30v-20h-278z" />
    <glyph glyph-name="tbar" unicode="&#x167;" horiz-adv-x="344" 
d="M204 -10q-43 0 -72.5 26t-29.5 73v149h-76v40h76v130h-84v8l89 34l55 110h8v-110h132v-42h-132v-130h122v-40h-122v-138q0 -28 21.5 -41.5t52.5 -13.5q20 0 37 3t31 9l2 -1v-7q-9 -20 -37 -39.5t-73 -19.5z" />
    <glyph glyph-name="Utilde" unicode="&#x168;" horiz-adv-x="797" 
d="M399 -10q-73 0 -130.5 27t-90.5 84t-33 148v361l-80 30v20h238v-20l-80 -30v-347q0 -83 25.5 -131.5t70 -69.5t103.5 -21q47 0 86.5 20t63 62t23.5 109v380l-100 28v20h237v-20l-79 -29v-362q0 -91 -33.5 -148t-90.5 -84t-130 -27zM262 728q15 48 29 72.5t28.5 33
t32.5 8.5q26 0 47 -15.5t41 -31t41 -15.5q19 0 33.5 13.5t28.5 48.5h13q-15 -49 -29 -73.5t-28.5 -32.5t-32.5 -8q-26 0 -47 15.5t-41 30.5t-41 15q-19 0 -33.5 -13t-28.5 -48h-13z" />
    <glyph glyph-name="utilde" unicode="&#x169;" horiz-adv-x="548" 
d="M230 -10q-59 0 -97.5 31.5t-38.5 93.5v294l-66 25v16h134v-296q0 -51 29 -77.5t76 -26.5q27 0 60 11t53 33v315l-75 25v16h143v-410l71 -24v-16h-139v62h-4q-37 -37 -71 -54.5t-75 -17.5zM121 556q16 52 30 79t28 36t32 9q19 0 36 -11t32 -25.5t30 -25.5t31 -11
q19 0 32.5 16.5t29.5 56.5h13q-16 -52 -30 -79t-28 -36t-32 -9q-19 0 -36 11t-32 25.5t-30 25.5t-31 11q-19 0 -32.5 -16.5t-29.5 -56.5h-13z" />
    <glyph glyph-name="Umacron" unicode="&#x16a;" horiz-adv-x="797" 
d="M399 -10q-73 0 -130.5 27t-90.5 84t-33 148v361l-80 30v20h238v-20l-80 -30v-347q0 -83 25.5 -131.5t70 -69.5t103.5 -21q47 0 86.5 20t63 62t23.5 109v380l-100 28v20h237v-20l-79 -29v-362q0 -91 -33.5 -148t-90.5 -84t-130 -27zM278 766v44h262v-44h-262z" />
    <glyph glyph-name="umacron" unicode="&#x16b;" horiz-adv-x="548" 
d="M230 -10q-59 0 -97.5 31.5t-38.5 93.5v294l-66 25v16h134v-296q0 -51 29 -77.5t76 -26.5q27 0 60 11t53 33v315l-75 25v16h143v-410l71 -24v-16h-139v62h-4q-37 -37 -71 -54.5t-75 -17.5zM137 595v44h262v-44h-262z" />
    <glyph glyph-name="Ubreve" unicode="&#x16c;" horiz-adv-x="797" 
d="M399 -10q-73 0 -130.5 27t-90.5 84t-33 148v361l-80 30v20h238v-20l-80 -30v-347q0 -83 25.5 -131.5t70 -69.5t103.5 -21q47 0 86.5 20t63 62t23.5 109v380l-100 28v20h237v-20l-79 -29v-362q0 -91 -33.5 -148t-90.5 -84t-130 -27zM409 710q-62 0 -93 39.5t-49 112.5h12
q17 -40 35.5 -60t41 -27.5t53.5 -7.5t53.5 7.5t41 27.5t35.5 60h12q-19 -73 -49.5 -112.5t-92.5 -39.5z" />
    <glyph glyph-name="ubreve" unicode="&#x16d;" horiz-adv-x="548" 
d="M230 -10q-59 0 -97.5 31.5t-38.5 93.5v294l-66 25v16h134v-296q0 -51 29 -77.5t76 -26.5q27 0 60 11t53 33v315l-75 25v16h143v-410l71 -24v-16h-139v62h-4q-37 -37 -71 -54.5t-75 -17.5zM268 540q-62 0 -92 41.5t-50 125.5h12q19 -48 38.5 -71.5t41.5 -31t50 -7.5
t50 7.5t41 31t39 71.5h12q-20 -84 -50 -125.5t-92 -41.5z" />
    <glyph glyph-name="Uring" unicode="&#x16e;" horiz-adv-x="797" 
d="M399 -10q-73 0 -130.5 27t-90.5 84t-33 148v361l-80 30v20h238v-20l-80 -30v-347q0 -83 25.5 -131.5t70 -69.5t103.5 -21q47 0 86.5 20t63 62t23.5 109v380l-100 28v20h237v-20l-79 -29v-362q0 -91 -33.5 -148t-90.5 -84t-130 -27zM409 710q-38 0 -61.5 23t-23.5 59
q0 34 23.5 58t61.5 24t61.5 -24t23.5 -58q0 -36 -23.5 -59t-61.5 -23zM414 732q35 0 35 53q0 67 -44 67q-16 0 -25 -12t-9 -41q0 -67 43 -67z" />
    <glyph glyph-name="uring" unicode="&#x16f;" horiz-adv-x="548" 
d="M230 -10q-59 0 -97.5 31.5t-38.5 93.5v294l-66 25v16h134v-296q0 -51 29 -77.5t76 -26.5q27 0 60 11t53 33v315l-75 25v16h143v-410l71 -24v-16h-139v62h-4q-37 -37 -71 -54.5t-75 -17.5zM268 700q38 0 61.5 -23.5t23.5 -58.5t-23.5 -58.5t-61.5 -23.5t-61.5 23.5
t-23.5 58.5t23.5 58.5t61.5 23.5zM264 678q-16 0 -25 -12t-9 -41q0 -67 43 -67q35 0 35 53q0 67 -44 67z" />
    <glyph glyph-name="Uhungarumlaut" unicode="&#x170;" horiz-adv-x="797" 
d="M399 -10q-73 0 -130.5 27t-90.5 84t-33 148v361l-80 30v20h238v-20l-80 -30v-347q0 -83 25.5 -131.5t70 -69.5t103.5 -21q47 0 86.5 20t63 62t23.5 109v380l-100 28v20h237v-20l-79 -29v-362q0 -91 -33.5 -148t-90.5 -84t-130 -27zM460 710l59 152h82v-14l-129 -138h-12z
M347 710l50 152h80v-14l-118 -138h-12z" />
    <glyph glyph-name="uhungarumlaut" unicode="&#x171;" horiz-adv-x="548" 
d="M230 -10q-59 0 -97.5 31.5t-38.5 93.5v294l-66 25v16h134v-296q0 -51 29 -77.5t76 -26.5q27 0 60 11t53 33v315l-75 25v16h143v-410l71 -24v-16h-139v62h-4q-37 -37 -71 -54.5t-75 -17.5zM315 530l58 177h73v-14l-119 -163h-12zM202 530l48 177h72v-14l-108 -163h-12z
" />
    <glyph glyph-name="Uogonek" unicode="&#x172;" horiz-adv-x="797" 
d="M399 -10q-73 0 -130.5 27t-90.5 84t-33 148v361l-80 30v20h238v-20l-80 -30v-347q0 -83 25.5 -131.5t70 -69.5t103.5 -21q47 0 86.5 20t63 62t23.5 109v380l-100 28v20h237v-20l-79 -29v-362q0 -85 -29.5 -140.5t-80.5 -84t-117 -33.5q-50 -70 -50 -129q0 -35 17 -50.5
t48 -15.5q13 0 26.5 3.5t27.5 12.5h3v-12q-12 -18 -33 -29t-49 -11q-41 0 -67.5 22.5t-26.5 62.5q0 37 21.5 72t56.5 73h-1z" />
    <glyph glyph-name="uogonek" unicode="&#x173;" horiz-adv-x="548" 
d="M230 -10q-59 0 -97.5 31.5t-38.5 93.5v294l-66 25v16h134v-296q0 -51 29 -77.5t76 -26.5q27 0 60 11t53 33v315l-75 25v16h143v-410l71 -24v-16h-65q-57 -76 -57 -138q0 -35 17 -50.5t48 -15.5q13 0 26.5 3.5t27.5 12.5h3v-12q-12 -18 -33 -29t-48 -11q-41 0 -68 22.5
t-27 62.5q0 39 24 76.5t64 78.5h-51v62h-4q-37 -37 -71 -54.5t-75 -17.5z" />
    <glyph glyph-name="Wcircumflex" unicode="&#x174;" horiz-adv-x="970" 
d="M272 -5l-183 618l-74 27v20h243v-20l-87 -27l133 -464h4l176 516h31l183 -516h5l129 461l-87 30v20h210v-20l-66 -28l-184 -617h-29l-186 508h-5l-184 -508h-29zM358 710l129 152h26l129 -152h-12l-130 86l-130 -86h-12z" />
    <glyph glyph-name="wcircumflex" unicode="&#x175;" horiz-adv-x="722" 
d="M192 -2l-150 410l-65 26v16h220v-16l-80 -24v-5l105 -306h3l142 351h18l142 -348h3l103 299v5l-76 28v16h188v-16l-70 -28l-158 -408h-17l-143 342l-148 -342h-17zM235 530l129 177h26l129 -177h-12l-130 106l-130 -106h-12z" />
    <glyph glyph-name="Ycircumflex" unicode="&#x176;" horiz-adv-x="706" 
d="M228 0v20l90 30v261l-220 302l-63 27v20h228v-20l-70 -26v-4l183 -255l166 254v4l-73 27v20h202v-20l-64 -24l-211 -307v-259l90 -30v-20h-258zM224 710l129 152h26l129 -152h-12l-130 86l-130 -86h-12z" />
    <glyph glyph-name="ycircumflex" unicode="&#x177;" horiz-adv-x="457" 
d="M-23 450h220v-16l-80 -25v-4l133 -312h3l116 308v5l-77 28v16h188v-16l-70 -27l-216 -531q-26 -65 -54.5 -90.5t-69.5 -25.5q-23 0 -30 6.5t-7 30.5v34h94q16 21 31 50t41 88l18 40l-175 399l-65 26v16zM104 530l129 177h26l129 -177h-12l-130 106l-130 -106h-12z" />
    <glyph glyph-name="Ydieresis" unicode="&#x178;" horiz-adv-x="706" 
d="M228 0v20l90 30v261l-220 302l-63 27v20h228v-20l-70 -26v-4l183 -255l166 254v4l-73 27v20h202v-20l-64 -24l-211 -307v-259l90 -30v-20h-258zM273 741q-19 0 -32.5 13t-13.5 32q0 20 13.5 33t32.5 13q20 0 33 -13t13 -33q0 -19 -13 -32t-33 -13zM459 741q-20 0 -33 13
t-13 32q0 20 13 33t33 13q19 0 32.5 -13t13.5 -33q0 -19 -13.5 -32t-32.5 -13z" />
    <glyph glyph-name="Zacute" unicode="&#x179;" horiz-adv-x="638" 
d="M90 0v23l349 590h-266l-53 -131h-18v178h435v-23l-350 -590h290l54 141h17v-188h-458zM320 710l83 152h86v-14l-155 -138h-14z" />
    <glyph glyph-name="zacute" unicode="&#x17a;" horiz-adv-x="470" 
d="M70 0v18l231 396h-172l-44 -100h-16l11 145h5q12 -3 29.5 -6t29.5 -3h243v-18l-231 -396h189l33 103h17v-139h-325zM233 530l86 177h87v-14l-161 -163h-12z" />
    <glyph glyph-name="Zdotaccent" unicode="&#x17b;" horiz-adv-x="638" 
d="M90 0v23l349 590h-266l-53 -131h-18v178h435v-23l-350 -590h290l54 141h17v-188h-458zM325 737q-21 0 -36 14.5t-15 36.5q0 21 15 36t36 15t36 -15t15 -36q0 -22 -15 -36.5t-36 -14.5z" />
    <glyph glyph-name="zdotaccent" unicode="&#x17c;" horiz-adv-x="470" 
d="M70 0v18l231 396h-172l-44 -100h-16l11 145h5q12 -3 29.5 -6t29.5 -3h243v-18l-231 -396h189l33 103h17v-139h-325zM236 567q-21 0 -36 15t-15 36t15 36t36 15t36 -15t15 -36t-15 -36t-36 -15z" />
    <glyph glyph-name="Zcaron" unicode="&#x17d;" horiz-adv-x="638" 
d="M90 0v23l349 590h-266l-53 -131h-18v178h435v-23l-350 -590h290l54 141h17v-188h-458zM312 710l-129 152h12l130 -86l130 86h12l-129 -152h-26z" />
    <glyph glyph-name="zcaron" unicode="&#x17e;" horiz-adv-x="470" 
d="M70 0v18l231 396h-172l-44 -100h-16l11 145h5q12 -3 29.5 -6t29.5 -3h243v-18l-231 -396h189l33 103h17v-139h-325zM223 530l-129 177h12l130 -106l130 106h12l-129 -177h-26z" />
    <glyph glyph-name="longs" unicode="&#x17f;" horiz-adv-x="337" 
d="M58 0v16l63 25v367h-82v42h82v42q0 38 18.5 83t50 84.5t71.5 64.5t84 25q25 0 36.5 -8.5t11.5 -19.5q0 -4 -1 -8.5t-2 -9.5l-10 -35l-111 27q-36 -20 -58 -71t-22 -119v-465l73 -24v-16h-204z" />
    <glyph glyph-name="Schwa" unicode="&#x18f;" horiz-adv-x="693" 
d="M324 -10q-115 0 -183 79.5t-70 223.5l6 6h465v22q0 128 -61.5 203.5t-187.5 75.5q-67 0 -120.5 -22.5t-97.5 -56.5h-5v14q34 58 97.5 96.5t148.5 38.5q98 0 166.5 -40.5t104.5 -112t36 -164.5q0 -78 -22.5 -144t-63.5 -115t-95 -76.5t-118 -27.5zM336 35q82 0 135.5 57
t66.5 164h-390q11 -98 58 -159.5t130 -61.5z" />
    <glyph glyph-name="florin" unicode="&#x192;" 
d="M-25 -151q-22 0 -36 10t-14 22q0 4 6 19l13 33l97 -36q20 19 35.5 45t28.5 66.5t26 102.5l42 206h-104v34h111l16 78q7 33 26 74t48.5 79t67.5 63t82 25q27 0 47.5 -12.5t20.5 -27.5q0 -6 -6 -17l-16 -33l-100 43q-39 -21 -63 -62t-39 -118l-19 -92h174v-34h-181
l-47 -232q-9 -44 -29.5 -86.5t-49.5 -76t-64.5 -53.5t-72.5 -20z" />
    <glyph glyph-name="Ohorn" unicode="&#x1a0;" horiz-adv-x="791" 
d="M395 -10q-70 0 -129.5 25.5t-103 71t-68 108t-24.5 135.5q0 74 24.5 136t68 107.5t103 71t129.5 25.5q43 0 83 -10h69q19 0 34 2t24 7v78h35q21 0 28 -9t7 -32q0 -76 -104 -76h-17q76 -42 121.5 -120.5t45.5 -179.5q0 -73 -24.5 -135.5t-68.5 -108t-103.5 -71
t-129.5 -25.5zM416 32q66 0 116 33t78 93t28 141q0 100 -35 174t-94 115t-131 41q-66 0 -117 -32.5t-79.5 -92.5t-28.5 -141q0 -100 35 -174.5t94.5 -115.5t133.5 -41z" />
    <glyph glyph-name="ohorn" unicode="&#x1a1;" horiz-adv-x="528" 
d="M264 -10q-64 0 -112 31t-75 84t-27 120t27 120t75 84t112 31q35 0 66 -10h62q19 0 34 2t24 7v79h35q21 0 28 -9t7 -32q0 -77 -104 -77h-28q42 -31 66 -82t24 -113q0 -67 -27 -120t-75 -84t-112 -31zM278 25q43 0 71 26t41.5 67t13.5 87q0 58 -16.5 108.5t-50 81.5
t-85.5 31q-43 0 -71.5 -25t-42.5 -66t-14 -89q0 -58 17 -108.5t51.5 -81.5t85.5 -31z" />
    <glyph glyph-name="Uhorn" unicode="&#x1af;" horiz-adv-x="798" 
d="M760 627l-107 -16v-362q0 -91 -33.5 -148t-90.5 -84t-130 -27t-130.5 27t-90.5 84t-33 148v361l-80 30v20h238v-20l-80 -30v-347q0 -83 25.5 -131.5t70 -69.5t103.5 -21q47 0 86.5 20t63 62t23.5 109v380l-100 28v20h240q19 0 33.5 2t24.5 7v78h35q21 0 28 -9t7 -32
q0 -30 -20 -49.5t-83 -29.5z" />
    <glyph glyph-name="uhorn" unicode="&#x1b0;" horiz-adv-x="548" 
d="M230 -10q-59 0 -97.5 31.5t-38.5 93.5v294l-66 25v16h134v-296q0 -51 29 -77.5t76 -26.5q27 0 60 11t53 33v315l-75 25v16h158q19 0 33.5 2t23.5 7v79h36q20 0 27.5 -9t7.5 -32q0 -77 -104 -77h-39v-380l71 -24v-16h-139v62h-4q-37 -37 -71 -54.5t-75 -17.5z" />
    <glyph glyph-name="uni01C4" unicode="&#x1c4;" horiz-adv-x="1389" 
d="M65 0v20l80 30v560l-80 30v20h268q111 0 188.5 -39t118 -107t40.5 -154q0 -107 -45 -188t-124.5 -126.5t-184.5 -45.5h-261zM323 613h-100v-566h111q81 0 140 35t91.5 98.5t32.5 148.5q0 86 -32 150t-93.5 99t-149.5 35zM840 0v23l349 590h-266l-53 -131h-18v178h435v-23
l-350 -590h290l54 141h17v-188h-458zM1063 710l-129 152h12l130 -86l130 86h12l-129 -152h-26z" />
    <glyph glyph-name="uni01C5" unicode="&#x1c5;" horiz-adv-x="1220" 
d="M65 0v20l80 30v560l-80 30v20h268q111 0 188.5 -39t118 -107t40.5 -154q0 -107 -45 -188t-124.5 -126.5t-184.5 -45.5h-261zM323 613h-100v-566h111q81 0 140 35t91.5 98.5t32.5 148.5q0 86 -32 150t-93.5 99t-149.5 35zM820 0v18l231 396h-172l-44 -100h-16l11 145h5
q12 -3 29.5 -6t29.5 -3h243v-18l-231 -396h189l33 103h17v-139h-325zM973 530l-129 177h12l130 -106l130 106h12l-129 -177h-26z" />
    <glyph glyph-name="uni01C6" unicode="&#x1c6;" horiz-adv-x="1023" 
d="M219 -10q-50 0 -89 25t-61.5 71.5t-22.5 111.5q0 83 32.5 142t86.5 89.5t119 30.5q26 0 48 -4t41 -11v218l-68 39v10l128 38h8v-710l71 -24v-16h-129l-8 51h-6q-37 -31 -72.5 -46t-77.5 -15zM112 218q0 -60 21 -98.5t55.5 -56.5t74.5 -18q28 0 56.5 9t53.5 29v298
q-27 19 -53 29t-58 10q-40 0 -74.5 -20t-55 -64.5t-20.5 -117.5zM623 0v18l231 396h-172l-44 -100h-16l11 145h5q12 -3 29.5 -6t29.5 -3h243v-18l-231 -396h189l33 103h17v-139h-325zM775 530l-129 177h12l130 -106l130 106h12l-129 -177h-26z" />
    <glyph glyph-name="uni01C7" unicode="&#x1c7;" horiz-adv-x="1001" 
d="M65 0v20l79 30v560l-79 30v20h247v-20l-90 -30v-563h254l60 171h17v-218h-488zM676 -174q-18 0 -28 8.5t-10 21.5q0 3 3 19l7 30l83 -16q21 22 31.5 61t10.5 101v559l-80 30v20h238v-20l-80 -30v-382q0 -128 -18 -209t-56 -123q-26 -29 -43 -44t-30 -20.5t-28 -5.5z" />
    <glyph glyph-name="uni01C8" unicode="&#x1c8;" horiz-adv-x="922" 
d="M65 0v20l79 30v560l-79 30v20h247v-20l-90 -30v-563h254l60 171h17v-218h-488zM770 596q-22 0 -36.5 14.5t-14.5 36.5t14.5 36.5t36.5 14.5t36.5 -14.5t14.5 -36.5t-14.5 -36.5t-36.5 -14.5zM681 -230v16q26 24 39.5 50.5t18.5 64t5 93.5v379l-65 39v10l125 38h8v-460
q0 -50 -10.5 -92t-38.5 -76.5t-82 -61.5z" />
    <glyph glyph-name="uni01C9" unicode="&#x1c9;" horiz-adv-x="588" 
d="M48 0v16l63 25v622l-65 39v10l125 38h8v-709l66 -25v-16h-197zM436 596q-22 0 -36.5 14.5t-14.5 36.5t14.5 36.5t36.5 14.5t36.5 -14.5t14.5 -36.5t-14.5 -36.5t-36.5 -14.5zM347 -230v16q26 24 39.5 50.5t18.5 64t5 93.5v379l-65 39v10l125 38h8v-460q0 -50 -10.5 -92
t-38.5 -76.5t-82 -61.5z" />
    <glyph glyph-name="uni01CA" unicode="&#x1ca;" horiz-adv-x="1171" 
d="M62 0v20l79 30v559l-78 31v20h140l392 -508v459l-94 29v20h230v-20l-79 -30v-615h-31l-422 545v-489l96 -31v-20h-233zM846 -174q-18 0 -28 8.5t-10 21.5q0 3 3 19l7 30l83 -16q21 22 31.5 61t10.5 101v559l-80 30v20h238v-20l-80 -30v-382q0 -128 -18 -209t-56 -123
q-26 -29 -43 -44t-30 -20.5t-28 -5.5z" />
    <glyph glyph-name="uni01CB" unicode="&#x1cb;" horiz-adv-x="1092" 
d="M62 0v20l79 30v559l-78 31v20h140l392 -508v459l-94 29v20h230v-20l-79 -30v-615h-31l-422 545v-489l96 -31v-20h-233zM940 596q-22 0 -36.5 14.5t-14.5 36.5t14.5 36.5t36.5 14.5t36.5 -14.5t14.5 -36.5t-14.5 -36.5t-36.5 -14.5zM851 -230v16q26 24 39.5 50.5t18.5 64
t5 93.5v379l-65 39v10l125 38h8v-460q0 -50 -10.5 -92t-38.5 -76.5t-82 -61.5z" />
    <glyph glyph-name="uni01CC" unicode="&#x1cc;" horiz-adv-x="873" 
d="M52 0v16l63 25v332l-65 34v11l117 42h8l7 -73h4q38 38 72.5 55.5t76.5 17.5q60 0 99 -31.5t39 -93.5v-294l63 -25v-16h-202v16l71 25v255q0 51 -29.5 77.5t-77.5 26.5q-28 0 -61.5 -11t-53.5 -33v-315l71 -25v-16h-202zM721 596q-22 0 -36.5 14.5t-14.5 36.5t14.5 36.5
t36.5 14.5t36.5 -14.5t14.5 -36.5t-14.5 -36.5t-36.5 -14.5zM632 -230v16q26 24 39.5 50.5t18.5 64t5 93.5v379l-65 39v10l125 38h8v-460q0 -50 -10.5 -92t-38.5 -76.5t-82 -61.5z" />
    <glyph glyph-name="Gcaron" unicode="&#x1e6;" horiz-adv-x="759" 
d="M403 -10q-96 0 -171 42t-118.5 114.5t-43.5 165.5q0 77 27.5 142t75.5 113.5t112 75.5t136 27q53 0 90 -6.5t66 -17t57 -24.5l5 -161h-18l-55 113q-42 29 -74.5 41.5t-74.5 12.5q-80 0 -141.5 -36.5t-96 -97.5t-34.5 -136q0 -100 38 -171t101 -109t140 -38q35 0 67.5 4.5
t67.5 18.5v176l-88 31v20h238v-20l-72 -32v-168q-44 -37 -108.5 -58.5t-125.5 -21.5zM393 710l-129 152h12l130 -86l130 86h12l-129 -152h-26z" />
    <glyph glyph-name="gcaron" unicode="&#x1e7;" horiz-adv-x="530" 
d="M246 165q-25 0 -48 6q-35 -20 -46 -36.5t-11 -31.5q0 -23 15 -36.5t53 -13.5h134q67 0 100 -32t33 -92q0 -42 -26 -80.5t-75.5 -63.5t-118.5 -25q-86 0 -128 41.5t-42 100.5q0 22 8 43l67 51v2q-37 7 -55.5 29.5t-18.5 53.5q0 21 9 46l75 54q-38 18 -61.5 52.5
t-23.5 78.5q0 42 21.5 75.5t57.5 53t81 19.5q20 0 43 -5t40 -13l144 8v-49l-100 7l-2 -2q16 -18 25.5 -42.5t9.5 -51.5q0 -42 -21.5 -75.5t-57.5 -52.5t-81 -19zM256 197q38 0 61 31.5t23 81.5q0 56 -29 87.5t-71 31.5t-65 -32t-23 -82q0 -56 29 -87t75 -31zM145 -83
q0 -56 35.5 -92.5t92.5 -36.5q67 0 105.5 35t38.5 85q0 42 -20.5 64t-87.5 22h-109q-29 -10 -42 -31t-13 -46zM239 530l-129 177h12l130 -106l130 106h12l-129 -177h-26z" />
    <glyph glyph-name="Oogonek" unicode="&#x1ea;" horiz-adv-x="791" 
d="M395 -10q-70 0 -129.5 25.5t-103 71t-68 108t-24.5 135.5q0 74 24.5 136t68 107.5t103 71t129.5 25.5t129.5 -25.5t103.5 -71t68.5 -107.5t24.5 -136q0 -93 -38.5 -167t-105.5 -119.5t-153 -52.5q-50 -70 -50 -129q0 -35 17 -50.5t47 -15.5q13 0 27 3.5t27 12.5h3v-12
q-12 -18 -32.5 -29t-48.5 -11q-41 0 -67.5 22.5t-26.5 62.5q0 37 21 72t57 73h-3zM416 32q66 0 116 33t78 93t28 141q0 100 -35 174t-94 115t-131 41q-66 0 -117 -32.5t-79.5 -92.5t-28.5 -141q0 -100 35 -174.5t94.5 -115.5t133.5 -41z" />
    <glyph glyph-name="oogonek" unicode="&#x1eb;" horiz-adv-x="528" 
d="M279 -240q-41 0 -67.5 22.5t-26.5 62.5q0 37 21 72t57 73q-64 0 -111.5 31t-74.5 84t-27 120t27 120t75 84t112 31t112 -31t75 -84t27 -120q0 -62 -23.5 -113t-66 -82.5t-99.5 -38.5q-50 -70 -50 -129q0 -35 17 -50.5t47 -15.5q13 0 27 3.5t27 12.5h3v-12
q-11 -18 -32 -29t-49 -11zM278 25q43 0 71 26t41.5 67t13.5 87q0 58 -16.5 108.5t-50 81.5t-85.5 31q-43 0 -71.5 -25t-42.5 -66t-14 -89q0 -58 17 -108.5t51.5 -81.5t85.5 -31z" />
    <glyph glyph-name="Aringacute" unicode="&#x1fa;" horiz-adv-x="733" 
d="M33 0v20l59 24l256 621h35l253 -619l64 -26v-20h-233v20l86 26l-78 195h-247l-77 -196l86 -25v-20h-204zM246 288h210l-106 263zM366 710q-38 0 -61.5 23t-23.5 59q0 34 23.5 58t61.5 24t61.5 -24t23.5 -58q0 -36 -23.5 -59t-61.5 -23zM371 732q35 0 35 53q0 67 -44 67
q-16 0 -25 -12t-9 -41q0 -67 43 -67zM361 905l83 152h86v-14l-155 -138h-14z" />
    <glyph glyph-name="aringacute" unicode="&#x1fb;" horiz-adv-x="474" 
d="M156 -10q-47 0 -78 27.5t-31 76.5q0 48 36 82.5t119 54.5l97 24v77q0 38 -27.5 63t-63.5 25q-17 0 -33.5 -4t-38.5 -16v-89h-51q-16 0 -22 6t-6 24q0 27 24.5 54.5t64.5 46t85 18.5q67 0 101 -28.5t34 -80.5v-295q8 -7 20 -11.5t31 -4.5h44l2 -2v-2q-10 -18 -30.5 -32
t-51.5 -14q-33 0 -52 17t-26 43h-4q-26 -25 -63.5 -42.5t-79.5 -17.5zM114 113q0 -35 21 -52.5t59 -17.5q25 0 50.5 6t54.5 20v157q-81 -16 -120.5 -32.5t-52 -36t-12.5 -44.5zM221 700q38 0 61.5 -23.5t23.5 -58.5t-23.5 -58.5t-61.5 -23.5t-61.5 23.5t-23.5 58.5
t23.5 58.5t61.5 23.5zM217 678q-16 0 -25 -12t-9 -41q0 -67 43 -67q35 0 35 53q0 67 -44 67zM219 753l86 177h87v-14l-161 -163h-12z" />
    <glyph glyph-name="AEacute" unicode="&#x1fc;" horiz-adv-x="956" 
d="M455 660h403v-168h-17l-54 121h-244v-249h175l40 83h17v-211h-17l-40 81h-175v-270h272l54 131h17v-178h-500v20l79 30v191h-202l-113 -195l83 -26v-20h-203v20l61 26zM290 288h175v302zM509 710l83 152h86v-14l-155 -138h-14z" />
    <glyph glyph-name="aeacute" unicode="&#x1fd;" horiz-adv-x="732" 
d="M157 -10q-47 0 -78 27.5t-31 76.5q0 48 35.5 82.5t119.5 54.5l96 24v77q0 38 -27 63t-64 25q-16 0 -32.5 -4t-39.5 -16v-89h-50q-16 0 -22 6t-6 24q0 27 24.5 54.5t64 46t85.5 18.5q108 0 130 -74q28 35 66.5 54.5t80.5 19.5q79 0 124.5 -54t48.5 -152l-4 -4h-311v-8
q0 -52 18 -95.5t57 -69.5t101 -26q72 0 136 45h3v-11q-23 -40 -67 -67.5t-103 -27.5q-58 0 -102 21.5t-71 59.5h-6q-29 -35 -74 -58t-102 -23zM495 425q-48 0 -82 -36.5t-43 -102.5h244q-10 70 -39 104.5t-80 34.5zM115 113q0 -35 20.5 -52.5t59.5 -17.5q35 0 68 11.5
t66 32.5q-30 52 -30 124v15q-81 -16 -120.5 -32.5t-51.5 -36t-12 -44.5zM365 530l86 177h87v-14l-161 -163h-12z" />
    <glyph glyph-name="Oslashacute" unicode="&#x1fe;" horiz-adv-x="791" 
d="M70 -10l88 101q-41 46 -64.5 106.5t-23.5 132.5q0 74 24.5 136t68 107.5t103 71t129.5 25.5q59 0 111 -18.5t93 -51.5l60 70h62l-88 -101q41 -46 64.5 -106.5t23.5 -132.5q0 -73 -24.5 -135.5t-68.5 -108t-103.5 -71t-129.5 -25.5q-59 0 -110.5 18t-92.5 52l-60 -70h-62z
M153 363q0 -64 14.5 -117.5t41.5 -95.5l345 399q-35 38 -80 59t-96 21q-66 0 -117 -32.5t-79.5 -92.5t-28.5 -141zM416 32q66 0 116 33t78 93t28 141q0 63 -14.5 116.5t-40.5 95.5l-345 -398q35 -39 80.5 -60t97.5 -21zM383 710l83 152h86v-14l-155 -138h-14z" />
    <glyph glyph-name="oslashacute" unicode="&#x1ff;" horiz-adv-x="528" 
d="M50 -10l56 71q-27 31 -41.5 73t-14.5 91q0 67 27 120t75 84t112 31q36 0 68 -10.5t58 -30.5l32 41h56l-56 -71q26 -31 41 -73t15 -91q0 -67 -27 -120t-75 -84t-112 -31q-37 0 -68.5 10.5t-57.5 30.5l-32 -41h-56zM124 246q0 -74 25 -130l206 260q-18 23 -44 36.5
t-59 13.5q-43 0 -71.5 -25t-42.5 -66t-14 -89zM278 25q43 0 71 26t41.5 67t13.5 87q0 36 -6 69t-19 62l-205 -260q19 -24 45 -37.5t59 -13.5zM259 530l86 177h87v-14l-161 -163h-12z" />
    <glyph glyph-name="Adblgrave" unicode="&#x200;" horiz-adv-x="733" 
d="M33 0v20l59 24l256 621h35l253 -619l64 -26v-20h-233v20l86 26l-78 195h-247l-77 -196l86 -25v-20h-204zM246 288h210l-106 263zM315 710h-12l-129 138v14h82zM428 710h-12l-118 138v14h80z" />
    <glyph glyph-name="adblgrave" unicode="&#x201;" horiz-adv-x="474" 
d="M156 -10q-47 0 -78 27.5t-31 76.5q0 48 36 82.5t119 54.5l97 24v77q0 38 -27.5 63t-63.5 25q-17 0 -33.5 -4t-38.5 -16v-89h-51q-16 0 -22 6t-6 24q0 27 24.5 54.5t64.5 46t85 18.5q67 0 101 -28.5t34 -80.5v-295q8 -7 20 -11.5t31 -4.5h44l2 -2v-2q-10 -18 -30.5 -32
t-51.5 -14q-33 0 -52 17t-26 43h-4q-26 -25 -63.5 -42.5t-79.5 -17.5zM114 113q0 -35 21 -52.5t59 -17.5q25 0 50.5 6t54.5 20v157q-81 -16 -120.5 -32.5t-52 -36t-12.5 -44.5zM171 530h-13l-118 163v14h72zM284 530h-12l-109 163v14h72z" />
    <glyph glyph-name="Ainvertedbreve" unicode="&#x202;" horiz-adv-x="733" 
d="M33 0v20l59 24l256 621h35l253 -619l64 -26v-20h-233v20l86 26l-78 195h-247l-77 -196l86 -25v-20h-204zM246 288h210l-106 263zM224 710q19 73 49.5 112.5t92.5 39.5t93 -39.5t49 -112.5h-12q-17 40 -35.5 60t-41 27.5t-53.5 7.5t-53.5 -7.5t-41 -27.5t-35.5 -60h-12z
" />
    <glyph glyph-name="ainvertedbreve" unicode="&#x203;" horiz-adv-x="474" 
d="M156 -10q-47 0 -78 27.5t-31 76.5q0 48 36 82.5t119 54.5l97 24v77q0 38 -27.5 63t-63.5 25q-17 0 -33.5 -4t-38.5 -16v-89h-51q-16 0 -22 6t-6 24q0 27 24.5 54.5t64.5 46t85 18.5q67 0 101 -28.5t34 -80.5v-295q8 -7 20 -11.5t31 -4.5h44l2 -2v-2q-10 -18 -30.5 -32
t-51.5 -14q-33 0 -52 17t-26 43h-4q-26 -25 -63.5 -42.5t-79.5 -17.5zM114 113q0 -35 21 -52.5t59 -17.5q25 0 50.5 6t54.5 20v157q-81 -16 -120.5 -32.5t-52 -36t-12.5 -44.5zM79 540q20 84 50 125.5t92 41.5t92 -41.5t50 -125.5h-12q-19 48 -38.5 71.5t-41.5 31t-50 7.5
t-50 -7.5t-41 -31t-39 -71.5h-12z" />
    <glyph glyph-name="Edblgrave" unicode="&#x204;" horiz-adv-x="635" 
d="M65 0v20l79 30v560l-79 30v20h472v-168h-17l-54 121h-244v-249h175l40 83h17v-211h-17l-40 81h-175v-270h272l54 131h17v-178h-500zM281 710h-12l-129 138v14h82zM394 710h-12l-118 138v14h80z" />
    <glyph glyph-name="edblgrave" unicode="&#x205;" horiz-adv-x="483" 
d="M262 -10q-67 0 -114.5 28t-72.5 77.5t-25 114.5q0 71 29 127.5t77 89.5t104 33q79 0 124 -54t48 -152l-4 -4h-311v-8q0 -52 18 -95.5t57 -69.5t101 -26q72 0 136 45h3v-11q-23 -40 -67 -67.5t-103 -27.5zM245 425q-48 0 -82 -36.5t-43 -102.5h245q-11 70 -40 104.5
t-80 34.5zM208 530h-13l-118 163v14h72zM321 530h-12l-109 163v14h72z" />
    <glyph glyph-name="Einvertedbreve" unicode="&#x206;" horiz-adv-x="635" 
d="M65 0v20l79 30v560l-79 30v20h472v-168h-17l-54 121h-244v-249h175l40 83h17v-211h-17l-40 81h-175v-270h272l54 131h17v-178h-500zM190 710q19 73 49.5 112.5t92.5 39.5t93 -39.5t49 -112.5h-12q-17 40 -35.5 60t-41 27.5t-53.5 7.5t-53.5 -7.5t-41 -27.5t-35.5 -60h-12
z" />
    <glyph glyph-name="einvertedbreve" unicode="&#x207;" horiz-adv-x="483" 
d="M262 -10q-67 0 -114.5 28t-72.5 77.5t-25 114.5q0 71 29 127.5t77 89.5t104 33q79 0 124 -54t48 -152l-4 -4h-311v-8q0 -52 18 -95.5t57 -69.5t101 -26q72 0 136 45h3v-11q-23 -40 -67 -67.5t-103 -27.5zM245 425q-48 0 -82 -36.5t-43 -102.5h245q-11 70 -40 104.5
t-80 34.5zM116 540q20 84 50 125.5t92 41.5t92 -41.5t50 -125.5h-12q-19 48 -38.5 71.5t-41.5 31t-50 7.5t-50 -7.5t-41 -31t-39 -71.5h-12z" />
    <glyph glyph-name="Idblgrave" unicode="&#x208;" horiz-adv-x="376" 
d="M70 0v20l79 30v560l-79 30v20h236v-20l-79 -30v-560l79 -30v-20h-236zM137 710h-12l-129 138v14h82zM250 710h-12l-118 138v14h80z" />
    <glyph glyph-name="idblgrave" unicode="&#x209;" horiz-adv-x="308" 
d="M58 0v16l63 25v332l-65 39v10l125 38h8v-419l66 -25v-16h-197zM105 530h-13l-118 163v14h72zM218 530h-12l-109 163v14h72z" />
    <glyph glyph-name="Iinvertedbreve" unicode="&#x20a;" horiz-adv-x="376" 
d="M70 0v20l79 30v560l-79 30v20h236v-20l-79 -30v-560l79 -30v-20h-236zM46 710q19 73 49.5 112.5t92.5 39.5t93 -39.5t49 -112.5h-12q-17 40 -35.5 60t-41 27.5t-53.5 7.5t-53.5 -7.5t-41 -27.5t-35.5 -60h-12z" />
    <glyph glyph-name="iinvertedbreve" unicode="&#x20b;" horiz-adv-x="308" 
d="M58 0v16l63 25v332l-65 39v10l125 38h8v-419l66 -25v-16h-197zM13 540q20 84 50 125.5t92 41.5t92 -41.5t50 -125.5h-12q-19 48 -38.5 71.5t-41.5 31t-50 7.5t-50 -7.5t-41 -31t-39 -71.5h-12z" />
    <glyph glyph-name="Odblgrave" unicode="&#x20c;" horiz-adv-x="791" 
d="M395 -10q-70 0 -129.5 25.5t-103 71t-68 108t-24.5 135.5q0 74 24.5 136t68 107.5t103 71t129.5 25.5t129.5 -25.5t103.5 -71t68.5 -107.5t24.5 -136q0 -73 -24.5 -135.5t-68.5 -108t-103.5 -71t-129.5 -25.5zM416 32q66 0 116 33t78 93t28 141q0 100 -35 174t-94 115
t-131 41q-66 0 -117 -32.5t-79.5 -92.5t-28.5 -141q0 -100 35 -174.5t95 -115.5t133 -41zM337 710h-12l-129 138v14h82zM450 710h-12l-118 138v14h80z" />
    <glyph glyph-name="odblgrave" unicode="&#x20d;" horiz-adv-x="528" 
d="M264 -10q-64 0 -112 31t-75 84t-27 120t27 120t75 84t112 31t112 -31t75 -84t27 -120t-27 -120t-75 -84t-112 -31zM278 25q43 0 71 26t41.5 67t13.5 87q0 58 -16.5 108.5t-50 81.5t-85.5 31q-43 0 -71.5 -25t-42.5 -66t-14 -89q0 -58 17 -108.5t51 -81.5t86 -31zM212 530
h-13l-118 163v14h72zM325 530h-12l-109 163v14h72z" />
    <glyph glyph-name="Oinvertedbreve" unicode="&#x20e;" horiz-adv-x="791" 
d="M395 -10q-70 0 -129.5 25.5t-103 71t-68 108t-24.5 135.5q0 74 24.5 136t68 107.5t103 71t129.5 25.5t129.5 -25.5t103.5 -71t68.5 -107.5t24.5 -136q0 -73 -24.5 -135.5t-68.5 -108t-103.5 -71t-129.5 -25.5zM416 32q66 0 116 33t78 93t28 141q0 100 -35 174t-94 115
t-131 41q-66 0 -117 -32.5t-79.5 -92.5t-28.5 -141q0 -100 35 -174.5t95 -115.5t133 -41zM246 710q19 73 49.5 112.5t92.5 39.5t93 -39.5t49 -112.5h-12q-17 40 -35.5 60t-41 27.5t-53.5 7.5t-53.5 -7.5t-41 -27.5t-35.5 -60h-12z" />
    <glyph glyph-name="oinvertedbreve" unicode="&#x20f;" horiz-adv-x="528" 
d="M264 -10q-64 0 -112 31t-75 84t-27 120t27 120t75 84t112 31t112 -31t75 -84t27 -120t-27 -120t-75 -84t-112 -31zM278 25q43 0 71 26t41.5 67t13.5 87q0 58 -16.5 108.5t-50 81.5t-85.5 31q-43 0 -71.5 -25t-42.5 -66t-14 -89q0 -58 17 -108.5t51 -81.5t86 -31zM120 540
q20 84 50 125.5t92 41.5t92 -41.5t50 -125.5h-12q-19 48 -38.5 71.5t-41.5 31t-50 7.5t-50 -7.5t-41 -31t-39 -71.5h-12z" />
    <glyph glyph-name="Rdblgrave" unicode="&#x210;" horiz-adv-x="637" 
d="M65 0v20l80 30v560l-80 30v20h233q105 0 165.5 -43.5t60.5 -119.5q0 -58 -38 -101.5t-101 -64.5l191 -285l66 -26v-20h-132l-197 307h-90v-256l75 -31v-20h-233zM288 613h-65v-259h71q63 0 104.5 36.5t41.5 93.5q0 60 -41 94.5t-111 34.5zM258 710h-12l-129 138v14h82z
M371 710h-12l-118 138v14h80z" />
    <glyph glyph-name="rdblgrave" unicode="&#x211;" horiz-adv-x="382" 
d="M56 0v16l63 25v332l-65 34v11l117 42h8l8 -95h2q47 54 77.5 73.5t57.5 19.5q19 0 31 -8.5t12 -25.5q0 -3 -0.5 -8.5t-2.5 -13.5l-5 -29l-96 17q-45 -21 -76 -64v-285l73 -25v-16h-204zM175 530h-13l-118 163v14h72zM288 530h-12l-109 163v14h72z" />
    <glyph glyph-name="Rinvertedbreve" unicode="&#x212;" horiz-adv-x="637" 
d="M65 0v20l80 30v560l-80 30v20h233q105 0 165.5 -43.5t60.5 -119.5q0 -58 -38 -101.5t-101 -64.5l191 -285l66 -26v-20h-132l-197 307h-90v-256l75 -31v-20h-233zM288 613h-65v-259h71q63 0 104.5 36.5t41.5 93.5q0 60 -41 94.5t-111 34.5zM167 710q19 73 49.5 112.5
t92.5 39.5t93 -39.5t49 -112.5h-12q-17 40 -35.5 60t-41 27.5t-53.5 7.5t-53.5 -7.5t-41 -27.5t-35.5 -60h-12z" />
    <glyph glyph-name="rinvertedbreve" unicode="&#x213;" horiz-adv-x="382" 
d="M56 0v16l63 25v332l-65 34v11l117 42h8l8 -95h2q47 54 77.5 73.5t57.5 19.5q19 0 31 -8.5t12 -25.5q0 -3 -0.5 -8.5t-2.5 -13.5l-5 -29l-96 17q-45 -21 -76 -64v-285l73 -25v-16h-204zM83 540q20 84 50 125.5t92 41.5t92 -41.5t50 -125.5h-12q-19 48 -38.5 71.5t-41.5 31
t-50 7.5t-50 -7.5t-41 -31t-39 -71.5h-12z" />
    <glyph glyph-name="Udblgrave" unicode="&#x214;" horiz-adv-x="797" 
d="M399 -10q-73 0 -130.5 27t-90.5 84t-33 148v361l-80 30v20h238v-20l-80 -30v-347q0 -83 25.5 -131.5t70 -69.5t103.5 -21q47 0 86.5 20t63 62t23.5 109v380l-100 28v20h237v-20l-79 -29v-362q0 -91 -33.5 -148t-90.5 -84t-130 -27zM358 710h-12l-129 138v14h82zM471 710
h-12l-118 138v14h80z" />
    <glyph glyph-name="udblgrave" unicode="&#x215;" horiz-adv-x="548" 
d="M230 -10q-59 0 -97.5 31.5t-38.5 93.5v294l-66 25v16h134v-296q0 -51 29 -77.5t76 -26.5q27 0 60 11t53 33v315l-75 25v16h143v-410l71 -24v-16h-139v62h-4q-37 -37 -71 -54.5t-75 -17.5zM217 530h-13l-118 163v14h72zM330 530h-12l-109 163v14h72z" />
    <glyph glyph-name="Uinvertedbreve" unicode="&#x216;" horiz-adv-x="797" 
d="M399 -10q-73 0 -130.5 27t-90.5 84t-33 148v361l-80 30v20h238v-20l-80 -30v-347q0 -83 25.5 -131.5t70 -69.5t103.5 -21q47 0 86.5 20t63 62t23.5 109v380l-100 28v20h237v-20l-79 -29v-362q0 -91 -33.5 -148t-90.5 -84t-130 -27zM267 710q19 73 49.5 112.5t92.5 39.5
t93 -39.5t49 -112.5h-12q-17 40 -35.5 60t-41 27.5t-53.5 7.5t-53.5 -7.5t-41 -27.5t-35.5 -60h-12z" />
    <glyph glyph-name="uinvertedbreve" unicode="&#x217;" horiz-adv-x="548" 
d="M230 -10q-59 0 -97.5 31.5t-38.5 93.5v294l-66 25v16h134v-296q0 -51 29 -77.5t76 -26.5q27 0 60 11t53 33v315l-75 25v16h143v-410l71 -24v-16h-139v62h-4q-37 -37 -71 -54.5t-75 -17.5zM126 540q20 84 50 125.5t92 41.5t92 -41.5t50 -125.5h-12q-19 48 -38.5 71.5
t-41.5 31t-50 7.5t-50 -7.5t-41 -31t-39 -71.5h-12z" />
    <glyph glyph-name="Scommaaccent" unicode="&#x218;" horiz-adv-x="525" 
d="M260 -10q-60 0 -102 11.5t-88 34.5l-10 160h17l52 -115q36 -28 69 -39.5t67 -11.5q63 0 96.5 33t33.5 91q0 45 -21 71t-59.5 46t-90.5 46q-46 23 -77.5 46t-47.5 53t-16 75q0 33 16 65t43.5 57.5t62 41t71.5 15.5q45 0 83 -11t78 -31l10 -156h-17l-44 110
q-31 25 -56.5 36t-58.5 11q-52 0 -82 -31.5t-30 -78.5q0 -36 14.5 -60t44.5 -44t76 -43q60 -29 99 -55t58 -59.5t19 -84.5q0 -43 -19 -77t-50 -57.5t-68 -36t-73 -12.5zM172 -235l63 160h74v-11l-125 -149h-12z" />
    <glyph glyph-name="scommaaccent" unicode="&#x219;" horiz-adv-x="421" 
d="M200 -10q-42 0 -73.5 7.5t-63.5 24.5v109h13l25 -51q13 -29 37.5 -44t63.5 -15q43 0 67 21t24 58q0 41 -26.5 60.5t-80.5 43.5q-55 24 -83 51.5t-28 78.5q0 35 19.5 63.5t50.5 45.5t65 17q37 0 67.5 -9t57.5 -23v-106h-13l-25 49q-14 30 -37 43.5t-48 13.5
q-36 0 -56.5 -19.5t-20.5 -52.5q0 -35 23.5 -54t71.5 -40q34 -15 62 -30.5t44.5 -40.5t16.5 -69q0 -40 -22 -69.5t-57 -46t-74 -16.5zM111 -235l63 160h74v-11l-125 -149h-12z" />
    <glyph glyph-name="Tcommaaccent" unicode="&#x21a;" horiz-adv-x="670" 
d="M196 0v20l100 30v563h-176l-57 -147h-18v194h580v-194h-18l-57 147h-176v-563l100 -30v-20h-278zM240 -235l63 160h74v-11l-125 -149h-12z" />
    <glyph glyph-name="tcommaaccent" unicode="&#x21b;" horiz-adv-x="344" 
d="M204 -10q-43 0 -72.5 26t-29.5 73v319h-84v8l89 34l55 110h8v-110h132v-42h-132v-308q0 -28 21.5 -41.5t52.5 -13.5q20 0 37 3t31 9l2 -1v-7q-9 -20 -37 -39.5t-73 -19.5zM114 -235l63 160h74v-11l-125 -149h-12z" />
    <glyph glyph-name="Odieresismacron" unicode="&#x22a;" horiz-adv-x="791" 
d="M395 -10q-70 0 -129.5 25.5t-103 71t-68 108t-24.5 135.5q0 74 24.5 136t68 107.5t103 71t129.5 25.5t129.5 -25.5t103.5 -71t68.5 -107.5t24.5 -136q0 -73 -24.5 -135.5t-68.5 -108t-103.5 -71t-129.5 -25.5zM416 32q66 0 116 33t78 93t28 141q0 100 -35 174t-94 115
t-131 41q-66 0 -117 -32.5t-79.5 -92.5t-28.5 -141q0 -100 35 -174.5t95 -115.5t133 -41zM257 931v44h262v-44h-262zM295 741q-19 0 -32.5 13t-13.5 32q0 20 13.5 33t32.5 13q20 0 33 -13t13 -33q0 -19 -13 -32t-33 -13zM481 741q-20 0 -33 13t-13 32q0 20 13 33t33 13
q19 0 32.5 -13t13.5 -33q0 -19 -13.5 -32t-32.5 -13z" />
    <glyph glyph-name="odieresismacron" unicode="&#x22b;" horiz-adv-x="528" 
d="M264 -10q-64 0 -112 31t-75 84t-27 120t27 120t75 84t112 31t112 -31t75 -84t27 -120t-27 -120t-75 -84t-112 -31zM278 25q43 0 71 26t41.5 67t13.5 87q0 58 -16.5 108.5t-50 81.5t-85.5 31q-43 0 -71.5 -25t-42.5 -66t-14 -89q0 -58 17 -108.5t51 -81.5t86 -31zM131 766
v44h262v-44h-262zM169 571q-19 0 -32.5 13.5t-13.5 32.5t13.5 32.5t32.5 13.5q20 0 33 -13.5t13 -32.5t-13 -32.5t-33 -13.5zM355 571q-20 0 -33 13.5t-13 32.5t13 32.5t33 13.5q19 0 32.5 -13.5t13.5 -32.5t-13.5 -32.5t-32.5 -13.5z" />
    <glyph glyph-name="Otildemacron" unicode="&#x22c;" horiz-adv-x="791" 
d="M395 -10q-70 0 -129.5 25.5t-103 71t-68 108t-24.5 135.5q0 74 24.5 136t68 107.5t103 71t129.5 25.5t129.5 -25.5t103.5 -71t68.5 -107.5t24.5 -136q0 -73 -24.5 -135.5t-68.5 -108t-103.5 -71t-129.5 -25.5zM416 32q66 0 116 33t78 93t28 141q0 100 -35 174t-94 115
t-131 41q-66 0 -117 -32.5t-79.5 -92.5t-28.5 -141q0 -100 35 -174.5t95 -115.5t133 -41zM257 931v44h262v-44h-262zM241 728q15 48 29 72.5t28.5 33t32.5 8.5q26 0 47 -15.5t41 -31t41 -15.5q19 0 33.5 13.5t28.5 48.5h13q-15 -49 -29 -73.5t-28.5 -32.5t-32.5 -8
q-26 0 -47 15.5t-41 30.5t-41 15q-19 0 -33.5 -13t-28.5 -48h-13z" />
    <glyph glyph-name="otildemacron" unicode="&#x22d;" horiz-adv-x="528" 
d="M264 -10q-64 0 -112 31t-75 84t-27 120t27 120t75 84t112 31t112 -31t75 -84t27 -120t-27 -120t-75 -84t-112 -31zM278 25q43 0 71 26t41.5 67t13.5 87q0 58 -16.5 108.5t-50 81.5t-85.5 31q-43 0 -71.5 -25t-42.5 -66t-14 -89q0 -58 17 -108.5t51 -81.5t86 -31zM131 766
v44h262v-44h-262zM115 556q16 52 30 79t28 36t32 9q19 0 36 -11t32 -25.5t30 -25.5t31 -11q19 0 32.5 16.5t29.5 56.5h13q-16 -52 -30 -79t-28 -36t-32 -9q-19 0 -36 11t-32 25.5t-30 25.5t-31 11q-19 0 -32.5 -16.5t-29.5 -56.5h-13z" />
    <glyph glyph-name="Odotaccentmacron" unicode="&#x230;" horiz-adv-x="791" 
d="M395 -10q-70 0 -129.5 25.5t-103 71t-68 108t-24.5 135.5q0 74 24.5 136t68 107.5t103 71t129.5 25.5t129.5 -25.5t103.5 -71t68.5 -107.5t24.5 -136q0 -73 -24.5 -135.5t-68.5 -108t-103.5 -71t-129.5 -25.5zM416 32q66 0 116 33t78 93t28 141q0 100 -35 174t-94 115
t-131 41q-66 0 -117 -32.5t-79.5 -92.5t-28.5 -141q0 -100 35 -174.5t95 -115.5t133 -41zM257 931v44h262v-44h-262zM388 737q-21 0 -36 14.5t-15 36.5q0 21 15 36t36 15t36 -15t15 -36q0 -22 -15 -36.5t-36 -14.5z" />
    <glyph glyph-name="odotaccentmacron" unicode="&#x231;" horiz-adv-x="528" 
d="M264 -10q-64 0 -112 31t-75 84t-27 120t27 120t75 84t112 31t112 -31t75 -84t27 -120t-27 -120t-75 -84t-112 -31zM278 25q43 0 71 26t41.5 67t13.5 87q0 58 -16.5 108.5t-50 81.5t-85.5 31q-43 0 -71.5 -25t-42.5 -66t-14 -89q0 -58 17 -108.5t51 -81.5t86 -31zM131 766
v44h262v-44h-262zM262 567q-21 0 -36 15t-15 36t15 36t36 15t36 -15t15 -36t-15 -36t-36 -15z" />
    <glyph glyph-name="Ymacron" unicode="&#x232;" horiz-adv-x="706" 
d="M228 0v20l90 30v261l-220 302l-63 27v20h228v-20l-70 -26v-4l183 -255l166 254v4l-73 27v20h202v-20l-64 -24l-211 -307v-259l90 -30v-20h-258zM235 766v44h262v-44h-262z" />
    <glyph glyph-name="ymacron" unicode="&#x233;" horiz-adv-x="457" 
d="M-23 450h220v-16l-80 -25v-4l133 -312h3l116 308v5l-77 28v16h188v-16l-70 -27l-216 -531q-26 -65 -54.5 -90.5t-69.5 -25.5q-23 0 -30 6.5t-7 30.5v34h94q16 21 31 50t41 88l18 40l-175 399l-65 26v16zM115 595v44h262v-44h-262z" />
    <glyph glyph-name="jdotless" unicode="&#x237;" horiz-adv-x="299" 
d="M189 0q0 -50 -10.5 -92t-38.5 -76.5t-82 -61.5v16q26 24 39.5 50.5t18.5 64t5 93.5v379l-65 39v10l125 38h8v-460z" />
    <glyph glyph-name="schwa" unicode="&#x259;" horiz-adv-x="483" 
d="M223 -10q-79 0 -124 54t-48 152l4 5h311v7q0 53 -18.5 96t-57 69t-101.5 26q-72 0 -136 -45h-3v11q23 40 67.5 67.5t102.5 27.5q68 0 115.5 -28t72.5 -77.5t25 -113.5q0 -72 -29.5 -128.5t-77 -89.5t-103.5 -33zM237 25q49 0 83 36.5t43 102.5h-245q11 -69 40 -104
t79 -35z" />
    <glyph glyph-name="primemod" unicode="&#x2b9;" horiz-adv-x="250" 
d="M88 490v250h69l-52 -250h-17z" />
    <glyph glyph-name="doubleprimemod" unicode="&#x2ba;" horiz-adv-x="450" 
d="M104 490v250h69l-52 -250h-17zM271 490v250h69l-52 -250h-17z" />
    <glyph glyph-name="commaturnedmod" unicode="&#x2bb;" horiz-adv-x="235" 
d="M201 740l-78 -240h-99v15l159 225h18z" />
    <glyph glyph-name="apostrophemod" unicode="&#x2bc;" horiz-adv-x="235" 
d="M27 500l79 240h98v-15l-159 -225h-18z" />
    <glyph glyph-name="ringhalfleft" unicode="&#x2be;" horiz-adv-x="372" 
d="M166 527v24q18 0 30 14t12 45q0 37 -9 56t-33 19v24q41 0 65.5 -26t24.5 -65t-24.5 -65t-65.5 -26z" />
    <glyph glyph-name="ringhalfright" unicode="&#x2bf;" horiz-adv-x="372" 
d="M205 527q-39 0 -64.5 26t-25.5 65q0 38 25.5 64.5t64.5 26.5v-24q-17 0 -29 -14t-12 -45q0 -37 8.5 -56t32.5 -19v-24z" />
    <glyph glyph-name="circumflex" unicode="&#x2c6;" horiz-adv-x="385" 
d="M50 530l129 177h26l129 -177h-12l-130 106l-130 -106h-12z" />
    <glyph glyph-name="caron" unicode="&#x2c7;" horiz-adv-x="385" 
d="M179 530l-129 177h12l130 -106l130 106h12l-129 -177h-26z" />
    <glyph glyph-name="verticallinemod" unicode="&#x2c8;" horiz-adv-x="347" 
d="M157 535v166h33v-166h-33z" />
    <glyph glyph-name="firsttonechinese" unicode="&#x2c9;" horiz-adv-x="440" 
d="M89 595v44h262v-44h-262z" />
    <glyph glyph-name="secondtonechinese" unicode="&#x2ca;" horiz-adv-x="394" 
d="M50 530l86 177h87v-14l-161 -163h-12z" />
    <glyph glyph-name="fourthtonechinese" unicode="&#x2cb;" horiz-adv-x="393" 
d="M207 530h-12l-161 163v14h87z" />
    <glyph glyph-name="verticallinelowmod" unicode="&#x2cc;" horiz-adv-x="347" 
d="M157 -233v166h33v-166h-33z" />
    <glyph glyph-name="breve" unicode="&#x2d8;" horiz-adv-x="384" 
d="M192 540q-62 0 -92 41.5t-50 125.5h12q19 -48 38.5 -71.5t41.5 -31t50 -7.5t50 7.5t41 31t39 71.5h12q-20 -84 -50 -125.5t-92 -41.5z" />
    <glyph glyph-name="dotaccent" unicode="&#x2d9;" horiz-adv-x="202" 
d="M101 567q-21 0 -36 15t-15 36t15 36t36 15t36 -15t15 -36t-15 -36t-36 -15z" />
    <glyph glyph-name="ring" unicode="&#x2da;" horiz-adv-x="270" 
d="M135 700q38 0 61.5 -23.5t23.5 -58.5t-23.5 -58.5t-61.5 -23.5t-61.5 23.5t-23.5 58.5t23.5 58.5t61.5 23.5zM131 678q-16 0 -25 -12t-9 -41q0 -67 43 -67q35 0 35 53q0 67 -44 67z" />
    <glyph glyph-name="ogonek" unicode="&#x2db;" 
d="M257 -240q-41 0 -68 22.5t-27 62.5q0 43 28.5 83.5t74.5 87.5h20q-69 -86 -69 -154q0 -35 17 -50.5t48 -15.5q13 0 26.5 3.5t27.5 12.5h3v-12q-12 -18 -33 -29t-48 -11z" />
    <glyph glyph-name="tilde" unicode="&#x2dc;" horiz-adv-x="394" 
d="M50 556q16 52 30 79t28 36t32 9q19 0 36 -11t32 -25.5t30 -25.5t31 -11q19 0 32.5 16.5t29.5 56.5h13q-16 -52 -30 -79t-28 -36t-32 -9q-19 0 -36 11t-32 25.5t-30 25.5t-31 11q-19 0 -32.5 -16.5t-29.5 -56.5h-13z" />
    <glyph glyph-name="hungarumlaut" unicode="&#x2dd;" horiz-adv-x="326" 
d="M163 530l58 177h73v-14l-119 -163h-12zM50 530l48 177h72v-14l-108 -163h-12z" />
    <glyph glyph-name="gravecomb" unicode="&#x300;" horiz-adv-x="0" 
d="M78 530h-12l-161 163v14h87z" />
    <glyph glyph-name="acutecomb" unicode="&#x301;" horiz-adv-x="0" 
d="M-79 530l86 177h87v-14l-161 -163h-12z" />
    <glyph glyph-name="circumflexcomb" unicode="&#x302;" horiz-adv-x="0" 
d="M-142 530l129 177h26l129 -177h-12l-130 106l-130 -106h-12z" />
    <glyph glyph-name="tildecomb" unicode="&#x303;" horiz-adv-x="0" 
d="M-147 556q16 52 30 79t28 36t32 9q19 0 36 -11t32 -25.5t30 -25.5t31 -11q19 0 32.5 16.5t29.5 56.5h13q-16 -52 -30 -79t-28 -36t-32 -9q-19 0 -36 11t-32 25.5t-30 25.5t-31 11q-19 0 -32.5 -16.5t-29.5 -56.5h-13z" />
    <glyph glyph-name="macroncomb" unicode="&#x304;" horiz-adv-x="0" 
d="M-131 595v44h262v-44h-262z" />
    <glyph glyph-name="brevecomb" unicode="&#x306;" horiz-adv-x="0" 
d="M0 540q-62 0 -92 41.5t-50 125.5h12q19 -48 38.5 -71.5t41.5 -31t50 -7.5t50 7.5t41 31t39 71.5h12q-20 -84 -50 -125.5t-92 -41.5z" />
    <glyph glyph-name="dotaccentcomb" unicode="&#x307;" horiz-adv-x="0" 
d="M0 567q-21 0 -36 15t-15 36t15 36t36 15t36 -15t15 -36t-15 -36t-36 -15z" />
    <glyph glyph-name="dieresiscomb" unicode="&#x308;" horiz-adv-x="0" 
d="M-93 571q-19 0 -32.5 13.5t-13.5 32.5t13.5 32.5t32.5 13.5q20 0 33 -13.5t13 -32.5t-13 -32.5t-33 -13.5zM93 571q-20 0 -33 13.5t-13 32.5t13 32.5t33 13.5q19 0 32.5 -13.5t13.5 -32.5t-13.5 -32.5t-32.5 -13.5z" />
    <glyph glyph-name="hookabovecomb" unicode="&#x309;" horiz-adv-x="0" 
d="M-58 541v1q36 12 56 25.5t20 37.5q0 20 -18.5 33.5t-64.5 21.5l9 47q67 -6 93.5 -31t26.5 -51q0 -39 -29.5 -60t-85.5 -31z" />
    <glyph glyph-name="ringcomb" unicode="&#x30a;" horiz-adv-x="0" 
d="M0 700q38 0 61.5 -23.5t23.5 -58.5t-23.5 -58.5t-61.5 -23.5t-61.5 23.5t-23.5 58.5t23.5 58.5t61.5 23.5zM-4 678q-16 0 -25 -12t-9 -41q0 -67 43 -67q35 0 35 53q0 67 -44 67z" />
    <glyph glyph-name="hungarumlautcomb" unicode="&#x30b;" horiz-adv-x="0" 
d="M0 530l58 177h73v-14l-119 -163h-12zM-113 530l48 177h72v-14l-108 -163h-12z" />
    <glyph glyph-name="caroncomb" unicode="&#x30c;" horiz-adv-x="0" 
d="M-13 530l-129 177h12l130 -106l130 106h12l-129 -177h-26z" />
    <glyph glyph-name="dblgravecomb" unicode="&#x30f;" horiz-adv-x="0" 
d="M3 530h-13l-118 163v14h72zM116 530h-12l-109 163v14h72z" />
    <glyph glyph-name="breveinvertedcomb" unicode="&#x311;" horiz-adv-x="0" 
d="M-142 540q20 84 50 125.5t92 41.5t92 -41.5t50 -125.5h-12q-19 48 -38.5 71.5t-41.5 31t-50 7.5t-50 -7.5t-41 -31t-39 -71.5h-12z" />
    <glyph glyph-name="commaturnedabovecomb" unicode="&#x312;" horiz-adv-x="0" 
d="M98 707l-67 -177h-74v12l129 165h12z" />
    <glyph glyph-name="horncomb" unicode="&#x31b;" horiz-adv-x="0" 
d="M113 497q0 -77 -104 -77h-97l-5 30h78q19 0 33.5 2t23.5 7v79h36q20 0 27.5 -9t7.5 -32z" />
    <glyph glyph-name="dotbelowcomb" unicode="&#x323;" horiz-adv-x="0" 
d="M0 -203q-21 0 -36 15t-15 36t15 36t36 15t36 -15t15 -36t-15 -36t-36 -15z" />
    <glyph glyph-name="dieresisbelowcomb" unicode="&#x324;" horiz-adv-x="0" 
d="M-93 -198q-19 0 -32.5 13.5t-13.5 32.5t13.5 32.5t32.5 13.5q20 0 33 -13.5t13 -32.5t-13 -32.5t-33 -13.5zM93 -198q-20 0 -33 13.5t-13 32.5t13 32.5t33 13.5q19 0 32.5 -13.5t13.5 -32.5t-13.5 -32.5t-32.5 -13.5z" />
    <glyph glyph-name="commaaccentcomb" unicode="&#x326;" horiz-adv-x="0" 
d="M-97 -235l63 160h74v-11l-125 -149h-12z" />
    <glyph glyph-name="cedillacomb" unicode="&#x327;" horiz-adv-x="0" 
d="M-9 -240q-51 0 -76 27v12h3q27 -14 62 -14q31 0 44 12.5t13 31.5q0 26 -25 41.5t-83 32.5l59 113h29l-39 -75q52 -16 79.5 -37.5t27.5 -60.5q0 -36 -24.5 -59.5t-69.5 -23.5z" />
    <glyph glyph-name="ogonekcomb" unicode="&#x328;" horiz-adv-x="0" 
d="M7 -240q-41 0 -68 22.5t-27 62.5q0 43 28.5 83.5t74.5 87.5h20q-69 -86 -69 -154q0 -35 17 -50.5t48 -15.5q13 0 26.5 3.5t27.5 12.5h3v-12q-12 -18 -33 -29t-48 -11z" />
    <glyph glyph-name="brevebelowcomb" unicode="&#x32e;" horiz-adv-x="0" 
d="M0 -240q-62 0 -92 41.5t-50 125.5h12q19 -48 38.5 -71.5t41.5 -31t50 -7.5t50 7.5t41 31t39 71.5h12q-20 -84 -50 -125.5t-92 -41.5z" />
    <glyph glyph-name="macronbelowcomb" unicode="&#x331;" horiz-adv-x="0" 
d="M-131 -171v44h262v-44h-262z" />
    <glyph glyph-name="Delta" unicode="&#x394;" horiz-adv-x="686" 
d="M60 0v32l262 633h35l259 -633v-32h-556zM134 69h384l-194 483z" />
    <glyph glyph-name="mu" unicode="&#x3bc;" horiz-adv-x="544" 
d="M242 -10q-27 0 -53 9t-48 34l18 -246l-66 -17h-2v680h68v-296q0 -55 29 -79.5t75 -24.5q28 0 61 11t53 33v356h68v-394q7 -7 19 -11.5t31 -4.5h44l2 -2v-2q-10 -18 -30.5 -32t-51.5 -14q-36 0 -55.5 20.5t-23.5 52.5h-6q-33 -38 -64 -55.5t-68 -17.5z" />
    <glyph glyph-name="pi" unicode="&#x3c0;" horiz-adv-x="578" 
d="M131 4q6 29 12 55.5t10 58.5t6 75.5t2 106.5v98q-42 -1 -69 -9t-44 -22h-3v33q22 20 54 35t81 15h333v-51h-76v-273q0 -41 8.5 -57.5t27.5 -16.5q33 0 61 75l13 -3q-19 -73 -43.5 -103.5t-57.5 -30.5q-37 0 -55.5 27t-18.5 75v307h-169v-399h-72v4z" />
    <glyph glyph-name="uni0401" unicode="&#x401;" horiz-adv-x="635" 
d="M65 0v20l79 30v560l-79 30v20h472v-168h-17l-54 121h-244v-249h175l40 83h17v-211h-17l-40 81h-175v-270h272l54 131h17v-178h-500zM239 741q-19 0 -32.5 13t-13.5 32q0 20 13.5 33t32.5 13q20 0 33 -13t13 -33q0 -19 -13 -32t-33 -13zM425 741q-20 0 -33 13t-13 32
q0 20 13 33t33 13q19 0 32.5 -13t13.5 -33q0 -19 -13.5 -32t-32.5 -13z" />
    <glyph glyph-name="uni0402" unicode="&#x402;" horiz-adv-x="782" 
d="M178 0v20l100 30v563h-158l-57 -147h-18v194h574v-184h-18l-57 137h-189v-291q35 31 83 49.5t100 18.5t90 -18t59 -60t21 -115q0 -110 -17 -184t-57 -118q-26 -28 -42.5 -43t-29.5 -20.5t-29 -5.5q-18 0 -28 8.5t-10 21.5q0 4 4 19l7 30l82 -16q44 47 44 174v104
q0 92 -33.5 126.5t-108.5 34.5q-76 0 -135 -45v-233l100 -30v-20h-277z" />
    <glyph glyph-name="uni0403" unicode="&#x403;" horiz-adv-x="590" 
d="M65 0v20l80 30v560l-79 30v20h466v-168h-18l-53 121h-238v-563l98 -30v-20h-256zM324 710l83 152h86v-14l-155 -138h-14z" />
    <glyph glyph-name="uni0404" unicode="&#x404;" horiz-adv-x="721" 
d="M397 -10q-99 0 -172.5 42t-114 115t-40.5 165q0 73 27 137.5t74.5 114.5t109.5 78t132 28q49 0 83.5 -6.5t62 -17.5t54.5 -24l5 -167h-19l-52 119q-38 27 -69.5 40.5t-69.5 13.5q-73 0 -130 -34.5t-91.5 -94.5t-38.5 -135h248l40 83h18v-211h-18l-40 81h-248
q6 -88 40.5 -151.5t90 -98t123.5 -34.5q51 0 86.5 13.5t63.5 32.5l59 115h18l-10 -155q-29 -14 -59.5 -25.5t-69 -17.5t-93.5 -6z" />
    <glyph glyph-name="uni0405" unicode="&#x405;" horiz-adv-x="525" 
d="M260 -10q-60 0 -102 11.5t-88 34.5l-10 160h17l52 -115q36 -28 69 -39.5t67 -11.5q63 0 96.5 33t33.5 91q0 45 -21 71t-59.5 46t-90.5 46q-46 23 -77.5 46t-47.5 53t-16 75q0 33 16 65t43.5 57.5t62 41t71.5 15.5q45 0 83 -11t78 -31l10 -156h-17l-44 110
q-31 25 -56.5 36t-58.5 11q-52 0 -82 -31.5t-30 -78.5q0 -36 14.5 -60t44.5 -44t76 -43q60 -29 99 -55t58 -59.5t19 -84.5q0 -43 -19 -77t-50 -57.5t-68 -36t-73 -12.5z" />
    <glyph glyph-name="uni0406" unicode="&#x406;" horiz-adv-x="376" 
d="M70 0v20l79 30v560l-79 30v20h236v-20l-79 -30v-560l79 -30v-20h-236z" />
    <glyph glyph-name="uni0407" unicode="&#x407;" horiz-adv-x="376" 
d="M70 0v20l79 30v560l-79 30v20h236v-20l-79 -30v-560l79 -30v-20h-236zM95 741q-19 0 -32.5 13t-13.5 32q0 20 13.5 33t32.5 13q20 0 33 -13t13 -33q0 -19 -13 -32t-33 -13zM281 741q-20 0 -33 13t-13 32q0 20 13 33t33 13q19 0 32.5 -13t13.5 -33q0 -19 -13.5 -32
t-32.5 -13z" />
    <glyph glyph-name="uni0408" unicode="&#x408;" horiz-adv-x="378" 
d="M53 -174q-18 0 -28 8.5t-10 21.5q0 3 3 19l7 30l83 -16q21 22 31.5 61t10.5 101v559l-80 30v20h238v-20l-80 -30v-382q0 -128 -18 -209t-56 -123q-26 -29 -43 -44t-30 -20.5t-28 -5.5z" />
    <glyph glyph-name="uni0409" unicode="&#x409;" horiz-adv-x="937" 
d="M635 0h-256v20l79 30v563h-221v-49q0 -180 -14 -295t-41 -180q-25 -57 -50 -78t-56 -21q-26 0 -36 9.5t-10 29.5v45h74q27 32 45 91.5t27 156.5t9 241v47l-79 30v20h529v-20l-99 -30v-226h99q126 0 197 -49.5t71 -132.5q0 -58 -32 -103.5t-92 -72t-144 -26.5zM629 337
h-93v-290h99q94 0 139.5 40.5t45.5 104.5q0 75 -46 110t-145 35z" />
    <glyph glyph-name="uni040A" unicode="&#x40a;" horiz-adv-x="1008" 
d="M65 0v20l79 30v560l-79 30v20h239v-20l-82 -30v-236h307v236l-79 30v20h256v-20l-99 -30v-236h99q126 0 197 -48t71 -129q0 -56 -32 -101t-92 -70.5t-144 -25.5h-256v20l79 30v277h-307v-277l82 -30v-20h-239zM700 327h-93v-280h99q94 0 139.5 39t45.5 101
q0 73 -46 106.5t-145 33.5z" />
    <glyph glyph-name="uni040B" unicode="&#x40b;" horiz-adv-x="814" 
d="M178 0v20l100 30v563h-158l-57 -147h-18v194h574v-188h-18l-57 141h-189v-291q35 31 82.5 49.5t97.5 18.5q82 0 127.5 -41.5t45.5 -134.5v-163l79 -31v-20h-155v185q0 79 -33.5 111t-108.5 32q-76 0 -135 -45v-233l100 -30v-20h-277z" />
    <glyph glyph-name="uni040C" unicode="&#x40c;" horiz-adv-x="712" 
d="M65 0v20l80 30v560l-80 30v20h238v-20l-80 -30v-271l282 274l-73 27v20h205v-20l-61 -19l-275 -262l324 -318l64 -21v-20h-131l-335 337v-287l80 -30v-20h-238zM366 710l83 152h86v-14l-155 -138h-14z" />
    <glyph glyph-name="uni040E" unicode="&#x40e;" horiz-adv-x="693" 
d="M389 164q-35 -71 -62 -108.5t-51 -51.5t-50 -14q-31 0 -41 10.5t-10 35.5v37h90q36 27 66 83l-228 456l-68 28v20h235v-20l-85 -27v-4l183 -368h7l179 370v4l-84 25v20h200v-20l-57 -22zM366 710q-81 0 -121.5 43.5t-40.5 108.5h76q0 -52 19 -85.5t67 -33.5t67 33.5
t19 85.5h76q0 -65 -40.5 -108.5t-121.5 -43.5z" />
    <glyph glyph-name="uni040F" unicode="&#x40f;" horiz-adv-x="769" 
d="M336 0h-271v20l79 30v560l-79 30v20h239v-20l-82 -30v-563h325v563l-82 30v20h239v-20l-79 -30v-560l79 -30v-20h-271l-40 -159h-17z" />
    <glyph glyph-name="uni0410" unicode="&#x410;" horiz-adv-x="733" 
d="M33 0v20l59 24l256 621h35l253 -619l64 -26v-20h-233v20l86 26l-78 195h-247l-77 -196l86 -25v-20h-204zM246 288h210l-106 263z" />
    <glyph glyph-name="uni0411" unicode="&#x411;" horiz-adv-x="645" 
d="M325 0h-260v20l79 30v560l-79 30v20h476v-186h-18l-57 139h-244v-230h103q126 0 197 -49.5t71 -131.5q0 -58 -32 -103.5t-92 -72t-144 -26.5zM319 336h-97v-289h103q94 0 139.5 40.5t45.5 103.5q0 76 -46 110.5t-145 34.5z" />
    <glyph glyph-name="uni0412" unicode="&#x412;" horiz-adv-x="631" 
d="M65 0v20l79 30v560l-79 30v20h223q66 0 119 -16.5t84 -49t31 -82.5q0 -52 -34.5 -95.5t-99.5 -61.5q90 -13 140.5 -55t50.5 -108q0 -55 -34 -98.5t-93.5 -68.5t-135.5 -25h-251zM278 613h-56v-249h62q71 0 113 32t42 90q0 63 -41 95t-120 32zM316 317h-94v-271h101
q79 0 126 38t47 98q0 70 -47.5 102.5t-132.5 32.5z" />
    <glyph glyph-name="uni0413" unicode="&#x413;" horiz-adv-x="590" 
d="M65 0v20l80 30v560l-79 30v20h466v-168h-18l-53 121h-238v-563l98 -30v-20h-256z" />
    <glyph glyph-name="uni0414" unicode="&#x414;" horiz-adv-x="716" 
d="M99 640v20h549v-20l-79 -30v-563h100v-206h-18l-63 159h-484l-63 -159h-18v206h76q47 112 63 236.5t16 270.5v56zM492 47v566h-261v-59q0 -150 -16 -272.5t-59 -234.5h336z" />
    <glyph glyph-name="uni0415" unicode="&#x415;" horiz-adv-x="635" 
d="M65 0v20l79 30v560l-79 30v20h472v-168h-17l-54 121h-244v-249h175l40 83h17v-211h-17l-40 81h-175v-270h272l54 131h17v-178h-500z" />
    <glyph glyph-name="uni0416" unicode="&#x416;" horiz-adv-x="1002" 
d="M379 0v20l80 30v286l-315 -336h-125v20l64 20l298 313l-275 267l-68 20v20h217v-20l-73 -27l277 -274v271l-80 30v20h238v-20l-80 -30v-271l277 274l-74 27v20h211v-20l-68 -20l-269 -261l306 -319l63 -20v-20h-132l-314 336v-286l80 -30v-20h-238z" />
    <glyph glyph-name="uni0417" unicode="&#x417;" horiz-adv-x="631" 
d="M312 670q59 0 108 -17.5t78 -52t29 -85.5q0 -53 -35.5 -99.5t-102.5 -65.5q84 -13 130 -56t46 -107q0 -56 -30.5 -100.5t-87.5 -70.5t-134 -26q-78 0 -125.5 14t-89.5 35l-10 155h18l59 -116q27 -17 60 -29.5t87 -12.5q85 0 127.5 40.5t42.5 102.5q0 70 -43.5 104
t-127.5 34h-99v47h75q72 0 115 35t43 97q0 61 -34.5 96.5t-101.5 35.5q-35 0 -65.5 -10t-60.5 -35l-56 -126h-19l5 166q40 20 84 33.5t115 13.5z" />
    <glyph glyph-name="uni0418" unicode="&#x418;" horiz-adv-x="809" 
d="M65 0v20l79 30v560l-79 30v20h239v-20l-82 -30v-458l365 416v42l-82 30v20h239v-20l-79 -30v-560l79 -30v-20h-239v20l82 30v454l-365 -416v-38l82 -30v-20h-239z" />
    <glyph glyph-name="uni0419" unicode="&#x419;" horiz-adv-x="809" 
d="M65 0v20l79 30v560l-79 30v20h239v-20l-82 -30v-458l365 416v42l-82 30v20h239v-20l-79 -30v-560l79 -30v-20h-239v20l82 30v454l-365 -416v-38l82 -30v-20h-239zM405 710q-81 0 -121.5 43.5t-40.5 108.5h76q0 -52 19 -85.5t67 -33.5t67 33.5t19 85.5h76
q0 -65 -40.5 -108.5t-121.5 -43.5z" />
    <glyph glyph-name="uni041A" unicode="&#x41a;" horiz-adv-x="712" 
d="M65 0v20l80 30v560l-80 30v20h238v-20l-80 -30v-271l282 274l-73 27v20h205v-20l-61 -19l-275 -262l324 -318l64 -21v-20h-131l-335 337v-287l80 -30v-20h-238z" />
    <glyph glyph-name="uni041B" unicode="&#x41b;" horiz-adv-x="711" 
d="M406 0v20l83 30v563h-252v-49q0 -180 -14 -295t-41 -180q-25 -57 -50 -78t-56 -21q-26 0 -36 9.5t-10 29.5v45h74q27 32 45 91.5t27 156.5t9 241v47l-79 30v20h540v-20l-80 -30v-560l80 -30v-20h-240z" />
    <glyph glyph-name="uni041C" unicode="&#x41c;" horiz-adv-x="949" 
d="M60 0v20l79 30l21 558l-86 32v20h173l235 -547l238 547h166v-20l-84 -32l17 -558l70 -30v-20h-220v20l74 29l-11 517l-248 -571h-35l-243 568l-12 -514l81 -29v-20h-215z" />
    <glyph glyph-name="uni041D" unicode="&#x41d;" horiz-adv-x="799" 
d="M65 0v20l79 30v560l-79 30v20h239v-20l-82 -30v-246h355v246l-82 30v20h239v-20l-79 -30v-560l79 -30v-20h-239v20l82 30v267h-355v-267l82 -30v-20h-239z" />
    <glyph glyph-name="uni041E" unicode="&#x41e;" horiz-adv-x="791" 
d="M395 -10q-70 0 -129.5 25.5t-103 71t-68 108t-24.5 135.5q0 74 24.5 136t68 107.5t103 71t129.5 25.5t129.5 -25.5t103.5 -71t68.5 -107.5t24.5 -136q0 -73 -24.5 -135.5t-68.5 -108t-103.5 -71t-129.5 -25.5zM416 32q66 0 116 33t78 93t28 141q0 100 -35 174t-94 115
t-131 41q-66 0 -117 -32.5t-79.5 -92.5t-28.5 -141q0 -100 35 -174.5t95 -115.5t133 -41z" />
    <glyph glyph-name="uni041F" unicode="&#x41f;" horiz-adv-x="769" 
d="M65 0v20l79 30v560l-79 30v20h639v-20l-79 -30v-560l79 -30v-20h-239v20l82 30v563h-325v-563l82 -30v-20h-239z" />
    <glyph glyph-name="uni0420" unicode="&#x420;" horiz-adv-x="613" 
d="M65 0v20l80 30v560l-80 30v20h235q118 0 189.5 -43t71.5 -136q0 -54 -36 -97t-99.5 -68t-144.5 -25h-58v-241l90 -30v-20h-248zM297 613h-74v-275h81q78 0 125.5 37.5t47.5 97.5q0 74 -48 107t-132 33z" />
    <glyph glyph-name="uni0421" unicode="&#x421;" horiz-adv-x="721" 
d="M397 -10q-99 0 -172.5 42t-114 115t-40.5 165q0 73 27 138t74.5 114.5t109.5 77.5t132 28q49 0 83.5 -6.5t62 -17.5t54.5 -24l5 -167h-19l-52 119q-38 27 -69.5 40.5t-69.5 13.5q-75 0 -134 -37t-93 -101t-34 -144q0 -96 34 -166.5t92 -108.5t129 -38q51 0 86.5 13.5
t63.5 32.5l59 115h18l-10 -155q-29 -14 -59.5 -25.5t-69 -17.5t-93.5 -6z" />
    <glyph glyph-name="uni0422" unicode="&#x422;" horiz-adv-x="670" 
d="M196 0v20l100 30v563h-176l-57 -147h-18v194h580v-194h-18l-57 147h-176v-563l100 -30v-20h-278z" />
    <glyph glyph-name="uni0423" unicode="&#x423;" horiz-adv-x="693" 
d="M389 164q-35 -71 -62 -108.5t-51 -51.5t-50 -14q-31 0 -41 10.5t-10 35.5v37h90q36 27 66 83l-228 456l-68 28v20h235v-20l-85 -27v-4l183 -368h7l179 370v4l-84 25v20h200v-20l-57 -22z" />
    <glyph glyph-name="uni0424" unicode="&#x424;" horiz-adv-x="827" 
d="M297 -20v20l79 30v46q-107 3 -183.5 34.5t-117.5 85.5t-41 124q0 73 41 131.5t117.5 94t183.5 38.5v46l-79 30v20h236v-20l-79 -30v-46q108 -3 184 -34.5t115.5 -85.5t39.5 -124q0 -72 -39.5 -130.5t-115.5 -94t-184 -39.5v-46l79 -30v-20h-236zM376 543
q-127 0 -193 -52.5t-66 -137.5q0 -102 69 -163.5t190 -70.5v424zM710 309q0 101 -66.5 163t-189.5 70v-424q132 0 194 53t62 138z" />
    <glyph glyph-name="uni0425" unicode="&#x425;" horiz-adv-x="728" 
d="M35 0v20l72 28l214 283l-205 281l-66 28v20h238v-20l-79 -28v-5l165 -224l169 225v4l-75 28v20h200v-20l-62 -27l-204 -268l217 -295l74 -30v-20h-243v20l74 27v4l-176 242l-178 -242v-4l80 -27v-20h-215z" />
    <glyph glyph-name="uni0426" unicode="&#x426;" horiz-adv-x="772" 
d="M644 0h-579v20l79 30v560l-79 30v20h239v-20l-82 -30v-563h325v563l-82 30v20h239v-20l-79 -30v-563h100v-206h-18z" />
    <glyph glyph-name="uni0427" unicode="&#x427;" horiz-adv-x="729" 
d="M417 0v20l90 30v258q-34 -11 -75.5 -19.5t-92.5 -8.5q-70 0 -121.5 18.5t-80.5 66.5t-29 135v109l-82 31v20h240v-20l-80 -31v-113q0 -94 40 -131.5t136 -37.5q35 0 74 5.5t71 18.5v258l-83 31v20h240v-20l-79 -31v-559l79 -30v-20h-247z" />
    <glyph glyph-name="uni0428" unicode="&#x428;" horiz-adv-x="1058" 
d="M304 660v-20l-82 -30v-563h268v563l-79 30v20h239v-20l-82 -30v-563h268v563l-83 30v20h240v-20l-80 -30v-560l80 -30v-20h-928v20l79 30v560l-79 30v20h239z" />
    <glyph glyph-name="uni0429" unicode="&#x429;" horiz-adv-x="1060" 
d="M304 660v-20l-82 -30v-563h268v563l-79 30v20h239v-20l-82 -30v-563h268v563l-83 30v20h240v-20l-80 -30v-563h100v-206h-18l-63 159h-867v20l79 30v560l-79 30v20h239z" />
    <glyph glyph-name="uni042A" unicode="&#x42a;" horiz-adv-x="716" 
d="M414 0h-256v20l79 30v563h-129l-57 -147h-18v194h381v-20l-99 -30v-226h99q126 0 197 -49.5t71 -132.5q0 -58 -32 -103.5t-92 -72t-144 -26.5zM408 337h-93v-290h99q94 0 139.5 40.5t45.5 104.5q0 75 -46 110t-145 35z" />
    <glyph glyph-name="uni042B" unicode="&#x42b;" horiz-adv-x="916" 
d="M320 0h-255v20l79 30v560l-79 30v20h256v-20l-99 -30v-226h99q126 0 197 -49.5t71 -132.5q0 -58 -32 -103.5t-92 -72t-145 -26.5zM315 337h-93v-290h99q94 0 139.5 40.5t45.5 104.5q0 75 -46 110t-145 35zM614 0v20l79 30v560l-79 30v20h236v-20l-79 -30v-560l79 -30v-20
h-236z" />
    <glyph glyph-name="uni042C" unicode="&#x42c;" horiz-adv-x="623" 
d="M320 0h-255v20l79 30v560l-79 30v20h256v-20l-99 -30v-226h99q126 0 197 -49.5t71 -132.5q0 -58 -32 -103.5t-92 -72t-145 -26.5zM315 337h-93v-290h99q94 0 139.5 40.5t45.5 104.5q0 75 -46 110t-145 35z" />
    <glyph glyph-name="uni042D" unicode="&#x42d;" horiz-adv-x="722" 
d="M336 34q69 0 121.5 31.5t82 91t29.5 142.5v18h-259l-39 -81h-18v211h18l39 -83h255q-10 81 -45.5 140.5t-88.5 91.5t-118 32q-39 0 -70.5 -9.5t-64.5 -36.5l-55 -125h-19l5 166q41 21 90.5 34t123.5 13q97 0 171 -44t116 -121t42 -175q0 -100 -41 -176.5t-114.5 -120
t-171.5 -43.5q-82 0 -132.5 13.5t-94.5 35.5l-10 155h18l58 -115q31 -19 71 -32t101 -13z" />
    <glyph glyph-name="uni042E" unicode="&#x42e;" horiz-adv-x="1051" 
d="M65 0v20l79 30v560l-79 30v20h239v-20l-82 -30v-246h129q8 89 50 158t110.5 108.5t153.5 39.5q91 0 162 -44t112.5 -121t41.5 -175t-41.5 -175t-112.5 -121t-162 -44q-89 0 -159 42.5t-111.5 116t-44.5 168.5h-128v-267l82 -30v-20h-239zM686 32q63 0 110.5 33t74.5 93
t27 141q0 100 -33.5 174t-90 115t-126.5 41q-63 0 -111.5 -32.5t-76 -92.5t-27.5 -141q0 -100 33.5 -174.5t91 -115.5t128.5 -41z" />
    <glyph glyph-name="uni042F" unicode="&#x42f;" horiz-adv-x="674" 
d="M158 0h-127v20l66 26l183 260q-80 17 -122 64t-42 104q0 91 64.5 138.5t193.5 47.5h235v-20l-80 -30v-560l80 -30v-20h-235v20l78 31v240h-98zM364 338h88v275h-81q-84 0 -127.5 -36.5t-43.5 -100.5q0 -60 44 -99t120 -39z" />
    <glyph glyph-name="uni0430" unicode="&#x430;" horiz-adv-x="474" 
d="M156 -10q-47 0 -78 27.5t-31 76.5q0 48 36 82.5t119 54.5l97 24v77q0 38 -27.5 63t-63.5 25q-17 0 -33.5 -4t-38.5 -16v-89h-51q-16 0 -22 6t-6 24q0 27 24.5 54.5t64.5 46t85 18.5q67 0 101 -28.5t34 -80.5v-295q8 -7 20 -11.5t31 -4.5h44l2 -2v-2q-10 -18 -30.5 -32
t-51.5 -14q-33 0 -52 17t-26 43h-4q-26 -25 -63.5 -42.5t-79.5 -17.5zM114 113q0 -35 21 -52.5t59 -17.5q25 0 50.5 6t54.5 20v157q-81 -16 -120.5 -32.5t-52 -36t-12.5 -44.5z" />
    <glyph glyph-name="uni0431" unicode="&#x431;" horiz-adv-x="528" 
d="M441 744h13l4 -4v-10q0 -57 -23.5 -86t-96.5 -37q-53 -6 -81.5 -12.5t-44 -13.5t-28.5 -15q-18 -13 -33 -39t-22 -76q-4 -33 -5 -81q24 30 61 50t93 20q57 0 102.5 -27.5t71.5 -78t26 -119.5t-28.5 -119.5t-77 -78t-108.5 -27.5q-70 0 -118 33.5t-72 91.5t-24 132
q0 79 11 146.5t42.5 122t91 94.5t156.5 65q38 10 57 18t26 20t7 31zM124 255q0 -115 42.5 -172.5t111.5 -57.5q51 0 88.5 43t37.5 129q0 51 -13 98.5t-45 78t-92 30.5q-39 0 -73 -20t-57 -51v-78z" />
    <glyph glyph-name="uni0432" unicode="&#x432;" horiz-adv-x="498" 
d="M115 409l-63 25v16h190q53 0 94.5 -9t66 -31t24.5 -61q0 -37 -24 -66t-87 -40q55 -6 85.5 -23t43.5 -39.5t13 -46.5q0 -67 -58 -100.5t-165 -33.5h-183v16l63 25v368zM260 414h-77v-158h79q50 0 72 22t22 53q0 35 -21.5 59t-74.5 24zM256 223h-73v-187h75q126 0 126 88
q0 44 -29 71.5t-99 27.5z" />
    <glyph glyph-name="uni0433" unicode="&#x433;" horiz-adv-x="445" 
d="M115 409l-63 25v16h367v-163h-16l-58 125h-162v-371l78 -25v-16h-209v16l63 25v368z" />
    <glyph glyph-name="uni0434" unicode="&#x434;" horiz-adv-x="520" 
d="M73 434v16h396v-16l-63 -25v-371h71v-161h-16l-57 123h-306l-57 -123h-16v161h54q21 50 33.5 110.5t18 123t5.5 119.5v18zM339 38v374h-161v-21q0 -57 -5.5 -120t-17 -123t-30.5 -110h214z" />
    <glyph glyph-name="uni0435" unicode="&#x435;" horiz-adv-x="483" 
d="M262 -10q-67 0 -114.5 28t-72.5 77.5t-25 114.5q0 71 29 127.5t77 89.5t104 33q79 0 124 -54t48 -152l-4 -4h-311v-8q0 -52 18 -95.5t57 -69.5t101 -26q72 0 136 45h3v-11q-23 -40 -67 -67.5t-103 -27.5zM245 425q-48 0 -82 -36.5t-43 -102.5h245q-11 70 -40 104.5
t-80 34.5z" />
    <glyph glyph-name="uni0436" unicode="&#x436;" horiz-adv-x="760" 
d="M143 0h-122v16l70 27l192 205l-190 158l-67 28v16h174v-16l-37 -29v-6l183 -160v170l-63 25v16h194v-16l-63 -25v-170l183 160v6l-37 29v16h169v-16l-67 -28l-184 -153l197 -210l64 -27v-16h-122l-33 45l-170 183v-187l63 -25v-16h-194v16l63 25v187l-170 -183z" />
    <glyph glyph-name="uni0437" unicode="&#x437;" horiz-adv-x="442" 
d="M208 21q47 0 79 23.5t32 78.5q0 41 -27 69t-92 28h-54v35h60q48 0 69.5 24.5t21.5 61.5q0 40 -23 63.5t-70 23.5q-65 0 -92 -57l-24 -49h-14v106q26 13 60.5 22.5t81.5 9.5q36 0 71 -9t58 -32t23 -64q0 -38 -23.5 -70t-86.5 -44q70 -8 102 -40t32 -75q0 -66 -52 -101
t-131 -35q-49 0 -80.5 8t-64.5 24v109h13l22 -44q15 -33 40 -49.5t69 -16.5z" />
    <glyph glyph-name="uni0438" unicode="&#x438;" horiz-adv-x="598" 
d="M115 409l-63 25v16h197v-16l-66 -25v-281l232 246v35l-66 25v16h197v-16l-63 -25v-368l63 -25v-16h-197v16l66 25v283l-232 -247v-36l66 -25v-16h-197v16l63 25v368z" />
    <glyph glyph-name="uni0439" unicode="&#x439;" horiz-adv-x="598" 
d="M115 409l-63 25v16h197v-16l-66 -25v-281l232 246v35l-66 25v16h197v-16l-63 -25v-368l63 -25v-16h-197v16l66 25v283l-232 -247v-36l66 -25v-16h-197v16l63 25v368zM139 710h73q0 -61 21.5 -98.5t65.5 -37.5t66 37.5t22 98.5h73q0 -73 -41 -120t-120 -47q-78 0 -119 47
t-41 120z" />
    <glyph glyph-name="uni043A" unicode="&#x43a;" horiz-adv-x="546" 
d="M396 0l-33 45l-180 183v-187l66 -25v-16h-197v16l63 25v368l-63 25v16h197v-16l-66 -25v-170l193 160v6l-37 29v16h169v-16l-67 -28l-193 -153l206 -210l64 -27v-16h-122z" />
    <glyph glyph-name="uni043B" unicode="&#x43b;" horiz-adv-x="528" 
d="M413 409v-368l63 -25v-16h-197v16l66 25v371h-157v-27q0 -78 -3.5 -134t-11.5 -98.5t-21 -79.5q-18 -48 -38 -65.5t-50 -17.5q-41 0 -41 39v33h65q31 37 44.5 110.5t13.5 207.5v29l-66 25v16h396v-16z" />
    <glyph glyph-name="uni043C" unicode="&#x43c;" horiz-adv-x="694" 
d="M118 409l-63 25v16h145l149 -341h6l143 341h132v-16l-64 -25l20 -368l63 -25v-16h-188v16l57 25l-16 333l-159 -376h-16l-169 375l-9 -332l57 -25v-16h-161v16l63 25z" />
    <glyph glyph-name="uni043D" unicode="&#x43d;" horiz-adv-x="588" 
d="M115 409l-63 25v16h197v-16l-66 -25v-161h222v161l-66 25v16h197v-16l-63 -25v-368l63 -25v-16h-197v16l66 25v169h-222v-169l66 -25v-16h-197v16l63 25v368z" />
    <glyph glyph-name="uni043E" unicode="&#x43e;" horiz-adv-x="528" 
d="M264 -10q-64 0 -112 31t-75 84t-27 120t27 120t75 84t112 31t112 -31t75 -84t27 -120t-27 -120t-75 -84t-112 -31zM278 25q43 0 71 26t41.5 67t13.5 87q0 58 -16.5 108.5t-50 81.5t-85.5 31q-43 0 -71.5 -25t-42.5 -66t-14 -89q0 -58 17 -108.5t51 -81.5t86 -31z" />
    <glyph glyph-name="uni043F" unicode="&#x43f;" horiz-adv-x="574" 
d="M115 409l-63 25v16h470v-16l-63 -25v-368l63 -25v-16h-197v16l66 25v371h-208v-371l66 -25v-16h-197v16l63 25v368z" />
    <glyph glyph-name="uni0440" unicode="&#x440;" horiz-adv-x="558" 
d="M52 -230v16l63 25v562l-65 34v11l117 42h8l6 -61h6q39 32 74 46.5t76 14.5q50 0 89.5 -26t61.5 -73.5t22 -113.5q0 -82 -31 -139.5t-83 -87.5t-115 -30q-27 0 -51.5 4t-46.5 12v-195l71 -25v-16h-202zM293 405q-59 0 -110 -38v-297q30 -22 60.5 -31.5t68.5 -9.5
q35 0 65.5 19t48.5 61.5t18 111.5q0 64 -21 104.5t-55.5 60t-74.5 19.5z" />
    <glyph glyph-name="uni0441" unicode="&#x441;" horiz-adv-x="476" 
d="M260 -10q-67 0 -114 28t-72 77.5t-25 114.5q0 72 31.5 128.5t86 89t124.5 32.5q40 0 71.5 -12.5t49.5 -30t18 -32.5q0 -12 -17 -26l-30 -24l-70 89q-13 3 -28 3q-48 0 -86 -24t-60.5 -67t-22.5 -100q0 -86 46.5 -135.5t128.5 -49.5q72 0 136 45h3v-11q-23 -40 -67 -67.5
t-103 -27.5z" />
    <glyph glyph-name="uni0442" unicode="&#x442;" horiz-adv-x="476" 
d="M31 287v163h414v-163h-16l-59 125h-98v-371l75 -25v-16h-217v16l74 25v371h-98l-59 -125h-16z" />
    <glyph glyph-name="uni0443" unicode="&#x443;" horiz-adv-x="457" 
d="M-23 450h220v-16l-80 -25v-4l133 -312h3l116 308v5l-77 28v16h188v-16l-70 -27l-216 -531q-26 -65 -54.5 -90.5t-69.5 -25.5q-23 0 -30 6.5t-7 30.5v34h94q16 21 31 50t41 88l18 40l-175 399l-65 26v16z" />
    <glyph glyph-name="uni0444" unicode="&#x444;" horiz-adv-x="658" 
d="M233 -230v16l63 25v179q-73 3 -128.5 33.5t-86.5 82t-31 115.5q0 66 31 119.5t86.5 85t128.5 34.5v203l-65 39v10l125 38h8v-290q72 -3 127 -34t86 -82t31 -115q0 -66 -31 -119t-86 -85t-127 -35v-179l66 -25v-16h-197zM124 242q0 -53 19 -100t57.5 -78t95.5 -38v400
q-56 0 -94.5 -25.5t-58 -67.5t-19.5 -91zM534 209q0 53 -18.5 99.5t-56.5 78t-95 38.5v-400q57 0 94.5 26.5t56.5 68.5t19 89z" />
    <glyph glyph-name="uni0445" unicode="&#x445;" horiz-adv-x="484" 
d="M26 0v16l56 27l129 181l-128 185l-52 25v16h195v-16l-66 -24v-5l96 -138l85 134v5l-56 28v16h156v-16l-54 -29l-116 -160l142 -204l45 -25v-16h-182v16l59 24v5l-108 156l-95 -152v-5l59 -28v-16h-165z" />
    <glyph glyph-name="uni0446" unicode="&#x446;" horiz-adv-x="572" 
d="M115 41v368l-63 25v16h197v-16l-66 -25v-371h208v371l-66 25v16h197v-16l-63 -25v-371h70v-161h-16l-57 123h-404v16z" />
    <glyph glyph-name="uni0447" unicode="&#x447;" horiz-adv-x="536" 
d="M85 329v80l-58 25v16h190v-16l-65 -25v-79q0 -59 25 -84.5t81 -25.5q29 0 51 3.5t44 10.5v175l-64 25v16h195v-16l-63 -25v-368l63 -25v-16h-202v16l71 25v164q-52 -17 -110 -17q-87 0 -122.5 33.5t-35.5 107.5z" />
    <glyph glyph-name="uni0448" unicode="&#x448;" horiz-adv-x="806" 
d="M115 41v368l-63 25v16h197v-16l-66 -25v-371h192v371l-66 25v16h197v-16l-63 -25v-371h192v371l-66 25v16h197v-16l-63 -25v-368l63 -25v-16h-714v16z" />
    <glyph glyph-name="uni0449" unicode="&#x449;" horiz-adv-x="816" 
d="M115 41v368l-63 25v16h197v-16l-66 -25v-371h192v371l-66 25v16h197v-16l-63 -25v-371h192v371l-66 25v16h197v-16l-63 -25v-371h70v-161h-16l-57 123h-648v16z" />
    <glyph glyph-name="uni044A" unicode="&#x44a;" horiz-adv-x="565" 
d="M318 271q78 0 126 -17.5t69.5 -47t21.5 -65.5q0 -68 -57.5 -104.5t-164.5 -36.5h-183v16l63 25v371h-87l-59 -125h-16v163h312v-16l-83 -25v-138h58zM334 233h-74v-195h75q62 0 94.5 25t32.5 71q0 99 -128 99z" />
    <glyph glyph-name="uni044B" unicode="&#x44b;" horiz-adv-x="723" 
d="M608 409v-368l63 -25v-16h-197v16l66 25v368l-66 25v16h197v-16zM240 271q78 0 126 -17.5t70 -47t22 -65.5q0 -68 -58 -104.5t-165 -36.5h-183v16l63 25v368l-63 25v16h214v-16l-83 -25v-138h57zM256 233h-73v-195h75q62 0 94 25t32 71q0 99 -128 99z" />
    <glyph glyph-name="uni044C" unicode="&#x44c;" horiz-adv-x="488" 
d="M240 271q78 0 126 -17.5t70 -47t22 -65.5q0 -68 -58 -104.5t-165 -36.5h-183v16l63 25v368l-63 25v16h214v-16l-83 -25v-138h57zM256 233h-73v-195h75q62 0 94 25t32 71q0 99 -128 99z" />
    <glyph glyph-name="uni044D" unicode="&#x44d;" horiz-adv-x="490" 
d="M160 212v38h204q-5 48 -23.5 88.5t-50.5 65t-78 24.5q-34 0 -58 -13t-38 -44l-25 -49h-13v106q26 14 62 23t86 9q63 0 111.5 -30t75.5 -82.5t27 -119.5q0 -71 -27 -124.5t-75.5 -83.5t-112.5 -30q-52 0 -86.5 8t-68.5 24v109h13l22 -44q15 -34 43.5 -50t75.5 -16
q46 0 77.5 26.5t48 69.5t16.5 94q0 2 0 1h-206z" />
    <glyph glyph-name="uni044E" unicode="&#x44e;" horiz-adv-x="731" 
d="M115 409l-63 25v16h197v-16l-66 -25v-161h87q5 61 32 109t71.5 75.5t101.5 27.5q61 0 107.5 -31t72.5 -84t26 -120t-26 -120t-72.5 -84t-107.5 -31q-58 0 -103.5 28.5t-72 78.5t-29.5 113h-87v-169l66 -25v-16h-197v16l63 25v368zM489 25q40 0 66 26t39.5 67t13.5 87
q0 58 -16 108.5t-48 81.5t-81 31q-39 0 -65.5 -25t-40.5 -66t-14 -89q0 -58 16.5 -108.5t49 -81.5t80.5 -31z" />
    <glyph glyph-name="uni044F" unicode="&#x44f;" horiz-adv-x="531" 
d="M291 0v16l57 25v157h-72l-104 -146l-26 -52h-116v16l58 27l124 167q-55 9 -84.5 38.5t-29.5 70.5q0 48 23.5 77t64 41.5t90.5 12.5h203v-16l-63 -25v-368l63 -25v-16h-188zM271 230h77v185h-71q-60 0 -85.5 -27.5t-25.5 -64.5q0 -39 25 -66t80 -27z" />
    <glyph glyph-name="uni0451" unicode="&#x451;" horiz-adv-x="483" 
d="M262 -10q-67 0 -114.5 28t-72.5 77.5t-25 114.5q0 71 29 127.5t77 89.5t104 33q79 0 124 -54t48 -152l-4 -4h-311v-8q0 -52 18 -95.5t57 -69.5t101 -26q72 0 136 45h3v-11q-23 -40 -67 -67.5t-103 -27.5zM245 425q-48 0 -82 -36.5t-43 -102.5h245q-11 70 -40 104.5
t-80 34.5zM165 571q-19 0 -32.5 13.5t-13.5 32.5t13.5 32.5t32.5 13.5q20 0 33 -13.5t13 -32.5t-13 -32.5t-33 -13.5zM351 571q-20 0 -33 13.5t-13 32.5t13 32.5t33 13.5q19 0 32.5 -13.5t13.5 -32.5t-13.5 -32.5t-32.5 -13.5z" />
    <glyph glyph-name="uni0452" unicode="&#x452;" horiz-adv-x="565" 
d="M183 40l71 -24v-16h-202v16l63 25v500h-63v40h63v82l-65 39v10l125 38h8v-169h148v-40h-148v-154h3q38 38 72.5 55.5t76.5 17.5q60 0 99 -31.5t39 -93.5v-335q0 -50 -10.5 -92t-38.5 -76.5t-82 -61.5v16q26 24 39.5 50.5t18.5 64t5 93.5v302q0 51 -29.5 77.5t-77.5 26.5
q-28 0 -61.5 -11t-53.5 -33v-316z" />
    <glyph glyph-name="uni0453" unicode="&#x453;" horiz-adv-x="445" 
d="M115 409l-63 25v16h367v-163h-16l-58 125h-162v-371l78 -25v-16h-209v16l63 25v368zM251 525l86 177h87v-14l-161 -163h-12z" />
    <glyph glyph-name="uni0454" unicode="&#x454;" horiz-adv-x="476" 
d="M261 -10q-67 0 -114 28t-72 77.5t-25 114.5q0 72 31.5 128.5t86 89t124.5 32.5q40 0 71.5 -12.5t49.5 -30t18 -32.5q0 -12 -17 -26l-30 -24l-70 89q-13 3 -28 3q-46 0 -83 -22t-60 -62t-26 -93h198v-38h-197q7 -75 52.5 -118t121.5 -43q72 0 136 45h3v-11
q-23 -40 -67 -67.5t-103 -27.5z" />
    <glyph glyph-name="uni0455" unicode="&#x455;" horiz-adv-x="421" 
d="M200 -10q-42 0 -73.5 7.5t-63.5 24.5v109h13l25 -51q13 -29 37.5 -44t63.5 -15q43 0 67 21t24 58q0 41 -26.5 60.5t-80.5 43.5q-55 24 -83 51.5t-28 78.5q0 35 19.5 63.5t50.5 45.5t65 17q37 0 67.5 -9t57.5 -23v-106h-13l-25 49q-14 30 -37 43.5t-48 13.5
q-36 0 -56.5 -19.5t-20.5 -52.5q0 -35 23.5 -54t71.5 -40q34 -15 62 -30.5t44.5 -40.5t16.5 -69q0 -40 -22 -69.5t-57 -46t-74 -16.5z" />
    <glyph glyph-name="uni0456" unicode="&#x456;" horiz-adv-x="308" 
d="M147 596q-22 0 -36.5 14.5t-14.5 36.5t14.5 36.5t36.5 14.5t36.5 -14.5t14.5 -36.5t-14.5 -36.5t-36.5 -14.5zM58 0v16l63 25v332l-65 39v10l125 38h8v-419l66 -25v-16h-197z" />
    <glyph glyph-name="uni0457" unicode="&#x457;" horiz-adv-x="309" 
d="M78 596q-22 0 -36.5 14.5t-14.5 36.5t14.5 36.5t36.5 14.5t36.5 -14.5t14.5 -36.5t-14.5 -36.5t-36.5 -14.5zM222 596q-23 0 -37 14.5t-14 36.5t14 36.5t37 14.5q22 0 36.5 -14.5t14.5 -36.5t-14.5 -36.5t-36.5 -14.5zM58 0v16l63 25v332l-65 39v10l125 38h8v-419l66 -25
v-16h-197z" />
    <glyph glyph-name="uni0458" unicode="&#x458;" horiz-adv-x="299" 
d="M147 596q-22 0 -36.5 14.5t-14.5 36.5t14.5 36.5t36.5 14.5t36.5 -14.5t14.5 -36.5t-14.5 -36.5t-36.5 -14.5zM58 -230v16q26 24 39.5 50.5t18.5 64t5 93.5v379l-65 39v10l125 38h8v-460q0 -50 -10.5 -92t-38.5 -76.5t-82 -61.5z" />
    <glyph glyph-name="uni0459" unicode="&#x459;" horiz-adv-x="708" 
d="M461 271q78 0 126 -17.5t69.5 -47.5t21.5 -65q0 -68 -57.5 -104.5t-164.5 -36.5h-183v16l63 25v371h-148v-27q0 -78 -3.5 -134t-11.5 -98.5t-21 -79.5q-18 -48 -38 -65.5t-50 -17.5q-41 0 -41 39v33h65q31 37 44.5 110.5t13.5 207.5v29l-66 25v16h406v-16l-83 -25v-138
h58zM476 233h-73v-195h75q127 0 127 96q0 99 -129 99z" />
    <glyph glyph-name="uni045A" unicode="&#x45a;" horiz-adv-x="758" 
d="M115 409l-63 25v16h191v-16l-60 -25v-149h202v149l-57 25v16h208v-16l-83 -25v-149h57q78 0 126 -16.5t70 -45t22 -63.5q0 -65 -58 -100t-165 -35h-177v16l57 25v182h-202v-182l60 -25v-16h-191v16l63 25v368zM526 222h-73v-184h75q126 0 126 91q0 93 -128 93z" />
    <glyph glyph-name="uni045B" unicode="&#x45b;" horiz-adv-x="574" 
d="M52 0v16l63 25v500h-63v40h63v82l-65 39v10l125 38h8v-169h148v-40h-148v-154h3q38 38 72.5 55.5t76.5 17.5q60 0 99 -31.5t39 -93.5v-294l63 -25v-16h-202v16l71 24v256q0 51 -29.5 77.5t-77.5 26.5q-28 0 -61.5 -11t-53.5 -33v-316l71 -24v-16h-202z" />
    <glyph glyph-name="uni045C" unicode="&#x45c;" horiz-adv-x="546" 
d="M396 0l-33 45l-180 183v-187l66 -25v-16h-197v16l63 25v368l-63 25v16h197v-16l-66 -25v-170l193 160v6l-37 29v16h169v-16l-67 -28l-193 -153l206 -210l64 -27v-16h-122zM286 525l86 177h87v-14l-161 -163h-12z" />
    <glyph glyph-name="uni045E" unicode="&#x45e;" horiz-adv-x="457" 
d="M-23 450h220v-16l-80 -25v-4l133 -312h3l116 308v5l-77 28v16h188v-16l-70 -27l-216 -531q-26 -65 -54.5 -90.5t-69.5 -25.5q-23 0 -30 6.5t-7 30.5v34h94q16 21 31 50t41 88l18 40l-175 399l-65 26v16zM86 715h73q0 -64 21.5 -100t65.5 -36t66 36t22 100h73
q0 -75 -41 -121t-120 -46q-78 0 -119 46t-41 121z" />
    <glyph glyph-name="uni045F" unicode="&#x45f;" horiz-adv-x="574" 
d="M115 41v368l-63 25v16h197v-16l-66 -25v-371h208v371l-66 25v16h197v-16l-63 -25v-368l63 -25v-16h-196l-31 -123h-16l-32 123h-195v16z" />
    <glyph glyph-name="uni0462" unicode="&#x462;" horiz-adv-x="709" 
d="M407 0h-256v20l79 30v449h-126l-57 -111h-18v158h201v64l-79 30v20h236v-20l-79 -30v-64h227v-158h-18l-57 111h-152v-151h99q126 0 197 -44.5t71 -119.5q0 -53 -32 -94.5t-92 -65.5t-144 -24zM401 301h-93v-254h99q94 0 139.5 35.5t45.5 91.5q0 66 -46 96.5t-145 30.5z
" />
    <glyph glyph-name="uni0463" unicode="&#x463;" horiz-adv-x="555" 
d="M182 41v371h-82l-57 -105h-16v143h155v213l-65 39v10l125 38h8v-300h175v-143h-16l-57 105h-102v-153h57q78 0 126 -17t70 -46t22 -64q0 -63 -58 -97.5t-165 -34.5h-183v16zM323 221h-73v-183h74q127 0 127 87q0 96 -128 96z" />
    <glyph glyph-name="uni0472" unicode="&#x472;" horiz-adv-x="791" 
d="M395 -10q-70 0 -129.5 25.5t-103 71t-68 108t-24.5 135.5q0 74 24.5 136t68 107.5t103 71t129.5 25.5t129.5 -25.5t103.5 -71t68.5 -107.5t24.5 -136q0 -73 -24.5 -135.5t-68.5 -108t-103.5 -71t-129.5 -25.5zM153 363v-21q51 31 106.5 36.5t110.5 -2.5t105 -19t91 -14.5
t69 11.5q-10 85 -46 146.5t-91 95t-120 33.5q-66 0 -117 -32.5t-79.5 -92.5t-28.5 -141zM416 32q66 0 116 33t78 93t28 141q0 11 -1 23q-44 -31 -94 -36t-102.5 3.5t-104 20t-97.5 15t-84 -13.5q10 -85 46.5 -148t92 -97t122.5 -34z" />
    <glyph glyph-name="uni0473" unicode="&#x473;" horiz-adv-x="528" 
d="M264 -10q-64 0 -112 31t-75 84t-27 120t27 120t75 84t112 31t112 -31t75 -84t27 -120t-27 -120t-75 -84t-112 -31zM124 246v-6q33 20 66 23.5t64 -1.5t59 -11.5t50.5 -9t38.5 7.5q-6 48 -24 88.5t-49.5 64.5t-76.5 24q-43 0 -71.5 -25t-42.5 -66t-14 -89zM278 25
q43 0 71 26t41.5 67t13.5 87q0 12 -1 23q-26 -22 -56 -27t-60.5 -1t-60 11t-55.5 10.5t-46 -4.5q4 -52 22 -95.5t51 -70t80 -26.5z" />
    <glyph glyph-name="uni0474" unicode="&#x474;" horiz-adv-x="721" 
d="M523 491q27 69 50 108t47.5 55t55.5 16q24 0 33.5 -9t9.5 -29v-43h-77q-18 -14 -33 -37.5t-31 -62.5l-200 -494h-29l-249 618l-65 27v20h235v-20l-85 -27v-4l191 -485h6z" />
    <glyph glyph-name="uni0475" unicode="&#x475;" horiz-adv-x="471" 
d="M218 -2l-175 410l-66 26v16h220v-16l-80 -24v-5l129 -308h2l94 252q25 65 46.5 88t50.5 23q21 0 30 -10t9 -26v-37h-70q-23 -26 -51 -93l-123 -296h-16z" />
    <glyph glyph-name="uni0490" unicode="&#x490;" horiz-adv-x="560" 
d="M65 0v20l80 30v560l-79 30v20h385l63 159h18v-206h-309v-563l98 -30v-20h-256z" />
    <glyph glyph-name="uni0491" unicode="&#x491;" horiz-adv-x="433" 
d="M115 409l-63 25v16h290l57 123h16v-161h-232v-371l78 -25v-16h-209v16l63 25v368z" />
    <glyph glyph-name="uni0492" unicode="&#x492;" horiz-adv-x="590" 
d="M65 0v20l80 30v270h-80v44h80v246l-79 30v20h466v-168h-18l-53 121h-238v-249h171v-44h-171v-270l98 -30v-20h-256z" />
    <glyph glyph-name="uni0493" unicode="&#x493;" horiz-adv-x="445" 
d="M44 208v39h71v162l-63 25v16h367v-163h-16l-58 125h-162v-165h126v-39h-126v-167l78 -25v-16h-209v16l63 25v167h-71z" />
    <glyph glyph-name="uni0496" unicode="&#x496;" horiz-adv-x="1007" 
d="M379 0v20l80 30v286l-315 -336h-125v20l63 20l299 314l-275 266l-68 20v20h217v-20l-73 -27l277 -274v271l-80 30v20h238v-20l-80 -30v-271l277 274l-74 27v20h211v-20l-68 -20l-269 -261l300 -312h86v-206h-18l-63 159h-68l-314 336v-286l80 -30v-20h-238z" />
    <glyph glyph-name="uni0497" unicode="&#x497;" horiz-adv-x="757" 
d="M143 0h-122v16l66 27l194 206l-188 157l-67 28v16h174v-16l-37 -29v-6l183 -160v170l-63 25v16h194v-16l-63 -25v-170l183 160v6l-37 29v16h169v-16l-67 -28l-184 -153l202 -215h67v-161h-16l-57 123h-57l-33 45l-170 183v-187l63 -25v-16h-194v16l63 25v187l-170 -183z
" />
    <glyph glyph-name="uni049A" unicode="&#x49a;" horiz-adv-x="713" 
d="M65 0v20l80 30v560l-80 30v20h238v-20l-80 -30v-271l282 274l-73 27v20h205v-20l-61 -19l-275 -262l318 -312h87v-206h-18l-63 159h-67l-335 337v-287l80 -30v-20h-238z" />
    <glyph glyph-name="uni049B" unicode="&#x49b;" horiz-adv-x="537" 
d="M396 0l-33 45l-180 183v-187l66 -25v-16h-197v16l63 25v368l-63 25v16h197v-16l-66 -25v-170l193 160v6l-37 29v16h169v-16l-67 -28l-193 -153l211 -215h68v-161h-16l-57 123h-58z" />
    <glyph glyph-name="uni04A2" unicode="&#x4a2;" horiz-adv-x="802" 
d="M65 0v20l79 30v560l-79 30v20h239v-20l-82 -30v-246h355v246l-82 30v20h239v-20l-79 -30v-563h100v-206h-18l-63 159h-179v20l82 30v267h-355v-267l82 -30v-20h-239z" />
    <glyph glyph-name="uni04A3" unicode="&#x4a3;" horiz-adv-x="586" 
d="M115 409l-63 25v16h197v-16l-66 -25v-161h222v161l-66 25v16h197v-16l-63 -25v-371h70v-161h-16l-57 123h-131v16l66 25v170h-222v-170l66 -25v-16h-197v16l63 25v368z" />
    <glyph glyph-name="uni04AE" unicode="&#x4ae;" horiz-adv-x="706" 
d="M228 0v20l90 30v261l-220 302l-63 27v20h228v-20l-70 -26v-4l183 -255l166 254v4l-73 27v20h202v-20l-64 -24l-211 -307v-259l90 -30v-20h-258z" />
    <glyph glyph-name="uni04AF" unicode="&#x4af;" horiz-adv-x="457" 
d="M129 -231v16l63 26v190l-150 407l-65 26v16h220v-16l-80 -24v-5l124 -359h5l122 355v5l-76 28v16h188v-16l-70 -28l-151 -406v-189l63 -26v-16h-193z" />
    <glyph glyph-name="uni04B0" unicode="&#x4b0;" horiz-adv-x="706" 
d="M228 0v20l90 30v217h-142v44h142l-220 302l-63 27v20h228v-20l-70 -26v-4l183 -255l166 254v4l-73 27v20h202v-20l-64 -24l-210 -305h140v-44h-141v-217l90 -30v-20h-258z" />
    <glyph glyph-name="uni04B1" unicode="&#x4b1;" horiz-adv-x="457" 
d="M75 -38v38h117v1l-150 407l-65 26v16h220v-16l-80 -24v-5l124 -359h5l122 355v5l-76 28v16h188v-16l-70 -28l-151 -406v0h118v-38h-118v-151l63 -26v-16h-193v16l63 26v151h-117z" />
    <glyph glyph-name="uni04B2" unicode="&#x4b2;" horiz-adv-x="715" 
d="M35 0v20l72 28l214 283l-205 281l-66 28v20h238v-20l-79 -28v-5l165 -224l169 225v4l-75 28v20h200v-20l-62 -27l-204 -268l219 -298h87v-206h-18l-63 159h-177v20l74 27v4l-176 242l-178 -242v-4l80 -27v-20h-215z" />
    <glyph glyph-name="uni04B3" unicode="&#x4b3;" horiz-adv-x="493" 
d="M26 0v16l56 27l129 181l-128 185l-52 25v16h195v-16l-66 -24v-5l95 -138l86 134v5l-56 28v16h156v-16l-54 -29l-116 -160l144 -207h68v-161h-16l-57 123h-134v16l59 24v5l-108 156l-95 -152v-5l59 -28v-16h-165z" />
    <glyph glyph-name="uni04B6" unicode="&#x4b6;" horiz-adv-x="731" 
d="M108 500v109l-82 31v20h240v-20l-80 -31v-113q0 -94 40 -131.5t136 -37.5q36 0 74.5 5t70.5 19v258l-83 31v20h240v-20l-79 -31v-562h99v-206h-17l-64 159h-186v20l90 30v259q-34 -12 -76 -20.5t-95 -8.5q-68 0 -119 18t-80 65.5t-29 136.5z" />
    <glyph glyph-name="uni04B7" unicode="&#x4b7;" horiz-adv-x="534" 
d="M85 333v76l-58 25v16h190v-16l-65 -25v-75q0 -60 26 -85t83 -25q50 0 92 14v171l-64 25v16h195v-16l-63 -25v-371h71v-161h-16l-58 123h-136v16l71 25v169q-30 -10 -57.5 -13.5t-52.5 -3.5q-87 0 -122.5 33.5t-35.5 106.5z" />
    <glyph glyph-name="uni04BA" unicode="&#x4ba;" horiz-adv-x="729" 
d="M620 160v-109l82 -31v-20h-239v20l80 31v113q0 94 -40.5 131.5t-136.5 37.5q-35 0 -73.5 -5.5t-70.5 -18.5v-258l82 -31v-20h-239v20l79 31v559l-79 30v20h246v-20l-89 -30v-258q34 11 75.5 19.5t91.5 8.5q70 0 122 -18.5t80.5 -66.5t28.5 -135z" />
    <glyph glyph-name="uni04BB" unicode="&#x4bb;" horiz-adv-x="574" 
d="M52 0v16l63 25v622l-65 39v10l125 38h8v-363h3q38 38 72.5 55.5t76.5 17.5q60 0 99 -31.5t39 -93.5v-294l63 -25v-16h-202v16l71 24v256q0 51 -29.5 77.5t-77.5 26.5q-28 0 -61.5 -11t-53.5 -33v-316l71 -24v-16h-202z" />
    <glyph glyph-name="uni04C0" unicode="&#x4c0;" horiz-adv-x="376" 
d="M70 0v20l79 30v560l-79 30v20h236v-20l-79 -30v-560l79 -30v-20h-236z" />
    <glyph glyph-name="uni04CF" unicode="&#x4cf;" horiz-adv-x="290" 
d="M111 699l-63 25v16h194v-16l-63 -25v-658l63 -25v-16h-194v16l63 25v658z" />
    <glyph glyph-name="uni04D8" unicode="&#x4d8;" horiz-adv-x="693" 
d="M324 -10q-115 0 -183 79.5t-70 223.5l6 6h465v22q0 128 -61.5 203.5t-187.5 75.5q-67 0 -120.5 -22.5t-97.5 -56.5h-5v14q34 58 97.5 96.5t148.5 38.5q98 0 166.5 -40.5t104.5 -112t36 -164.5q0 -78 -22.5 -144t-63.5 -115t-95 -76.5t-118 -27.5zM336 35q82 0 135.5 57
t66.5 164h-390q11 -98 58 -159.5t130 -61.5z" />
    <glyph glyph-name="uni04D9" unicode="&#x4d9;" horiz-adv-x="483" 
d="M223 -10q-79 0 -124 54t-48 152l4 5h311v7q0 53 -18.5 96t-57 69t-101.5 26q-72 0 -136 -45h-3v11q23 40 67.5 67.5t102.5 27.5q68 0 115.5 -28t72.5 -77.5t25 -113.5q0 -72 -29.5 -128.5t-77 -89.5t-103.5 -33zM237 25q49 0 83 36.5t43 102.5h-245q11 -69 40 -104
t79 -35z" />
    <glyph glyph-name="uni04E2" unicode="&#x4e2;" horiz-adv-x="809" 
d="M65 0v20l79 30v560l-79 30v20h239v-20l-82 -30v-458l365 416v42l-82 30v20h239v-20l-79 -30v-560l79 -30v-20h-239v20l82 30v454l-365 -416v-38l82 -30v-20h-239zM274 766v44h262v-44h-262z" />
    <glyph glyph-name="uni04E3" unicode="&#x4e3;" horiz-adv-x="598" 
d="M115 409l-63 25v16h197v-16l-66 -25v-281l232 246v35l-66 25v16h197v-16l-63 -25v-368l63 -25v-16h-197v16l66 25v283l-232 -247v-36l66 -25v-16h-197v16l63 25v368zM168 590v44h262v-44h-262z" />
    <glyph glyph-name="uni04E8" unicode="&#x4e8;" horiz-adv-x="791" 
d="M395 -10q-70 0 -129.5 25.5t-103 71t-68 108t-24.5 135.5q0 74 24.5 136t68 107.5t103 71t129.5 25.5t129.5 -25.5t103.5 -71t68.5 -107.5t24.5 -136q0 -73 -24.5 -135.5t-68.5 -108t-103.5 -71t-129.5 -25.5zM378 629q-66 0 -117 -32.5t-79.5 -92t-28.5 -141.5h481
q-11 82 -47.5 141.5t-90.5 92t-118 32.5zM416 32q66 0 116 33t78 93t28 141v20h-483q7 -87 43.5 -151.5t93 -100t124.5 -35.5z" />
    <glyph glyph-name="uni04E9" unicode="&#x4e9;" horiz-adv-x="528" 
d="M264 -10q-64 0 -112 31t-75 84t-27 120t27 120t75 84t112 31t112 -31t75 -84t27 -120t-27 -120t-75 -84t-112 -31zM252 426q-43 0 -71.5 -25t-42.5 -65.5t-14 -87.5h278q-6 49 -24 89.5t-49.5 64.5t-76.5 24zM278 25q43 0 71 26t41.5 67t13.5 87v5h-279q5 -50 23.5 -92.5
t51 -67.5t78.5 -25z" />
    <glyph glyph-name="uni04EE" unicode="&#x4ee;" horiz-adv-x="693" 
d="M389 164q-35 -71 -62 -108.5t-51 -51.5t-50 -14q-31 0 -41 10.5t-10 35.5v37h90q36 27 66 83l-228 456l-68 28v20h235v-20l-85 -27v-4l183 -368h7l179 370v4l-84 25v20h200v-20l-57 -22zM235 766v44h262v-44h-262z" />
    <glyph glyph-name="uni04EF" unicode="&#x4ef;" horiz-adv-x="457" 
d="M-23 450h220v-16l-80 -25v-4l133 -312h3l116 308v5l-77 28v16h188v-16l-70 -27l-216 -531q-26 -65 -54.5 -90.5t-69.5 -25.5q-23 0 -30 6.5t-7 30.5v34h94q16 21 31 50t41 88l18 40l-175 399l-65 26v16zM115 595v44h262v-44h-262z" />
    <glyph glyph-name="Ccedillaacute" unicode="&#x1e08;" horiz-adv-x="721" 
d="M389 710l84 152h86v-14l-156 -138h-14zM396 -240q-51 0 -77 27v12h3q28 -14 63 -14q31 0 44 12.5t13 31.5q0 26 -25 41.5t-83 32.5l45 87q-93 4 -162.5 47t-108 114t-38.5 161q0 73 27 137.5t74.5 114.5t109.5 78t132 28q49 0 83.5 -6.5t62 -17.5t54.5 -24l5 -167h-19
l-52 119q-38 27 -69.5 40.5t-69.5 13.5q-75 0 -134 -37t-93 -101t-34 -144q0 -96 34 -166.5t92 -108.5t129 -38q51 0 86.5 13.5t63.5 32.5l59 115h18l-10 -155q-28 -14 -57.5 -25t-66 -17t-87.5 -7l-25 -49q52 -16 79.5 -37.5t27.5 -60.5q0 -36 -24.5 -59.5t-69.5 -23.5z
" />
    <glyph glyph-name="ccedillaacute" unicode="&#x1e09;" horiz-adv-x="476" 
d="M261 530l86 177h87v-14l-161 -163h-12zM245 -215q31 0 44.5 12.5t13.5 31.5q0 26 -25.5 41.5t-83.5 32.5l46 88q-90 7 -140 67t-50 152q0 72 31.5 128.5t86 89t124.5 32.5q40 0 71.5 -12.5t49.5 -30t18 -32.5q0 -12 -17 -26l-30 -24l-70 89q-13 3 -28 3q-48 0 -86 -24
t-60.5 -67t-22.5 -100q0 -86 46.5 -135.5t128.5 -49.5q72 0 136 45h3v-11q-22 -39 -64 -66t-98 -29l-26 -49q53 -16 80.5 -37.5t27.5 -60.5q0 -36 -24.5 -59.5t-69.5 -23.5q-52 0 -77 27v12h3q28 -14 62 -14z" />
    <glyph glyph-name="Ddotbelow" unicode="&#x1e0c;" horiz-adv-x="750" 
d="M65 0v20l80 30v560l-80 30v20h268q111 0 188.5 -39t118 -107t40.5 -154q0 -107 -45 -188t-124.5 -126.5t-184.5 -45.5h-261zM323 613h-100v-566h111q81 0 140 35t91.5 98.5t32.5 148.5q0 86 -32 150t-93.5 99t-149.5 35zM374 -203q-21 0 -36 15t-15 36t15 36t36 15
t36 -15t15 -36t-15 -36t-36 -15z" />
    <glyph glyph-name="ddotbelow" unicode="&#x1e0d;" horiz-adv-x="553" 
d="M219 -10q-50 0 -89 25t-61.5 71.5t-22.5 111.5q0 83 32.5 142t86.5 89.5t119 30.5q26 0 48 -4t41 -11v218l-68 39v10l128 38h8v-710l71 -24v-16h-129l-8 51h-6q-37 -31 -72.5 -46t-77.5 -15zM112 218q0 -60 21 -98.5t55.5 -56.5t74.5 -18q28 0 56.5 9t53.5 29v298
q-27 19 -53 29t-58 10q-40 0 -74.5 -20t-55 -64.5t-20.5 -117.5zM261 -203q-21 0 -36 15t-15 36t15 36t36 15t36 -15t15 -36t-15 -36t-36 -15z" />
    <glyph glyph-name="Dlinebelow" unicode="&#x1e0e;" horiz-adv-x="750" 
d="M65 0v20l80 30v560l-80 30v20h268q111 0 188.5 -39t118 -107t40.5 -154q0 -107 -45 -188t-124.5 -126.5t-184.5 -45.5h-261zM323 613h-100v-566h111q81 0 140 35t91.5 98.5t32.5 148.5q0 86 -32 150t-93.5 99t-149.5 35zM243 -171v44h262v-44h-262z" />
    <glyph glyph-name="dlinebelow" unicode="&#x1e0f;" horiz-adv-x="553" 
d="M219 -10q-50 0 -89 25t-61.5 71.5t-22.5 111.5q0 83 32.5 142t86.5 89.5t119 30.5q26 0 48 -4t41 -11v218l-68 39v10l128 38h8v-710l71 -24v-16h-129l-8 51h-6q-37 -31 -72.5 -46t-77.5 -15zM112 218q0 -60 21 -98.5t55.5 -56.5t74.5 -18q28 0 56.5 9t53.5 29v298
q-27 19 -53 29t-58 10q-40 0 -74.5 -20t-55 -64.5t-20.5 -117.5zM130 -171v44h262v-44h-262z" />
    <glyph glyph-name="Emacrongrave" unicode="&#x1e14;" horiz-adv-x="635" 
d="M65 0v20l79 30v560l-79 30v20h472v-168h-17l-54 121h-244v-249h175l40 83h17v-211h-17l-40 81h-175v-270h272l54 131h17v-178h-500zM338 862h-14l-156 138v14h86zM201 766v44h262v-44h-262z" />
    <glyph glyph-name="emacrongrave" unicode="&#x1e15;" horiz-adv-x="483" 
d="M262 -10q-67 0 -114.5 28t-72.5 77.5t-25 114.5q0 71 29 127.5t77 89.5t104 33q79 0 124 -54t48 -152l-4 -4h-311v-8q0 -52 18 -95.5t57 -69.5t101 -26q72 0 136 45h3v-11q-23 -40 -67 -67.5t-103 -27.5zM245 425q-48 0 -82 -36.5t-43 -102.5h245q-11 70 -40 104.5
t-80 34.5zM264 710h-14l-156 138v14h86zM127 595v44h262v-44h-262z" />
    <glyph glyph-name="Emacronacute" unicode="&#x1e16;" horiz-adv-x="635" 
d="M65 0v20l79 30v560l-79 30v20h472v-168h-17l-54 121h-244v-249h175l40 83h17v-211h-17l-40 81h-175v-270h272l54 131h17v-178h-500zM325 862l84 152h86v-14l-156 -138h-14zM201 766v44h262v-44h-262z" />
    <glyph glyph-name="emacronacute" unicode="&#x1e17;" horiz-adv-x="483" 
d="M262 -10q-67 0 -114.5 28t-72.5 77.5t-25 114.5q0 71 29 127.5t77 89.5t104 33q79 0 124 -54t48 -152l-4 -4h-311v-8q0 -52 18 -95.5t57 -69.5t101 -26q72 0 136 45h3v-11q-23 -40 -67 -67.5t-103 -27.5zM245 425q-48 0 -82 -36.5t-43 -102.5h245q-11 70 -40 104.5
t-80 34.5zM251 710l84 152h86v-14l-156 -138h-14zM127 595v44h262v-44h-262z" />
    <glyph glyph-name="Ecedillabreve" unicode="&#x1e1c;" horiz-adv-x="635" 
d="M332 710q-62 0 -93 39.5t-49 112.5h12q17 -40 35.5 -60t41 -27.5t53.5 -7.5t53.5 7.5t41 27.5t35.5 60h12q-19 -73 -49.5 -112.5t-92.5 -39.5zM65 0v20l79 30v560l-79 30v20h472v-168h-17l-54 121h-244v-249h175l40 83h17v-211h-17l-40 81h-175v-270h272l54 131h17v-178
h-208l-31 -59q53 -16 80.5 -37.5t27.5 -60.5q0 -36 -24.5 -59.5t-69.5 -23.5q-52 0 -77 27v12h3q28 -14 62 -14q31 0 44.5 12.5t13.5 31.5q0 26 -25.5 41.5t-83.5 32.5l51 97h-263z" />
    <glyph glyph-name="ecedillabreve" unicode="&#x1e1d;" horiz-adv-x="483" 
d="M258 540q-62 0 -92 41.5t-50 125.5h12q19 -48 38.5 -71.5t41.5 -31t50 -7.5t50 7.5t41 31t39 71.5h12q-20 -84 -50 -125.5t-92 -41.5zM264 -240q-52 0 -77 27v12h3q28 -14 63 -14q30 0 43.5 12.5t13.5 31.5q0 26 -25.5 41.5t-82.5 32.5l45 87q-94 5 -145.5 65.5
t-51.5 154.5q0 71 29 127.5t77 89.5t104 33q79 0 124 -54t48 -152l-4 -4h-311v-8q0 -52 18 -95.5t57 -69.5t101 -26q72 0 136 45h3v-11q-21 -38 -61.5 -64.5t-94.5 -30.5l-25 -49q52 -16 79.5 -37.5t27.5 -60.5q0 -36 -24.5 -59.5t-69.5 -23.5zM245 425q-48 0 -82 -36.5
t-43 -102.5h245q-11 70 -40 104.5t-80 34.5z" />
    <glyph glyph-name="Gmacron" unicode="&#x1e20;" horiz-adv-x="759" 
d="M403 -10q-96 0 -171 42t-118.5 114.5t-43.5 165.5q0 77 27.5 142t75.5 113.5t112 75.5t136 27q53 0 90 -6.5t66 -17t57 -24.5l5 -161h-18l-55 113q-42 29 -74.5 41.5t-74.5 12.5q-80 0 -141.5 -36.5t-96 -97.5t-34.5 -136q0 -100 38 -171t101 -109t140 -38q35 0 67.5 4.5
t67.5 18.5v176l-88 31v20h238v-20l-72 -32v-168q-44 -37 -108.5 -58.5t-125.5 -21.5zM275 766v44h262v-44h-262z" />
    <glyph glyph-name="gmacron" unicode="&#x1e21;" horiz-adv-x="530" 
d="M246 165q-25 0 -48 6q-35 -20 -46 -36.5t-11 -31.5q0 -23 15 -36.5t53 -13.5h134q67 0 100 -32t33 -92q0 -42 -26 -80.5t-75.5 -63.5t-118.5 -25q-86 0 -128 41.5t-42 100.5q0 22 8 43l67 51v2q-37 7 -55.5 29.5t-18.5 53.5q0 21 9 46l75 54q-38 18 -61.5 52.5
t-23.5 78.5q0 42 21.5 75.5t57.5 53t81 19.5q20 0 43 -5t40 -13l144 8v-49l-100 7l-2 -2q16 -18 25.5 -42.5t9.5 -51.5q0 -42 -21.5 -75.5t-57.5 -52.5t-81 -19zM256 197q38 0 61 31.5t23 81.5q0 56 -29 87.5t-71 31.5t-65 -32t-23 -82q0 -56 29 -87t75 -31zM145 -83
q0 -56 35.5 -92.5t92.5 -36.5q67 0 105.5 35t38.5 85q0 42 -20.5 64t-87.5 22h-109q-29 -10 -42 -31t-13 -46zM121 595v44h262v-44h-262z" />
    <glyph glyph-name="Hdotbelow" unicode="&#x1e24;" horiz-adv-x="799" 
d="M65 0v20l79 30v560l-79 30v20h239v-20l-82 -30v-246h355v246l-82 30v20h239v-20l-79 -30v-560l79 -30v-20h-239v20l82 30v267h-355v-267l82 -30v-20h-239zM400 -203q-21 0 -36 15t-15 36t15 36t36 15t36 -15t15 -36t-15 -36t-36 -15z" />
    <glyph glyph-name="hdotbelow" unicode="&#x1e25;" horiz-adv-x="574" 
d="M52 0v16l63 25v622l-65 39v10l125 38h8v-363h3q38 38 72.5 55.5t76.5 17.5q60 0 99 -31.5t39 -93.5v-294l63 -25v-16h-202v16l71 24v256q0 51 -29.5 77.5t-77.5 26.5q-28 0 -61.5 -11t-53.5 -33v-316l71 -24v-16h-202zM294 -203q-21 0 -36 15t-15 36t15 36t36 15t36 -15
t15 -36t-15 -36t-36 -15z" />
    <glyph glyph-name="Hbrevebelow" unicode="&#x1e2a;" horiz-adv-x="799" 
d="M65 0v20l79 30v560l-79 30v20h239v-20l-82 -30v-246h355v246l-82 30v20h239v-20l-79 -30v-560l79 -30v-20h-239v20l82 30v267h-355v-267l82 -30v-20h-239zM400 -240q-62 0 -92 41.5t-50 125.5h12q19 -48 38.5 -71.5t41.5 -31t50 -7.5t50 7.5t41 31t39 71.5h12
q-20 -84 -50 -125.5t-92 -41.5z" />
    <glyph glyph-name="hbrevebelow" unicode="&#x1e2b;" horiz-adv-x="574" 
d="M52 0v16l63 25v622l-65 39v10l125 38h8v-363h3q38 38 72.5 55.5t76.5 17.5q60 0 99 -31.5t39 -93.5v-294l63 -25v-16h-202v16l71 24v256q0 51 -29.5 77.5t-77.5 26.5q-28 0 -61.5 -11t-53.5 -33v-316l71 -24v-16h-202zM294 -240q-62 0 -92 41.5t-50 125.5h12
q19 -48 38.5 -71.5t41.5 -31t50 -7.5t50 7.5t41 31t39 71.5h12q-20 -84 -50 -125.5t-92 -41.5z" />
    <glyph glyph-name="Idieresisacute" unicode="&#x1e2e;" horiz-adv-x="376" 
d="M70 0v20l79 30v560l-79 30v20h236v-20l-79 -30v-560l79 -30v-20h-236zM181 879l84 152h86v-14l-156 -138h-14zM95 740q-19 0 -32.5 13.5t-13.5 32.5t13.5 32.5t32.5 13.5q20 0 33 -13.5t13 -32.5t-13 -32.5t-33 -13.5zM281 740q-20 0 -33 13.5t-13 32.5t13 32.5t33 13.5
q19 0 32.5 -13.5t13.5 -32.5t-13.5 -32.5t-32.5 -13.5z" />
    <glyph glyph-name="idieresisacute" unicode="&#x1e2f;" horiz-adv-x="308" 
d="M58 0v16l63 25v332l-65 39v10l125 38h8v-419l66 -25v-16h-197zM148 710l84 152h86v-14l-156 -138h-14zM62 571q-19 0 -32.5 13.5t-13.5 32.5t13.5 32.5t32.5 13.5q20 0 33 -13.5t13 -32.5t-13 -32.5t-33 -13.5zM248 571q-20 0 -33 13.5t-13 32.5t13 32.5t33 13.5
q19 0 32.5 -13.5t13.5 -32.5t-13.5 -32.5t-32.5 -13.5z" />
    <glyph glyph-name="Ldotbelow" unicode="&#x1e36;" horiz-adv-x="623" 
d="M65 0v20l79 30v560l-79 30v20h247v-20l-90 -30v-563h254l60 171h17v-218h-488zM339 -203q-21 0 -36 15t-15 36t15 36t36 15t36 -15t15 -36t-15 -36t-36 -15z" />
    <glyph glyph-name="ldotbelow" unicode="&#x1e37;" horiz-adv-x="289" 
d="M48 0v16l63 25v622l-65 39v10l125 38h8v-709l66 -25v-16h-197zM145 -203q-21 0 -36 15t-15 36t15 36t36 15t36 -15t15 -36t-15 -36t-36 -15z" />
    <glyph glyph-name="Llinebelow" unicode="&#x1e3a;" horiz-adv-x="623" 
d="M65 0v20l79 30v560l-79 30v20h247v-20l-90 -30v-563h254l60 171h17v-218h-488zM208 -171v44h262v-44h-262z" />
    <glyph glyph-name="llinebelow" unicode="&#x1e3b;" horiz-adv-x="289" 
d="M48 0v16l63 25v622l-65 39v10l125 38h8v-709l66 -25v-16h-197zM14 -171v44h262v-44h-262z" />
    <glyph glyph-name="Mdotbelow" unicode="&#x1e42;" horiz-adv-x="949" 
d="M60 0v20l79 30l21 558l-86 32v20h173l235 -547l238 547h166v-20l-84 -32l17 -558l70 -30v-20h-220v20l74 29l-11 517l-248 -571h-35l-243 568l-12 -514l81 -29v-20h-215zM467 -203q-21 0 -36 15t-15 36t15 36t36 15t36 -15t15 -36t-15 -36t-36 -15z" />
    <glyph glyph-name="mdotbelow" unicode="&#x1e43;" horiz-adv-x="835" 
d="M50 0v16l63 25v332l-66 34v11l118 42h7l8 -73h4q36 37 68.5 55t72.5 18q46 0 79 -20.5t46 -59.5h2q40 41 74.5 60.5t76.5 19.5q58 0 95.5 -31.5t37.5 -93.5v-294l63 -25v-16h-202v16l71 25v255q0 51 -28.5 77.5t-72.5 26.5q-31 0 -61.5 -11.5t-50.5 -32.5q1 -10 1 -21
v-294l67 -25v-16h-203v16l69 25v255q0 51 -28 77.5t-72 26.5q-27 0 -58 -11t-51 -33v-315l68 -25v-16h-198zM422 -203q-21 0 -36 15t-15 36t15 36t36 15t36 -15t15 -36t-15 -36t-36 -15z" />
    <glyph glyph-name="Ndotaccent" unicode="&#x1e44;" horiz-adv-x="793" 
d="M62 0v20l79 30v559l-78 31v20h140l392 -508v459l-94 29v20h230v-20l-79 -30v-615h-31l-422 545v-489l96 -31v-20h-233zM403 737q-21 0 -36 14.5t-15 36.5q0 21 15 36t36 15t36 -15t15 -36q0 -22 -15 -36.5t-36 -14.5z" />
    <glyph glyph-name="ndotaccent" unicode="&#x1e45;" horiz-adv-x="574" 
d="M52 0v16l63 25v332l-65 34v11l117 42h8l7 -73h4q38 38 72.5 55.5t76.5 17.5q60 0 99 -31.5t39 -93.5v-294l63 -25v-16h-202v16l71 25v255q0 51 -29.5 77.5t-77.5 26.5q-28 0 -61.5 -11t-53.5 -33v-315l71 -25v-16h-202zM294 567q-21 0 -36 15t-15 36t15 36t36 15t36 -15
t15 -36t-15 -36t-36 -15z" />
    <glyph glyph-name="Ndotbelow" unicode="&#x1e46;" horiz-adv-x="793" 
d="M62 0v20l79 30v559l-78 31v20h140l392 -508v459l-94 29v20h230v-20l-79 -30v-615h-31l-422 545v-489l96 -31v-20h-233zM409 -203q-21 0 -36 15t-15 36t15 36t36 15t36 -15t15 -36t-15 -36t-36 -15z" />
    <glyph glyph-name="ndotbelow" unicode="&#x1e47;" horiz-adv-x="574" 
d="M52 0v16l63 25v332l-65 34v11l117 42h8l7 -73h4q38 38 72.5 55.5t76.5 17.5q60 0 99 -31.5t39 -93.5v-294l63 -25v-16h-202v16l71 25v255q0 51 -29.5 77.5t-77.5 26.5q-28 0 -61.5 -11t-53.5 -33v-315l71 -25v-16h-202zM294 -203q-21 0 -36 15t-15 36t15 36t36 15t36 -15
t15 -36t-15 -36t-36 -15z" />
    <glyph glyph-name="Nlinebelow" unicode="&#x1e48;" horiz-adv-x="793" 
d="M62 0v20l79 30v559l-78 31v20h140l392 -508v459l-94 29v20h230v-20l-79 -30v-615h-31l-422 545v-489l96 -31v-20h-233zM278 -171v44h262v-44h-262z" />
    <glyph glyph-name="nlinebelow" unicode="&#x1e49;" horiz-adv-x="574" 
d="M52 0v16l63 25v332l-65 34v11l117 42h8l7 -73h4q38 38 72.5 55.5t76.5 17.5q60 0 99 -31.5t39 -93.5v-294l63 -25v-16h-202v16l71 25v255q0 51 -29.5 77.5t-77.5 26.5q-28 0 -61.5 -11t-53.5 -33v-315l71 -25v-16h-202zM163 -171v44h262v-44h-262z" />
    <glyph glyph-name="Otildeacute" unicode="&#x1e4c;" horiz-adv-x="791" 
d="M395 -10q-70 0 -129.5 25.5t-103 71t-68 108t-24.5 135.5q0 74 24.5 136t68 107.5t103 71t129.5 25.5t129.5 -25.5t103.5 -71t68.5 -107.5t24.5 -136q0 -73 -24.5 -135.5t-68.5 -108t-103.5 -71t-129.5 -25.5zM416 32q66 0 116 33t78 93t28 141q0 100 -35 174t-94 115
t-131 41q-66 0 -117 -32.5t-79.5 -92.5t-28.5 -141q0 -100 35 -174.5t95 -115.5t133 -41zM381 862l84 152h86v-14l-156 -138h-14zM241 728q15 48 29 72.5t28.5 33t32.5 8.5q26 0 47 -15.5t41 -31t41 -15.5q19 0 33.5 13.5t28.5 48.5h13q-15 -49 -29 -73.5t-28.5 -32.5
t-32.5 -8q-26 0 -47 15.5t-41 30.5t-41 15q-19 0 -33.5 -13t-28.5 -48h-13z" />
    <glyph glyph-name="otildeacute" unicode="&#x1e4d;" horiz-adv-x="528" 
d="M264 -10q-64 0 -112 31t-75 84t-27 120t27 120t75 84t112 31t112 -31t75 -84t27 -120t-27 -120t-75 -84t-112 -31zM278 25q43 0 71 26t41.5 67t13.5 87q0 58 -16.5 108.5t-50 81.5t-85.5 31q-43 0 -71.5 -25t-42.5 -66t-14 -89q0 -58 17 -108.5t51 -81.5t86 -31zM255 710
l84 152h86v-14l-156 -138h-14zM115 556q16 52 30 79t28 36t32 9q19 0 36 -11t32 -25.5t30 -25.5t31 -11q19 0 32.5 16.5t29.5 56.5h13q-16 -52 -30 -79t-28 -36t-32 -9q-19 0 -36 11t-32 25.5t-30 25.5t-31 11q-19 0 -32.5 -16.5t-29.5 -56.5h-13z" />
    <glyph glyph-name="Otildedieresis" unicode="&#x1e4e;" horiz-adv-x="791" 
d="M395 -10q-70 0 -129.5 25.5t-103 71t-68 108t-24.5 135.5q0 74 24.5 136t68 107.5t103 71t129.5 25.5t129.5 -25.5t103.5 -71t68.5 -107.5t24.5 -136q0 -73 -24.5 -135.5t-68.5 -108t-103.5 -71t-129.5 -25.5zM416 32q66 0 116 33t78 93t28 141q0 100 -35 174t-94 115
t-131 41q-66 0 -117 -32.5t-79.5 -92.5t-28.5 -141q0 -100 35 -174.5t95 -115.5t133 -41zM295 906q-19 0 -32.5 13t-13.5 32q0 20 13.5 33t32.5 13q20 0 33 -13t13 -33q0 -19 -13 -32t-33 -13zM481 906q-20 0 -33 13t-13 32q0 20 13 33t33 13q19 0 32.5 -13t13.5 -33
q0 -19 -13.5 -32t-32.5 -13zM241 728q15 48 29 72.5t28.5 33t32.5 8.5q26 0 47 -15.5t41 -31t41 -15.5q19 0 33.5 13.5t28.5 48.5h13q-15 -49 -29 -73.5t-28.5 -32.5t-32.5 -8q-26 0 -47 15.5t-41 30.5t-41 15q-19 0 -33.5 -13t-28.5 -48h-13z" />
    <glyph glyph-name="otildedieresis" unicode="&#x1e4f;" horiz-adv-x="528" 
d="M264 -10q-64 0 -112 31t-75 84t-27 120t27 120t75 84t112 31t112 -31t75 -84t27 -120t-27 -120t-75 -84t-112 -31zM278 25q43 0 71 26t41.5 67t13.5 87q0 58 -16.5 108.5t-50 81.5t-85.5 31q-43 0 -71.5 -25t-42.5 -66t-14 -89q0 -58 17 -108.5t51 -81.5t86 -31zM169 741
q-19 0 -32.5 13t-13.5 32q0 20 13.5 33t32.5 13q20 0 33 -13t13 -33q0 -19 -13 -32t-33 -13zM355 741q-20 0 -33 13t-13 32q0 20 13 33t33 13q19 0 32.5 -13t13.5 -33q0 -19 -13.5 -32t-32.5 -13zM115 556q16 52 30 79t28 36t32 9q19 0 36 -11t32 -25.5t30 -25.5t31 -11
q19 0 32.5 16.5t29.5 56.5h13q-16 -52 -30 -79t-28 -36t-32 -9q-19 0 -36 11t-32 25.5t-30 25.5t-31 11q-19 0 -32.5 -16.5t-29.5 -56.5h-13z" />
    <glyph glyph-name="Omacrongrave" unicode="&#x1e50;" horiz-adv-x="791" 
d="M395 -10q-70 0 -129.5 25.5t-103 71t-68 108t-24.5 135.5q0 74 24.5 136t68 107.5t103 71t129.5 25.5t129.5 -25.5t103.5 -71t68.5 -107.5t24.5 -136q0 -73 -24.5 -135.5t-68.5 -108t-103.5 -71t-129.5 -25.5zM416 32q66 0 116 33t78 93t28 141q0 100 -35 174t-94 115
t-131 41q-66 0 -117 -32.5t-79.5 -92.5t-28.5 -141q0 -100 35 -174.5t95 -115.5t133 -41zM394 862h-14l-156 138v14h86zM257 766v44h262v-44h-262z" />
    <glyph glyph-name="omacrongrave" unicode="&#x1e51;" horiz-adv-x="528" 
d="M264 -10q-64 0 -112 31t-75 84t-27 120t27 120t75 84t112 31t112 -31t75 -84t27 -120t-27 -120t-75 -84t-112 -31zM278 25q43 0 71 26t41.5 67t13.5 87q0 58 -16.5 108.5t-50 81.5t-85.5 31q-43 0 -71.5 -25t-42.5 -66t-14 -89q0 -58 17 -108.5t51 -81.5t86 -31zM268 710
h-14l-156 138v14h86zM131 595v44h262v-44h-262z" />
    </font>
</defs>
</svg>
